<?xml version="1.0" encoding="UTF-8"?>
<!-- Generator: visioncortex VTracer 0.6.5 -->
<svg version="1.1" xmlns="http://www.w3.org/2000/svg" width="769" height="769">
<path d="M0 0 C5.14 4.66 9.98 9.44 14.32 14.86 C14.71 15.34 14.71 15.34 16.65 17.75 C43.65 51.78 60.89 94.33 63.32 137.86 C64.17 138.03 65.02 138.19 65.89 138.36 C71.38 140.76 74.84 145.16 77.7 150.36 C79.08 155.87 79.4 161.45 79.56 167.1 C81.02 212.04 98.87 251.51 128.32 284.86 C128.77 285.38 129.22 285.89 129.69 286.42 C146.3 305.28 165.8 319.34 186.69 333.13 C210.42 348.81 232 366.67 238.93 395.69 C241.52 409.88 240.01 427.18 232.14 439.49 C226.29 446.89 218.61 451.31 209.32 452.86 C199.7 453.66 191.41 452.79 182.68 448.6 C173.46 444.4 165.45 444.38 155.49 444.72 C126.69 445.62 100.76 440.71 72.99 433.64 C55.21 429.15 37.32 425.61 19.26 422.43 C-16.17 416.07 -52.45 402.37 -80.56 379.32 C-83.65 376.83 -85.32 375.87 -89.33 375.78 C-89.97 375.9 -89.97 375.9 -93.18 376.49 C-94.6 376.72 -96.03 376.95 -97.46 377.18 C-98.18 377.3 -98.89 377.42 -99.62 377.54 C-149.14 385.36 -208.61 374.95 -254.16 354.84 C-256.66 353.87 -259.03 353.31 -261.68 352.86 C-261.83 353.44 -261.83 353.44 -262.61 356.36 C-268.94 375.08 -282.81 393.08 -297.68 405.86 C-298.34 405.86 -299 405.86 -299.68 405.86 C-299.68 406.52 -299.68 407.18 -299.68 407.86 C-301 409.13 -301 409.13 -302.87 410.55 C-303.56 411.08 -304.25 411.61 -304.96 412.16 C-305.71 412.72 -306.46 413.28 -307.24 413.86 C-308 414.44 -308.76 415.01 -309.55 415.61 C-314.62 419.39 -319.72 423.13 -324.93 426.74 C-325.53 427.17 -326.14 427.61 -326.76 428.06 C-329.42 429.85 -331.24 430.85 -334.47 430.93 C-336.68 429.86 -336.68 429.86 -338.18 427.79 C-338.88 423.64 -337.34 420.78 -335.61 417.11 C-329.49 403.18 -325.73 388.93 -323.68 373.86 C-323.58 373.17 -323.48 372.47 -323.38 371.76 C-322.35 363.28 -322.57 354.76 -322.61 346.24 C-322.62 344.65 -322.62 343.05 -322.63 341.46 C-322.64 337.6 -322.65 333.73 -322.68 329.86 C-325.32 332.4 -327.56 334.93 -329.63 337.95 C-329.9 338.33 -329.9 338.33 -331.26 340.27 C-332.36 341.86 -333.46 343.45 -334.55 345.05 C-337.89 349.8 -341.36 353.65 -345.86 357.33 C-347.65 358.84 -349.22 360.45 -350.8 362.18 C-368.12 379.65 -392.84 389.59 -415.99 396.36 C-416.85 396.62 -417.72 396.87 -418.61 397.14 C-423.41 398.47 -427.65 399.25 -432.68 398.86 C-434.68 397.68 -434.68 397.68 -435.68 395.86 C-435.46 392.63 -434.98 391.19 -432.74 388.79 C-431.92 388.12 -431.09 387.44 -430.24 386.74 C-402.21 362.54 -386.81 326.31 -375.68 291.86 C-375.07 290.03 -374.46 288.19 -373.85 286.35 C-371.32 278.58 -369 270.95 -367.68 262.86 C-369.17 264.03 -370.66 265.2 -372.14 266.37 C-373.43 267.37 -374.71 268.38 -375.99 269.38 C-379.62 272.23 -383.19 275.11 -386.74 278.05 C-418.45 303.24 -461.44 315.19 -501.43 315.11 C-502.12 315.11 -502.81 315.11 -503.52 315.11 C-525.5 315.04 -525.5 315.04 -529.68 310.86 C-529.68 308.18 -529.68 308.18 -528.68 304.86 C-527.1 303.59 -527.1 303.59 -525.1 302.41 C-524.38 301.98 -523.66 301.55 -522.91 301.11 C-520.25 299.63 -517.56 298.24 -514.84 296.89 C-505.06 291.99 -496.4 285.95 -487.68 279.37 C-485.91 278.04 -484.12 276.72 -482.33 275.42 C-475.94 270.72 -469.87 265.73 -463.85 260.57 C-460.88 258.02 -457.85 255.56 -454.8 253.11 C-451.13 250.12 -447.72 247.04 -444.44 243.62 C-442.77 241.96 -441.05 240.45 -439.25 238.93 C-433.85 234.23 -428.83 229.16 -423.78 224.09 C-422.12 222.43 -420.45 220.77 -418.79 219.11 C-413.2 213.53 -407.8 207.87 -402.68 201.86 C-401.06 200.09 -399.43 198.32 -397.8 196.55 C-393.64 192 -389.71 187.3 -385.84 182.5 C-383.17 179.25 -380.36 176.13 -377.5 173.03 C-375.32 170.45 -373.51 167.7 -371.68 164.86 C-372.52 165.12 -373.37 165.37 -374.25 165.63 C-423.36 180.04 -472.15 175 -518.74 154.61 C-519.49 154.28 -520.25 153.96 -521.03 153.62 C-524.43 152.08 -527.29 150.77 -529.68 147.86 C-529.55 145.3 -529.55 145.3 -528.68 142.86 C-525.66 140.85 -524.23 140.45 -520.75 139.89 C-481.73 133.23 -446.82 118.69 -411.61 101.11 C-411.13 100.87 -411.13 100.87 -408.67 99.65 C-396.39 93.5 -384.42 87 -372.68 79.86 C-371.68 79.27 -370.69 78.67 -369.66 78.06 C-358.41 71.28 -347.47 64.18 -336.85 56.45 C-334.52 54.75 -332.17 53.07 -329.82 51.39 C-318.83 43.47 -308.06 35.58 -299.61 24.86 C-288.81 11.19 -275.77 -0.93 -261.68 -11.14 C-260.83 -11.76 -259.99 -12.39 -259.12 -13.03 C-181.58 -69.22 -73.35 -64.81 0 0 Z " fill="#0A0B08" transform="translate(529.67529296875,184.13623046875)"/>
<path d="M0 0 C0.75 0.68 1.5 1.35 2.27 2.05 C36.14 34.33 54.46 83.18 58 129 C54.53 130.64 51.05 132.26 47.56 133.88 C46.59 134.34 45.61 134.8 44.61 135.27 C34.48 139.95 25.49 142.79 14.5 139.18 C11.92 138.15 9.4 137.04 6.88 135.88 C5.97 135.47 5.06 135.07 4.13 134.66 C1.41 133.45 -1.29 132.23 -4 131 C-6.26 129.98 -8.52 128.97 -10.79 127.96 C-12.09 127.39 -13.38 126.8 -14.67 126.21 C-24.72 121.71 -33.81 120.9 -44.25 124.69 C-53.89 129 -58.09 135.25 -62 145 C-63.24 149.67 -63.17 154.31 -63.21 159.11 C-63.24 160.94 -63.27 162.76 -63.3 164.59 C-63.34 167.43 -63.37 170.28 -63.4 173.12 C-63.71 203.94 -71.22 227.89 -93 250 C-93.5 250.52 -94.01 251.04 -94.53 251.57 C-99.26 256.43 -104.01 261.24 -109.19 265.62 C-118.54 273.69 -128.1 284.2 -129.18 297.12 C-129.72 317.08 -129.72 317.08 -125 326 C-124.56 326.86 -124.13 327.71 -123.68 328.6 C-117.86 339.13 -109.44 345.36 -99.64 351.96 C-98.91 352.46 -98.19 352.95 -97.44 353.46 C-96.78 353.9 -96.11 354.34 -95.43 354.8 C-95.2 355 -95.2 355 -94 356 C-94 356.66 -94 357.32 -94 358 C-154.64 365.3 -226.46 355.64 -277 319 C-277.56 318.6 -278.11 318.2 -278.69 317.79 C-313.22 292.7 -334.74 256.91 -341.5 214.89 C-350.84 151.07 -333.6 84.79 -295.56 32.81 C-278.11 10.15 -258.11 -9.93 -233 -24 C-232.27 -24.41 -231.55 -24.83 -230.8 -25.26 C-210.53 -36.74 -188.9 -44.66 -166 -49 C-165.33 -49.13 -164.66 -49.26 -163.96 -49.39 C-105.06 -60.09 -43.75 -39.46 0 0 Z " fill="#6ABCE3" transform="translate(525,193)"/>
<path d="M0 0 C2.58 1.16 5.16 2.33 7.74 3.49 C9.45 4.27 11.16 5.05 12.86 5.84 C24.25 11.08 34.8 14.45 47.43 11.09 C52.96 9.03 58.1 6.44 63.31 3.69 C68.3 1.14 71.44 0.02 77 1 C80.49 3.12 82.64 5.14 84 9 C84.74 12.93 85.18 16.77 85.39 20.75 C86.26 35.11 87.68 49 91 63 C91.17 63.72 91.34 64.43 91.51 65.17 C102.29 109.46 133.25 149.02 169.06 176.31 C169.8 176.87 170.54 177.44 171.3 178.02 C178.33 183.33 185.61 188.2 193 193 C216.74 208.46 238.49 224.8 245 254 C245.7 267.7 245.55 280.16 236 291 C229.91 295.91 224.15 297.51 216.39 297.39 C208.93 296.53 201.99 293.63 195 291 C193.97 290.62 192.93 290.24 191.87 289.85 C165.96 280.26 142.24 268.07 118.72 253.65 C107.48 246.82 95.9 240.6 84 235 C83.31 234.67 82.61 234.34 81.9 234 C57.56 222.65 31.16 217.5 5.03 212.03 C-17.89 207.19 -38.89 199.94 -60.06 189.94 C-61.15 189.43 -62.23 188.92 -63.35 188.4 C-69.47 185.46 -75.18 182.72 -79.38 177.19 C-80.69 172.59 -80.71 168.55 -78.75 164.25 C-77 162 -77 162 -74.75 160 C-74.46 159.67 -74.46 159.67 -73 158 C-73.25 155.25 -73.25 155.25 -74 153 C-77.4 153.07 -80.03 153.21 -82.73 155.41 C-87.66 160.94 -89.5 166.32 -89.32 173.7 C-88.44 180.04 -84.86 184.99 -80 189 C-52.66 208.25 -17.82 215.84 14.27 222.52 C52.89 230.56 85.83 243.93 119.57 264.16 C134.03 272.83 148.87 280.59 164 288 C164 288.33 164 288.66 164 289 C139.08 289.91 115.66 284.67 91.71 278.34 C78.26 274.82 64.83 271.96 51.15 269.51 C4.29 261.1 -36.46 244.69 -74.29 215.31 C-76.78 213.4 -79.33 211.58 -81.88 209.75 C-94.74 200.4 -105.52 191.79 -110 176 C-111.32 163.34 -109.77 154.2 -101.61 144.02 C-95.96 137.5 -89.56 131.73 -83.2 125.92 C-62.18 106.74 -46.51 84.07 -44.87 54.7 C-44.61 47.63 -44.55 40.56 -44.47 33.48 C-44.43 30.78 -44.39 28.09 -44.34 25.39 C-44.34 24.58 -44.33 23.77 -44.33 22.94 C-44.19 14.75 -43.22 7.25 -37.89 0.8 C-26.03 -10.5 -13.19 -6 0 0 Z " fill="#F86A3E" transform="translate(514,330)"/>
<path d="M0 0 C2.56 1.98 5.02 4.05 7.45 6.18 C8.15 6.78 8.86 7.37 9.58 7.98 C20.83 18.24 27.98 34.32 28.86 49.45 C29.45 69.33 24.16 86.41 10.45 101.18 C-1.03 113.27 -16.88 120.13 -33.4 120.6 C-52.4 120.74 -69.26 115.25 -83.16 101.95 C-96.04 88.85 -101.85 71.9 -101.86 53.83 C-101.57 35.86 -94.85 20.56 -82.23 7.77 C-60.35 -13.34 -25.32 -18.06 0 0 Z " fill="#000000" transform="translate(409.546875,255.81640625)"/>
<path d="M0 0 C18.26 15.48 31.26 34.54 34.4 58.71 C34.61 61.96 34.69 65.2 34.71 68.46 C34.72 69.25 34.72 70.04 34.73 70.85 C34.66 76.46 34.66 76.46 32.4 78.71 C29.9 78.96 29.9 78.96 27.4 78.71 C26.74 78.05 26.08 77.39 25.4 76.71 C25.45 75.95 25.49 75.19 25.53 74.41 C25.26 68.75 19.43 64.39 15.4 60.71 C-4.16 44.22 -29.19 35.81 -54.6 34.71 C-55.57 34.66 -56.54 34.61 -57.54 34.55 C-91.74 33.59 -133.79 42.99 -162.08 63.09 C-162.91 63.63 -163.74 64.16 -164.6 64.71 C-167.47 63.96 -167.47 63.96 -169.6 62.71 C-169.97 56.92 -168.92 53.09 -166.54 47.96 C-166.22 47.26 -165.9 46.56 -165.57 45.84 C-152.43 17.55 -128.25 -2.92 -99.29 -13.54 C-66.8 -24.7 -27.5 -22.14 0 0 Z " fill="#000000" transform="translate(441.5986328125,199.287109375)"/>
<path d="M0 0 C0.33 0.66 0.66 1.32 1 2 C0.25 3.87 0.25 3.87 -0.99 6.16 C-1.45 7.03 -1.9 7.89 -2.37 8.78 C-2.62 9.25 -2.62 9.25 -3.88 11.62 C-16.58 36.38 -24 62.93 -30 90 C-81.14 105.12 -131.57 111.15 -182 89 C-179.23 87.15 -177.73 86.55 -174.59 85.81 C-173.7 85.59 -172.8 85.37 -171.88 85.15 C-171.4 85.03 -171.4 85.03 -168.94 84.44 C-146.74 78.82 -125.72 70.67 -105 61 C-104.42 60.73 -104.42 60.73 -101.47 59.35 C-22.25 22.25 -22.25 22.25 0 0 Z " fill="#B0D360" transform="translate(205,244)"/>
<path d="M0 0 C0.66 0.49 1.31 0.98 1.99 1.48 C3.02 2.21 4.05 2.93 5.11 3.67 C13.26 10.73 17.87 21.94 18.99 32.48 C20.01 46.76 15.16 58.4 6.24 69.23 C-2.55 78.7 -13.86 82.85 -26.54 83.54 C-36.88 83.37 -45.73 80.65 -54.01 74.48 C-54.79 73.91 -55.57 73.33 -56.38 72.74 C-66.39 64.63 -71.95 53.29 -73.32 40.59 C-73.89 27.15 -68.74 15.72 -60.36 5.46 C-44.31 -11.84 -18.78 -13.47 0 0 Z " fill="#000000" transform="translate(400.01171875,273.515625)"/>
<path d="M0 0 C0.33 0 0.66 0 1 0 C0.98 1.26 0.96 2.51 0.94 3.81 C0.24 49.58 0.24 49.58 4.63 69.78 C5.04 72.22 5.06 74.53 5 77 C4.49 76.85 4.49 76.85 1.91 76.08 C-2 76 -2 76 -3.68 77.13 C-5.43 78.91 -7.03 80.76 -8.62 82.69 C-9.85 84.08 -11.08 85.47 -12.32 86.86 C-12.93 87.56 -13.55 88.26 -14.18 88.98 C-22.35 98.03 -31.72 105.48 -42 112 C-42.61 112.39 -43.21 112.79 -43.84 113.19 C-71.44 130.96 -106.01 142.36 -139 142.06 C-139.97 142.06 -140.93 142.05 -141.93 142.05 C-144.28 142.04 -146.64 142.02 -149 142 C-144.29 138.02 -139.15 134.75 -134 131.38 C-125.71 125.9 -117.73 120.24 -110 114 C-109.06 113.25 -108.12 112.51 -107.16 111.74 C-101.52 107.2 -96.11 102.46 -90.8 97.55 C-88.6 95.55 -86.37 93.57 -84.12 91.62 C-73.68 82.51 -63.75 72.84 -53.94 63.06 C-53.15 62.28 -52.37 61.5 -51.56 60.7 C-47.42 56.55 -43.46 52.31 -39.63 47.87 C-37.59 45.53 -35.46 43.28 -33.32 41.03 C-26.91 34.28 -21.09 27.23 -15.43 19.85 C-12.31 15.81 -9.09 11.86 -5.88 7.89 C-3.81 5.31 -1.83 2.75 0 0 Z " fill="#B0D360" transform="translate(172,347)"/>
<path d="M0 0 C2.19 3.29 3.11 6.45 4.19 10.19 C9.63 28.18 17.98 45.41 29.9 60.02 C33 63.82 33 63.82 33 66 C32.24 66.75 31.47 67.5 30.68 68.27 C27.99 71.01 26.7 73.19 25.06 76.62 C8.12 108.93 -20.26 131.44 -54.41 143.36 C-57 144 -57 144 -59 143 C-58.43 142.31 -57.86 141.61 -57.27 140.89 C-25.33 100.84 -7.86 50.15 0 0 Z " fill="#B0D360" transform="translate(177,424)"/>
<path d="M0 0 C0.66 0.49 1.31 0.98 1.99 1.48 C3.02 2.21 4.05 2.93 5.11 3.67 C13.26 10.73 17.87 21.94 18.99 32.48 C20.01 46.76 15.16 58.4 6.24 69.23 C-2.55 78.7 -13.86 82.85 -26.54 83.54 C-36.88 83.37 -45.73 80.65 -54.01 74.48 C-54.79 73.91 -55.57 73.33 -56.38 72.74 C-66.39 64.63 -71.95 53.29 -73.32 40.59 C-73.89 27.15 -68.74 15.72 -60.36 5.46 C-44.31 -11.84 -18.78 -13.47 0 0 Z M-52.26 13.86 C-59.65 22.94 -60.87 31.99 -60.01 43.48 C-57.81 53.94 -51.56 61.33 -43.01 67.48 C-34.71 72.31 -26.34 73.42 -16.95 71.48 C-8.09 68.96 0 63.33 4.99 55.48 C10.13 44.8 11.95 34.29 8.02 22.82 C4.12 13.95 -3.95 6.55 -12.7 2.48 C-27.76 -2.23 -42.02 2.61 -52.26 13.86 Z " fill="#F6FAF1" transform="translate(400.01171875,273.515625)"/>
<path d="M0 0 C12.88 9.61 20.89 21.92 23.45 37.82 C24.68 54.77 20.35 69.81 9.38 83.01 C-0.73 93.65 -13.94 99.62 -28.57 100.29 C-43.94 100.53 -58.31 94.58 -69.49 84.09 C-79.15 73.52 -85.23 58.85 -84.8 44.43 C-83.18 27.32 -77.14 14.42 -64.55 2.82 C-58.43 -1.92 -52.09 -5.33 -44.55 -7.18 C-43.84 -7.36 -43.13 -7.54 -42.39 -7.73 C-27.3 -10.11 -12.99 -8.29 0 0 Z M-64.8 15.01 C-73.04 24.78 -77.13 35.94 -76.86 48.61 C-75.59 61.83 -69.28 73.6 -59.07 82.04 C-47.12 90.53 -34.97 93.23 -20.55 90.82 C-7.72 87.55 2.25 80.25 9.21 68.96 C15.68 56.86 16.98 45.04 13.42 31.85 C9.15 18.61 1.28 9.9 -11.06 3.53 C-30.1 -5.16 -50.56 0.12 -64.8 15.01 Z " fill="#000000" transform="translate(403.5546875,265.17578125)"/>
<path d="M0 0 C3.58 3 7.01 6 10.27 9.35 C13.8 12.89 17.54 15.92 21.56 18.88 C22.25 19.38 22.93 19.89 23.63 20.42 C30.22 25.26 37.05 29.7 44 34 C41.51 51.8 26.15 69.65 14 82 C13.11 82.94 12.22 83.87 11.3 84.84 C9 87 9 87 7 87 C7 87.66 7 88.32 7 89 C4.87 90.79 2.73 92.47 0.5 94.12 C-0.12 94.59 -0.74 95.06 -1.38 95.54 C-2.92 96.7 -4.46 97.85 -6 99 C-6.66 98.67 -7.32 98.34 -8 98 C-7.69 96.98 -7.37 95.96 -7.05 94.91 C2.33 63.54 2.21 32.38 0 0 Z " fill="#B0D360" transform="translate(216,496)"/>
<path d="M0 0 C13 10.02 21.15 23.58 23.42 39.87 C24.66 56.44 20 71.94 9.39 84.78 C-1.75 96.63 -16.57 103.78 -32.83 104.3 C-48.69 103.92 -62.84 98.17 -74.41 87.29 C-85.69 74.68 -91 59.95 -90.79 43.04 C-89.77 27.63 -82.02 13.55 -70.77 3.18 C-50.01 -14 -22.21 -15.31 0 0 Z M-74.58 10.87 C-82.59 20.47 -86.19 30.53 -87.58 42.87 C-87.66 43.59 -87.75 44.32 -87.84 45.07 C-88.63 58.96 -82.49 73.24 -73.77 83.68 C-64.06 93.99 -50.17 100.63 -36.03 101.2 C-20.1 101.51 -7.1 96.14 4.83 85.77 C14.91 75.37 20.44 60.67 20.8 46.37 C20.65 39.78 19.68 34.04 17.42 27.87 C17.14 27.09 16.87 26.31 16.58 25.51 C11.06 11.71 -0.09 1.95 -13.18 -4.39 C-35.21 -13.25 -58.75 -5.6 -74.58 10.87 Z " fill="#F86A3E" transform="translate(406.578125,264.1328125)"/>
<path d="M0 0 C11.11 0 21.09 7.95 29 15 C29.76 15.65 30.52 16.31 31.3 16.98 C41.24 26.13 49.37 39.41 51 53 C50.21 55.84 50.21 55.84 49 58 C47 58.88 47 58.88 45 59 C43 58 43 58 42.14 55.45 C41.85 54.35 41.55 53.25 41.25 52.12 C35.68 33.4 23.74 20.72 6.81 11.53 C3.89 9.98 0.95 8.48 -2 7 C-2.12 4.62 -2.12 4.62 -2 2 C-1.34 1.34 -0.68 0.68 0 0 Z " fill="#000000" transform="translate(527,420)"/>
<path d="M0 0 C2.96 2.4 4.07 4.27 5.31 7.88 C5.22 13.15 4.11 16.19 0.31 19.88 C-2.75 21.7 -4.6 21.88 -8.19 21.88 C-12.75 20.57 -14.15 18.83 -16.69 14.88 C-18.01 10.98 -17.77 9.16 -16.62 5.19 C-12.9 -1.19 -6.75 -2.82 0 0 Z " fill="#F7FAF3" transform="translate(395.6875,286.125)"/>
<path d="M0 0 C3.77 0.3 5.82 0.87 8.52 3.57 C5.05 7.13 1.55 10.59 -2.23 13.82 C-6.68 17.65 -10.77 21.82 -14.87 26.02 C-17.3 28.39 -19.79 30.5 -22.48 32.57 C-23.14 32.24 -23.8 31.91 -24.48 31.57 C-20.73 26.03 -16.95 20.51 -13.14 15.01 C-11.7 12.89 -10.31 10.76 -8.93 8.6 C-3.74 0.86 -3.74 0.86 0 0 Z " fill="#6ABCE3" transform="translate(392.48046875,188.4296875)"/>
<path d="M0 0 C0 4.06 -2.04 6.18 -4.38 9.31 C-5.3 10.56 -6.23 11.82 -7.15 13.07 C-7.39 13.39 -7.39 13.39 -8.59 15.02 C-9.97 16.96 -11.26 18.93 -12.54 20.93 C-19.39 31.51 -19.39 31.51 -25.44 33.44 C-28.63 34.09 -29.84 34.05 -33 33 C-26.24 24.52 -19.33 16.92 -11.13 9.84 C-8.74 7.77 -6.37 5.67 -4 3.56 C-3.24 2.88 -2.47 2.2 -1.69 1.5 C-1.41 1.26 -1.41 1.26 0 0 Z " fill="#6ABCE3" transform="translate(356,199)"/>
<path d="M0 0 C4.3 0.49 6.66 1.29 10 4 C-2.62 15.72 -2.62 15.72 -7.31 19.75 C-11.42 23.29 -15.21 27.12 -19 31 C-19.33 30.34 -19.66 29.68 -20 29 C-15.42 20.02 -9.15 11.94 -3 4 C-2 2.67 -1 1.34 0 0 Z " fill="#6ABCE3" transform="translate(408,193)"/>
<path d="M0 0 C-6.98 8.49 -14.78 16.23 -23.14 23.36 C-26.24 26.09 -29.12 29.04 -32 32 C-32 26.52 -28.03 22.38 -25 18 C-24.5 17.25 -23.99 16.5 -23.47 15.73 C-21.77 13.22 -20.02 10.77 -18.25 8.31 C-17.7 7.5 -17.16 6.68 -16.59 5.84 C-11.82 -0.59 -7.77 -1.06 0 0 Z " fill="#6ABCE3" transform="translate(381,189)"/>
<path d="M0 0 C3.69 0.5 5.6 1.1 8 4 C6.4 8.26 3.18 10.86 -0.12 13.81 C-0.71 14.34 -1.29 14.87 -1.89 15.41 C-6.21 19.33 -10.57 23.2 -15 27 C-16.32 26.34 -17.64 25.68 -19 25 C-18.6 24.49 -18.2 23.98 -17.79 23.46 C-15.97 21.12 -14.14 18.78 -12.31 16.44 C-11.69 15.64 -11.06 14.84 -10.42 14.01 C-6.83 9.42 -3.35 4.77 0 0 Z " fill="#6ABCE3" transform="translate(424,200)"/>
<path d="M0 0 C0 4.22 -2.25 6.71 -4.56 10.06 C-5.01 10.73 -5.47 11.39 -5.93 12.08 C-7.28 14.06 -8.64 16.03 -10 18 C-10.36 18.52 -10.36 18.52 -12.19 21.18 C-16.76 27.76 -16.76 27.76 -18 29 C-20.02 29.23 -22.04 29.41 -24.06 29.56 C-24.61 29.6 -24.61 29.6 -27.41 29.82 C-28.26 29.88 -29.12 29.94 -30 30 C-26.93 23.15 -20.56 18.56 -14.98 13.76 C-12.43 11.49 -10.06 9.08 -7.68 6.64 C-5.24 4.26 -2.65 2.13 0 0 Z " fill="#6ABCE3" transform="translate(378,197)"/>
<path d="M0 0 C0.66 0.33 1.32 0.66 2 1 C1.35 1.89 0.7 2.79 0.02 3.71 C-0.86 4.93 -1.74 6.15 -2.62 7.38 C-3.09 8.01 -3.55 8.64 -4.03 9.29 C-6.72 13.03 -8.91 16.72 -10.94 20.88 C-12.29 23.27 -12.29 23.27 -14 25 C-17.8 25.82 -21.18 25.61 -25 25 C-20.76 19.87 -16.28 15.3 -11.38 10.81 C-10.07 9.61 -8.77 8.41 -7.46 7.21 C-6.86 6.65 -6.26 6.1 -5.64 5.53 C-3.71 3.73 -1.84 1.88 0 0 Z " fill="#6ABCE3" transform="translate(397,199)"/>
<path d="M0 0 C0.66 0 1.32 0 2 0 C0.15 4.09 -2.48 7.45 -5.2 11 C-5.61 11.53 -6.02 12.07 -6.44 12.62 C-6.65 12.89 -6.65 12.89 -7.71 14.28 C-9.02 16.02 -10.26 17.79 -11.5 19.57 C-16.19 26.2 -19.61 30.51 -28 32 C-26.37 28.6 -24.52 25.83 -22 23 C-21.34 23 -20.68 23 -20 23 C-19.75 22.42 -19.5 21.85 -19.24 21.25 C-17.83 18.69 -16.21 17 -14.12 14.96 C-13.37 14.22 -12.61 13.47 -11.83 12.7 C-11.44 12.32 -11.44 12.32 -9.44 10.38 C-7.87 8.84 -6.31 7.31 -4.75 5.77 C-4.05 5.1 -3.36 4.42 -2.64 3.72 C-1 2 -1 2 0 0 Z " fill="#6ABCE3" transform="translate(329,209)"/>
<path d="M0 0 C0 3.54 -0.68 4.28 -2.75 7.06 C-3.33 7.85 -3.92 8.65 -4.52 9.46 C-5.15 10.3 -5.79 11.14 -6.44 12 C-6.76 12.43 -6.76 12.43 -8.37 14.58 C-20.32 30.52 -20.32 30.52 -26 36 C-26.66 35.67 -27.32 35.34 -28 35 C-20.8 21.37 -11.06 10.63 0 0 Z " fill="#6ABCE3" transform="translate(314,211)"/>
<path d="M0 0 C0 3.44 -0.57 4.18 -2.52 6.91 C-2.78 7.28 -2.78 7.28 -4.12 9.16 C-4.68 9.93 -5.24 10.7 -5.81 11.5 C-6.36 12.27 -6.91 13.04 -7.47 13.84 C-12.35 20.66 -12.35 20.66 -15 23 C-17.73 23.39 -20.23 23.14 -23 23 C-21.61 19.83 -20.01 17.81 -17.48 15.47 C-16.79 14.82 -16.09 14.18 -15.38 13.51 C-14.66 12.85 -13.93 12.18 -13.19 11.5 C-12.48 10.84 -11.76 10.17 -11.03 9.49 C-7.46 6.18 -3.86 2.97 0 0 Z " fill="#6ABCE3" transform="translate(416,202)"/>
<path d="M0 0 C2.84 1.36 4.96 2.55 7 5 C7 5.66 7 6.32 7 7 C5.61 8.28 5.61 8.28 3.68 9.71 C2.98 10.24 2.28 10.76 1.56 11.29 C0.82 11.84 0.08 12.38 -0.69 12.94 C-1.41 13.48 -2.13 14.01 -2.87 14.57 C-6.48 17.24 -10.08 19.78 -14 22 C-12.33 16.74 -9.07 12.61 -5.88 8.19 C-5.31 7.4 -4.75 6.61 -4.17 5.8 C-2.78 3.86 -1.39 1.93 0 0 Z " fill="#6ABCE3" transform="translate(438,209)"/>
<path d="M0 0 C0 3 0 3 -1.29 4.54 C-1.89 5.09 -2.49 5.63 -3.11 6.19 C-3.78 6.8 -4.45 7.41 -5.13 8.04 C-5.85 8.69 -6.57 9.33 -7.31 10 C-8.78 11.34 -10.24 12.69 -11.71 14.04 C-12.43 14.7 -13.16 15.37 -13.91 16.06 C-18.4 20.24 -22.7 24.62 -27 29 C-27.66 28.67 -28.32 28.34 -29 28 C-28.32 27.21 -27.64 26.42 -26.95 25.61 C-26 24.51 -25.06 23.41 -24.12 22.31 C-23.63 21.73 -23.13 21.16 -22.62 20.56 C-20.07 17.55 -17.61 14.53 -15.32 11.31 C-8.24 1.4 -8.24 1.4 -3.38 0.19 C-2.26 0.13 -1.15 0.06 0 0 Z " fill="#6ABCE3" transform="translate(357,191)"/>
<path d="M0 0 C3 1 3 1 4.81 3.31 C6 6 6 6 5.35 7.93 C3.73 10.42 1.96 11.97 -0.38 13.81 C-1.15 14.44 -1.92 15.06 -2.71 15.71 C-5 17 -5 17 -7.29 16.7 C-7.85 16.47 -8.42 16.24 -9 16 C-7.57 12.04 -5.67 8.71 -3.38 5.19 C-2.74 4.21 -2.11 3.24 -1.46 2.23 C-1.22 1.86 -1.22 1.86 0 0 Z " fill="#6ABCE3" transform="translate(450,222)"/>
<path d="M0 0 C-1.32 4.68 -3.2 8 -6.12 11.88 C-6.85 12.84 -7.57 13.81 -8.32 14.8 C-8.87 15.53 -9.43 16.25 -10 17 C-15.75 15.25 -15.75 15.25 -18 13 C-3.54 0 -3.54 0 0 0 Z " fill="#6ABCE3" transform="translate(447,219)"/>
<path d="M0 0 C0.66 0.33 1.32 0.66 2 1 C0.4 3.25 -1.21 5.5 -2.81 7.75 C-3.26 8.38 -3.72 9.02 -4.18 9.67 C-6.42 12.81 -8.67 15.93 -11 19 C-13.31 18.67 -15.62 18.34 -18 18 C-12.63 11.29 -6.38 5.71 0 0 Z " fill="#6ABCE3" transform="translate(431,210)"/>
<path d="M0 0 C0.66 0.33 1.32 0.66 2 1 C-3.28 6.28 -8.56 11.56 -14 17 C-14 11.76 -10.28 7.9 -7 4 C-4.66 2.11 -2.82 1.16 0 0 Z " fill="#6ABCE3" transform="translate(332,200)"/>
<path d="M0 0 C1.62 2.57 2.04 3.68 1.62 6.75 C1.42 7.49 1.21 8.24 1 9 C-0.88 8.69 -0.88 8.69 -3 8 C-3.66 7.01 -4.32 6.02 -5 5 C-3.35 3.35 -1.7 1.7 0 0 Z " fill="#6ABCE3" transform="translate(462,242)"/>
<path d="M0 0 C0.33 0.66 0.66 1.32 1 2 C0.34 2.99 0.34 2.99 -3 8 C-4.32 7.34 -5.64 6.68 -7 6 C-4.69 4.02 -2.38 2.04 0 0 Z " fill="#6ABCE3" transform="translate(454,235)"/>
<path d="M0 0 C0.66 0 1.32 0 2 0 C2.33 0.99 2.66 1.98 3 3 C2.01 3.82 2.01 3.82 -3 8 C-1.12 2.25 -1.12 2.25 0 0 Z " fill="#6ABCE3" transform="translate(458,236)"/>
</svg>
