<?xml version="1.0" encoding="UTF-8"?>
<!-- Generator: visioncortex VTracer 0.6.5 -->
<svg version="1.1" xmlns="http://www.w3.org/2000/svg" width="768" height="768">
<path d="M0 0 C0.71 0 1.42 0 2.15 0.01 C2.88 0.01 3.61 0 4.35 0 C5.89 0 7.43 0 8.97 0.01 C11.33 0.01 13.69 0.01 16.05 0 C17.54 0 19.03 0 20.53 0.01 C20.88 0.01 20.88 0.01 22.67 0 C27.68 0.02 27.68 0.02 29.91 1.14 C32.13 1.32 34.36 1.46 36.59 1.58 C41.74 1.91 46.03 2.58 50.91 4.14 C52.26 4.33 53.61 4.5 54.97 4.64 C58.62 5.1 61.47 5.9 64.91 7.14 C70.08 8.76 75.28 10.24 80.53 11.58 C84.69 12.69 88.31 14.15 92.09 16.18 C94.3 17.35 96.58 18.27 98.88 19.24 C107.7 23.14 115.9 27.78 123.91 33.14 C124.43 33.48 124.43 33.48 127.06 35.2 C133.99 39.82 140.15 44.84 146.19 50.57 C148.48 52.74 150.81 54.79 153.22 56.83 C164.38 66.56 173.31 79.52 180.91 92.14 C181.47 93.06 182.03 93.98 182.61 94.93 C189.18 105.91 195.3 117.15 199.04 129.42 C199.87 132.04 200.88 134.49 201.97 137.01 C204.16 142.3 205.21 147.73 206.29 153.33 C206.91 156.14 206.91 156.14 207.91 157.14 C208.16 159.1 208.42 161.06 208.63 163.03 C208.91 165.13 209.37 167.09 209.91 169.14 C211.46 176.22 212.19 182.89 211.91 190.14 C212.73 190.28 213.56 190.43 214.41 190.58 C220.17 193.15 224.41 197.98 227.11 203.69 C228.29 208.81 228.29 213.89 228.41 219.14 C228.76 230.79 229.48 241.93 232.91 253.14 C233.05 254.25 233.2 255.37 233.34 256.51 C234.03 260.96 235.4 264.91 236.91 269.14 C237.25 270.16 237.58 271.18 237.93 272.23 C244.61 291.84 254.42 308.66 266.91 325.14 C267.2 325.53 267.2 325.53 268.69 327.51 C287.38 351.64 310.72 369.79 336.27 386.14 C359.72 401.19 380.75 419.63 387.51 447.92 C388.25 452.06 388.25 456.19 388.22 460.39 C388.21 461.31 388.21 462.24 388.21 463.19 C388.09 470.17 387.35 476.55 384.91 483.14 C384.64 483.86 384.37 484.58 384.1 485.32 C381.37 491.55 376.57 498.38 370.36 501.36 C367.56 502.25 364.81 502.73 361.91 503.14 C361.91 503.8 361.91 504.46 361.91 505.14 C351.06 506.87 342.34 505.05 331.91 502.14 C331.91 501.48 331.91 500.82 331.91 500.14 C329.27 499.81 326.63 499.48 323.91 499.14 C323.91 498.48 323.91 497.82 323.91 497.14 C322.37 497.11 320.82 497.09 319.28 497.08 C318.85 497.07 318.85 497.07 316.68 497.04 C313.91 497.14 313.91 497.14 311.15 497.63 C298.75 499.57 285.71 498.19 273.35 496.46 C270.51 496.09 267.67 495.76 264.83 495.44 C262.69 495.2 260.55 494.95 258.41 494.7 C257.4 494.59 256.4 494.48 255.37 494.37 C250.05 493.73 245.27 492.76 240.23 490.94 C235.65 489.36 230.92 488.29 226.22 487.14 C225.16 486.88 224.1 486.61 223.02 486.35 C215.34 484.46 207.65 482.73 199.91 481.14 C198.34 480.79 196.78 480.43 195.22 480.08 C188.75 478.63 182.24 477.37 175.66 476.64 C171.91 476.14 171.91 476.14 168.47 475.14 C165.65 474.35 163.4 473.95 160.53 473.7 C156.47 473.32 152.99 472.27 149.16 470.89 C146.9 470.14 144.68 469.62 142.34 469.14 C138.84 468.4 135.59 467.37 132.26 466.05 C130.42 465.33 128.55 464.68 126.68 464.05 C119.83 461.72 113.62 459.08 107.36 455.47 C105.18 454.29 103.13 453.43 100.78 452.64 C96.86 451.27 93.72 449.17 90.32 446.8 C87.77 445.04 85.16 443.4 82.53 441.76 C77.64 438.69 73.06 435.3 68.51 431.74 C63.74 428.81 59.16 429 53.72 429.51 C52.69 429.6 51.67 429.69 50.61 429.79 C47.91 430.14 47.91 430.14 44.91 431.14 C42.7 431.18 40.49 431.18 38.28 431.14 C36.16 431.1 34.03 431.09 31.91 431.14 C31.58 431.47 31.25 431.8 30.91 432.14 C29.16 432.24 27.41 432.27 25.66 432.27 C24.6 432.27 23.53 432.27 22.43 432.28 C21.31 432.27 20.19 432.27 19.03 432.26 C17.92 432.27 16.8 432.27 15.65 432.28 C14.58 432.27 13.52 432.27 12.41 432.27 C11.43 432.27 10.45 432.27 9.43 432.27 C6.91 432.14 6.91 432.14 3.91 431.14 C2.05 431.09 0.2 431.1 -1.66 431.14 C-6.87 431.25 -6.87 431.25 -9.09 430.14 C-11.83 429.93 -14.54 429.76 -17.28 429.64 C-24.22 429.31 -30.97 428.64 -37.78 427.2 C-41.6 426.42 -45.43 425.75 -49.28 425.14 C-53.68 424.42 -57.83 423.43 -62.09 422.14 C-64.03 421.65 -65.97 421.17 -67.91 420.7 C-75.95 418.7 -83.7 416.4 -91.37 413.25 C-94.56 411.95 -97.76 410.7 -100.97 409.45 C-101.5 409.24 -101.5 409.24 -104.21 408.19 C-106.51 407.35 -108.71 406.66 -111.09 406.14 C-112.8 408.82 -114.2 411.39 -115.41 414.33 C-117.43 419.23 -120.31 423.64 -123.09 428.14 C-123.56 428.94 -124.02 429.74 -124.5 430.56 C-130.72 440.62 -138.59 449.02 -147.09 457.14 C-147.56 457.62 -148.04 458.11 -148.52 458.61 C-151.4 461.41 -154.65 463.76 -157.84 466.2 C-158.59 466.77 -159.34 467.35 -160.11 467.93 C-165.13 471.74 -170.23 475.39 -175.47 478.89 C-176.09 479.31 -176.72 479.72 -177.36 480.15 C-179.92 481.84 -182.17 483.16 -185.09 484.14 C-187.16 482.51 -187.16 482.51 -189.09 480.14 C-189.09 475.31 -186.91 471.01 -185.08 466.62 C-183.84 463.5 -182.94 460.38 -182.09 457.14 C-181.43 457.14 -180.77 457.14 -180.09 457.14 C-180.13 456.27 -180.18 455.41 -180.22 454.51 C-180.09 450.95 -179.3 448.48 -178.09 445.14 C-176.61 439.91 -175.78 434.95 -175.31 429.53 C-174.63 421.94 -174.63 421.94 -173.57 418.37 C-172.92 415.32 -172.96 412.41 -172.96 409.29 C-172.96 408.64 -172.96 407.99 -172.96 407.31 C-172.96 405.94 -172.96 404.56 -172.96 403.18 C-172.97 401.08 -172.96 398.98 -172.96 396.87 C-172.96 395.53 -172.96 394.19 -172.96 392.85 C-172.96 392.25 -172.96 392.25 -172.96 389.17 C-173.09 386.14 -173.09 386.14 -174.09 383.14 C-174.75 383.14 -175.41 383.14 -176.09 383.14 C-176.21 383.49 -176.21 383.49 -176.78 385.26 C-177.92 387.77 -178.89 389.23 -180.66 391.26 C-183.09 394.14 -183.09 394.14 -184.09 397.14 C-184.75 397.14 -185.41 397.14 -186.09 397.14 C-186.18 397.73 -186.27 398.32 -186.36 398.92 C-187.29 401.73 -188.56 402.72 -190.84 404.58 C-194.94 408.01 -198.79 411.42 -202.03 415.7 C-205.04 419.26 -208.7 421.34 -212.72 423.64 C-215.09 425.14 -215.09 425.14 -217.28 427.33 C-217.88 427.92 -218.48 428.52 -219.09 429.14 C-219.75 429.14 -220.41 429.14 -221.09 429.14 C-221.42 429.8 -221.75 430.46 -222.09 431.14 C-225.16 431.76 -225.16 431.76 -228.09 432.14 C-228.09 432.8 -228.09 433.46 -228.09 434.14 C-229.72 434.81 -231.34 435.48 -232.97 436.14 C-233.87 436.51 -234.78 436.88 -235.71 437.26 C-238.09 438.14 -238.09 438.14 -240.09 438.14 C-240.09 438.8 -240.09 439.46 -240.09 440.14 C-243.87 441.6 -247.56 442.99 -251.47 444.08 C-254.5 444.97 -257.2 446.02 -260.09 447.26 C-264.38 449.03 -267.5 449.54 -272.09 449.14 C-272.09 449.8 -272.09 450.46 -272.09 451.14 C-276.38 451.14 -280.67 451.14 -285.09 451.14 C-285.42 449.16 -285.75 447.18 -286.09 445.14 C-283.94 442.54 -283.94 442.54 -281.09 440.14 C-265.28 425.05 -253.55 407.85 -244.1 388.22 C-243.05 386.06 -241.97 383.92 -240.89 381.78 C-240.52 381.07 -240.16 380.35 -239.79 379.62 C-239.1 378.26 -238.4 376.9 -237.71 375.54 C-235.82 371.81 -234.33 368.13 -233.09 364.14 C-232.71 363.01 -232.34 361.89 -231.94 360.73 C-229.87 354.55 -227.84 348.38 -225.97 342.14 C-224.95 338.78 -223.91 335.53 -222.47 332.33 C-220.18 327.01 -218.96 321.96 -219.09 316.14 C-219.63 316.65 -220.17 317.16 -220.72 317.69 C-256.05 350.46 -303.8 368.78 -351.97 368.33 C-353.32 368.32 -354.67 368.32 -356.02 368.32 C-374.38 368.24 -374.38 368.24 -378.72 365.45 C-380.09 363.14 -380.09 363.14 -380.34 360.2 C-377.93 354.3 -370.71 351.87 -365.21 349.11 C-355.14 344.04 -346.11 337.88 -337.09 331.14 C-336.49 330.69 -335.89 330.24 -335.26 329.77 C-324.95 322.03 -314.96 313.94 -305.43 305.26 C-303.34 303.36 -301.22 301.49 -299.09 299.64 C-290.46 292.1 -282.13 284.34 -274.04 276.22 C-272.4 274.57 -270.75 272.93 -269.11 271.29 C-263.56 265.74 -258.19 260.11 -253.09 254.14 C-251.47 252.36 -249.85 250.59 -248.22 248.83 C-244.14 244.36 -240.27 239.77 -236.48 235.06 C-233.7 231.66 -230.87 228.3 -228.03 224.95 C-227.54 224.37 -227.05 223.8 -226.55 223.2 C-225.4 221.85 -224.24 220.49 -223.09 219.14 C-223.82 219.31 -224.54 219.48 -225.29 219.66 C-275.43 231.43 -321.72 228.44 -369.16 207.95 C-369.53 207.79 -369.53 207.79 -371.45 206.98 C-375.24 205.29 -378.1 203.98 -380.09 200.14 C-379.97 197.51 -379.97 197.51 -379.09 195.14 C-376.24 193.24 -375.19 192.82 -371.97 192.35 C-371.55 192.28 -371.55 192.28 -369.43 191.95 C-368.52 191.81 -367.6 191.66 -366.66 191.51 C-332.2 185.61 -299.45 172.16 -268.44 156.34 C-265.22 154.7 -261.97 153.11 -258.71 151.53 C-234.32 139.68 -211.39 125.56 -189.09 110.14 C-188.25 109.55 -187.4 108.97 -186.53 108.37 C-172.76 98.78 -160.03 88.94 -149.2 76.07 C-138.45 63.35 -126.54 51.96 -113.09 42.14 C-112.28 41.53 -111.47 40.93 -110.64 40.3 C-94.17 28.35 -76.41 18.55 -57.09 12.14 C-56.27 11.85 -55.45 11.57 -54.6 11.27 C-49.65 9.56 -44.65 8.17 -39.59 6.83 C-37.09 6.14 -37.09 6.14 -33.97 5.01 C-30.79 4.05 -27.82 3.73 -24.53 3.42 C-21.94 3.12 -19.45 2.62 -16.91 2.08 C-13.23 1.3 -9.87 1.04 -6.09 1.14 C-4.39 -0.56 -2.27 0.01 0 0 Z " fill="#84837C" transform="translate(380.09336853027344,130.86105346679688)"/>
<path d="M0 0 C0.33 0 0.66 0 1 0 C1.03 2.06 1.05 4.12 1.06 6.19 C1.07 7.34 1.09 8.48 1.1 9.67 C1.01 12.59 0.68 15.16 0 18 C0.66 18 1.32 18 2 18 C1.84 18.5 1.67 18.99 1.5 19.5 C0.69 23.53 0.13 28.26 2 32 C1.92 32.44 1.92 32.44 1.54 34.64 C0.93 38.42 1.04 41.96 1.31 45.75 C1.36 46.46 1.41 47.17 1.46 47.9 C1.8 52.46 2.39 56.84 3.39 61.3 C4.21 64.93 4.88 68.59 5.56 72.25 C5.69 72.92 5.82 73.6 5.95 74.29 C6.68 78.19 7.36 82.09 8 86 C8.66 86 9.32 86 10 86 C10.1 86.8 10.21 87.61 10.31 88.44 C11.14 92.74 12.23 96.98 14 101 C14.66 101.33 15.32 101.66 16 102 C16.13 102.86 16.26 103.72 16.4 104.61 C17.11 108.6 18.69 111.74 20.62 115.25 C20.98 115.9 21.34 116.56 21.7 117.23 C28.62 129.75 28.62 129.75 33.59 134.54 C35.93 136.97 36.76 139.88 38 143 C37.01 143.33 36.02 143.66 35 144 C34.29 145.99 33.63 147.99 33 150 C32.34 151.2 31.65 152.39 30.94 153.56 C29 157 29 157 28.5 159.81 C28 162 28 162 25.94 163.31 C25.3 163.54 24.66 163.77 24 164 C24 164.99 24 165.98 24 167 C22.34 168.34 20.67 169.67 19 171 C17.23 173.59 17.23 173.59 15.62 176.38 C13.03 180.62 10.54 183.69 6.62 186.74 C5 188 5 188 2.44 190.56 C-0.26 193.26 -2.99 195.66 -6 198 C-6.66 198 -7.32 198 -8 198 C-8 198.66 -8 199.32 -8 200 C-13.41 204 -13.41 204 -16 204 C-16 204.66 -16 205.32 -16 206 C-16.72 206.27 -17.44 206.54 -18.19 206.81 C-21 208 -21 208 -23.69 209.62 C-26 211 -26 211 -28 211 C-28 211.99 -28 212.98 -28 214 C-29.05 214.1 -30.1 214.21 -31.19 214.31 C-35.04 215.01 -36.72 216.02 -40 218 C-49.46 221.55 -49.46 221.55 -54 220 C-53.48 219.29 -52.96 218.57 -52.43 217.84 C-50.98 215.86 -49.55 213.88 -48.11 211.9 C-46.88 210.21 -45.64 208.52 -44.39 206.85 C-41.09 202.4 -41.09 202.4 -40.56 200 C-39.88 197.56 -38.81 196.73 -37 195 C-36.1 193.55 -35.25 192.07 -34.44 190.56 C-34.23 190.18 -34.23 190.18 -33.18 188.25 C-32.1 186.18 -31.04 184.1 -30 182 C-29.34 182 -28.68 182 -28 182 C-28 179.36 -28 176.72 -28 174 C-27.01 173.67 -26.02 173.34 -25 173 C-23.85 170.66 -22.9 168.43 -22 166 C-21.86 165.63 -21.86 165.63 -21.14 163.76 C-20.42 161.84 -19.71 159.92 -19 158 C-18.34 158 -17.68 158 -17 158 C-16.92 157.03 -16.84 156.06 -16.75 155.06 C-16.2 151.05 -14.63 147.79 -12.93 144.15 C-11.76 141.45 -11.21 138.93 -11 136 C-11.33 135.34 -11.66 134.68 -12 134 C-11.01 133.67 -10.02 133.34 -9 133 C-8.18 130.64 -7.55 128.42 -7 126 C-6.67 124.62 -6.34 123.25 -6 121.88 C-5.86 121.25 -5.71 120.63 -5.56 119.99 C-5 118 -5 118 -4.04 115.69 C-3.04 113.1 -2.36 110.62 -1.75 107.91 C-1.64 107.44 -1.64 107.44 -1.1 105.03 C-0.88 104.05 -0.66 103.07 -0.44 102.06 C-0.22 101.09 0 100.11 0.23 99.1 C3.16 86.07 3.16 86.07 3.06 80.62 C3.05 80.03 3.05 80.03 3 77 C2.01 76.67 1.02 76.34 0 76 C0 76.66 0 77.32 0 78 C-1.32 78 -2.64 78 -4 78 C-4 79.32 -4 80.64 -4 82 C-6.21 83.46 -6.21 83.46 -9 85 C-10.6 86.52 -12.17 88.08 -13.69 89.69 C-15.09 91.16 -16.52 92.61 -18 94 C-18.66 94 -19.32 94 -20 94 C-20 95.32 -20 96.64 -20 98 C-20.8 98.33 -21.61 98.66 -22.44 99 C-25.56 100.54 -27.88 102.59 -30.44 104.94 C-39.23 113 -39.23 113 -44 113 C-44 113.66 -44 114.32 -44 115 C-45.62 115.84 -47.25 116.67 -48.88 117.5 C-49.33 117.73 -49.33 117.73 -51.62 118.91 C-54 120 -54 120 -56 120 C-56 120.66 -56 121.32 -56 122 C-57.32 122.33 -57.32 122.33 -64 124 C-64 124.66 -64 125.32 -64 126 C-65.07 126.39 -66.14 126.78 -67.25 127.19 C-69.74 128.11 -72.18 129.08 -74.61 130.17 C-83.19 134.01 -91.85 136.07 -101 138 C-102.03 138.23 -103.07 138.46 -104.13 138.69 C-108.19 139.56 -111.83 140.09 -116 140 C-116 140.66 -116 141.32 -116 142 C-127.02 143.01 -137.94 143.11 -149 143 C-147.8 139.4 -146.74 138.85 -143.62 136.81 C-142.83 136.28 -142.04 135.75 -141.23 135.21 C-139 134 -139 134 -136 134 C-135.81 133.4 -135.63 132.8 -135.44 132.19 C-132.87 128.27 -128.28 127.43 -124 126 C-124 125.34 -124 124.68 -124 124 C-122.07 122.56 -122.07 122.56 -119.56 121 C-115.1 118.21 -115.1 118.21 -114 116 C-113.34 116 -112.68 116 -112 116 C-112 115.34 -112 114.68 -112 114 C-111.01 113.67 -110.02 113.34 -109 113 C-108.84 112.5 -108.84 112.5 -108 110 C-106.35 109.33 -104.7 108.66 -103.04 108.01 C-98.12 105.57 -94.28 101.28 -90.44 97.44 C-88.51 95.51 -86.58 93.76 -84.5 92 C-80.93 88.98 -77.66 85.74 -74.43 82.36 C-72.99 80.87 -71.5 79.43 -70 78 C-69.34 78 -68.68 78 -68 78 C-68 76.68 -68 75.36 -68 74 C-67.13 73.65 -66.27 73.3 -65.38 72.94 C-61.34 70.62 -58.61 67.84 -56 64 C-56 63.34 -56 62.68 -56 62 C-54.68 62 -53.36 62 -52 62 C-51.77 61.44 -51.55 60.89 -51.31 60.31 C-49.64 57.37 -47.42 55.36 -45 53 C-44.34 52.01 -43.68 51.02 -43 50 C-42.34 50 -41.68 50 -41 50 C-41 49.34 -41 48.68 -41 48 C-39.13 45.88 -39.13 45.88 -37 44 C-36.34 44 -35.68 44 -35 44 C-34.73 43.42 -34.47 42.83 -34.2 42.23 C-32.96 39.93 -31.62 38.25 -29.88 36.31 C-29.26 35.62 -28.65 34.93 -28.01 34.22 C-26.63 32.69 -25.23 31.17 -23.83 29.66 C-23.12 28.88 -22.42 28.11 -21.69 27.31 C-21.36 26.96 -21.36 26.96 -19.7 25.18 C-18 23 -18 23 -16.96 20.29 C-16.64 19.54 -16.33 18.78 -16 18 C-15.01 17.67 -14.02 17.34 -13 17 C-11.64 15.47 -11.64 15.47 -10.25 13.5 C-9.99 13.14 -9.99 13.14 -8.69 11.34 C-8.13 10.57 -7.58 9.8 -7 9 C-5.74 7.33 -4.47 5.66 -3.19 4 C-2.6 3.24 -2.02 2.47 -1.42 1.69 C-1.18 1.41 -1.18 1.41 0 0 Z " fill="#807F76" transform="translate(172,346)"/>
<path d="M0 0 C-1.96 6.52 -4.56 12.36 -7.7 18.4 C-9 21 -9 21 -10 24 C-10.66 24 -11.32 24 -12 24 C-12.11 24.83 -12.22 25.66 -12.33 26.52 C-12.49 27.61 -12.65 28.69 -12.81 29.81 C-12.89 30.35 -12.89 30.35 -13.27 33.08 C-14 36 -14 36 -15.46 37.44 C-17.22 39.22 -17.7 40.48 -18.39 42.87 C-18.6 43.61 -18.82 44.35 -19.04 45.11 C-19.25 45.88 -19.47 46.65 -19.69 47.44 C-19.91 48.2 -20.14 48.97 -20.37 49.75 C-21.42 53.41 -22 56.13 -22 60 C-22.33 60.17 -22.33 60.17 -24 61 C-24.82 63.62 -24.82 63.62 -25.56 66.88 C-26.28 69.98 -26.99 72.98 -28 76 C-27.34 76 -26.68 76 -26 76 C-26.16 76.28 -26.16 76.28 -26.96 77.71 C-28.33 80.71 -28.58 83.62 -28.95 86.88 C-30.34 89.68 -32.13 90.27 -34.98 91.33 C-35.65 91.55 -36.31 91.77 -37 92 C-37.65 92.21 -38.29 92.43 -38.96 92.65 C-41 93.3 -43.06 93.91 -45.12 94.5 C-45.87 94.72 -46.61 94.93 -47.37 95.15 C-67.15 100.81 -87.39 104.58 -108 104 C-108 104.66 -108 105.32 -108 106 C-108.66 106 -109.32 106 -110 106 C-110 105.34 -110 104.68 -110 104 C-110.88 104.05 -111.75 104.09 -112.66 104.14 C-127.54 104.56 -142.76 102.43 -157 98 C-157.33 98.66 -157.66 99.32 -158 100 C-158 99.01 -158 98.02 -158 97 C-160.31 97 -162.62 97 -165 97 C-165 96.34 -165 95.68 -165 95 C-165.56 94.88 -165.56 94.88 -168.38 94.25 C-173.45 93 -178.19 91.03 -183 89 C-183 88.34 -183 87.68 -183 87 C-179.42 85.45 -176.08 84.57 -172.25 83.88 C-165.08 82.39 -158.16 80.29 -151.19 78.06 C-150.13 77.73 -149.07 77.39 -147.97 77.04 C-142.49 75.27 -137.2 73.34 -131.98 70.88 C-129.85 69.94 -127.71 69.2 -125.5 68.5 C-121.46 67.22 -117.68 65.57 -113.85 63.77 C-112 63 -112 63 -110 63 C-110 62.01 -110 61.02 -110 60 C-108.8 59.71 -107.61 59.42 -106.38 59.12 C-102.85 58.25 -99.43 57.2 -96 56 C-96 55.34 -96 54.68 -96 54 C-95.34 53.91 -94.67 53.82 -93.99 53.73 C-90.08 52.77 -86.76 51.08 -83.19 49.25 C-82.48 48.89 -81.76 48.53 -81.03 48.16 C-77.34 46.28 -73.78 44.33 -70.31 42.06 C-67.35 40.22 -65.44 39.32 -62 39 C-62 38.01 -62 37.02 -62 36 C-61.42 35.83 -60.84 35.66 -60.24 35.48 C-55.21 33.92 -51.32 32.1 -47 29 C-40.53 25 -40.53 25 -38 25 C-38 24.34 -38 23.68 -38 23 C-37.18 22.63 -36.35 22.26 -35.5 21.88 C-30.54 19.22 -25.99 15.99 -22 12 C-20.91 11.57 -19.81 11.13 -18.69 10.69 C-14.96 9.17 -12.81 6.88 -10 4 C-7.38 2.81 -7.38 2.81 -5 2 C-2 0 -2 0 0 0 Z " fill="#807F76" transform="translate(206,244)"/>
<path d="M0 0 C0 0.99 0 1.98 0 3 C0.4 2.5 0.8 2 1.21 1.48 C3 0 3 0 5.26 -0.07 C6.06 0.05 6.86 0.18 7.69 0.31 C8.5 0.43 9.3 0.55 10.14 0.68 C10.75 0.78 11.37 0.89 12 1 C12 1.66 12 2.32 12 3 C12.66 3 13.32 3 14 3 C14 3.66 14 4.32 14 5 C15.07 4.92 16.14 4.83 17.25 4.75 C21 5 21 5 23.38 6.75 C24.95 8.93 25.62 10.37 26 13 C24.99 12.53 23.98 12.05 22.94 11.56 C19.34 10.01 15.91 9.4 12 9 C12 9.66 12 10.32 12 11 C8.77 13.15 7.72 13.2 4 13 C4 13.99 4 14.98 4 16 C4.66 16 5.32 16 6 16 C5.98 17.07 5.96 18.14 5.94 19.25 C5.99 22.15 6.13 24.29 7 27 C6.01 27 5.02 27 4 27 C4 27.66 4 28.32 4 29 C4.76 28.96 5.53 28.92 6.31 28.88 C9 29 9 29 12 31 C12 31.66 12 32.32 12 33 C13.32 33 14.64 33 16 33 C16 33.66 16 34.32 16 35 C16.61 34.57 17.23 34.13 17.86 33.69 C18.67 33.13 19.48 32.57 20.31 32 C21.11 31.44 21.91 30.89 22.74 30.31 C25 29 25 29 28 29 C28 23.72 28 18.44 28 13 C32.52 15.26 33.33 16.54 35.38 20.89 C36.31 24.05 35.44 26.13 34 29 C34.66 29 35.32 29 36 29 C37.1 35.06 37.08 40.13 35 46 C34.67 46.33 34.67 46.33 33 48 C32.73 49.13 32.46 50.27 32.19 51.44 C31 55 31 55 28.5 56.94 C26 58 26 58 24 58 C24.33 58.99 24.66 59.98 25 61 C21.87 64.37 18.39 66.58 14 68 C11 67.25 11 67.25 9 66 C8.83 66.5 8.83 66.5 8 69 C5.79 69.05 3.58 69.09 1.38 69.12 C0.15 69.15 -1.08 69.17 -2.35 69.2 C-5.94 69 -8.67 68.3 -12 67 C-12 66.34 -12 65.68 -12 65 C-12.32 64.94 -12.32 64.94 -13.94 64.62 C-14.62 64.42 -15.3 64.21 -16 64 C-16.33 63.34 -16.66 62.68 -17 62 C-17.72 61.79 -18.44 61.59 -19.19 61.38 C-23.32 59.36 -25.88 56.05 -28 52 C-28.17 49.24 -28.17 49.24 -28 47 C-28.66 47 -29.32 47 -30 47 C-31.26 44.09 -32 42.2 -32 39 C-31.01 39 -30.02 39 -29 39 C-28.67 38.34 -28.34 37.68 -28 37 C-29.32 37 -30.64 37 -32 37 C-32 34.36 -32 31.72 -32 29 C-31.01 28.67 -30.02 28.34 -29 28 C-29.37 27.44 -29.75 26.88 -30.13 26.31 C-31 24 -31 24 -30.28 21.6 C-25.34 12.25 -25.34 12.25 -21 9 C-18.19 8.69 -18.19 8.69 -16 9 C-16 7.68 -16 6.36 -16 5 C-14.68 5 -13.36 5 -12 5 C-11.67 4.01 -11.34 3.02 -11 2 C-9 1.27 -9 1.27 -6.56 0.81 C-5.76 0.65 -4.96 0.5 -4.13 0.33 C-2 0 -2 0 0 0 Z " fill="#959491" transform="translate(372,275)"/>
<path d="M0 0 C1.94 0.81 1.94 0.81 4 2 C4.33 2.99 4.66 3.98 5 5 C6.32 5.69 7.66 6.35 9 7 C11.14 8.56 13.03 10.21 15 12 C15 12.66 15 13.32 15 14 C17.09 15.12 18.76 15.96 21.12 16.31 C21.74 16.54 22.36 16.77 23 17 C23.15 17.4 23.15 17.4 23.94 19.44 C25 22 25 22 27.29 22.98 C28.19 23.32 29.08 23.65 30 24 C31.48 24.92 32.94 25.88 34.38 26.88 C38.16 29.46 41.99 31.78 46 34 C45.37 36.01 44.69 38.01 44 40 C43.74 40.75 43.49 41.5 43.22 42.27 C41.1 48.04 38.34 52.74 34.68 57.68 C30.17 63.91 30.17 63.91 29.69 67 C28.76 69.7 26.95 70.81 24.74 72.52 C22.77 74.2 21.17 76.02 19.5 78 C16.57 81.44 13.53 84.18 10 87 C9.41 87.61 8.82 88.22 8.21 88.84 C5.59 91.4 2.75 93.58 -0.19 95.75 C-0.46 95.96 -0.46 95.96 -1.84 97 C-5.87 100 -5.87 100 -7 100 C-6.53 96.27 -5.96 92.7 -5 89.06 C-3.95 85.06 -3.44 81.11 -3 77 C-2.34 77 -1.68 77 -1 77 C-0.46 72.2 -0 67.43 0.22 62.61 C0.24 62.22 0.24 62.22 0.33 60.25 C0.4 58.7 0.46 57.15 0.52 55.6 C0.75 50.49 1.62 45.93 3 41 C2.34 41 1.68 41 1 41 C1 39.68 1 38.36 1 37 C1.66 37 2.32 37 3 37 C2.67 35.93 2.34 34.86 2 33.75 C0.88 29.28 0.91 25.11 1 20.52 C1 16.25 0.77 12.01 0.5 7.75 C0.45 6.99 0.4 6.22 0.36 5.44 C0.24 3.62 0.12 1.81 0 0 Z " fill="#807F76" transform="translate(215,495)"/>
<path d="M0 0 C11.53 10.94 18.7 23.5 19.52 39.52 C19.9 56.4 14.36 71.46 2.67 83.79 C-1.35 87.82 -5.56 91.02 -10.52 93.78 C-11.14 94.16 -11.76 94.53 -12.4 94.92 C-25.22 102.12 -40.55 102.37 -54.47 98.75 C-70.83 93.58 -82.21 82.7 -90.12 67.77 C-96.43 54.02 -97.12 38.97 -92.4 24.66 C-86.54 9.57 -76.33 -2.81 -61.45 -9.62 C-40.14 -18.29 -17.62 -15.49 0 0 Z M-78.52 7.78 C-87.59 19.11 -93.12 33.01 -91.52 47.78 C-89.42 63.03 -83.71 76.04 -71.52 85.78 C-58.42 94.98 -45.34 98.46 -29.52 96.78 C-15.56 94.13 -3.21 87.15 5.48 75.78 C14.16 62.57 17.82 47.47 14.79 31.84 C11.44 17.97 4.81 9.2 -5.52 -0.22 C-6.1 -0.76 -6.67 -1.29 -7.26 -1.85 C-27.9 -18.86 -62.52 -11.33 -78.52 7.78 Z " fill="#807F76" transform="translate(410.5234375,267.21875)"/>
<path d="M0 0 C1.46 0.31 2.92 0.62 4.38 0.94 C4.78 1.02 4.78 1.02 6.84 1.46 C9 2 9 2 11 3 C9.71 5.88 8.34 7.87 6 10 C7.65 9.67 9.3 9.34 11 9 C10.67 9.99 10.34 10.98 10 12 C10.74 11.55 11.49 11.09 12.25 10.62 C13.16 10.09 14.06 9.55 15 9 C15.68 8.59 16.36 8.18 17.06 7.75 C19.51 6.8 20.61 6.96 23 8 C25 11 25 11 24.69 13 C24.46 13.66 24.23 14.32 24 15 C23.67 15.99 23.34 16.98 23 18 C23.66 17.67 24.32 17.34 25 17 C24.47 21.45 22.82 24.02 20.12 27.56 C19.43 28.49 18.73 29.42 18.01 30.38 C17.35 31.24 16.68 32.11 16 33 C15.5 33.77 14.99 34.53 14.47 35.32 C13 37 13 37 9.31 37.25 C8.22 37.17 7.13 37.09 6 37 C6 35.68 6 34.36 6 33 C7.32 32.34 8.64 31.68 10 31 C10 30.34 10 29.68 10 29 C10.66 29 11.32 29 12 29 C12 28.01 12 27.02 12 26 C11.64 26.37 11.64 26.37 9.81 28.25 C4.71 33.24 4.71 33.24 2 35 C-0.81 34.75 -0.81 34.75 -3 34 C-3.33 33.01 -3.66 32.02 -4 31 C-4.66 31.66 -5.32 32.32 -6 33 C-8.16 33.2 -8.16 33.2 -10.62 33.12 C-11.44 33.11 -12.26 33.09 -13.1 33.07 C-13.73 33.05 -14.35 33.02 -15 33 C-15.17 32.5 -15.17 32.5 -16 30 C-16.66 30.33 -16.66 30.33 -20 32 C-19.35 28.53 -17.95 26.09 -16.06 23.12 C-14.24 20.19 -12.97 17.89 -11.94 14.56 C-11 12 -11 12 -8.75 10.69 C-4.56 8.12 -2.52 4.14 0 0 Z " fill="#818077" transform="translate(407,192)"/>
<path d="M0 0 C11.05 1.13 19.83 8 28 15 C28.53 15.39 28.53 15.39 31.19 17.38 C39.21 24.86 48.42 38.87 49.13 50.11 C49.11 55.89 49.11 55.89 48 57 C46.33 57.04 44.67 57.04 43 57 C42.79 56.2 42.58 55.4 42.37 54.58 C36.9 35.08 25.09 21.24 7.66 11.31 C4.46 9.51 1.23 7.75 -2 6 C-1.12 1.12 -1.12 1.12 0 0 Z " fill="#969592" transform="translate(527,420)"/>
<path d="M0 0 C-0.31 0.6 -0.62 1.2 -0.94 1.81 C-2 4 -2 4 -3 7 C-1.68 6.34 -0.36 5.68 1 5 C-0.41 9.02 -2.34 12.09 -4.88 15.5 C-5.55 16.42 -6.23 17.34 -6.93 18.28 C-8.31 20.1 -9.72 21.9 -11.16 23.68 C-18 32.28 -18 32.28 -18 37 C-19.32 37 -20.64 37 -22 37 C-22.33 37.99 -22.66 38.98 -23 40 C-24.93 40.73 -24.93 40.73 -27.31 41.19 C-28.09 41.35 -28.87 41.5 -29.68 41.67 C-32 42 -32 42 -36 42 C-34.56 38.76 -32.74 36.38 -30.38 33.75 C-29.74 33.04 -29.11 32.34 -28.46 31.61 C-27.98 31.08 -27.5 30.55 -27 30 C-27.33 29.67 -27.66 29.34 -28 29 C-28.99 29.33 -29.98 29.66 -31 30 C-29.62 27.01 -28 24.57 -25.94 22 C-22.22 17.31 -18.66 12.52 -15.11 7.7 C-10.13 1.34 -10.13 1.34 -6.5 0.25 C-4 0 -4 0 0 0 Z " fill="#807F76" transform="translate(358,191)"/>
<path d="M0 0 C-0.88 4.75 -0.88 4.75 -2 7 C0 7 0 7 2.12 5 C2.74 4.34 3.36 3.68 4 3 C7.25 5.83 8.52 7.69 9 12 C8.01 12.33 7.02 12.66 6 13 C6 13.99 6 14.98 6 16 C6.99 16.33 7.98 16.66 9 17 C7.35 19.64 5.7 22.28 4 25 C2.68 24.67 1.36 24.34 0 24 C-0.33 23.01 -0.66 22.02 -1 21 C-2.32 21.33 -3.64 21.66 -5 22 C-6.12 20.25 -6.12 20.25 -7 18 C-6.12 15.75 -6.12 15.75 -5 14 C-5.99 14 -6.98 14 -8 14 C-8.11 14.32 -8.11 14.32 -8.69 15.94 C-10 18 -10 18 -12.62 18.75 C-13.41 18.83 -14.19 18.91 -15 19 C-15 18.01 -15 17.02 -15 16 C-16.32 15.67 -17.64 15.34 -19 15 C-17.65 10.96 -14.92 9.38 -11.62 6.94 C-11.33 6.71 -11.33 6.71 -9.84 5.58 C-2.42 0 -2.42 0 0 0 Z " fill="#807F76" transform="translate(447,218)"/>
<path d="M0 0 C-1.31 3.69 -2.86 6.32 -5.38 9.31 C-8.01 12.48 -10.52 15.69 -12.88 19.07 C-13.38 19.78 -13.89 20.49 -14.41 21.22 C-15.41 22.62 -16.39 24.04 -17.35 25.47 C-21.04 30.62 -24.94 33.11 -31 35 C-31.66 35 -32.32 35 -33 35 C-32.35 33.66 -31.68 32.33 -31 31 C-30.81 30.62 -30.81 30.62 -29.88 28.69 C-27.62 25.45 -24.97 23.22 -21.97 20.68 C-16.91 16.37 -12.59 11.36 -8.18 6.4 C-2.36 0 -2.36 0 0 0 Z " fill="#807F76" transform="translate(333,206)"/>
<path d="M0 0 C-1.38 2.92 -2.96 5.47 -4.86 8.08 C-5.42 8.85 -5.98 9.62 -6.55 10.41 C-7.13 11.2 -7.71 12 -8.31 12.81 C-9.45 14.38 -10.6 15.95 -11.74 17.52 C-12.29 18.28 -12.84 19.03 -13.41 19.81 C-14.88 21.83 -16.31 23.86 -17.75 25.9 C-19.95 28.93 -22.28 31.43 -25 34 C-25.66 34.66 -26.32 35.32 -27 36 C-27.99 35.67 -28.98 35.34 -30 35 C-24.41 23.86 -17.34 15.19 -8.62 6.38 C-8.01 5.75 -7.39 5.12 -6.75 4.47 C-6.16 3.89 -5.58 3.31 -4.98 2.71 C-4.71 2.45 -4.71 2.45 -3.39 1.13 C-2 0 -2 0 0 0 Z " fill="#807F76" transform="translate(315,211)"/>
<path d="M0 0 C2.51 1.29 4.12 2.85 5.94 5 C5.94 5.66 5.94 6.32 5.94 7 C4.53 8.28 4.53 8.28 2.58 9.71 C1.87 10.24 1.17 10.76 0.45 11.29 C-0.3 11.84 -1.04 12.38 -1.81 12.94 C-2.54 13.48 -3.27 14.01 -4.02 14.57 C-5.39 15.58 -6.77 16.59 -8.14 17.59 C-9.51 18.59 -10.85 19.63 -12.18 20.68 C-14.06 22 -14.06 22 -16.06 22 C-15.42 18.52 -14.08 15.91 -12.06 13 C-11.4 13 -10.74 13 -10.06 13 C-8.11 8.31 -8.11 8.31 -7.75 5.94 C-6.52 2.47 -3.74 0 0 0 Z " fill="#807F76" transform="translate(439.0625,209)"/>
<path d="M0 0 C0 3 0 3 -2.08 5.27 C-2.56 5.72 -2.56 5.72 -5 8 C-6.09 9.07 -7.18 10.15 -8.26 11.23 C-8.82 11.78 -9.38 12.34 -9.96 12.91 C-10.53 13.48 -11.1 14.04 -11.69 14.62 C-12.27 15.2 -12.85 15.77 -13.45 16.36 C-14 16.91 -14.56 17.47 -15.14 18.04 C-15.64 18.54 -16.14 19.03 -16.66 19.55 C-18 21 -18 21 -20 24 C-20.66 24 -21.32 24 -22 24 C-20.63 21.07 -19.05 18.61 -17.06 16.06 C-15.35 13.84 -13.95 11.89 -12.69 9.38 C-9.63 5.07 -4.68 2.34 0 0 Z " fill="#807F76" transform="translate(334,198)"/>
<path d="M0 0 C0.99 0.33 1.98 0.66 3 1 C-1.82 6.96 -7.22 11.97 -13 17 C-13.99 16.67 -14.98 16.34 -16 16 C-13.72 13.66 -11.42 11.33 -9.12 9 C-8.47 8.33 -7.82 7.66 -7.15 6.98 C-6.53 6.34 -5.9 5.71 -5.26 5.06 C-4.68 4.48 -4.11 3.89 -3.51 3.29 C-2 2 -2 2 0 2 C0 1.34 0 0.68 0 0 Z " fill="#969592" transform="translate(350,199)"/>
<path d="M0 0 C0.99 0.33 1.98 0.66 3 1 C3.33 3.31 3.66 5.62 4 8 C1.69 8.69 1.69 8.69 -1 9 C-2.81 7.56 -2.81 7.56 -4 6 C-2.85 3.53 -1.95 1.95 0 0 Z " fill="#807F76" transform="translate(460,242)"/>
<path d="M0 0 C0.33 0 0.66 0 1 0 C2.11 9.18 1.81 17.82 1 27 C0.67 27 0.34 27 0 27 C-1.45 7.76 -1.45 7.76 -1 1 C-0.67 0.67 -0.34 0.34 0 0 Z " fill="#85847D" transform="translate(208,520)"/>
</svg>
