<?xml version="1.0" encoding="UTF-8"?>
<!-- Generator: visioncortex VTracer 0.6.5 -->
<svg version="1.1" xmlns="http://www.w3.org/2000/svg" width="512" height="512">
<path d="M0 0 C1.76 1.58 3.57 3.08 5.39 4.58 C11.09 9.46 16 15.2 19.83 21.64 C19.83 22.3 19.83 22.96 19.83 23.64 C20.49 23.64 21.15 23.64 21.83 23.64 C34.33 45.43 43.35 66.97 46.01 92.22 C47.13 95.52 48.89 95.88 51.83 97.64 C55.76 103.06 56.53 107.63 56.96 114.21 C57.11 116 57.27 117.8 57.43 119.6 C57.66 122.48 57.89 125.37 58.11 128.25 C60.87 153.92 74.54 178.72 92.83 196.64 C93.61 197.47 94.39 198.3 95.2 199.15 C105.01 209.39 116.35 217.04 128.14 224.83 C144.09 235.37 157.67 246.35 162.83 265.64 C163.87 275.49 164.24 287.01 158.83 295.64 C154.16 301 149.43 304.27 142.27 305.02 C140.95 305.04 139.63 305.06 138.27 305.08 C136.97 305.12 135.67 305.16 134.33 305.2 C130.47 305 127.62 303.75 124.13 302.13 C117.46 299.17 111.78 299.14 104.58 299.46 C102.2 299.51 99.81 299.55 97.43 299.59 C96.86 299.6 96.86 299.6 93.98 299.65 C79.29 299.64 64.82 295.68 50.66 292.15 C39.72 289.42 28.81 287.01 17.71 285.08 C-6.39 280.8 -28.16 272.4 -48.02 257.89 C-54.11 253.54 -54.11 253.54 -57.61 253.88 C-58.52 254.08 -59.44 254.29 -60.39 254.5 C-68.14 255.96 -75.76 255.99 -83.61 255.96 C-84.35 255.96 -85.1 255.95 -85.87 255.95 C-97.42 255.92 -108.62 255.21 -119.99 253.05 C-122.07 252.66 -124.16 252.33 -126.25 252.02 C-138.84 250 -151.42 246.19 -163.04 240.93 C-166.17 239.64 -166.17 239.64 -170.17 239.64 C-170.47 240.34 -170.78 241.03 -171.09 241.74 C-180.08 260.96 -197.28 281.82 -217.17 290.64 C-219.41 290.29 -219.41 290.29 -221.17 289.64 C-222.39 286.75 -222.16 285.62 -221.09 282.61 C-220.56 281.42 -220.03 280.24 -219.48 279.02 C-211.85 260.73 -211.64 243.23 -212.17 223.64 C-212.69 224.38 -213.21 225.12 -213.74 225.88 C-217.28 230.82 -220.69 235.49 -225.17 239.64 C-225.9 240.43 -226.63 241.22 -227.39 242.04 C-240.3 255.73 -261.09 267 -280.18 268.95 C-282.67 268.96 -282.67 268.96 -286.17 268.64 C-286.8 266.79 -286.8 266.79 -287.17 264.64 C-285.11 262.33 -285.11 262.33 -282.17 259.64 C-280.68 257.95 -279.23 256.22 -277.79 254.49 C-276.17 252.64 -276.17 252.64 -273.71 250.29 C-269.29 245.7 -266.33 240.14 -263.17 234.64 C-262.8 234.01 -262.43 233.39 -262.06 232.74 C-252.68 216.47 -246.49 198.88 -242.17 180.64 C-245.93 182.8 -249.31 185.23 -252.73 187.89 C-279.33 208.11 -311.72 215.45 -344.61 213.09 C-347.17 212.64 -347.17 212.64 -349.17 210.64 C-349.29 208.33 -349.29 208.33 -348.17 205.64 C-345.21 203.21 -341.87 201.45 -338.42 199.82 C-332.97 197.22 -328.21 194.03 -323.36 190.46 C-322.57 189.88 -321.78 189.3 -320.96 188.71 C-311.44 181.7 -302.53 174.19 -293.89 166.12 C-291.39 163.85 -288.82 161.74 -286.17 159.64 C-283.48 157.09 -281.07 154.52 -278.73 151.64 C-276.55 149.09 -274.37 147.13 -271.77 145.04 C-267.09 140.95 -263.31 135.87 -259.54 130.96 C-256.96 127.59 -254.22 124.61 -251.17 121.64 C-249.13 119.34 -247.14 117 -245.17 114.64 C-246 114.84 -246.84 115.03 -247.7 115.23 C-279.87 122.43 -309.93 120.54 -340.42 107.58 C-340.8 107.42 -340.8 107.42 -342.75 106.62 C-344.87 105.67 -344.87 105.67 -348.17 103.64 C-349.15 100.9 -349.15 100.9 -349.17 98.64 C-346.39 96.79 -345.35 96.33 -342.24 95.82 C-341.45 95.68 -340.67 95.55 -339.86 95.4 C-339.01 95.26 -338.17 95.11 -337.29 94.96 C-312.94 90.35 -290.07 80.08 -268.18 68.69 C-266.02 67.57 -263.84 66.47 -261.67 65.38 C-241.85 55.33 -223.06 42.87 -205.84 28.82 C-204.17 27.64 -204.17 27.64 -202.17 27.64 C-201.9 27.06 -201.64 26.47 -201.37 25.87 C-200.13 23.57 -198.79 21.94 -197.01 20.04 C-196.38 19.37 -195.76 18.7 -195.11 18.01 C-194.45 17.31 -193.79 16.61 -193.11 15.89 C-192.43 15.18 -191.76 14.47 -191.06 13.73 C-180.92 3.1 -180.92 3.1 -176.17 -0.36 C-175.51 -0.36 -174.85 -0.36 -174.17 -0.36 C-173.84 -1.35 -173.51 -2.34 -173.17 -3.36 C-124.62 -43.32 -46.49 -41.95 0 0 Z " fill="#83827A" transform="translate(349.16796875,119.35546875)"/>
<path d="M0 0 C1.78 1.6 1.78 1.6 3 3 C4 4 4 4 5.81 4.75 C8.65 6.37 10.05 8.38 12 11 C12.36 11.41 12.36 11.41 14.19 13.5 C16.09 16.13 16.74 17.79 17 21 C16.67 21.66 16.34 22.32 16 23 C16.99 23 17.98 23 19 23 C22.39 34.02 22.12 46.03 17.38 56.62 C17.15 57.02 17.15 57.02 16 59 C15.34 59 14.68 59 14 59 C13.96 59.68 13.92 60.36 13.88 61.06 C12.63 65.25 10.26 68.12 7 71 C4.25 71.69 4.25 71.69 2 72 C1.73 72.62 1.46 73.24 1.19 73.88 C-0.51 76.92 -2.68 77.39 -5.89 78.47 C-8.64 79.16 -11.18 79.21 -14 79 C-14 79.66 -14 80.32 -14 81 C-16.64 81 -19.28 81 -22 81 C-22 80.34 -22 79.68 -22 79 C-22.76 79.39 -23.53 79.78 -24.31 80.19 C-31.23 81.71 -37.74 78.99 -43.69 75.44 C-45.64 74.18 -45.64 74.18 -47 73 C-47 72.34 -47 71.68 -47 71 C-47.6 70.9 -48.2 70.79 -48.81 70.69 C-51.34 69.89 -52.35 69.04 -54 67 C-54.33 66.01 -54.66 65.02 -55 64 C-55.76 63.36 -56.53 62.72 -57.31 62.06 C-63.57 56 -64.44 45.73 -65.12 37.5 C-65 35 -65 35 -63 32 C-63.33 31.67 -63.66 31.34 -64 31 C-62.87 23.81 -60.94 16.55 -56 11 C-55.34 11 -54.68 11 -54 11 C-54 10.34 -54 9.68 -54 9 C-50.99 5.64 -48.02 3.07 -44 1 C-43.34 1 -42.68 1 -42 1 C-42 0.34 -42 -0.32 -42 -1 C-38.04 -2.32 -34.08 -3.64 -30 -5 C-30 -4.34 -30 -3.68 -30 -3 C-29.34 -3 -28.68 -3 -28 -3 C-28 -3.66 -28 -4.32 -28 -5 C-18.03 -7.32 -8.89 -4.75 0 0 Z " fill="#8A8A84" transform="translate(270,169)"/>
<path d="M0 0 C0.66 0 1.32 0 2 0 C1.98 0.93 1.96 1.85 1.94 2.8 C1.26 37.2 1.26 37.2 6 54 C6.14 54.51 6.14 54.51 6.83 57.11 C7.49 59.43 8.22 61.71 9 64 C9.28 64.85 9.56 65.71 9.85 66.59 C10.56 68.73 11.27 70.87 12 73 C12.66 73 13.32 73 14 73 C14.39 74.18 14.78 75.35 15.19 76.56 C17.28 82.14 20.01 86.67 25 90 C25.88 92.94 25.88 92.94 26 96 C25.03 97.03 24.03 98.03 23 99 C22.18 100.35 21.42 101.73 20.69 103.12 C15.85 112.07 10.19 119.81 3 127 C2.67 127.66 2.34 128.32 2 129 C0.21 129.98 -1.58 130.95 -3.37 131.92 C-5 133 -5 133 -6 135.12 C-6.33 135.74 -6.66 136.36 -7 137 C-8.61 137.47 -10.23 137.93 -11.87 138.3 C-15.44 139.47 -18.44 141.61 -21.57 143.66 C-24.12 145.06 -26.14 145.58 -29 146 C-30.09 146.19 -31.19 146.37 -32.31 146.56 C-32.76 146.63 -32.76 146.63 -35 147 C-33.09 142.87 -30.87 139.3 -28.19 135.65 C-26.65 133.51 -25.33 131.27 -24 129 C-23.58 128.36 -23.17 127.72 -22.74 127.05 C-22.29 126.36 -21.84 125.66 -21.38 124.94 C-20.95 124.29 -20.52 123.64 -20.09 122.96 C-18.99 120.97 -18.45 119.22 -18 117 C-17.34 117 -16.68 117 -16 117 C-15.83 116.39 -15.66 115.79 -15.48 115.16 C-13.42 108.04 -10.81 101.26 -7.92 94.45 C-6.75 91.34 -6.39 88.29 -6 85 C-5.34 85 -4.68 85 -4 85 C-2.65 79 -1.32 73 0 67 C0.23 65.94 0.47 64.88 0.71 63.79 C1.63 59.45 2.24 55.47 2 51 C0.68 51 -0.64 51 -2 51 C-2.27 51.58 -2.54 52.17 -2.81 52.77 C-8.73 63.9 -21.28 72.04 -32 78 C-32.66 78 -33.32 78 -34 78 C-34.16 78.5 -34.16 78.5 -35 81 C-37.22 82.03 -37.22 82.03 -40.06 82.94 C-43.43 84.03 -46.47 85.23 -49.56 86.93 C-55.07 89.75 -60.99 90.88 -67 92.19 C-68.14 92.45 -69.27 92.71 -70.45 92.97 C-85.99 96.46 -85.99 96.46 -94 95.56 C-94.95 95.46 -95.9 95.36 -96.88 95.25 C-97.23 95.21 -97.23 95.21 -99 95 C-95.33 91.06 -91.58 88.24 -87 85.44 C-75.65 78.41 -75.65 78.41 -74 74.81 C-73.67 74.21 -73.34 73.62 -73 73 C-72.62 72.93 -72.62 72.93 -70.69 72.56 C-66.99 71.79 -65.55 69.69 -63 67 C-62.01 66.67 -61.02 66.34 -60 66 C-60 65.34 -60 64.68 -60 64 C-58.43 62.41 -58.43 62.41 -56.31 60.62 C-55.58 60 -54.85 59.38 -54.1 58.74 C-52.49 57.4 -50.84 56.1 -49.19 54.81 C-47 53 -47 53 -45.31 50.75 C-44.88 50.17 -44.45 49.6 -44 49 C-43.34 49 -42.68 49 -42 49 C-41.96 48.42 -41.92 47.85 -41.88 47.25 C-40.57 43.89 -37.98 42.93 -35 41 C-33.62 39.37 -32.29 37.7 -31 36 C-28.79 33.74 -26.56 31.52 -24.25 29.38 C-23 28 -23 28 -22 25 C-20.59 23.82 -19.18 22.65 -17.74 21.51 C-11.33 15.96 -6.26 8.7 -1.45 1.77 C-0.97 1.18 -0.49 0.6 0 0 Z " fill="#807F76" transform="translate(114,231)"/>
<path d="M0 0 C0.16 0.33 0.16 0.33 1 2 C1.33 1.34 1.66 0.68 2 0 C9.62 -0.24 16.59 0.16 24 2 C24 2.66 24 3.32 24 4 C24.97 4.08 25.94 4.17 26.94 4.25 C40.54 6.25 50.86 16.64 59 27 C64.72 35.05 64.72 35.05 65 40 C64.67 40.99 64.34 41.98 64 43 C64.66 43 65.32 43 66 43 C68.02 47.22 68.41 51.21 68.62 55.81 C68.66 56.51 68.7 57.2 68.74 57.91 C68.84 59.61 68.92 61.3 69 63 C68.18 63.16 68.18 63.16 64 64 C63.67 62.68 63.67 62.68 62 56 C61.34 55.84 61.34 55.84 58 55 C56.63 53.57 55.27 52.13 53.91 50.69 C50.8 47.94 47.17 46.19 43.49 44.3 C41 43 41 43 38 41 C25.7 36.6 13.03 34.83 0 35 C0 34.01 0 33.02 0 32 C-0.66 32.99 -1.32 33.98 -2 35 C-4.85 35.95 -6.97 36.19 -9.94 36.38 C-14.18 36.72 -18.08 37.45 -22.19 38.56 C-26.99 39.85 -31.04 40.29 -36 40 C-36 40.66 -36 41.32 -36 42 C-36.8 42.33 -37.59 42.65 -38.41 42.99 C-47.39 46.69 -47.39 46.69 -51.56 48.81 C-54 50 -54 50 -57 50 C-57.8 50.82 -58.61 51.65 -59.44 52.5 C-62 55 -62 55 -66 55 C-66.16 54.5 -66.16 54.5 -67 52 C-66.01 52 -65.02 52 -64 52 C-64.23 51.13 -64.45 50.27 -64.69 49.38 C-65.07 45.25 -64.07 43.53 -62 40 C-61.61 39.22 -61.22 38.43 -60.81 37.62 C-60.54 37.09 -60.28 36.55 -60 36 C-58.68 36 -57.36 36 -56 36 C-56.11 35.71 -56.11 35.71 -56.69 34.25 C-57 32 -57 32 -55.69 29.75 C-55.13 29.17 -54.57 28.59 -54 28 C-53.34 28 -52.68 28 -52 28 C-51.73 27.24 -51.46 26.47 -51.19 25.69 C-50.04 23.1 -49.24 21.7 -47 20 C-46.01 20 -45.02 20 -44 20 C-44 19.34 -44 18.68 -44 18 C-40.24 14.01 -35.99 11.24 -31 9 C-30.35 8.64 -29.7 8.27 -29.02 7.9 C-23.66 4.95 -23.66 4.95 -20 5.25 C-19.34 5.5 -18.68 5.75 -18 6 C-18 5.34 -18 4.68 -18 4 C-14.69 2.1 -11.63 1.46 -7.88 0.88 C-6.82 0.71 -5.77 0.54 -4.68 0.37 C-2 0 -2 0 0 0 Z " fill="#93938F" transform="translate(248,120)"/>
<path d="M0 0 C-1.34 4.26 -2.96 8.22 -4.88 12.25 C-11.31 26.07 -15.62 39.91 -18.29 54.92 C-19 58 -19 58 -21 61 C-23.8 61.84 -23.8 61.84 -27.31 62.5 C-28.56 62.74 -29.81 62.99 -31.09 63.24 C-32.38 63.49 -33.67 63.74 -35 64 C-37.44 64.53 -39.88 65.07 -42.31 65.62 C-43.38 65.86 -44.45 66.1 -45.55 66.35 C-48 67 -48 67 -49 68 C-55.51 69.09 -61.91 69.12 -68.5 69.06 C-69.51 69.06 -70.53 69.05 -71.57 69.05 C-74.05 69.04 -76.52 69.02 -79 69 C-79 69.66 -79 70.32 -79 71 C-79.85 70.8 -80.69 70.59 -81.56 70.38 C-91.96 67.91 -91.96 67.91 -96.5 67.44 C-99.8 67.02 -101.97 66.3 -105 65 C-106.62 64.51 -108.25 64.03 -109.88 63.56 C-114.09 62.33 -118.01 60.82 -122 59 C-119.46 56.46 -117.41 56.06 -113.97 55.05 C-112.77 54.7 -111.56 54.35 -110.32 53.98 C-109.06 53.62 -107.8 53.25 -106.5 52.88 C-105.24 52.5 -103.98 52.13 -102.68 51.75 C-93.29 49 -93.29 49 -91 49 C-91 48.34 -91 47.68 -91 47 C-89.02 47 -87.04 47 -85 47 C-85 46.34 -85 45.68 -85 45 C-83.56 44.49 -82.13 44 -80.69 43.5 C-79.89 43.22 -79.09 42.94 -78.26 42.66 C-76 42 -76 42 -73 42 C-72.67 41.01 -72.34 40.02 -72 39 C-70.3 38.23 -70.3 38.23 -68.09 37.64 C-62.58 35.96 -57.66 33.46 -52.56 30.81 C-50.79 29.9 -49.03 28.99 -47.25 28.08 C-46.48 27.68 -45.71 27.28 -44.92 26.87 C-43 26 -43 26 -41 26 C-41 25.01 -41 24.02 -41 23 C-40.03 22.79 -39.06 22.59 -38.06 22.38 C-33.98 21.21 -30.91 19.12 -27.45 16.71 C-24.85 14.89 -22.19 13.19 -19.5 11.5 C-14.62 8.41 -9.8 5.23 -5 2 C-2 0 -2 0 0 0 Z " fill="#807F76" transform="translate(137,163)"/>
<path d="M0 0 C1.3 -0.03 2.61 -0.05 3.95 -0.08 C7.93 0.27 10.34 1.24 13.75 3.25 C13.75 4.24 13.75 5.23 13.75 6.25 C12.76 6.25 11.77 6.25 10.75 6.25 C10.58 5.92 10.58 5.92 9.75 4.25 C6.41 6.71 4.54 8.55 2.75 12.25 C1.76 12.58 0.77 12.91 -0.25 13.25 C0.08 14.24 0.41 15.23 0.75 16.25 C1.74 16.58 2.73 16.91 3.75 17.25 C4.41 18.24 5.07 19.23 5.75 20.25 C9.06 20.75 9.06 20.75 12.75 20.25 C15.5 17.94 15.5 17.94 17.75 15.25 C18.75 14.25 19.75 13.25 20.75 12.25 C22.75 14.25 22.75 14.25 22.98 17.62 C22.98 18.98 22.96 20.33 22.94 21.69 C22.94 22.37 22.94 23.05 22.94 23.75 C22.91 26.85 22.73 29.3 21.75 32.25 C20.76 32.25 19.77 32.25 18.75 32.25 C18.42 33.24 18.09 34.23 17.75 35.25 C18.08 35.58 18.41 35.91 18.75 36.25 C14.44 42.1 14.44 42.1 10.75 43.25 C8.5 42.88 8.5 42.88 6.75 42.25 C6.75 43.24 6.75 44.23 6.75 45.25 C3.6 46.26 1.9 46.12 -1.25 45.25 C-2.62 45.14 -4 45.04 -5.38 44.94 C-6.65 44.71 -7.93 44.48 -9.25 44.25 C-10.44 42.25 -10.44 42.25 -11.25 40.25 C-12.91 39.88 -14.58 39.54 -16.25 39.25 C-18.25 36.25 -18.25 36.25 -17.88 34.06 C-17.67 33.46 -17.46 32.87 -17.25 32.25 C-18.57 32.25 -19.89 32.25 -21.25 32.25 C-22.5 24.62 -22.5 24.62 -20.25 21.25 C-20.58 20.92 -20.91 20.59 -21.25 20.25 C-21.49 14.72 -21.49 14.72 -20.25 12.25 C-19.26 12.25 -18.27 12.25 -17.25 12.25 C-17.31 11.49 -17.37 10.72 -17.44 9.94 C-17.25 7.25 -17.25 7.25 -16.06 5.44 C-13.69 3.88 -12.03 4.02 -9.25 4.25 C-9.25 3.26 -9.25 2.27 -9.25 1.25 C-6.22 -0.27 -3.37 0.04 0 0 Z " fill="#93938F" transform="translate(249.25,183.75)"/>
<path d="M0 0 C4.74 2.37 8.05 4.57 11 9 C11.97 9.47 12.94 9.95 13.94 10.44 C17 12 17 12 18.44 13.94 C20.33 16.44 22.55 17.53 25.28 18.98 C27.56 20.33 29.25 22.04 31 24 C30.29 25.66 29.58 27.32 28.87 28.98 C28.58 29.64 28.29 30.31 28 31 C27.44 32.31 26.88 33.62 26.31 34.94 C25.88 35.95 25.45 36.96 25 38 C24.34 38 23.68 38 23 38 C22.95 38.28 22.95 38.28 22.67 39.71 C22.51 40.45 22.35 41.18 22.19 41.94 C22.04 42.67 21.89 43.4 21.73 44.15 C21.49 44.76 21.25 45.37 21 46 C20.5 46.17 20.5 46.17 18 47 C16.25 48.74 16.25 48.74 14.44 50.88 C13.84 51.57 13.24 52.27 12.62 52.99 C11 55 11 55 9 58 C7.34 59.01 5.67 60.01 4 61 C2.92 61.88 1.86 62.78 0.81 63.69 C-2 66 -2 66 -4 66 C-3.12 59.47 -3.12 59.47 -2.44 56.81 C-2 55 -2 55 -2 51 C-1.68 50.06 -1.36 49.11 -1.04 48.14 C0.03 44.9 0.37 42.15 0.56 38.75 C0.92 33.15 1.41 27.58 2 22 C1.34 21.67 0.68 21.34 0 21 C0 14.07 0 7.14 0 0 Z " fill="#807F76" transform="translate(143,330)"/>
<path d="M0 0 C8.15 4.94 13.42 11.1 17.65 19.61 C18.02 20.35 18.4 21.1 18.79 21.87 C21.64 30.92 20.61 42.78 16.83 51.36 C11.65 61.21 3.46 68.57 -7.3 71.98 C-18.49 74.27 -29.1 73.15 -38.82 67.06 C-47.62 60.66 -53.5 52.15 -56.1 41.54 C-57.18 28.83 -54.56 18.91 -46.82 8.56 C-35.29 -4.21 -15.25 -7.46 0 0 Z M-45.45 11.32 C-52.71 20.06 -54.1 29.57 -53.35 40.61 C-51.52 51.4 -45.14 59.32 -36.35 65.61 C-27.93 70.18 -19.8 72.06 -10.31 69.92 C-3.69 67.9 1.56 65.31 6.65 60.61 C6.92 60.36 6.92 60.36 8.29 59.12 C14.44 52.83 17.87 43.71 18.15 34.98 C18.11 32.1 18.02 31.03 16.12 28.83 C15.63 28.43 15.15 28.02 14.65 27.61 C15.31 27.61 15.97 27.61 16.65 27.61 C14.96 17.61 10.43 11.08 2.65 4.61 C-2.36 1.47 -7.39 -1.01 -13.35 -1.39 C-14 -1.44 -14.66 -1.5 -15.33 -1.55 C-27.69 -2.09 -36.97 2.62 -45.45 11.32 Z " fill="#807F76" transform="translate(266.3515625,172.39453125)"/>
<path d="M0 0 C1.2 0.17 2.39 0.33 3.62 0.5 C3.46 1.1 3.3 1.7 3.12 2.31 C2.62 4.5 2.62 4.5 2.62 7.5 C1.53 9.54 1.53 9.54 0.12 11.69 C-0.11 12.05 -0.11 12.05 -1.28 13.86 C-1.64 14.4 -2 14.94 -2.38 15.5 C1.15 11.65 3.79 8.44 5.62 3.5 C9.27 1.07 11.34 1.34 15.62 1.5 C16.66 4.71 16.85 6.04 15.33 9.11 C14.71 10 14.08 10.89 13.44 11.81 C10.42 16.26 7.92 20.64 5.62 25.5 C2.66 25.5 -0.31 25.5 -3.38 25.5 C-3.05 24.18 -2.72 22.86 -2.38 21.5 C-3.37 21.5 -4.35 21.5 -5.38 21.5 C-5.38 20.84 -5.38 20.18 -5.38 19.5 C-5.83 20.45 -6.28 21.4 -6.75 22.38 C-8.29 24.75 -9.14 25.42 -11.87 26.34 C-14.37 26.83 -16.84 27.22 -19.38 27.5 C-17.45 23.21 -14.75 20.73 -11.38 17.5 C-14.01 19.48 -16.66 21.46 -19.38 23.5 C-17.66 18.77 -15.17 15.13 -12.23 11.08 C-11.06 9.45 -9.93 7.78 -8.86 6.07 C-6.31 2.13 -4.92 0.02 0 0 Z " fill="#818077" transform="translate(250.375,124.5)"/>
<path d="M0 0 C5.75 0.75 5.75 0.75 8 3 C7.01 4.32 6.02 5.64 5 7 C5.66 6.67 6.32 6.34 7 6 C7 6.66 7 7.32 7 8 C7.56 7.48 8.11 6.97 8.69 6.44 C11 5 11 5 13.75 5.31 C14.49 5.54 15.24 5.77 16 6 C16 10 16 10 15 12 C15.66 12 16.32 12 17 12 C15.41 17.09 12.26 20.87 9 25 C1.25 24.12 1.25 24.12 -1 23 C-0.67 21.35 -0.34 19.7 0 18 C-1.32 19.65 -2.64 21.3 -4 23 C-6.44 22.62 -6.44 22.62 -9 22 C-9.33 21.34 -9.66 20.68 -10 20 C-10.99 20.33 -11.98 20.66 -13 21 C-11.73 17.56 -10.26 14.65 -8.19 11.62 C-7.66 10.86 -7.14 10.09 -6.6 9.29 C-4.43 6.18 -2.23 3.08 0 0 Z " fill="#818077" transform="translate(271,128)"/>
<path d="M0 0 C0.8 2.09 0.8 2.09 1 5 C-0.53 7.38 -1.99 9.37 -3.81 11.5 C-6.86 15.14 -9.52 18.41 -11 23 C-11.66 23 -12.32 23 -13 23 C-13.33 23.99 -13.66 24.98 -14 26 C-17.65 27.62 -20.19 28.46 -24 27 C-23.67 25.02 -23.34 23.04 -23 21 C-22.2 20.88 -21.39 20.75 -20.56 20.62 C-19.72 20.42 -18.87 20.21 -18 20 C-17.67 19.34 -17.34 18.68 -17 18 C-17.66 18.33 -17.66 18.33 -21 20 C-18.52 15.63 -15.63 11.71 -12.56 7.75 C-12.08 7.11 -11.61 6.48 -11.12 5.82 C-10.65 5.21 -10.18 4.61 -9.69 3.98 C-9.27 3.43 -8.85 2.89 -8.42 2.32 C-5.89 -0.04 -3.35 0 0 0 Z " fill="#818178" transform="translate(239,127)"/>
<path d="M0 0 C10.92 2.26 19.42 8.93 26.13 17.82 C30.41 24.38 33.38 30 33 38 C31.68 38 30.36 38 29 38 C28.73 37.18 28.46 36.36 28.19 35.51 C22.68 19.82 13.38 11.52 -1 4 C-0.67 2.68 -0.34 1.36 0 0 Z " fill="#949490" transform="translate(351,280)"/>
<path d="M0 0 C3.88 2.62 3.88 2.62 5 6 C5.5 6.31 5.5 6.31 8 7.88 C11 10 11 10 12 12.62 C12 13.41 12 14.19 12 15 C11.34 15.66 10.68 16.32 10 17 C10.66 17.33 11.32 17.66 12 18 C10.69 20.5 10.69 20.5 9 23 C8.01 23 7.02 23 6 23 C6 22.34 6 21.68 6 21 C4.35 20.67 2.7 20.34 1 20 C1.33 19.2 1.66 18.39 2 17.56 C3 15 3 15 3 14 C2.5 14.82 2.5 14.82 0 19 C-2.38 18.69 -2.38 18.69 -5 18 C-5.66 17.01 -6.32 16.02 -7 15 C-5.68 13.68 -4.36 12.36 -3 11 C-3.78 11.66 -4.57 12.32 -5.38 13 C-8 15 -8 15 -10 15 C-8.66 11.2 -6.96 8.39 -4.44 5.25 C-3.82 4.47 -3.2 3.69 -2.56 2.89 C-1 1 -1 1 0 0 Z " fill="#807F76" transform="translate(292,139)"/>
<path d="M0 0 C0.33 0.66 0.66 1.32 1 2 C0.34 2.86 -0.33 3.71 -1.01 4.6 C-1.44 5.15 -1.86 5.7 -2.3 6.27 C-3.23 7.47 -4.16 8.66 -5.09 9.86 C-7.45 12.91 -9.65 15.97 -11.69 19.25 C-14 22 -14 22 -17.81 22.94 C-18.34 22.95 -18.34 22.95 -21 23 C-19.62 20.5 -19.62 20.5 -18 18 C-17.34 18 -16.68 18 -16 18 C-15.74 17.41 -15.47 16.82 -15.2 16.22 C-13.94 13.9 -12.62 12.39 -10.74 10.55 C-10.43 10.24 -10.43 10.24 -8.85 8.67 C-8.2 8.04 -7.55 7.4 -6.88 6.75 C-6.22 6.1 -5.56 5.45 -4.88 4.78 C-3.26 3.18 -1.63 1.59 0 0 Z " fill="#807F76" transform="translate(221,137)"/>
<path d="M0 0 C0.33 0.66 0.66 1.32 1 2 C-1.05 4.9 -3.12 7.8 -5.19 10.69 C-5.48 11.1 -5.48 11.1 -6.94 13.16 C-10.02 17.46 -13 21.52 -17 25 C-17.66 25 -18.32 25 -19 25 C-15.24 14.79 -7.78 7.35 0 0 Z " fill="#807F76" transform="translate(209,140)"/>
</svg>
