<?xml version="1.0" encoding="UTF-8"?>
<!-- Generator: visioncortex VTracer 0.6.5 -->
<svg version="1.1" xmlns="http://www.w3.org/2000/svg" width="769" height="769">
<path d="M0 0 C0.375 -0 0.749 -0.001 1.135 -0.001 C29.408 -0.004 56.608 5.311 82.75 16.25 C83.132 16.408 83.514 16.566 83.907 16.729 C102.107 24.293 119.052 35.107 133.75 48.25 C134.243 48.684 134.736 49.118 135.244 49.565 C141.507 55.087 147.529 60.71 152.75 67.25 C152.934 67.478 152.934 67.478 153.865 68.631 C178.513 99.311 194.187 135.606 200.227 174.477 C200.991 179.714 201.455 184.967 201.75 190.25 C203.73 190.91 205.71 191.57 207.75 192.25 C214.901 199.783 214.901 199.783 216.125 203.312 C217.343 208.639 217.829 213.952 217.989 219.4 C218.941 251.081 228.069 281.334 244.562 308.355 C247.985 313.868 251.811 319.097 255.75 324.25 C256.11 324.722 256.471 325.194 256.842 325.681 C275.723 350.135 298.998 368.902 324.888 385.472 C335.497 392.265 345.775 399.342 354.75 408.25 C355.103 408.599 355.455 408.947 355.818 409.306 C365.782 419.349 373.157 432.347 376.863 446 C378.027 450.617 378.104 455.199 378.062 459.938 C378.062 460.155 378.062 460.155 378.057 461.257 C377.991 470.659 376.992 479.688 372.5 488.125 C369.589 493.076 365.729 497.532 360.77 500.5 C358.822 501.571 356.813 502.43 354.75 503.25 C354.491 503.363 354.491 503.363 353.18 503.934 C346.819 506.251 338.951 506.075 332.346 505.027 C328.427 504.17 324.707 502.74 321.11 500.981 C311.948 496.69 303.802 496.764 293.911 497.105 C289.328 497.258 284.742 497.274 280.156 497.293 C279.7 497.295 279.244 497.297 278.774 497.3 C256.106 497.388 234.808 491.987 212.986 486.429 C201.349 483.47 189.714 480.741 177.91 478.523 C177.337 478.415 176.763 478.307 176.172 478.196 C170.62 477.153 165.063 476.138 159.497 475.17 C139.367 471.653 119.243 466.356 100.833 457.276 C100.5 457.112 100.166 456.948 99.822 456.779 C99.468 456.604 99.115 456.43 98.75 456.25 C98.361 456.06 97.973 455.87 97.572 455.674 C81.645 447.884 67.12 438.587 52.75 428.25 C52.314 428.305 51.877 428.361 51.427 428.418 C4.821 434.269 -42.569 430.927 -113.67 407.985 C-114.68 407.555 -115.687 407.118 -116.689 406.671 C-118.965 405.675 -120.707 404.974 -123.25 405.25 C-123.362 405.714 -123.474 406.178 -123.59 406.656 C-128.258 423.746 -140.816 440.129 -153.189 452.451 C-155.182 454.413 -157.202 456.345 -159.25 458.25 C-159.91 458.25 -160.57 458.25 -161.25 458.25 C-161.25 458.91 -161.25 459.57 -161.25 460.25 C-171.637 468.376 -182.154 476.117 -193.25 483.25 C-194.9 482.92 -196.55 482.59 -198.25 482.25 C-198.91 480.6 -199.57 478.95 -200.25 477.25 C-200.064 476.824 -199.878 476.398 -199.687 475.959 C-193.901 462.593 -189.231 449.206 -186.5 434.875 C-186.384 434.27 -186.269 433.664 -186.149 433.041 C-184.172 421.875 -183.997 410.574 -183.718 399.27 C-183.667 397.231 -183.611 395.193 -183.557 393.154 C-183.451 389.186 -183.349 385.218 -183.25 381.25 C-186.252 384.132 -188.972 386.979 -191.301 390.43 C-191.84 391.202 -192.38 391.974 -192.92 392.746 C-193.74 393.93 -194.556 395.116 -195.367 396.306 C-198.908 401.485 -202.556 405.744 -207.43 409.716 C-209.239 411.196 -210.803 412.838 -212.375 414.562 C-229.539 432.154 -255.327 442.531 -278.559 449.146 C-279.206 449.327 -279.853 449.508 -280.5 449.688 C-281.084 449.852 -281.668 450.016 -282.27 450.186 C-286.311 451.231 -290.085 451.427 -294.25 451.25 C-295.24 450.26 -296.23 449.27 -297.25 448.25 C-296.92 446.6 -296.59 444.95 -296.25 443.25 C-295.644 442.728 -295.038 442.206 -294.414 441.668 C-283.749 432.355 -274.843 422.2 -267.25 410.25 C-267.056 409.945 -266.861 409.64 -266.661 409.325 C-249.281 381.954 -239.092 352.238 -230.25 321.25 C-230.027 320.471 -229.804 319.692 -229.581 318.914 C-229.136 317.359 -228.692 315.805 -228.25 314.25 C-228.494 314.455 -228.738 314.659 -228.99 314.87 C-232.08 317.449 -235.2 319.988 -238.335 322.512 C-239.275 323.27 -240.212 324.03 -241.149 324.791 C-251.575 333.221 -262.247 340.269 -274.25 346.25 C-274.64 346.446 -275.029 346.641 -275.431 346.842 C-301.957 360.106 -331.408 367.738 -361.132 367.456 C-362.809 367.44 -364.486 367.435 -366.163 367.436 C-373.251 367.435 -380.231 367.286 -387.25 366.25 C-387.91 365.755 -387.91 365.755 -391.25 363.25 C-390.92 361.27 -390.59 359.29 -390.25 357.25 C-386.366 354.739 -382.485 352.289 -378.348 350.215 C-378.186 350.133 -378.186 350.133 -377.365 349.722 C-376.695 349.386 -376.024 349.049 -375.353 348.713 C-365.645 343.808 -356.95 337.745 -348.25 331.25 C-347.651 330.806 -347.052 330.361 -346.453 329.917 C-339.759 324.94 -333.305 319.702 -326.975 314.274 C-324.122 311.828 -321.242 309.429 -318.296 307.095 C-305.663 297.029 -294.308 285.398 -282.884 274.007 C-282.136 273.261 -281.386 272.515 -280.637 271.77 C-275.213 266.372 -269.938 260.907 -264.97 255.085 C-263.16 252.987 -261.255 250.972 -259.375 248.938 C-255.602 244.823 -252.015 240.595 -248.515 236.246 C-245.785 232.864 -242.95 229.599 -239.988 226.417 C-237.394 223.58 -235.317 220.481 -233.25 217.25 C-233.425 217.303 -233.425 217.303 -234.313 217.57 C-265.386 226.845 -298.263 229.874 -330.25 223.25 C-330.456 223.208 -330.456 223.208 -331.496 222.993 C-351.301 218.852 -369.957 211.791 -388.25 203.25 C-389.24 201.93 -390.23 200.61 -391.25 199.25 C-390.59 197.6 -389.93 195.95 -389.25 194.25 C-384.594 193.196 -379.935 192.178 -375.254 191.242 C-353.943 186.943 -333.707 180.502 -313.625 172.25 C-313.272 172.105 -312.918 171.961 -312.554 171.812 C-302.868 167.845 -293.463 163.475 -284.141 158.716 C-280.807 157.017 -277.442 155.383 -274.074 153.75 C-233.283 133.853 -188.026 109.478 -158.436 74.281 C-148.008 61.906 -136.398 50.689 -123.25 41.25 C-122.925 41.015 -122.6 40.78 -122.266 40.538 C-92.707 19.211 -58.171 4.739 -21.801 0.688 C-14.562 -0.04 -7.269 0.003 0 0 Z " fill="#8E5A32" transform="translate(391.25,131.75)"/>
<path d="M0 0 C15.598 8.28 28.881 19.303 41.841 31.216 C41.841 31.876 41.841 32.536 41.841 33.216 C42.501 33.216 43.161 33.216 43.841 33.216 C67.523 59.172 84.404 91.222 92.102 125.566 C92.719 128.442 93.294 131.325 93.841 134.216 C93.941 134.744 94.042 135.273 94.145 135.818 C95.463 142.922 96.302 150.012 96.841 157.216 C96.475 157.371 96.108 157.527 95.731 157.687 C94.628 158.156 93.526 158.626 92.424 159.096 C91.147 159.641 89.869 160.181 88.589 160.718 C85.66 161.955 82.784 163.203 79.99 164.727 C74.36 167.756 69.217 169.023 62.793 168.941 C55.357 168.471 49.001 165.494 42.335 162.372 C37.974 160.335 33.549 158.437 29.136 156.516 C27.619 155.853 26.107 155.18 24.595 154.505 C23.651 154.088 22.707 153.671 21.763 153.255 C21.551 153.159 21.551 153.159 20.48 152.675 C15.52 150.502 10.388 149.693 4.98 150.084 C-1.209 150.8 -6.93 153.151 -12.032 156.68 C-16.451 159.983 -19.846 164.039 -22.052 169.124 C-25.188 177.579 -24.65 186.746 -24.712 195.629 C-24.926 225.767 -24.926 225.767 -29.284 239.153 C-29.388 239.477 -29.492 239.801 -29.599 240.135 C-35.997 259.798 -49.24 274.58 -64.319 288.269 C-65.322 289.155 -66.331 290.032 -67.346 290.903 C-75.399 297.822 -82.056 304.818 -87.159 314.216 C-87.347 314.559 -87.535 314.903 -87.729 315.257 C-91.026 321.575 -91.423 329.22 -91.159 336.216 C-90.334 344.663 -88.019 353.177 -83.159 360.216 C-75.649 370.257 -65.631 377.538 -55.159 384.216 C-55.159 384.876 -55.159 385.536 -55.159 386.216 C-94.763 392.988 -140.099 386.623 -178.159 375.216 C-178.361 375.156 -178.361 375.156 -179.385 374.852 C-208.942 366.055 -236.269 351.619 -258.372 329.983 C-259.199 329.176 -260.033 328.378 -260.867 327.579 C-265.186 323.398 -268.97 318.943 -272.596 314.153 C-272.876 313.786 -273.156 313.418 -273.444 313.04 C-278.717 306.084 -283.174 298.99 -287.159 291.216 C-287.46 290.647 -287.761 290.079 -288.071 289.494 C-302.631 261.794 -306.112 228.648 -305.016 197.785 C-303.216 155.491 -289.686 111.744 -266.987 76.021 C-258.08 62.194 -247.732 49.551 -236.458 37.594 C-235.642 36.729 -234.829 35.861 -234.02 34.99 C-227.399 27.891 -219.903 22.022 -212.159 16.216 C-211.704 15.873 -211.248 15.53 -210.779 15.176 C-203.646 9.849 -195.978 5.442 -188.159 1.216 C-187.853 1.05 -187.547 0.884 -187.232 0.712 C-145.286 -22.023 -98.444 -28.151 0 0 Z " fill="#6ABBE3" transform="translate(486.15875244140625,164.7843017578125)"/>
<path d="M0 0 C7.814 3.753 14.208 9.182 20.3 15.269 C20.481 15.442 20.481 15.442 21.394 16.322 C29.075 23.784 34.25 33.55 37.175 43.831 C40.069 55.378 40.01 67.555 36.807 79.037 C32.977 91.107 26.545 101.598 17.3 110.269 C8.958 117.614 -1.49 123.498 -12.412 125.889 C-17.01 126.747 -21.727 126.662 -26.387 126.644 C-26.919 126.643 -27.45 126.642 -27.998 126.641 C-36.533 126.595 -43.867 125.913 -51.7 122.269 C-52.225 122.038 -52.751 121.807 -53.292 121.569 C-63.834 116.851 -72.771 109.696 -79.766 100.493 C-83.565 95.156 -86.341 89.36 -88.7 83.269 C-88.865 82.872 -89.03 82.475 -89.2 82.066 C-93.118 72.399 -92.827 60.499 -91.7 50.269 C-90.841 44.68 -88.944 39.436 -86.7 34.269 C-86.475 33.747 -86.25 33.226 -86.019 32.689 C-82.608 25.09 -77.587 19.092 -71.7 13.269 C-71.362 12.933 -71.024 12.598 -70.676 12.253 C-62.455 4.257 -53.302 -0.509 -42.222 -3.372 C-28.421 -6.633 -13.064 -5.622 0 0 Z " fill="#8F5931" transform="translate(399.69970703125,249.7314453125)"/>
<path d="M0 0 C0.336 0.124 0.673 0.247 1.019 0.374 C10.338 3.839 18.858 8.271 27 14 C27.734 14.497 28.469 14.995 29.203 15.492 C33.86 18.728 37.524 22.49 41.089 26.882 C42.049 28.06 43.025 29.221 44.004 30.383 C52.415 40.48 57.398 50.462 61 63 C61.134 63.443 61.268 63.886 61.407 64.342 C64.029 73.208 63.183 82.854 63 92 C62.34 92.66 61.68 93.32 61 94 C59.35 94 57.7 94 56 94 C54 92 54 92 52 85 C51.01 84.01 50.02 83.02 49 82 C49 81.34 49 80.68 49 80 C48.34 80 47.68 80 47 80 C47 79.34 47 78.68 47 78 C46.426 77.743 45.853 77.487 45.262 77.223 C43.227 76.205 41.659 74.934 39.959 73.437 C27.652 62.712 12.626 57.185 -2.986 53.255 C-3.869 53.033 -4.749 52.805 -5.63 52.575 C-8.738 51.789 -11.811 51.31 -15 51 C-15.32 50.968 -15.641 50.936 -15.971 50.904 C-49.085 47.689 -83.436 54.289 -113.706 67.887 C-121.178 71.307 -128.451 74.985 -135 80 C-136.65 79.67 -138.3 79.34 -140 79 C-140.33 78.67 -140.66 78.34 -141 78 C-141.552 74.516 -141.279 71.545 -140.098 68.25 C-138.861 65.107 -137.46 62.045 -136 59 C-135.888 58.765 -135.888 58.765 -135.319 57.576 C-127.123 40.801 -113.754 25.998 -98.39 15.417 C-87.204 7.892 -74.948 2.639 -62 -1 C-61.462 -1.164 -60.925 -1.327 -60.371 -1.496 C-42.114 -6.924 -17.922 -6.619 0 0 Z " fill="#8E5931" transform="translate(413,184)"/>
<path d="M0 0 C8.49 3.448 15.397 9.214 21.235 16.211 C25.06 21.146 27.952 27.263 29.041 33.439 C30.173 42.932 30.273 53.389 26.54 62.297 C24.426 66.71 21.499 70.313 18.216 73.902 C17.906 74.258 17.597 74.614 17.278 74.98 C12.456 80.504 7.184 84.46 0.216 86.902 C-5.23 88.601 -10.4 89.309 -16.097 89.277 C-16.281 89.277 -16.281 89.277 -17.211 89.275 C-24.523 89.226 -30.63 87.848 -37.033 84.188 C-39.402 82.765 -41.656 81.222 -43.872 79.572 C-44.631 79.015 -45.416 78.493 -46.206 77.98 C-51.134 74.588 -54.926 68.799 -57.47 63.463 C-59.565 58.53 -61.433 53.28 -61.784 47.902 C-61.81 47.619 -61.81 47.619 -61.941 46.187 C-62.324 38.386 -60.283 30.566 -56.835 23.597 C-52.963 16.341 -48.034 9.797 -41.063 5.299 C-36.539 2.569 -31.841 0.437 -26.784 -1.098 C-26.194 -1.281 -25.604 -1.464 -24.995 -1.653 C-17.124 -3.534 -7.533 -2.74 0 0 Z " fill="#8F5931" transform="translate(388.784423828125,267.097900390625)"/>
<path d="M0 0 C8.49 3.448 15.397 9.214 21.235 16.211 C25.06 21.146 27.952 27.263 29.041 33.439 C30.173 42.932 30.273 53.389 26.54 62.297 C24.426 66.71 21.499 70.313 18.216 73.902 C17.906 74.258 17.597 74.614 17.278 74.98 C12.456 80.504 7.184 84.46 0.216 86.902 C-5.23 88.601 -10.4 89.309 -16.097 89.277 C-16.281 89.277 -16.281 89.277 -17.211 89.275 C-24.523 89.226 -30.63 87.848 -37.033 84.188 C-39.402 82.765 -41.656 81.222 -43.872 79.572 C-44.631 79.015 -45.416 78.493 -46.206 77.98 C-51.134 74.588 -54.926 68.799 -57.47 63.463 C-59.565 58.53 -61.433 53.28 -61.784 47.902 C-61.81 47.619 -61.81 47.619 -61.941 46.187 C-62.324 38.386 -60.283 30.566 -56.835 23.597 C-52.963 16.341 -48.034 9.797 -41.063 5.299 C-36.539 2.569 -31.841 0.437 -26.784 -1.098 C-26.194 -1.281 -25.604 -1.464 -24.995 -1.653 C-17.124 -3.534 -7.533 -2.74 0 0 Z M-33.636 13.34 C-39.759 17.706 -44.251 23.773 -47.573 30.5 C-48.121 31.968 -48.483 33.364 -48.784 34.902 C-48.85 35.216 -48.916 35.53 -48.983 35.853 C-50.26 42.312 -49.78 48.625 -47.784 54.902 C-46.507 58.145 -44.761 61.042 -42.784 63.902 C-42.568 64.222 -42.352 64.541 -42.129 64.87 C-38.201 70.491 -32.892 73.928 -26.784 76.902 C-21.857 79.179 -16.435 79.452 -11.087 79.05 C-4.859 78.343 0.815 76.073 5.951 72.506 C11.465 68.39 16.321 63.434 19.191 57.109 C22.157 49.579 22.005 41.449 21.049 33.518 C20.395 29.531 18.778 26.534 16.329 23.347 C11.894 17.959 6.684 12.752 0.216 9.902 C-11.777 5.673 -22.924 6.121 -33.636 13.34 Z " fill="#6ABBE3" transform="translate(388.784423828125,267.097900390625)"/>
<path d="M0 0 C2.64 0.66 5.28 1.32 8 2 C9.32 3.65 10.64 5.3 12 7 C12 9.97 12 12.94 12 16 C8.25 20.875 8.25 20.875 6 22 C3.03 22 0.06 22 -3 22 C-7.875 18.25 -7.875 18.25 -9 16 C-9 13.03 -9 10.06 -9 7 C-5 2 -5 2 0 0 Z " fill="#6ABBE3" transform="translate(388,285)"/>
<path d="M0 0 C2.97 0.33 5.94 0.66 9 1 C9.66 1.66 10.32 2.32 11 3 C10.664 3.306 10.328 3.612 9.981 3.927 C3.406 9.922 -3.054 15.984 -9.301 22.321 C-12.381 25.428 -15.521 28.343 -19 31 C-19.66 30.67 -20.32 30.34 -21 30 C-14.359 19.739 -7.197 9.874 0 0 Z " fill="#6ABBE3" transform="translate(390,189)"/>
<path d="M0 0 C0 0.99 0 1.98 0 3 C-0.286 3.386 -0.572 3.773 -0.867 4.171 C-7.405 13.008 -13.8 21.922 -20 31 C-22.145 31.495 -22.145 31.495 -33 34 C-28.507 27.613 -23.458 22.178 -17.905 16.699 C-16.497 15.31 -15.098 13.912 -13.699 12.514 C-9.299 8.131 -4.914 3.809 0 0 Z " fill="#6ABBE3" transform="translate(356,199)"/>
<path d="M0 0 C3.63 0 7.26 0 11 0 C5.206 6.952 -0.954 13.323 -7.841 19.199 C-12.475 23.202 -16.716 27.63 -21 32 C-21 31.01 -21 30.02 -21 29 C-14.577 18.883 -7.349 9.455 0 0 Z " fill="#6ABBE3" transform="translate(370,189)"/>
<path d="M0 0 C2.64 0.66 5.28 1.32 8 2 C8.66 2.66 9.32 3.32 10 4 C8.335 5.522 6.668 7.043 5 8.562 C4.75 8.79 4.5 9.018 4.243 9.253 C1.113 12.105 -2.041 14.924 -5.25 17.688 C-9.02 20.942 -12.529 24.431 -16 28 C-16.66 28 -17.32 28 -18 28 C-18 28.66 -18 29.32 -18 30 C-18.66 29.67 -19.32 29.34 -20 29 C-13.889 18.84 -7.436 9.24 0 0 Z " fill="#6ABBE3" transform="translate(408,193)"/>
<path d="M0 0 C1.98 0.66 3.96 1.32 6 2 C6.66 3.32 7.32 4.64 8 6 C7.01 6.33 6.02 6.66 5 7 C4.67 7.99 4.34 8.98 4 10 C3.539 10.401 3.077 10.802 2.602 11.215 C-2.988 16.082 -8.502 21.03 -14 26 C-15.32 26 -16.64 26 -18 26 C-16.564 22.911 -14.855 20.277 -12.812 17.559 C-12.661 17.354 -12.661 17.354 -11.894 16.319 C-10.932 15.023 -9.966 13.73 -9 12.438 C-8.035 11.141 -7.07 9.843 -6.106 8.545 C-5.508 7.741 -4.91 6.937 -4.31 6.134 C-2.812 4.125 -1.367 2.101 0 0 Z " fill="#6ABBE3" transform="translate(424,200)"/>
<path d="M0 0 C0 0.99 0 1.98 0 3 C-1.794 5.776 -3.591 8.551 -5.389 11.325 C-6 12.268 -6.61 13.21 -7.219 14.153 C-8.099 15.515 -8.981 16.875 -9.863 18.234 C-10.132 18.651 -10.401 19.068 -10.678 19.497 C-10.938 19.898 -11.198 20.298 -11.466 20.71 C-11.69 21.056 -11.915 21.403 -12.146 21.76 C-13.376 23.545 -14.699 25.265 -16 27 C-20.29 27.66 -24.58 28.32 -29 29 C-26.807 25.346 -25.59 23.33 -22.5 20.875 C-18.948 17.917 -15.675 14.731 -12.438 11.438 C-8.461 7.401 -4.406 3.564 0 0 Z " fill="#6ABBE3" transform="translate(377,198)"/>
<path d="M0 0 C0 0.99 0 1.98 0 3 C-1.98 6.135 -1.98 6.135 -12 22 C-15.63 22 -19.26 22 -23 22 C-19.302 17.378 -15.301 13.297 -10.938 9.312 C-10.682 9.079 -10.427 8.845 -10.165 8.605 C-6.88 5.603 -3.513 2.732 0 0 Z " fill="#6ABBE3" transform="translate(395,202)"/>
<path d="M0 0 C1.65 1.65 3.3 3.3 5 5 C3 9 3 9 -14 22 C-14 21.01 -14 20.02 -14 19 C-12.33 16.614 -10.658 14.229 -8.983 11.847 C-8.414 11.036 -7.845 10.225 -7.278 9.414 C-6.461 8.246 -5.641 7.08 -4.82 5.914 C-4.568 5.553 -4.316 5.191 -4.056 4.819 C-3.816 4.478 -3.576 4.138 -3.329 3.788 C-3.12 3.49 -2.911 3.192 -2.696 2.886 C-1.883 1.851 -0.931 0.931 0 0 Z " fill="#6ABBE3" transform="translate(439,209)"/>
<path d="M0 0 C0 0.99 0 1.98 0 3 C-2.201 5.921 -4.407 8.838 -6.616 11.752 C-7.366 12.743 -8.115 13.734 -8.862 14.726 C-9.942 16.158 -11.025 17.587 -12.109 19.016 C-12.274 19.235 -12.274 19.235 -13.107 20.345 C-15.224 23.124 -17.481 25.579 -20 28 C-22.31 28.66 -24.62 29.32 -27 30 C-24.962 26.318 -22.797 23.567 -19.75 20.688 C-16.847 17.869 -14.06 15.019 -11.438 11.938 C-7.85 7.732 -3.957 3.856 0 0 Z " fill="#6ABBE3" transform="translate(329,210)"/>
<path d="M0 0 C0.33 0.66 0.66 1.32 1 2 C-0.329 3.886 -1.662 5.77 -2.998 7.652 C-3.45 8.289 -3.9 8.927 -4.35 9.566 C-7.389 13.878 -10.556 18.001 -14 22 C-15.98 22 -17.96 22 -20 22 C-20.66 21.34 -21.32 20.68 -22 20 C-19.994 18.114 -17.986 16.23 -15.976 14.348 C-15.296 13.711 -14.616 13.073 -13.937 12.434 C-9.393 8.163 -4.773 4.014 0 0 Z " fill="#6ABBE3" transform="translate(415,203)"/>
<path d="M0 0 C0.173 0.005 0.173 0.005 1.046 0.029 C-7.954 9.029 -16.954 18.029 -25.954 27.029 C-26.614 26.699 -27.274 26.369 -27.954 26.029 C-27.668 25.698 -27.382 25.367 -27.087 25.026 C-20.384 17.248 -13.998 9.333 -7.954 1.029 C-5.196 0.281 -2.862 -0.079 0 0 Z " fill="#6ABBE3" transform="translate(356.9541015625,191.970947265625)"/>
<path d="M0 0 C0.66 0.33 1.32 0.66 2 1 C-5.016 10.932 -12.113 20.732 -20 30 C-20.99 30.33 -21.98 30.66 -23 31 C-21.764 26.211 -19.671 22.795 -16.625 18.938 C-16.432 18.686 -16.432 18.686 -15.453 17.412 C-14.313 15.933 -13.159 14.465 -12 13 C-11.82 12.77 -11.82 12.77 -10.909 11.608 C-9.177 9.414 -7.444 7.322 -5.438 5.375 C-5.02 4.966 -4.602 4.558 -4.172 4.137 C-3.785 3.762 -3.398 3.386 -3 3 C-2.395 2.397 -1.79 1.793 -1.188 1.188 C-0.796 0.796 -0.404 0.404 0 0 Z " fill="#6ABBE3" transform="translate(310,215)"/>
<path d="M0 0 C0.66 0 1.32 0 2 0 C3.32 1.98 4.64 3.96 6 6 C5.67 6.99 5.34 7.98 5 9 C1.7 11.64 -1.6 14.28 -5 17 C-6.32 16.67 -7.64 16.34 -9 16 C-7.62 12.042 -5.67 8.681 -3.375 5.188 C-3.213 4.936 -3.213 4.936 -2.391 3.666 C-1.598 2.441 -0.801 1.22 0 0 Z " fill="#6ABBE3" transform="translate(450,222)"/>
<path d="M0 0 C0.33 0.66 0.66 1.32 1 2 C-0.074 3.756 -1.161 5.503 -2.25 7.25 C-2.55 7.741 -2.851 8.232 -3.16 8.738 C-5.15 11.913 -7.254 14.448 -10 17 C-12.31 16.01 -14.62 15.02 -17 14 C-13.816 10.604 -10.444 7.656 -6.812 4.75 C-6.372 4.397 -5.932 4.044 -5.479 3.68 C-1.983 0.91 -1.983 0.91 0 0 Z " fill="#6ABBE3" transform="translate(446,219)"/>
<path d="M0 0 C0.66 0 1.32 0 2 0 C0.621 4.373 -1.846 7.74 -4.625 11.312 C-5.05 11.867 -5.474 12.423 -5.898 12.979 C-6.927 14.323 -7.963 15.662 -9 17 C-11.31 16.67 -13.62 16.34 -16 16 C-11.255 10.001 -5.763 5.009 0 0 Z " fill="#6ABBE3" transform="translate(429,212)"/>
<path d="M0 0 C0.66 0.33 1.32 0.66 2 1 C0.493 2.676 -1.019 4.348 -2.535 6.017 C-3.049 6.584 -3.562 7.153 -4.074 7.722 C-4.813 8.544 -5.557 9.362 -6.301 10.18 C-6.526 10.432 -6.751 10.684 -6.983 10.944 C-8.523 12.625 -10.077 13.81 -12 15 C-10.625 12.074 -9.065 9.519 -7.125 6.938 C-6.881 6.599 -6.638 6.261 -6.387 5.912 C-4.557 3.462 -2.528 1.711 0 0 Z " fill="#6ABBE3" transform="translate(330,201)"/>
<path d="M0 0 C0.66 0 1.32 0 2 0 C2.33 2.31 2.66 4.62 3 7 C1.68 7.33 0.36 7.66 -1 8 C-1.66 7.34 -2.32 6.68 -3 6 C-2.67 4.68 -2.34 3.36 -2 2 C-1.34 1.34 -0.68 0.68 0 0 Z " fill="#6ABBE3" transform="translate(461,243)"/>
<path d="M0 0 C0 0.99 0 1.98 0 3 C-0.495 3.825 -0.495 3.825 -3 8 C-3.99 7.67 -4.98 7.34 -6 7 C-4 3 -4 3 0 0 Z " fill="#6ABBE3" transform="translate(454,235)"/>
<path d="M0 0 C0.66 0.99 1.32 1.98 2 3 C0.35 4.32 -1.3 5.64 -3 7 C-2.417 4.18 -1.727 2.303 0 0 Z " fill="#6ABBE3" transform="translate(459,236)"/>
</svg>
