<?xml version="1.0" encoding="UTF-8"?>
<!-- Generator: visioncortex VTracer 0.6.5 -->
<svg version="1.1" xmlns="http://www.w3.org/2000/svg" width="769" height="769">
<path d="M0 0 C22.333 5.583 41.239 12.166 62 22 C75.999 31.333 88.623 39.919 100.688 51.062 C100.822 51.186 100.956 51.31 101.094 51.438 C110.486 60.117 118.637 70.247 125.641 80.949 C125.738 81.098 125.835 81.247 125.936 81.4 C136.98 98.332 144.822 116.158 152 135 C158.235 158.14 158.235 158.14 159.875 167.938 C159.906 168.121 159.936 168.305 159.968 168.494 C160.997 174.667 161.474 180.682 162 187 C163.98 187.66 165.96 188.32 168 189 C170.31 191.64 172.62 194.28 175 197 C177 203 177 203 178 210 C178.33 216.27 178.66 222.54 179 229 C182.777 251.665 187.691 270.055 197 291 C202.222 300.283 207.085 308.723 213.23 317.211 C213.346 317.37 213.461 317.53 213.58 317.694 C224.363 332.566 237.203 345.909 251 358 C260.892 365.632 270.837 373.089 281.375 379.812 C281.479 379.879 281.479 379.879 282.003 380.213 C282.419 380.479 282.836 380.744 283.252 381.01 C284.275 381.662 285.298 382.315 286.32 382.969 C286.519 383.095 286.717 383.222 286.921 383.353 C291.125 386.042 295.205 388.891 299.25 391.812 C299.402 391.922 299.553 392.031 299.709 392.144 C308.465 398.468 315.821 405.923 323 414 C331 427 331 427 336 439 C338 447 338 447 338 467 C337.505 469.145 337.505 469.145 335 480 C333.35 482.97 331.7 485.94 330 489 C327.69 491.31 325.38 493.62 323 496 C315 500 315 500 308 502 C303.38 502 298.76 502 294 502 C286.065 499.75 278.774 496.99 271 494 C257.47 494 243.94 494 230 494 C201 490 201 490 192.109 487.727 C190.144 487.229 188.178 486.732 186.211 486.239 C185.957 486.176 185.703 486.112 185.442 486.047 C183.545 485.571 181.648 485.098 179.75 484.625 C179.481 484.558 179.212 484.491 178.935 484.422 C160.372 479.796 141.737 475.792 122.938 472.25 C122.793 472.223 122.793 472.223 122.059 472.084 C120.043 471.704 118.026 471.326 116.009 470.948 C115.756 470.9 115.503 470.853 115.243 470.804 C110.165 469.854 105.082 468.93 100 468 C80.979 461.913 64.635 456.124 47.5 447.062 C47.263 446.937 47.025 446.811 46.781 446.682 C41.437 443.854 36.355 440.913 31.322 437.565 C30.288 436.878 29.254 436.19 28.219 435.504 C23.077 432.095 17.988 428.632 13 425 C12.82 425.023 12.641 425.046 12.456 425.069 C-11.617 428.118 -35.627 429.144 -70.005 425.865 C-98.898 421.911 -127.45 415.716 -154.419 404.387 C-156.283 403.6 -158.144 402.807 -160 402 C-160.99 402 -161.98 402 -163 402 C-163.99 404.97 -164.98 407.94 -166 411 C-175 427 -175 427 -187 443 C-190.96 446.96 -194.92 450.92 -199 455 C-199.66 455 -200.32 455 -201 455 C-201 455.66 -201 456.32 -201 457 C-203.514 458.968 -206.035 460.925 -208.562 462.875 C-208.752 463.021 -208.941 463.167 -209.135 463.317 C-214.811 467.69 -220.576 471.874 -226.562 475.812 C-226.727 475.921 -226.892 476.029 -227.062 476.141 C-229.035 477.438 -231.014 478.724 -233 480 C-234.65 479.67 -236.3 479.34 -238 479 C-238.66 477.35 -239.32 475.7 -240 474 C-237.69 468.39 -235.38 462.78 -233 457 C-227.782 439.26 -224.198 422.437 -223.684 404.27 C-223.678 404.079 -223.673 403.888 -223.667 403.691 C-223.601 401.334 -223.541 398.977 -223.483 396.619 C-223.432 394.583 -223.378 392.546 -223.323 390.51 C-223.211 386.34 -223.104 382.17 -223 378 C-229.884 384.884 -235.3 393.108 -241 401 C-243.64 403.31 -246.28 405.62 -249 408 C-250.36 409.303 -251.692 410.589 -253 411.938 C-258.001 417.043 -264.185 420.846 -270 425 C-289.157 434.995 -306.223 442.459 -327 448 C-329.31 448 -331.62 448 -334 448 C-334.99 447.01 -335.98 446.02 -337 445 C-336.67 443.35 -336.34 441.7 -336 440 C-332.7 437.03 -329.4 434.06 -326 431 C-319.937 424.331 -314.589 418.265 -309.625 410.934 C-309.519 410.778 -309.414 410.622 -309.305 410.461 C-306.799 406.752 -304.412 402.974 -302.125 399.125 C-302.024 398.955 -301.923 398.785 -301.819 398.61 C-289.224 377.341 -280.538 354.211 -273.625 330.562 C-273.583 330.418 -273.583 330.418 -273.368 329.684 C-272.295 326.011 -271.236 322.333 -270.186 318.653 C-269.902 317.656 -269.616 316.66 -269.331 315.664 C-268.886 314.109 -268.442 312.555 -268 311 C-268.244 311.205 -268.488 311.409 -268.74 311.62 C-275.099 316.934 -281.597 322.04 -288.188 327.062 C-288.381 327.21 -288.575 327.358 -288.775 327.51 C-293.628 331.207 -298.437 334.437 -303.75 337.438 C-303.947 337.549 -304.143 337.66 -304.346 337.774 C-321.151 347.246 -338.252 353.294 -357 359 C-358.083 359.227 -358.083 359.227 -363.562 360.375 C-363.886 360.444 -363.886 360.444 -365.522 360.794 C-383.434 364.455 -399.356 364 -418 364 C-420.97 363.67 -423.94 363.34 -427 363 C-427.66 362.505 -427.66 362.505 -431 360 C-430.67 358.02 -430.34 356.04 -430 354 C-424.655 350.553 -419.212 347.42 -413.57 344.485 C-412.596 343.977 -411.624 343.466 -410.652 342.955 C-408.77 341.967 -406.886 340.982 -405 340 C-391.825 330.831 -378.918 321.481 -366.725 311.024 C-366.184 310.56 -365.643 310.096 -365.102 309.633 C-364.969 309.519 -364.836 309.405 -364.7 309.288 C-362.938 307.78 -361.155 306.305 -359.336 304.867 C-346.372 294.602 -334.712 282.8 -323.016 271.138 C-322.263 270.387 -321.51 269.637 -320.756 268.887 C-315.346 263.507 -310.046 258.082 -305.095 252.273 C-303.91 250.886 -302.685 249.538 -301.445 248.199 C-301.253 247.991 -301.06 247.782 -300.862 247.568 C-300.479 247.153 -300.096 246.739 -299.713 246.325 C-295.932 242.228 -292.32 238.029 -288.823 233.69 C-285.032 228.988 -281.055 224.475 -277 220 C-276.34 219.01 -276.34 219.01 -273 214 C-273.848 214.254 -274.696 214.508 -275.57 214.77 C-290.051 219.057 -303.645 221.294 -319 223 C-344.836 223 -365.145 221.214 -390 215 C-400.297 211.519 -410.361 208.039 -420.25 203.562 C-420.448 203.473 -420.646 203.383 -420.85 203.291 C-423.24 202.208 -425.623 201.11 -428 200 C-428.99 198.68 -429.98 197.36 -431 196 C-430.34 194.35 -429.68 192.7 -429 191 C-424.556 189.994 -420.111 189.012 -415.642 188.12 C-396.017 184.19 -377.052 178.499 -358.53 170.938 C-356.599 170.15 -354.667 169.365 -352.733 168.585 C-342.879 164.61 -333.301 160.309 -323.85 155.453 C-320.823 153.9 -317.768 152.411 -314.707 150.928 C-292.235 140.029 -270.759 127.805 -211.654 85.198 C-209.091 82.98 -206.825 80.702 -204.556 78.186 C-204.141 77.726 -203.726 77.266 -203.311 76.806 C-199.119 72.167 -199.119 72.167 -197.371 70.082 C-189.518 60.757 -180.652 51.851 -171.125 44.25 C-171.05 44.19 -171.05 44.19 -170.668 43.885 C-155.607 31.891 -139.202 22.975 -122 14 C-110.147 9.484 -99.322 5.406 -87.254 2.309 C-87.038 2.253 -86.822 2.198 -86.599 2.141 C-82.239 1.027 -77.86 0.077 -73.438 -0.75 C-73.131 -0.809 -72.825 -0.867 -72.509 -0.928 C-48.43 -5.49 -24.068 -3.282 0 0 Z " fill="#8E5A32" transform="translate(431,135)"/>
<path d="M0 0 C22.743 5.415 42.087 12.543 63 23 C76.133 31.755 87.572 40.489 99 51 C99 51.66 99 52.32 99 53 C99.66 53 100.32 53 101 53 C112.523 65.575 121.081 79.135 130 94 C141.266 117.784 148.029 140.153 153 166 C153.33 169.63 153.66 173.26 154 177 C153.558 177.188 153.558 177.188 151.324 178.137 C150.112 178.653 148.899 179.17 147.688 179.688 C147.531 179.754 147.374 179.821 147.212 179.89 C141.098 182.502 135.042 185.224 129 188 C124.05 188 119.1 188 114 188 C111.644 187.045 109.29 186.088 106.938 185.125 C106.755 185.05 106.573 184.976 106.385 184.899 C99.027 181.885 91.726 178.741 84.438 175.562 C84.177 175.449 83.917 175.335 83.648 175.218 C80.431 173.815 77.215 172.409 74 171 C69 170 69 170 61 170 C57.7 170.99 54.4 171.98 51 173 C48.03 174.98 45.06 176.96 42 179 C40.02 181.64 38.04 184.28 36 187 C35.505 188.65 35.505 188.65 33 197 C32.67 210.2 32.34 223.4 32 237 C30 251 30 251 25 267 C19.883 276.595 15.956 283.499 9.215 291.336 C9.087 291.485 8.959 291.634 8.827 291.787 C5.955 295.115 2.93 298.278 -0.188 301.375 C-0.314 301.501 -0.441 301.627 -0.572 301.757 C-3.972 305.128 -7.461 308.379 -11.116 311.474 C-15.325 315.057 -19.124 319.064 -23 323 C-30 334 -30 334 -33 342 C-33.33 346.62 -33.66 351.24 -34 356 C-31 370 -31 370 -26 380 C-18.079 388.802 -10.41 395.935 -0.694 402.272 C0.201 402.853 1.099 403.428 2 404 C2 404.66 2 405.32 2 406 C-21.26 409.323 -43.597 407.3 -67 406 C-101.636 400.414 -125.765 394.882 -157 381 C-170.83 373.317 -183.393 366.144 -195.062 355.438 C-195.37 355.156 -195.37 355.156 -196.926 353.732 C-206.685 344.749 -213.747 335.793 -222 325 C-231.807 308.312 -237.387 294.645 -243 275 C-246.775 251.407 -248.255 229.838 -247 206 C-243.898 184.288 -243.898 184.288 -241.5 174 C-241.436 173.724 -241.371 173.447 -241.305 173.162 C-236.097 150.895 -227.737 131.097 -218 110 C-212.418 100.51 -207.155 91.612 -200.781 82.801 C-200.666 82.642 -200.551 82.483 -200.433 82.319 C-191.174 69.542 -180.277 58.002 -169 47 C-166.879 45.307 -164.754 43.62 -162.625 41.938 C-162.467 41.813 -162.31 41.688 -162.147 41.56 C-154.735 35.706 -147.185 30.229 -139 25.5 C-138.924 25.456 -138.924 25.456 -138.538 25.233 C-124.251 16.988 -109.588 10.938 -94 5 C-61.32 -2.843 -33.506 -4.188 0 0 Z " fill="#6ABBE3" transform="translate(429,145)"/>
<path d="M0 0 C5.28 1.32 10.56 2.64 16 4 C28 11 28 11 38 20 C40.64 22.97 43.28 25.94 46 29 C53 43 53 43 56 54 C57 67 57 67 55 82 C50 95 50 95 44 105 C35 115 35 115 24 123 C11 129 11 129 3 131 C-4.92 131 -12.84 131 -21 131 C-34 127 -34 127 -47 120 C-59 109 -59 109 -66 99 C-71 88 -71 88 -74 77 C-74 69.74 -74 62.48 -74 55 C-69 39 -69 39 -63 28 C-54 18 -54 18 -46 11 C-36 5 -36 5 -23 1 C-17 0 -17 0 0 0 Z " fill="#8F5931" transform="translate(382,245)"/>
<path d="M0 0 C17 4 17 4 33 11 C39.562 15.101 45.919 19.224 52 24 C59.916 32.838 66.832 41.72 73 52 C78 67 78 67 80 77 C80 83.27 80 89.54 80 96 C79.34 96.66 78.68 97.32 78 98 C76.35 98 74.7 98 73 98 C72.34 97.34 71.68 96.68 71 96 C70.67 94.845 70.67 94.845 69 89 C68.01 88.01 67.02 87.02 66 86 C66 85.34 66 84.68 66 84 C65.34 84 64.68 84 64 84 C64 83.34 64 82.68 64 82 C62.68 81.34 61.36 80.68 60 80 C56.7 77.36 53.4 74.72 50 72 C33 63 33 63 13 57 C2 55 2 55 -18 54 C-43.609 56.227 -65.597 60.866 -90 69 C-109 78 -109 78 -118 84 C-119.65 83.67 -121.3 83.34 -123 83 C-123.33 82.67 -123.66 82.34 -124 82 C-124 79.69 -124 77.38 -124 75 C-118.462 61.708 -112.665 51.553 -104 40 C-90 26 -90 26 -76 16 C-60 8 -60 8 -45 3 C-30 0 -30 0 0 0 Z " fill="#8E5931" transform="translate(396,180)"/>
<path d="M0 0 C3.96 1.32 7.92 2.64 12 4 C22 11 22 11 31 21 C36 32 36 32 37 37 C37 42.94 37 48.88 37 55 C35.68 58.96 34.36 62.92 33 67 C26 76 26 76 18 84 C8 89 8 89 0 91 C-5.61 91 -11.22 91 -17 91 C-24.514 88.268 -30.178 85.702 -36.459 81.38 C-38.391 80.023 -40.191 78.517 -42 77 C-44.31 73.7 -46.62 70.4 -49 67 C-53 56 -53 56 -54 50 C-54 42 -54 42 -51 30 C-45 19 -45 19 -37 10 C-27 4 -27 4 -19 1 C-15 0 -15 0 0 0 Z " fill="#8F5931" transform="translate(381,265)"/>
<path d="M0 0 C3.96 1.32 7.92 2.64 12 4 C22 11 22 11 31 21 C36 32 36 32 37 37 C37 42.94 37 48.88 37 55 C35.68 58.96 34.36 62.92 33 67 C26 76 26 76 18 84 C8 89 8 89 0 91 C-5.61 91 -11.22 91 -17 91 C-24.514 88.268 -30.178 85.702 -36.459 81.38 C-38.391 80.023 -40.191 78.517 -42 77 C-44.31 73.7 -46.62 70.4 -49 67 C-53 56 -53 56 -54 50 C-54 42 -54 42 -51 30 C-45 19 -45 19 -37 10 C-27 4 -27 4 -19 1 C-15 0 -15 0 0 0 Z M-18 11 C-28 17 -28 17 -33 22 C-34.98 24.97 -36.96 27.94 -39 31 C-41 37 -41 37 -42 46 C-41.34 49.63 -40.68 53.26 -40 57 C-35 66 -35 66 -29 73 C-25.7 74.98 -22.4 76.96 -19 79 C-16.69 79.66 -14.38 80.32 -12 81 C-8.7 81 -5.4 81 -2 81 C1.3 80.01 4.6 79.02 8 78 C17 72 17 72 25 63 C26.32 59.37 27.64 55.74 29 52 C29 47.05 29 42.1 29 37 C28.01 34.03 27.02 31.06 26 28 C17 18 17 18 8 12 C-5.263 8.684 -5.263 8.684 -18 11 Z " fill="#6ABBE3" transform="translate(381,265)"/>
<path d="M0 0 C2.64 0.66 5.28 1.32 8 2 C9.32 3.65 10.64 5.3 12 7 C12 9.97 12 12.94 12 16 C10.68 17.65 9.36 19.3 8 21 C7.34 21.33 6.68 21.66 6 22 C3.03 22 0.06 22 -3 22 C-4.65 20.68 -6.3 19.36 -8 18 C-8.33 17.34 -8.66 16.68 -9 16 C-9 13.03 -9 10.06 -9 7 C-7.68 5.35 -6.36 3.7 -5 2 C-3.35 1.34 -1.7 0.68 0 0 Z " fill="#6ABBE3" transform="translate(388,285)"/>
<path d="M0 0 C2.97 0.33 5.94 0.66 9 1 C9.66 1.66 10.32 2.32 11 3 C10.664 3.306 10.328 3.612 9.981 3.927 C8.38 5.386 6.783 6.848 5.188 8.312 C5.043 8.446 4.898 8.579 4.748 8.716 C0.3 12.802 -4.057 16.964 -8.312 21.25 C-8.433 21.371 -8.553 21.493 -8.677 21.617 C-10.123 23.074 -11.562 24.536 -13 26 C-14.98 27.65 -16.96 29.3 -19 31 C-19.66 30.67 -20.32 30.34 -21 30 C-16.208 22.595 -11.177 15.39 -6 8.25 C-5.851 8.045 -5.703 7.84 -5.55 7.629 C-3.704 5.083 -1.852 2.541 0 0 Z " fill="#6ABBE3" transform="translate(390,189)"/>
<path d="M0 0 C0 0.99 0 1.98 0 3 C-0.286 3.386 -0.572 3.773 -0.867 4.171 C-2.226 6.008 -3.583 7.847 -4.938 9.688 C-5.06 9.855 -5.183 10.022 -5.31 10.194 C-9.011 15.224 -12.646 20.294 -16.188 25.438 C-16.286 25.58 -16.384 25.723 -16.485 25.87 C-17.66 27.577 -18.831 29.288 -20 31 C-22.145 31.495 -22.145 31.495 -33 34 C-23.452 21.27 -12.228 10.19 0 0 Z " fill="#6ABBE3" transform="translate(356,199)"/>
<path d="M0 0 C3.63 0 7.26 0 11 0 C5.347 6.783 -0.633 13.055 -7.357 18.785 C-12.176 22.902 -16.566 27.478 -21 32 C-21 31.01 -21 30.02 -21 29 C-16.332 21.647 -11.311 14.648 -6 7.75 C-5.851 7.557 -5.703 7.364 -5.55 7.165 C-3.706 4.772 -1.854 2.385 0 0 Z " fill="#6ABBE3" transform="translate(370,189)"/>
<path d="M0 0 C2.64 0.66 5.28 1.32 8 2 C8.66 2.66 9.32 3.32 10 4 C8.461 5.407 6.921 6.812 5.379 8.217 C5.127 8.447 4.874 8.677 4.622 8.907 C1.523 11.733 -1.592 14.536 -4.77 17.274 C-8.705 20.664 -12.384 24.273 -16 28 C-16.66 28 -17.32 28 -18 28 C-18 28.66 -18 29.32 -18 30 C-18.66 29.67 -19.32 29.34 -20 29 C-10 13 -10 13 0 0 Z " fill="#6ABBE3" transform="translate(408,193)"/>
<path d="M0 0 C1.98 0.66 3.96 1.32 6 2 C6.66 3.32 7.32 4.64 8 6 C7.01 6.33 6.02 6.66 5 7 C4.67 7.99 4.34 8.98 4 10 C3.81 10.165 3.62 10.33 3.424 10.5 C-2.445 15.599 -8.233 20.786 -14 26 C-15.32 26 -16.64 26 -18 26 C-16 22 -16 22 -14.747 20.303 C-13.373 18.444 -12 16.584 -10.628 14.724 C-9.796 13.597 -8.965 12.47 -8.132 11.344 C-7.328 10.255 -6.524 9.166 -5.72 8.076 C-5.415 7.663 -5.11 7.249 -4.804 6.836 C-3.145 4.592 -1.524 2.339 0 0 Z " fill="#6ABBE3" transform="translate(424,200)"/>
<path d="M0 0 C0 0.99 0 1.98 0 3 C-1.641 5.54 -3.285 8.078 -4.93 10.616 C-5.694 11.794 -6.457 12.973 -7.219 14.153 C-7.957 15.295 -8.697 16.436 -9.437 17.577 C-9.717 18.009 -9.996 18.441 -10.275 18.873 C-10.671 19.486 -11.068 20.098 -11.466 20.71 C-11.577 20.883 -11.688 21.055 -11.802 21.233 C-13.109 23.235 -14.555 25.074 -16 27 C-20.29 27.66 -24.58 28.32 -29 29 C-28.01 27.35 -27.02 25.7 -26 24 C-25.55 23.622 -25.1 23.245 -24.637 22.855 C-20.373 19.238 -16.362 15.419 -12.438 11.438 C-8.46 7.402 -4.406 3.564 0 0 Z " fill="#6ABBE3" transform="translate(377,198)"/>
<path d="M0 0 C0 0.99 0 1.98 0 3 C-1.98 6.135 -1.98 6.135 -12 22 C-15.63 22 -19.26 22 -23 22 C-19.629 18.067 -16.677 14.69 -12.979 11.285 C-12.153 10.525 -11.327 9.764 -10.504 9.001 C-7.108 5.856 -3.668 2.831 0 0 Z " fill="#6ABBE3" transform="translate(395,202)"/>
<path d="M0 0 C1.65 1.65 3.3 3.3 5 5 C4.34 6.32 3.68 7.64 3 9 C-2.61 13.29 -8.22 17.58 -14 22 C-14 21.01 -14 20.02 -14 19 C-2 2 -2 2 0 0 Z " fill="#6ABBE3" transform="translate(439,209)"/>
<path d="M0 0 C0 0.99 0 1.98 0 3 C-16 24 -16 24 -20 28 C-22.31 28.66 -24.62 29.32 -27 30 C-24 25 -24 25 -22.277 23.312 C-18.381 19.477 -14.573 15.615 -11.025 11.453 C-7.575 7.414 -3.802 3.705 0 0 Z " fill="#6ABBE3" transform="translate(329,210)"/>
<path d="M0 0 C0.33 0.66 0.66 1.32 1 2 C-0.214 3.724 -1.432 5.446 -2.652 7.165 C-3.22 7.965 -3.786 8.764 -4.35 9.566 C-7.387 13.878 -10.558 18.003 -14 22 C-15.98 22 -17.96 22 -20 22 C-20.66 21.34 -21.32 20.68 -22 20 C-20.167 18.276 -18.332 16.555 -16.495 14.835 C-15.642 14.035 -14.789 13.235 -13.937 12.434 C-9.394 8.162 -4.776 4.01 0 0 Z " fill="#6ABBE3" transform="translate(415,203)"/>
<path d="M0 0 C-9 9 -18 18 -27 27 C-27.66 26.67 -28.32 26.34 -29 26 C-28.882 25.864 -28.764 25.728 -28.643 25.587 C-27.11 23.813 -25.584 22.034 -24.062 20.25 C-23.94 20.106 -23.817 19.962 -23.69 19.813 C-18.515 13.74 -13.695 7.451 -9 1 C-5 0 -5 0 0 0 Z " fill="#6ABBE3" transform="translate(358,192)"/>
<path d="M0 0 C0.66 0.33 1.32 0.66 2 1 C-5.014 10.933 -12.114 20.733 -20 30 C-20.99 30.33 -21.98 30.66 -23 31 C-22.34 29.02 -21.68 27.04 -21 25 C-19.897 23.523 -18.794 22.045 -17.69 20.569 C-17.175 19.881 -16.661 19.193 -16.147 18.504 C-11.153 11.81 -5.897 5.897 0 0 Z " fill="#6ABBE3" transform="translate(310,215)"/>
<path d="M0 0 C0.66 0 1.32 0 2 0 C3.32 1.98 4.64 3.96 6 6 C5.67 6.99 5.34 7.98 5 9 C1.7 11.64 -1.6 14.28 -5 17 C-6.32 16.67 -7.64 16.34 -9 16 C-7 11 -7 11 0 0 Z " fill="#6ABBE3" transform="translate(450,222)"/>
<path d="M0 0 C0.33 0.66 0.66 1.32 1 2 C-6 13 -6 13 -10 17 C-12.31 16.01 -14.62 15.02 -17 14 C-12 9 -12 9 -2 1 C-1.34 0.67 -0.68 0.34 0 0 Z " fill="#6ABBE3" transform="translate(446,219)"/>
<path d="M0 0 C0.66 0 1.32 0 2 0 C1.34 1.65 0.68 3.3 0 5 C-2.97 8.96 -5.94 12.92 -9 17 C-11.31 16.67 -13.62 16.34 -16 16 C-10 9 -10 9 0 0 Z " fill="#6ABBE3" transform="translate(429,212)"/>
<path d="M0 0 C0.66 0.33 1.32 0.66 2 1 C-9 13 -9 13 -12 15 C-10 11 -10 11 -4 3 C-2.68 2.01 -1.36 1.02 0 0 Z " fill="#6ABBE3" transform="translate(330,201)"/>
<path d="M0 0 C0.66 0 1.32 0 2 0 C2.33 2.31 2.66 4.62 3 7 C1.68 7.33 0.36 7.66 -1 8 C-1.66 7.34 -2.32 6.68 -3 6 C-2.67 4.68 -2.34 3.36 -2 2 C-1.34 1.34 -0.68 0.68 0 0 Z " fill="#6ABBE3" transform="translate(461,243)"/>
<path d="M0 0 C0 0.99 0 1.98 0 3 C-0.495 3.825 -0.495 3.825 -3 8 C-3.99 7.67 -4.98 7.34 -6 7 C-5.34 5.68 -4.68 4.36 -4 3 C-2.68 2.01 -1.36 1.02 0 0 Z " fill="#6ABBE3" transform="translate(454,235)"/>
<path d="M0 0 C0.66 0.99 1.32 1.98 2 3 C0.35 4.32 -1.3 5.64 -3 7 C-2.67 5.68 -2.34 4.36 -2 3 C-1.34 2.01 -0.68 1.02 0 0 Z " fill="#6ABBE3" transform="translate(459,236)"/>
</svg>
