<?xml version="1.0" encoding="UTF-8"?>
<!-- Generator: visioncortex VTracer 0.6.5 -->
<svg version="1.1" xmlns="http://www.w3.org/2000/svg" width="1536" height="1536">
<path d="M0 0 C22.11 0 44.22 0 67 0 C68.32 0.66 69.64 1.32 71 2 C75.95 2 80.9 2 86 2 C86.33 2.33 86.66 2.66 87 3 C90.96 3.33 94.92 3.66 99 4 C99 4.66 99 5.32 99 6 C102.96 6 106.92 6 111 6 C111 6.66 111 7.32 111 8 C114.3 8 117.6 8 121 8 C121.66 8.66 122.32 9.32 123 10 C124.98 10 126.96 10 129 10 C129 10.66 129 11.32 129 12 C131.64 12 134.28 12 137 12 C137 12.66 137 13.32 137 14 C139.31 14 141.62 14 144 14 C144.33 14.33 144.66 14.66 145 15 C146.32 15.165 146.32 15.165 153 16 C153 16.66 153 17.32 153 18 C154.65 18 156.3 18 158 18 C160.31 18.99 162.62 19.98 165 21 C166.98 21.33 168.96 21.66 171 22 C171 22.66 171 23.32 171 24 C172.98 24 174.96 24 177 24 C177 24.66 177 25.32 177 26 C178.65 26 180.3 26 182 26 C182.825 26.33 182.825 26.33 187 28 C187 28.66 187 29.32 187 30 C188.65 30 190.3 30 192 30 C192.825 30.495 192.825 30.495 197 33 C198.32 33.33 199.64 33.66 201 34 C201 34.66 201 35.32 201 36 C202.98 36 204.96 36 207 36 C207 36.66 207 37.32 207 38 C208.32 38 209.64 38 211 38 C211 38.66 211 39.32 211 40 C212.32 40.33 213.64 40.66 215 41 C218.96 42.98 222.92 44.96 227 47 C228.32 47.33 229.64 47.66 231 48 C231 48.66 231 49.32 231 50 C232.32 50 233.64 50 235 50 C235.66 50.99 236.32 51.98 237 53 C238.32 53.33 239.64 53.66 241 54 C241 54.66 241 55.32 241 56 C242.32 56.33 243.64 56.66 245 57 C245.66 57.66 246.32 58.32 247 59 C248.32 59.33 249.64 59.66 251 60 C251.66 60.99 252.32 61.98 253 63 C253.291 63.17 253.583 63.34 253.883 63.516 C257.339 65.559 260.672 67.756 264 70 C265 70.667 266 71.334 267 72 C276 78 276 78 279 81 C280.65 81.99 282.3 82.98 284 84 C285.65 85.65 287.3 87.3 289 89 C290.65 89.99 292.3 90.98 294 92 C298.29 96.29 302.58 100.58 307 105 C308.65 105.99 310.3 106.98 312 108 C323 119 323 119 326 124 C328.145 126.145 328.145 126.145 339 137 C339.99 138.65 340.98 140.3 342 142 C343.65 143.32 345.3 144.64 347 146 C347.66 147.65 348.32 149.3 349 151 C350.32 152.32 351.64 153.64 353 155 C353.412 155.701 353.825 156.403 354.25 157.125 C356.841 161.452 359.428 165.428 363 169 C363.66 170.32 364.32 171.64 365 173 C365.66 173.33 366.32 173.66 367 174 C367 175.32 367 176.64 367 178 C367.66 178 368.32 178 369 178 C369.66 179.65 370.32 181.3 371 183 C371.266 183.387 371.531 183.773 371.805 184.172 C373.752 187.043 375.546 189.849 377 193 C377.66 193.33 378.32 193.66 379 194 C379.083 194.239 379.083 194.239 379.5 195.451 C381.373 200.735 383.755 205.586 386.438 210.5 C387.209 211.926 387.978 213.354 388.746 214.781 C388.933 215.127 389.119 215.473 389.312 215.829 C391.292 219.511 393.153 223.25 395 227 C395 227.99 395 228.98 395 230 C395.66 230 396.32 230 397 230 C397 231.32 397 232.64 397 234 C397.66 234 398.32 234 399 234 C399 235.32 399 236.64 399 238 C399.66 238 400.32 238 401 238 C401.66 241.3 402.32 244.6 403 248 C403.66 248 404.32 248 405 248 C405.66 251.3 406.32 254.6 407 258 C407.66 258 408.32 258 409 258 C409 259.98 409 261.96 409 264 C409.66 264 410.32 264 411 264 C411 265.98 411 267.96 411 270 C411.66 270 412.32 270 413 270 C413 271.98 413 273.96 413 276 C413.66 276 414.32 276 415 276 C417 283 417 283 417 290 C417.66 290 418.32 290 419 290 C419.33 292.31 419.66 294.62 420 297 C420.33 297.33 420.66 297.66 421 298 C421 299.98 421 301.96 421 304 C421.66 304 422.32 304 423 304 C423.33 306.64 423.66 309.28 424 312 C424.33 312.33 424.66 312.66 425 313 C425 315.97 425 318.94 425 322 C425.66 322 426.32 322 427 322 C427.33 324.64 427.66 327.28 428 330 C428.33 330.33 428.66 330.66 429 331 C429 334.63 429 338.26 429 342 C429.66 342 430.32 342 431 342 C431 346.62 431 351.24 431 356 C431.66 356 432.32 356 433 356 C433.33 361.94 433.66 367.88 434 374 C434.33 374.33 434.66 374.66 435 375 C435 376.65 435 378.3 435 380 C436.32 380 437.64 380 439 380 C439 380.66 439 381.32 439 382 C440.32 382 441.64 382 443 382 C443 382.66 443 383.32 443 384 C444.32 384 445.64 384 447 384 C447 384.66 447 385.32 447 386 C447.66 386 448.32 386 449 386 C450.98 388.31 452.96 390.62 455 393 C455.66 393.33 456.32 393.66 457 394 C457 395.32 457 396.64 457 398 C457.66 398 458.32 398 459 398 C459 398.66 459 399.32 459 400 C459.66 400 460.32 400 461 400 C461.99 403.63 462.98 407.26 464 411 C464.33 411.33 464.66 411.66 465 412 C465.025 412.403 465.05 412.806 465.076 413.222 C465.193 415.065 465.315 416.907 465.438 418.75 C465.477 419.384 465.516 420.018 465.557 420.672 C465.599 421.291 465.64 421.909 465.684 422.547 C465.72 423.112 465.757 423.678 465.795 424.261 C466 426 466 426 467 430 C467 441.22 467 452.44 467 464 C467.66 464 468.32 464 469 464 C469 469.28 469 474.56 469 480 C469.66 480 470.32 480 471 480 C471 483.96 471 487.92 471 492 C471.66 492 472.32 492 473 492 C473.33 495.3 473.66 498.6 474 502 C474.33 502.33 474.66 502.66 475 503 C475 505.97 475 508.94 475 512 C475.66 512 476.32 512 477 512 C477 514.64 477 517.28 477 520 C477.66 520 478.32 520 479 520 C479 522.64 479 525.28 479 528 C479.66 528 480.32 528 481 528 C481 529.98 481 531.96 481 534 C481.66 534 482.32 534 483 534 C483 535.98 483 537.96 483 540 C483.66 540 484.32 540 485 540 C485 541.98 485 543.96 485 546 C485.66 546 486.32 546 487 546 C487 547.98 487 549.96 487 552 C487.66 552 488.32 552 489 552 C489.66 553.65 490.32 555.3 491 557 C491 558.65 491 560.3 491 562 C491.66 562 492.32 562 493 562 C493 563.32 493 564.64 493 566 C493.66 566 494.32 566 495 566 C495 567.98 495 569.96 495 572 C495.66 572 496.32 572 497 572 C497 573.32 497 574.64 497 576 C497.66 576 498.32 576 499 576 C499 577.32 499 578.64 499 580 C499.66 580 500.32 580 501 580 C501 581.32 501 582.64 501 584 C501.66 584 502.32 584 503 584 C503 585.32 503 586.64 503 588 C503.66 588 504.32 588 505 588 C505 589.32 505 590.64 505 592 C505.66 592 506.32 592 507 592 C507 593.32 507 594.64 507 596 C507.66 596 508.32 596 509 596 C509 597.32 509 598.64 509 600 C509.66 600 510.32 600 511 600 C511 601.32 511 602.64 511 604 C512.32 604.66 513.64 605.32 515 606 C515.66 607.32 516.32 608.64 517 610 C517 611.32 517 612.64 517 614 C518.32 614.66 519.64 615.32 521 616 C521 617.32 521 618.64 521 620 C522.32 620.66 523.64 621.32 525 622 C525 623.32 525 624.64 525 626 C526.32 626.66 527.64 627.32 529 628 C529 629.32 529 630.64 529 632 C530.32 632.66 531.64 633.32 533 634 C533 635.32 533 636.64 533 638 C534.32 638.66 535.64 639.32 537 640 C537.66 640.66 538.32 641.32 539 642 C539 643.32 539 644.64 539 646 C540.32 646.66 541.64 647.32 543 648 C543.66 648.66 544.32 649.32 545 650 C545.66 651.65 546.32 653.3 547 655 C548.98 656.65 550.96 658.3 553 660 C554.32 662.31 555.64 664.62 557 667 C557.33 667.165 557.33 667.165 559 668 C559 668.66 559 669.32 559 670 C560.32 670.66 561.64 671.32 563 672 C564.65 673.98 566.3 675.96 568 678 C568.33 679.32 568.66 680.64 569 682 C569.66 682 570.32 682 571 682 C571.17 682.212 571.17 682.212 572.031 683.285 C575.938 688.048 580.269 692.066 585 696 C585 696.66 585 697.32 585 698 C586.32 698.66 587.64 699.32 589 700 C590.32 701.65 591.64 703.3 593 705 C593.99 705.66 594.98 706.32 596 707 C596 707.66 596 708.32 596 709 C597.65 709.33 599.3 709.66 601 710 C602.32 711.32 603.64 712.64 605 714 C605 714.66 605 715.32 605 716 C605.66 716 606.32 716 607 716 C608.65 717.65 610.3 719.3 612 721 C613.98 722.32 615.96 723.64 618 725 C619.32 726.32 620.64 727.64 622 729 C622 729.66 622 730.32 622 731 C623.65 731.33 625.3 731.66 627 732 C627.99 732.99 628.98 733.98 630 735 C630 735.66 630 736.32 630 737 C631.65 737.33 633.3 737.66 635 738 C635.99 739.32 636.98 740.64 638 742 C639.65 742.66 641.3 743.32 643 744 C643.99 744.99 644.98 745.98 646 747 C646 747.66 646 748.32 646 749 C647.65 749.33 649.3 749.66 651 750 C651.33 750.99 651.66 751.98 652 753 C653.32 753 654.64 753 656 753 C656 753.66 656 754.32 656 755 C656.66 755 657.32 755 658 755 C658 755.66 658 756.32 658 757 C659.65 757.33 661.3 757.66 663 758 C663.33 758.99 663.66 759.98 664 761 C665.65 761.33 667.3 761.66 669 762 C669.33 762.66 669.66 763.32 670 764 C671.65 764.66 673.3 765.32 675 766 C675.33 766.99 675.66 767.98 676 769 C677.32 769 678.64 769 680 769 C680.66 769.99 681.32 770.98 682 772 C683.32 772.33 684.64 772.66 686 773 C686 773.66 686 774.32 686 775 C686.66 775 687.32 775 688 775 C688 775.66 688 776.32 688 777 C689.32 777 690.64 777 692 777 C692 777.66 692 778.32 692 779 C693.65 779.33 695.3 779.66 697 780 C697.33 780.66 697.66 781.32 698 782 C699.32 782.33 700.64 782.66 702 783 C702 783.66 702 784.32 702 785 C702.66 785 703.32 785 704 785 C704.66 785.99 705.32 786.98 706 788 C707.32 788.33 708.64 788.66 710 789 C710 789.66 710 790.32 710 791 C710.66 791 711.32 791 712 791 C712 791.66 712 792.32 712 793 C713.32 793 714.64 793 716 793 C716 793.66 716 794.32 716 795 C716.66 795 717.32 795 718 795 C719.32 796.65 720.64 798.3 722 800 C723.32 800.33 724.64 800.66 726 801 C726 801.66 726 802.32 726 803 C726.66 803 727.32 803 728 803 C728 803.66 728 804.32 728 805 C728.66 805 729.32 805 730 805 C730 805.66 730 806.32 730 807 C730.66 807 731.32 807 732 807 C732 807.66 732 808.32 732 809 C732.66 809 733.32 809 734 809 C734 809.66 734 810.32 734 811 C734.66 811 735.32 811 736 811 C736 811.66 736 812.32 736 813 C736.66 813 737.32 813 738 813 C738 813.66 738 814.32 738 815 C738.66 815 739.32 815 740 815 C740 815.66 740 816.32 740 817 C740.66 817 741.32 817 742 817 C742 817.66 742 818.32 742 819 C742.66 819 743.32 819 744 819 C744 819.66 744 820.32 744 821 C744.66 821 745.32 821 746 821 C746 821.66 746 822.32 746 823 C746.66 823 747.32 823 748 823 C748.66 824.65 749.32 826.3 750 828 C751.32 828.99 752.64 829.98 754 831 C754 831.66 754 832.32 754 833 C754.66 833 755.32 833 756 833 C756.66 834.65 757.32 836.3 758 838 C758.33 838.165 758.33 838.165 760 839 C760.66 840.98 761.32 842.96 762 845 C762.66 845 763.32 845 764 845 C764 846.32 764 847.64 764 849 C764.66 849 765.32 849 766 849 C766 849.66 766 850.32 766 851 C766.66 851 767.32 851 768 851 C768 852.32 768 853.64 768 855 C768.66 855 769.32 855 770 855 C770 856.32 770 857.64 770 859 C770.66 859 771.32 859 772 859 C772 860.32 772 861.64 772 863 C772.66 863 773.32 863 774 863 C774 864.32 774 865.64 774 867 C774.66 867 775.32 867 776 867 C776 868.98 776 870.96 776 873 C776.66 873 777.32 873 778 873 C778 874.32 778 875.64 778 877 C778.66 877 779.32 877 780 877 C780 878.98 780 880.96 780 883 C780.66 883 781.32 883 782 883 C782 885.64 782 888.28 782 891 C782.66 891 783.32 891 784 891 C784 893.64 784 896.28 784 899 C784.66 899 785.32 899 786 899 C786 912.53 786 926.06 786 940 C785.34 940 784.68 940 784 940 C784 943.3 784 946.6 784 950 C783.67 950.33 783.34 950.66 783 951 C782.67 953.97 782.34 956.94 782 960 C781.34 960 780.68 960 780 960 C780 961.98 780 963.96 780 966 C779.34 966 778.68 966 778 966 C777.939 966.326 777.879 966.652 777.816 966.988 C777.355 969.393 776.849 971.695 776 974 C775.34 974 774.68 974 774 974 C774 975.32 774 976.64 774 978 C773.34 978 772.68 978 772 978 C772 979.32 772 980.64 772 982 C771.34 982 770.68 982 770 982 C770 982.66 770 983.32 770 984 C769.34 984 768.68 984 768 984 C768 984.66 768 985.32 768 986 C767.34 986 766.68 986 766 986 C766 986.66 766 987.32 766 988 C765.34 988 764.68 988 764 988 C763.67 988.99 763.34 989.98 763 991 C762.01 991.825 762.01 991.825 757 996 C756.67 996.66 756.34 997.32 756 998 C754.68 998 753.36 998 752 998 C752 998.66 752 999.32 752 1000 C751.34 1000 750.68 1000 750 1000 C750 1000.66 750 1001.32 750 1002 C748.68 1002 747.36 1002 746 1002 C746 1002.66 746 1003.32 746 1004 C744.02 1004 742.04 1004 740 1004 C740 1004.66 740 1005.32 740 1006 C738.02 1006 736.04 1006 734 1006 C734 1006.66 734 1007.32 734 1008 C731.36 1008 728.72 1008 726 1008 C726 1008.66 726 1009.32 726 1010 C716.76 1010 707.52 1010 698 1010 C698 1009.34 698 1008.68 698 1008 C695.03 1008 692.06 1008 689 1008 C686.69 1007.34 684.38 1006.68 682 1006 C682 1005.34 682 1004.68 682 1004 C680.68 1004 679.36 1004 678 1004 C678 1003.34 678 1002.68 678 1002 C676.68 1001.67 675.36 1001.34 674 1001 C672.68 1000.34 671.36 999.68 670 999 C668.02 998.67 666.04 998.34 664 998 C664 997.34 664 996.68 664 996 C662.35 996 660.7 996 659 996 C657.845 995.505 657.845 995.505 652 993 C647.05 993 642.1 993 637 993 C636.67 993.33 636.34 993.66 636 994 C614.88 994 593.76 994 572 994 C571.67 993.67 571.34 993.34 571 993 C565.06 992.67 559.12 992.34 553 992 C552.67 991.67 552.34 991.34 552 991 C547.05 990.67 542.1 990.34 537 990 C536.67 989.67 536.34 989.34 536 989 C531.71 988.67 527.42 988.34 523 988 C522.67 987.67 522.34 987.34 522 987 C519.03 986.67 516.06 986.34 513 986 C512.67 985.67 512.34 985.34 512 985 C509.03 984.67 506.06 984.34 503 984 C502.67 983.67 502.34 983.34 502 983 C499.69 982.67 497.38 982.34 495 982 C494.67 981.67 494.34 981.34 494 981 C491.69 980.67 489.38 980.34 487 980 C485.845 979.505 485.845 979.505 480 977 C477.69 976.67 475.38 976.34 473 976 C472.67 975.67 472.34 975.34 472 975 C469.69 974.67 467.38 974.34 465 974 C464.67 973.67 464.34 973.34 464 973 C461.69 972.67 459.38 972.34 457 972 C456.67 971.67 456.34 971.34 456 971 C453.69 970.67 451.38 970.34 449 970 C448.67 969.67 448.34 969.34 448 969 C445.69 968.67 443.38 968.34 441 968 C440.67 967.67 440.34 967.34 440 967 C437.69 966.67 435.38 966.34 433 966 C432.67 965.67 432.34 965.34 432 965 C429.03 964.67 426.06 964.34 423 964 C422.67 963.67 422.34 963.34 422 963 C419.69 962.67 417.38 962.34 415 962 C414.67 961.67 414.34 961.34 414 961 C411.03 960.67 408.06 960.34 405 960 C404.67 959.67 404.34 959.34 404 959 C400.7 958.67 397.4 958.34 394 958 C393.67 957.67 393.34 957.34 393 957 C386.348 955.542 379.788 954.549 373 954 C373 953.34 373 952.68 373 952 C369.7 952 366.4 952 363 952 C362.67 951.67 362.34 951.34 362 951 C359.03 950.67 356.06 950.34 353 950 C352.67 949.67 352.34 949.34 352 949 C348.37 948.67 344.74 948.34 341 948 C340.67 947.67 340.34 947.34 340 947 C337.03 946.67 334.06 946.34 331 946 C330.67 945.67 330.34 945.34 330 945 C327.03 944.67 324.06 944.34 321 944 C320.67 943.67 320.34 943.34 320 943 C317.36 942.67 314.72 942.34 312 942 C309.36 941.01 306.72 940.02 304 939 C301.69 938.67 299.38 938.34 297 938 C296.072 937.567 295.144 937.134 294.188 936.688 C289.326 934.519 284.145 933.304 279 932 C278.67 931.67 278.34 931.34 278 931 C275.69 930.67 273.38 930.34 271 930 C270.175 929.505 270.175 929.505 266 927 C265.406 926.841 264.811 926.683 264.199 926.52 C258.942 925.06 254.026 923.258 249.108 920.89 C246.827 919.799 244.552 918.82 242.17 917.967 C237.971 916.46 234.119 914.594 230.217 912.442 C222.845 908.383 215.326 904.702 207.684 901.183 C200.653 897.931 193.523 894.541 187.438 889.688 C184 887 184 887 176 883 C175.481 882.602 174.961 882.203 174.426 881.793 C170.733 878.981 167.081 876.237 163 874 C163 873.34 163 872.68 163 872 C161.35 871.67 159.7 871.34 158 871 C157.67 870.01 157.34 869.02 157 868 C155.35 867.67 153.7 867.34 152 867 C150.68 865.68 149.36 864.36 148 863 C147.175 862.505 147.175 862.505 143 860 C142.34 858.68 141.68 857.36 141 856 C138.03 855.67 135.06 855.34 132 855 C131.67 855.33 131.34 855.66 131 856 C127.04 856 123.08 856 119 856 C119 856.66 119 857.32 119 858 C114.05 858.33 109.1 858.66 104 859 C103.67 859.33 103.34 859.66 103 860 C93.1 860.33 83.2 860.66 73 861 C72.67 861.33 72.34 861.66 72 862 C56.49 862 40.98 862 25 862 C24.34 861.67 23.68 861.34 23 861 C13.43 860.67 3.86 860.34 -6 860 C-6.33 859.67 -6.66 859.34 -7 859 C-12.94 858.67 -18.88 858.34 -25 858 C-25.33 857.67 -25.66 857.34 -26 857 C-31.61 856.67 -37.22 856.34 -43 856 C-43 855.34 -43 854.68 -43 854 C-47.62 854 -52.24 854 -57 854 C-57 853.34 -57 852.68 -57 852 C-60.96 852 -64.92 852 -69 852 C-69 851.34 -69 850.68 -69 850 C-72.96 850 -76.92 850 -81 850 C-81 849.34 -81 848.68 -81 848 C-84.3 848 -87.6 848 -91 848 C-91 847.34 -91 846.68 -91 846 C-94.3 846 -97.6 846 -101 846 C-101 845.34 -101 844.68 -101 844 C-103.64 844 -106.28 844 -109 844 C-109 843.34 -109 842.68 -109 842 C-111.64 842 -114.28 842 -117 842 C-117 841.34 -117 840.68 -117 840 C-119.64 840 -122.28 840 -125 840 C-125 839.34 -125 838.68 -125 838 C-127.64 838 -130.28 838 -133 838 C-133 837.34 -133 836.68 -133 836 C-134.98 836 -136.96 836 -139 836 C-139 835.34 -139 834.68 -139 834 C-141.64 834 -144.28 834 -147 834 C-147 833.34 -147 832.68 -147 832 C-148.98 832 -150.96 832 -153 832 C-153 831.34 -153 830.68 -153 830 C-154.98 830 -156.96 830 -159 830 C-159 829.34 -159 828.68 -159 828 C-160.98 828 -162.96 828 -165 828 C-165 827.34 -165 826.68 -165 826 C-166.98 826 -168.96 826 -171 826 C-171 825.34 -171 824.68 -171 824 C-172.32 824 -173.64 824 -175 824 C-175 823.34 -175 822.68 -175 822 C-176.98 822 -178.96 822 -181 822 C-181 821.34 -181 820.68 -181 820 C-182.32 820 -183.64 820 -185 820 C-185 819.34 -185 818.68 -185 818 C-186.32 818 -187.64 818 -189 818 C-189 817.34 -189 816.68 -189 816 C-190.98 816 -192.96 816 -195 816 C-195 815.34 -195 814.68 -195 814 C-196.32 814 -197.64 814 -199 814 C-199 813.34 -199 812.68 -199 812 C-199.303 811.939 -199.606 811.879 -199.918 811.816 C-202.945 811.211 -205.973 810.605 -209 810 C-210.65 810 -212.3 810 -214 810 C-214.33 811.32 -214.66 812.64 -215 814 C-215.254 814.473 -215.508 814.946 -215.77 815.434 C-217.616 818.955 -219.188 822.371 -220.312 826.188 C-221.554 830.271 -223.412 833.938 -225.438 837.688 C-225.726 838.222 -226.015 838.757 -226.312 839.307 C-228.094 842.535 -230.024 845.621 -232.104 848.665 C-232.947 849.921 -233.734 851.196 -234.5 852.5 C-236.985 856.714 -239.533 860.533 -243 864 C-243.17 864.291 -243.34 864.583 -243.516 864.883 C-246.794 870.428 -250.404 875.669 -254.315 880.781 C-255.363 882.154 -256.393 883.537 -257.405 884.936 C-262.486 891.841 -268.513 897.751 -274.606 903.743 C-276.011 905.128 -277.411 906.518 -278.811 907.908 C-281.535 910.611 -284.265 913.308 -287 916 C-287.99 916.33 -288.98 916.66 -290 917 C-290.257 917.268 -290.513 917.536 -290.777 917.812 C-294.631 921.757 -298.74 925.393 -302.888 929.024 C-303.916 929.926 -304.939 930.834 -305.961 931.742 C-309.127 934.534 -312.239 937.024 -316 939 C-316.99 939.99 -317.98 940.98 -319 942 C-320.65 942.99 -322.3 943.98 -324 945 C-324.99 945.99 -325.98 946.98 -327 948 C-329.64 949.32 -332.28 950.64 -335 952 C-336.32 953.32 -337.64 954.64 -339 956 C-341.97 957.65 -344.94 959.3 -348 961 C-348.99 961.99 -349.98 962.98 -351 964 C-352.32 964.66 -353.64 965.32 -355 966 C-356.98 966 -358.96 966 -361 966 C-362.98 964.35 -364.96 962.7 -367 961 C-367.66 959.68 -368.32 958.36 -369 957 C-369 955.68 -369 954.36 -369 953 C-368.34 953 -367.68 953 -367 953 C-366.67 951.02 -366.34 949.04 -366 947 C-363.333 941.667 -360.667 936.333 -358 931 C-357.925 930.703 -357.85 930.407 -357.772 930.101 C-355.269 920.325 -355.269 920.325 -353.5 916.562 C-351.854 912.997 -351.03 909.312 -350.132 905.499 C-349.09 901.154 -347.673 897.142 -346 893 C-345.67 890.69 -345.34 888.38 -345 886 C-344.67 885.67 -344.34 885.34 -344 885 C-343.505 881.865 -343.505 881.865 -341 866 C-340.67 865.67 -340.34 865.34 -340 865 C-339.67 861.37 -339.34 857.74 -339 854 C-338.67 853.67 -338.34 853.34 -338 853 C-337.67 846.07 -337.34 839.14 -337 832 C-336.67 831.67 -336.34 831.34 -336 831 C-336 808.56 -336 786.12 -336 763 C-337.32 763.66 -338.64 764.32 -340 765 C-340.242 765.364 -340.485 765.727 -340.734 766.102 C-341.629 767.443 -342.523 768.785 -343.418 770.127 C-343.61 770.415 -343.802 770.703 -344 771 C-346.2 774.301 -348.169 777.169 -351 780 C-351.495 780.825 -351.495 780.825 -354 785 C-354.99 785.99 -355.98 786.98 -357 788 C-357.495 788.825 -357.495 788.825 -360 793 C-360.99 793.99 -361.98 794.98 -363 796 C-363.147 796.28 -363.294 796.559 -363.445 796.848 C-366.12 801.627 -369.623 805.986 -373.766 809.58 C-374.396 810.116 -375.028 810.65 -375.66 811.184 C-380.249 815.13 -384.497 819.385 -388.75 823.688 C-389.498 824.441 -390.247 825.194 -390.996 825.947 C-392.37 827.329 -393.742 828.712 -395.112 830.096 C-398.635 833.654 -401.588 836.353 -406 839 C-407.65 840.65 -409.3 842.3 -411 844 C-412.32 844.66 -413.64 845.32 -415 846 C-415.33 846.66 -415.66 847.32 -416 848 C-417.65 848.66 -419.3 849.32 -421 850 C-422.98 851.32 -424.96 852.64 -427 854 C-427.33 854.66 -427.66 855.32 -428 856 C-429.65 856.66 -431.3 857.32 -433 858 C-433.33 858.66 -433.66 859.32 -434 860 C-435.32 860 -436.64 860 -438 860 C-438 860.66 -438 861.32 -438 862 C-439.32 862 -440.64 862 -442 862 C-442 862.66 -442 863.32 -442 864 C-443.32 864 -444.64 864 -446 864 C-446 864.66 -446 865.32 -446 866 C-448.64 866.99 -451.28 867.98 -454 869 C-455.32 869.825 -455.32 869.825 -462 874 C-463.238 874.474 -464.475 874.949 -465.75 875.438 C-465.941 875.511 -465.941 875.511 -466.905 875.885 C-469.243 876.77 -471.564 877.435 -474 878 C-474 878.66 -474 879.32 -474 880 C-475.32 880 -476.64 880 -478 880 C-478 880.66 -478 881.32 -478 882 C-479.98 882 -481.96 882 -484 882 C-484 882.66 -484 883.32 -484 884 C-485.32 884 -486.64 884 -488 884 C-488 884.66 -488 885.32 -488 886 C-489.98 886 -491.96 886 -494 886 C-494 886.66 -494 887.32 -494 888 C-495.98 888 -497.96 888 -500 888 C-500 888.66 -500 889.32 -500 890 C-501.98 890 -503.96 890 -506 890 C-506 890.66 -506 891.32 -506 892 C-507.98 892 -509.96 892 -512 892 C-512 892.66 -512 893.32 -512 894 C-514.64 894 -517.28 894 -520 894 C-520 894.66 -520 895.32 -520 896 C-521.98 896 -523.96 896 -526 896 C-526 896.66 -526 897.32 -526 898 C-528.64 898 -531.28 898 -534 898 C-534 898.66 -534 899.32 -534 900 C-536.64 900 -539.28 900 -542 900 C-542 900.66 -542 901.32 -542 902 C-546.62 902 -551.24 902 -556 902 C-556.825 901.505 -556.825 901.505 -561 899 C-561.66 897.68 -562.32 896.36 -563 895 C-563 893.35 -563 891.7 -563 890 C-561.68 888.02 -560.36 886.04 -559 884 C-557.02 882.68 -555.04 881.36 -553 880 C-550.36 877.406 -547.725 874.807 -545.097 872.2 C-543.875 870.989 -542.652 869.78 -541.425 868.576 C-536.307 863.551 -531.361 858.608 -527.26 852.705 C-525.216 849.813 -522.576 847.411 -520 845 C-519.83 844.697 -519.66 844.394 -519.484 844.082 C-517.258 840.234 -514.626 836.898 -511.738 833.527 C-511.522 833.273 -511.306 833.019 -511.083 832.758 C-510.475 832.044 -509.861 831.334 -509.246 830.625 C-507.913 828.976 -506.872 827.177 -505.801 825.352 C-504.144 822.557 -502.36 819.84 -500.605 817.105 C-497.412 812.111 -494.46 807.053 -491.688 801.812 C-489.824 798.308 -487.945 794.843 -485.826 791.487 C-482.437 786.113 -479.783 780.457 -477.115 774.704 C-475.019 770.183 -472.889 765.699 -470.527 761.309 C-470.325 760.932 -470.123 760.556 -469.914 760.168 C-468.957 758.395 -467.989 756.63 -467.007 754.871 C-464.724 750.728 -463.098 746.607 -461.679 742.098 C-460.806 739.338 -459.665 736.71 -458.5 734.062 C-456.718 729.913 -455.248 725.785 -454.023 721.44 C-453.161 718.414 -452.047 715.648 -450.75 712.777 C-449.88 710.716 -449.184 708.628 -448.5 706.5 C-447.229 702.551 -445.713 698.779 -444 695 C-443.92 694.638 -443.839 694.275 -443.756 693.902 C-443.382 692.225 -443.004 690.55 -442.625 688.875 C-442.562 688.59 -442.562 688.59 -442.242 687.148 C-441.378 683.345 -440.305 679.675 -439 676 C-438.34 676 -437.68 676 -437 676 C-437 674.02 -437 672.04 -437 670 C-436.807 669.564 -436.613 669.129 -436.414 668.68 C-433.691 662.452 -431.98 656.86 -431 650 C-430.34 650 -429.68 650 -429 650 C-429 647.36 -429 644.72 -429 642 C-428.67 641.67 -428.34 641.34 -428 641 C-427.67 638.69 -427.34 636.38 -427 634 C-426.34 632.02 -425.68 630.04 -425 628 C-426.65 628.66 -428.3 629.32 -430 630 C-430 630.66 -430 631.32 -430 632 C-430.66 632 -431.32 632 -432 632 C-432 632.66 -432 633.32 -432 634 C-432.66 634 -433.32 634 -434 634 C-434 634.66 -434 635.32 -434 636 C-434.66 636 -435.32 636 -436 636 C-436 636.66 -436 637.32 -436 638 C-436.66 638 -437.32 638 -438 638 C-438 638.66 -438 639.32 -438 640 C-439.32 640 -440.64 640 -442 640 C-442 640.66 -442 641.32 -442 642 C-442.66 642 -443.32 642 -444 642 C-444 642.66 -444 643.32 -444 644 C-444.66 644 -445.32 644 -446 644 C-446 644.66 -446 645.32 -446 646 C-446.66 646 -447.32 646 -448 646 C-448 646.66 -448 647.32 -448 648 C-449.32 648 -450.64 648 -452 648 C-452 648.66 -452 649.32 -452 650 C-452.66 650 -453.32 650 -454 650 C-454 650.66 -454 651.32 -454 652 C-454.66 652 -455.32 652 -456 652 C-456 652.66 -456 653.32 -456 654 C-456.66 654 -457.32 654 -458 654 C-458 654.66 -458 655.32 -458 656 C-459.32 656 -460.64 656 -462 656 C-462 656.66 -462 657.32 -462 658 C-462.66 658 -463.32 658 -464 658 C-464 658.66 -464 659.32 -464 660 C-464.66 660 -465.32 660 -466 660 C-466 660.66 -466 661.32 -466 662 C-467.98 662.66 -469.96 663.32 -472 664 C-472 664.66 -472 665.32 -472 666 C-472.66 666 -473.32 666 -474 666 C-474 666.66 -474 667.32 -474 668 C-475.32 668 -476.64 668 -478 668 C-478 668.66 -478 669.32 -478 670 C-478.66 670 -479.32 670 -480 670 C-480 670.66 -480 671.32 -480 672 C-481.32 672 -482.64 672 -484 672 C-484 672.66 -484 673.32 -484 674 C-484.66 674 -485.32 674 -486 674 C-486 674.66 -486 675.32 -486 676 C-487.32 676 -488.64 676 -490 676 C-490 676.66 -490 677.32 -490 678 C-492.64 679.32 -495.28 680.64 -498 682 C-498.66 682 -499.32 682 -500 682 C-500 682.66 -500 683.32 -500 684 C-501.32 684 -502.64 684 -504 684 C-504 684.66 -504 685.32 -504 686 C-505.32 686 -506.64 686 -508 686 C-508 686.66 -508 687.32 -508 688 C-509.32 688 -510.64 688 -512 688 C-512 688.66 -512 689.32 -512 690 C-513.32 690 -514.64 690 -516 690 C-516 690.66 -516 691.32 -516 692 C-517.32 692 -518.64 692 -520 692 C-520 692.66 -520 693.32 -520 694 C-521.32 694 -522.64 694 -524 694 C-524 694.66 -524 695.32 -524 696 C-525.32 696 -526.64 696 -528 696 C-528 696.66 -528 697.32 -528 698 C-529.32 698 -530.64 698 -532 698 C-532 698.66 -532 699.32 -532 700 C-533.98 700 -535.96 700 -538 700 C-538 700.66 -538 701.32 -538 702 C-539.32 702 -540.64 702 -542 702 C-542 702.66 -542 703.32 -542 704 C-543.32 704 -544.64 704 -546 704 C-546 704.66 -546 705.32 -546 706 C-547.98 706 -549.96 706 -552 706 C-552 706.66 -552 707.32 -552 708 C-553.32 708 -554.64 708 -556 708 C-556 708.66 -556 709.32 -556 710 C-557.98 710 -559.96 710 -562 710 C-562 710.66 -562 711.32 -562 712 C-563.98 712 -565.96 712 -568 712 C-568 712.66 -568 713.32 -568 714 C-569.98 714 -571.96 714 -574 714 C-574 714.66 -574 715.32 -574 716 C-575.98 716 -577.96 716 -580 716 C-580 716.66 -580 717.32 -580 718 C-582.64 718 -585.28 718 -588 718 C-588 718.66 -588 719.32 -588 720 C-595 722 -595 722 -602 722 C-602 722.66 -602 723.32 -602 724 C-604.64 724 -607.28 724 -610 724 C-610 724.66 -610 725.32 -610 726 C-612.31 726.33 -614.62 726.66 -617 727 C-617.33 727.33 -617.66 727.66 -618 728 C-622.62 728 -627.24 728 -632 728 C-632 728.66 -632 729.32 -632 730 C-635.63 730.33 -639.26 730.66 -643 731 C-643.33 731.33 -643.66 731.66 -644 732 C-649.61 732.33 -655.22 732.66 -661 733 C-661.33 733.33 -661.66 733.66 -662 734 C-682.46 734 -702.92 734 -724 734 C-724.33 733.67 -724.66 733.34 -725 733 C-730.61 732.67 -736.22 732.34 -742 732 C-743.98 730.68 -745.96 729.36 -748 728 C-748.33 727.505 -748.33 727.505 -750 725 C-750 722.36 -750 719.72 -750 717 C-749.34 717 -748.68 717 -748 717 C-747.67 715.68 -747.34 714.36 -747 713 C-744.553 710.553 -743.065 709.519 -740.188 708.062 C-739.831 707.88 -739.475 707.698 -739.107 707.51 C-737.106 706.5 -735.155 705.646 -733 705 C-732.67 704.34 -732.34 703.68 -732 703 C-730.35 702.34 -728.7 701.68 -727 701 C-726.01 701 -725.02 701 -724 701 C-724 700.34 -724 699.68 -724 699 C-722.68 698.67 -721.36 698.34 -720 698 C-716.131 696.197 -712.557 694.136 -708.967 691.839 C-706.983 690.581 -704.997 689.454 -702.875 688.438 C-698.218 686.191 -694.187 683.191 -690.203 679.926 C-689.066 679.051 -687.932 678.335 -686.688 677.625 C-684.311 676.261 -682.173 674.661 -680 673 C-677.108 670.79 -674.199 668.753 -671 667 C-670.67 666.34 -670.34 665.68 -670 665 C-669.01 664.505 -669.01 664.505 -664 662 C-663.709 661.782 -663.709 661.782 -662.234 660.676 C-658.141 657.605 -658.141 657.605 -657.211 656.908 C-656.545 656.409 -655.879 655.908 -655.213 655.408 C-653.464 654.094 -651.711 652.785 -649.949 651.488 C-646.339 648.822 -642.873 646.071 -639.501 643.107 C-637.767 641.602 -636.008 640.295 -634.062 639.062 C-630.388 636.708 -627.243 633.794 -624.002 630.889 C-622.441 629.504 -620.844 628.16 -619.25 626.812 C-616.708 624.652 -614.314 622.407 -612 620 C-610.35 619.01 -608.7 618.02 -607 617 C-603.37 613.37 -599.74 609.74 -596 606 C-594.35 605.01 -592.7 604.02 -591 603 C-590.613 602.541 -590.227 602.082 -589.828 601.609 C-587.004 598.276 -584.176 595.008 -581 592 C-580.34 592 -579.68 592 -579 592 C-579 591.34 -579 590.68 -579 590 C-577.68 589.175 -577.68 589.175 -571 585 C-550 564 -550 564 -549 562 C-548.34 562 -547.68 562 -547 562 C-547 561.34 -547 560.68 -547 560 C-546.553 559.625 -546.105 559.25 -545.645 558.863 C-542.222 555.974 -538.928 553.034 -535.804 549.82 C-533.948 547.927 -532.064 546.061 -530.188 544.188 C-529.389 543.389 -528.591 542.591 -527.793 541.793 C-527.195 541.195 -526.598 540.598 -526 540 C-525.67 539.34 -525.34 538.68 -525 538 C-524.34 538 -523.68 538 -523 538 C-523 537.34 -523 536.68 -523 536 C-522.784 535.814 -522.568 535.628 -522.345 535.437 C-518.079 531.76 -513.9 528.068 -510 524 C-509.67 522.68 -509.34 521.36 -509 520 C-508.34 520 -507.68 520 -507 520 C-507 519.34 -507 518.68 -507 518 C-506.34 518 -505.68 518 -505 518 C-505 517.34 -505 516.68 -505 516 C-504.34 516 -503.68 516 -503 516 C-503 515.34 -503 514.68 -503 514 C-502.34 514 -501.68 514 -501 514 C-501 513.34 -501 512.68 -501 512 C-500.34 512 -499.68 512 -499 512 C-499 511.34 -499 510.68 -499 510 C-498.34 510 -497.68 510 -497 510 C-497 509.34 -497 508.68 -497 508 C-496.34 508 -495.68 508 -495 508 C-495 507.34 -495 506.68 -495 506 C-494.34 506 -493.68 506 -493 506 C-493 505.34 -493 504.68 -493 504 C-490.69 502.02 -488.38 500.04 -486 498 C-485.67 496.68 -485.34 495.36 -485 494 C-484.34 494 -483.68 494 -483 494 C-483 493.34 -483 492.68 -483 492 C-481.35 490.68 -479.7 489.36 -478 488 C-477.67 487.34 -477.34 486.68 -477 486 C-476.34 486 -475.68 486 -475 486 C-474.34 484.02 -473.68 482.04 -473 480 C-472.34 480 -471.68 480 -471 480 C-471 479.34 -471 478.68 -471 478 C-470.34 478 -469.68 478 -469 478 C-469 477.34 -469 476.68 -469 476 C-468.34 476 -467.68 476 -467 476 C-467 475.34 -467 474.68 -467 474 C-465.35 472.68 -463.7 471.36 -462 470 C-461.01 468.02 -460.02 466.04 -459 464 C-458.34 464 -457.68 464 -457 464 C-457 463.34 -457 462.68 -457 462 C-456.34 462 -455.68 462 -455 462 C-455 461.34 -455 460.68 -455 460 C-454.34 460 -453.68 460 -453 460 C-453 459.34 -453 458.68 -453 458 C-452.01 457.34 -451.02 456.68 -450 456 C-449.67 454.68 -449.34 453.36 -449 452 C-448.34 452 -447.68 452 -447 452 C-447 451.34 -447 450.68 -447 450 C-446.34 450 -445.68 450 -445 450 C-445 449.34 -445 448.68 -445 448 C-444.01 447.34 -443.02 446.68 -442 446 C-441.67 444.68 -441.34 443.36 -441 442 C-440.34 442 -439.68 442 -439 442 C-439 441.34 -439 440.68 -439 440 C-438.34 440 -437.68 440 -437 440 C-437 439.34 -437 438.68 -437 438 C-436.34 438 -435.68 438 -435 438 C-435 436.68 -435 435.36 -435 434 C-435.99 434.495 -435.99 434.495 -441 437 C-442.65 436.67 -444.3 436.34 -446 436 C-446.33 436.99 -446.66 437.98 -447 439 C-448.65 438.67 -450.3 438.34 -452 438 C-452 438.66 -452 439.32 -452 440 C-453.98 440.33 -455.96 440.66 -458 441 C-459.32 440.67 -460.64 440.34 -462 440 C-462 440.66 -462 441.32 -462 442 C-464.31 442.33 -466.62 442.66 -469 443 C-469.99 443.66 -470.98 444.32 -472 445 C-474.31 445 -476.62 445 -479 445 C-479.33 445.33 -479.66 445.66 -480 446 C-482.97 446.33 -485.94 446.66 -489 447 C-489.33 447.33 -489.66 447.66 -490 448 C-494.95 448.33 -499.9 448.66 -505 449 C-507.31 449.66 -509.62 450.32 -512 451 C-516.29 451 -520.58 451 -525 451 C-525.33 451.33 -525.66 451.66 -526 452 C-532.083 452.202 -538.166 452.389 -544.25 452.562 C-544.696 452.575 -545.142 452.588 -545.602 452.601 C-558.778 452.973 -571.852 453.163 -585 452 C-585.66 451.67 -586.32 451.34 -587 451 C-592.28 450.67 -597.56 450.34 -603 450 C-603.66 449.67 -604.32 449.34 -605 449 C-608.96 449 -612.92 449 -617 449 C-617.66 448.34 -618.32 447.68 -619 447 C-621.64 447 -624.28 447 -627 447 C-627.66 446.34 -628.32 445.68 -629 445 C-631.64 445 -634.28 445 -637 445 C-637.66 444.34 -638.32 443.68 -639 443 C-641.31 442.67 -643.62 442.34 -646 442 C-646.33 441.67 -646.66 441.34 -647 441 C-648.98 441 -650.96 441 -653 441 C-653.66 440.34 -654.32 439.68 -655 439 C-657.31 438.67 -659.62 438.34 -662 438 C-671 435 -671 435 -672.504 434.496 C-673.489 434.17 -674.476 433.849 -675.465 433.535 C-679.428 432.263 -683.198 430.687 -687 429 C-688.65 428.67 -690.3 428.34 -692 428 C-692.652 427.734 -693.305 427.469 -693.977 427.195 C-698.614 425.318 -703.227 423.507 -708 422 C-708.825 421.505 -708.825 421.505 -713 419 C-714.65 418.67 -716.3 418.34 -718 418 C-720.31 416.845 -720.31 416.845 -732 411 C-733.32 410.67 -734.64 410.34 -736 410 C-745 405 -745 405 -748 402 C-748.66 400.68 -749.32 399.36 -750 398 C-750 396.68 -750 395.36 -750 394 C-749.34 394 -748.68 394 -748 394 C-747.67 392.35 -747.34 390.7 -747 389 C-745.35 388.01 -743.7 387.02 -742 386 C-737.71 385.67 -733.42 385.34 -729 385 C-728.67 384.67 -728.34 384.34 -728 384 C-725.03 383.67 -722.06 383.34 -719 383 C-718.67 382.67 -718.34 382.34 -718 382 C-714.7 381.67 -711.4 381.34 -708 381 C-707.67 380.67 -707.34 380.34 -707 380 C-704.36 379.67 -701.72 379.34 -699 379 C-698.67 378.67 -698.34 378.34 -698 378 C-695.69 377.67 -693.38 377.34 -691 377 C-690.67 376.67 -690.34 376.34 -690 376 C-687.69 375.67 -685.38 375.34 -683 375 C-680.69 374.01 -678.38 373.02 -676 372 C-673.69 371.67 -671.38 371.34 -669 371 C-666.69 370.01 -664.38 369.02 -662 368 C-659.69 368 -657.38 368 -655 368 C-655 367.34 -655 366.68 -655 366 C-654.673 365.925 -654.346 365.85 -654.01 365.772 C-648.382 364.463 -642.946 363.194 -637.695 360.746 C-635.727 359.88 -633.734 359.217 -631.688 358.562 C-624.285 356.172 -617.124 353.114 -610 350 C-608.35 350 -606.7 350 -605 350 C-605 349.34 -605 348.68 -605 348 C-603.35 347.34 -601.7 346.68 -600 346 C-598.68 346 -597.36 346 -596 346 C-596 345.34 -596 344.68 -596 344 C-595.466 343.83 -594.933 343.66 -594.383 343.484 C-578.416 338.322 -578.416 338.322 -572 334 C-571.448 333.835 -570.896 333.67 -570.328 333.5 C-565.097 331.879 -560.4 329.82 -555.624 327.155 C-549.257 323.605 -542.891 320.421 -536 318 C-535.01 318 -534.02 318 -533 318 C-533 317.34 -533 316.68 -533 316 C-519 309 -519 309 -515 308 C-515 307.34 -515 306.68 -515 306 C-512.36 305.01 -509.72 304.02 -507 303 C-505.35 302.01 -503.7 301.02 -502 300 C-501.01 300 -500.02 300 -499 300 C-499 299.34 -499 298.68 -499 298 C-498.762 297.918 -498.762 297.918 -497.555 297.502 C-492.212 295.608 -487.291 293.196 -482.312 290.5 C-481.572 290.105 -480.832 289.711 -480.092 289.316 C-476.334 287.308 -472.621 285.25 -469 283 C-467.68 282.67 -466.36 282.34 -465 282 C-465 281.34 -465 280.68 -465 280 C-462.36 279.01 -459.72 278.02 -457 277 C-456.01 276.01 -455.02 275.02 -454 274 C-450.04 272.02 -446.08 270.04 -442 268 C-441.34 267.34 -440.68 266.68 -440 266 C-439.01 266 -438.02 266 -437 266 C-437 265.34 -437 264.68 -437 264 C-435.35 263.34 -433.7 262.68 -432 262 C-431.625 261.746 -431.25 261.492 -430.863 261.23 C-428.04 259.332 -425.198 257.5 -422.266 255.773 C-420.893 254.935 -419.576 254.035 -418.25 253.125 C-415.784 251.456 -413.248 250.03 -410.625 248.625 C-407.09 246.721 -403.917 244.553 -400.745 242.097 C-398.27 240.181 -395.728 238.538 -393 237 C-392.061 236.44 -391.124 235.877 -390.188 235.312 C-389.458 234.875 -388.729 234.438 -388 234 C-387.67 233.34 -387.34 232.68 -387 232 C-385.35 231.34 -383.7 230.68 -382 230 C-380.02 228.68 -378.04 227.36 -376 226 C-375.67 225.34 -375.34 224.68 -375 224 C-373.35 223.34 -371.7 222.68 -370 222 C-369.505 221.34 -369.505 221.34 -367 218 C-365.35 217.34 -363.7 216.68 -362 216 C-360.68 214.68 -359.36 213.36 -358 212 C-357.299 211.587 -356.598 211.175 -355.875 210.75 C-351.548 208.159 -347.572 205.572 -344 202 C-342.35 201.01 -340.7 200.02 -339 199 C-338.01 198.01 -337.02 197.02 -336 196 C-334.35 195.01 -332.7 194.02 -331 193 C-330.01 192.01 -329.02 191.02 -328 190 C-326.35 189.01 -324.7 188.02 -323 187 C-321.02 184.69 -319.04 182.38 -317 180 C-315.35 179.34 -313.7 178.68 -312 178 C-298 164 -298 164 -295 158 C-292.36 155.69 -289.72 153.38 -287 151 C-286.34 150.01 -286.34 150.01 -283 145 C-242 104 -242 104 -237 101 C-235.68 99.35 -234.36 97.7 -233 96 C-232.34 96 -231.68 96 -231 96 C-231 95.34 -231 94.68 -231 94 C-229.35 93.34 -227.7 92.68 -226 92 C-224.35 90.02 -222.7 88.04 -221 86 C-219.35 85.34 -217.7 84.68 -216 84 C-215.01 82.68 -214.02 81.36 -213 80 C-211.35 79.34 -209.7 78.68 -208 78 C-207.67 77.34 -207.34 76.68 -207 76 C-205.35 75.34 -203.7 74.68 -202 74 C-201.481 73.602 -200.961 73.203 -200.426 72.793 C-196.725 69.974 -193.059 67.288 -189 65 C-188.061 64.44 -187.124 63.877 -186.188 63.312 C-185.458 62.875 -184.729 62.438 -184 62 C-183.67 61.34 -183.34 60.68 -183 60 C-181.68 60 -180.36 60 -179 60 C-179 59.34 -179 58.68 -179 58 C-178.175 57.67 -178.175 57.67 -174 56 C-173.832 55.88 -173.832 55.88 -172.982 55.274 C-168.718 52.325 -164.274 50.019 -159.625 47.75 C-158.881 47.383 -158.138 47.016 -157.395 46.648 C-155.598 45.761 -153.8 44.879 -152 44 C-151.01 44 -150.02 44 -149 44 C-149 43.34 -149 42.68 -149 42 C-148.175 41.67 -148.175 41.67 -144 40 C-143.01 40 -142.02 40 -141 40 C-141 39.34 -141 38.68 -141 38 C-140.175 37.67 -140.175 37.67 -136 36 C-135.01 36 -134.02 36 -133 36 C-133 35.34 -133 34.68 -133 34 C-131.68 34 -130.36 34 -129 34 C-129 33.34 -129 32.68 -129 32 C-127.02 32 -125.04 32 -123 32 C-123 31.34 -123 30.68 -123 30 C-121.68 30 -120.36 30 -119 30 C-119 29.34 -119 28.68 -119 28 C-117.02 28 -115.04 28 -113 28 C-113 27.34 -113 26.68 -113 26 C-111.68 26 -110.36 26 -109 26 C-109 25.34 -109 24.68 -109 24 C-107.02 24 -105.04 24 -103 24 C-103 23.34 -103 22.68 -103 22 C-96 20 -96 20 -91 20 C-91 19.34 -91 18.68 -91 18 C-89.02 18 -87.04 18 -85 18 C-85 17.34 -85 16.68 -85 16 C-83.02 16 -81.04 16 -79 16 C-79 15.34 -79 14.68 -79 14 C-76.36 13.67 -73.72 13.34 -71 13 C-70.67 12.67 -70.34 12.34 -70 12 C-67.69 12 -65.38 12 -63 12 C-63 11.34 -63 10.68 -63 10 C-59.7 10 -56.4 10 -53 10 C-53 9.34 -53 8.68 -53 8 C-49.7 8 -46.4 8 -43 8 C-43 7.34 -43 6.68 -43 6 C-40.03 6 -37.06 6 -34 6 C-33.67 5.34 -33.34 4.68 -33 4 C-29.04 3.67 -25.08 3.34 -21 3 C-20.67 2.67 -20.34 2.34 -20 2 C-13.73 1.67 -7.46 1.34 -1 1 C-0.67 0.67 -0.34 0.34 0 0 Z " fill="#8F5B32" transform="translate(750,263)"/>
<path d="M0 0 C0.525 -0.005 1.05 -0.01 1.591 -0.015 C5.584 -0.051 9.577 -0.067 13.57 -0.074 C14.16 -0.075 14.749 -0.077 15.356 -0.078 C36.393 -0.106 56.923 0.896 77.695 4.238 C77.862 4.265 77.862 4.265 78.706 4.399 C106.342 8.811 133.285 16.047 159.51 25.799 C160.624 26.212 161.739 26.62 162.855 27.026 C172.188 30.435 180.804 34.797 189.511 39.533 C192.886 41.36 196.318 43.06 199.763 44.749 C220.591 54.988 239.802 67.437 257.695 82.238 C257.974 82.468 258.253 82.698 258.54 82.935 C268.647 91.284 278.203 100.203 287.695 109.238 C288.025 110.228 288.355 111.218 288.695 112.238 C289.355 112.238 290.015 112.238 290.695 112.238 C291.096 112.7 291.497 113.161 291.91 113.637 C292.484 114.296 293.059 114.954 293.633 115.613 C293.948 115.976 294.263 116.338 294.587 116.711 C296.266 118.634 297.961 120.536 299.707 122.398 C310.355 133.813 319.354 146.543 328.134 159.416 C328.687 160.226 329.241 161.036 329.795 161.845 C333.903 167.859 337.759 173.901 341.196 180.323 C341.891 181.598 342.639 182.837 343.398 184.074 C348.259 192.022 352.186 200.333 356.085 208.78 C357.171 211.128 358.286 213.457 359.438 215.773 C379.08 255.643 390.574 300.535 395.445 344.566 C395.932 349.118 396.345 353.674 396.695 358.238 C396.139 358.484 395.583 358.729 395.01 358.981 C389.856 361.259 384.73 363.587 379.633 365.988 C379.279 366.155 378.924 366.321 378.559 366.493 C370.535 370.269 362.606 374.231 354.695 378.238 C344.047 381.313 334.775 382.401 323.695 382.238 C311.876 379.452 301.06 374.75 290.004 369.821 C288.319 369.071 286.632 368.327 284.944 367.584 C278.766 364.862 272.599 362.115 266.457 359.313 C265.62 358.932 264.782 358.552 263.944 358.173 C261.87 357.236 259.801 356.291 257.745 355.316 C247.237 350.337 237.112 346.556 225.695 344.238 C218.157 343.888 211.138 344.985 203.695 346.238 C185.695 353.238 185.695 353.238 173.695 362.238 C165.695 371.238 165.695 371.238 158.695 385.238 C158.376 386.435 158.376 386.435 156.758 392.488 C156.558 393.214 156.358 393.94 156.153 394.688 C153.243 405.963 153.588 417.548 153.677 429.1 C153.71 433.41 153.719 437.721 153.723 442.031 C153.723 442.248 153.723 442.248 153.724 443.342 C153.728 451.876 153.553 460.397 153.258 468.926 C153.248 469.225 153.248 469.225 153.198 470.739 C153.068 474.574 152.902 478.406 152.695 482.238 C152.669 482.743 152.643 483.247 152.617 483.767 C152.179 491.737 150.81 499.297 148.945 507.051 C148.81 507.62 148.675 508.189 148.536 508.775 C143.963 527.967 137.25 546.474 126.73 563.305 C121.368 571.387 114.902 578.798 108.695 586.238 C108.365 586.898 108.035 587.558 107.695 588.238 C107.035 588.238 106.375 588.238 105.695 588.238 C105.035 589.558 104.375 590.878 103.695 592.238 C100.395 595.538 100.395 595.538 83.695 612.238 C83.035 612.238 82.375 612.238 81.695 612.238 C81.365 613.228 81.035 614.218 80.695 615.238 C80.269 615.604 79.842 615.97 79.402 616.348 C70.203 624.294 61.154 632.502 52.695 641.238 C52.035 641.238 51.375 641.238 50.695 641.238 C50.035 642.558 49.375 643.878 48.695 645.238 C48.447 645.505 48.447 645.505 47.191 646.855 C38.473 656.357 31.893 666.437 26.695 678.238 C21.95 689.863 21.927 698.071 20.695 712.238 C22.695 730.238 22.695 730.238 27.695 747.238 C34.149 760.147 40.54 769.765 49.695 780.238 C50.355 780.568 51.015 780.898 51.695 781.238 C51.695 781.898 51.695 782.558 51.695 783.238 C53.015 783.898 54.335 784.558 55.695 785.238 C55.95 785.489 56.205 785.739 56.467 785.998 C63.69 793.021 71.363 798.622 79.832 804.039 C82.794 805.938 85.711 807.904 88.633 809.863 C89.621 810.522 90.609 811.181 91.598 811.84 C92.297 812.306 92.996 812.772 93.695 813.238 C93.695 814.228 93.695 815.218 93.695 816.238 C84.079 817.966 74.533 818.802 64.792 819.304 C63.611 819.364 62.429 819.427 61.248 819.49 C33.962 820.924 6.935 820.05 -20.305 818.238 C-20.597 818.219 -20.597 818.219 -22.077 818.121 C-39.245 816.97 -56.288 814.759 -73.305 812.238 C-73.912 812.148 -74.519 812.059 -75.144 811.966 C-95.201 808.973 -114.747 804.514 -134.305 799.238 C-134.938 799.068 -135.571 798.897 -136.223 798.721 C-151.801 794.51 -167.21 789.957 -182.305 784.238 C-182.537 784.151 -182.537 784.151 -183.714 783.707 C-211.898 773.068 -239.331 760.186 -264.305 743.238 C-264.628 743.019 -264.952 742.8 -265.285 742.575 C-276.124 735.231 -286.41 727.341 -296.454 718.947 C-297.301 718.241 -298.151 717.539 -299.002 716.837 C-299.137 716.726 -299.137 716.726 -299.821 716.161 C-300.546 715.561 -301.273 714.962 -301.999 714.363 C-304.226 712.445 -306.257 710.344 -308.305 708.238 C-309.239 707.298 -310.178 706.362 -311.117 705.426 C-311.846 704.697 -312.576 703.967 -313.305 703.238 C-313.305 702.578 -313.305 701.918 -313.305 701.238 C-314.625 700.578 -315.945 699.918 -317.305 699.238 C-323.523 692.538 -329.481 685.714 -335.209 678.587 C-336.273 677.278 -337.355 675.986 -338.445 674.699 C-342.769 669.573 -346.817 664.289 -350.712 658.832 C-351.219 658.122 -351.728 657.412 -352.238 656.705 C-356.155 651.264 -359.429 645.585 -362.555 639.659 C-363.294 638.258 -364.041 636.861 -364.789 635.465 C-380.246 606.586 -391.182 577.547 -397.305 545.238 C-397.42 544.631 -397.535 544.023 -397.654 543.397 C-400.916 526.086 -403.404 508.835 -404.305 491.238 C-404.335 490.65 -404.366 490.061 -404.397 489.455 C-405.291 471.857 -405.479 454.382 -404.397 436.789 C-404.303 435.217 -404.219 433.645 -404.137 432.072 C-402.55 401.955 -397.337 372.52 -390.305 343.238 C-390.197 342.786 -390.089 342.334 -389.978 341.868 C-387.274 330.588 -383.516 319.615 -379.867 308.613 C-379.809 308.439 -379.809 308.439 -379.517 307.556 C-375.081 294.172 -370.352 280.884 -364.93 267.863 C-364.859 267.693 -364.859 267.693 -364.502 266.833 C-363.447 264.297 -362.378 261.767 -361.305 259.238 C-361.152 258.877 -360.999 258.515 -360.841 258.143 C-352.277 237.918 -341.677 219.006 -330.305 200.238 C-330.07 199.85 -329.836 199.462 -329.594 199.062 C-324.103 189.979 -318.302 181.211 -312.046 172.637 C-310.054 169.904 -308.113 167.138 -306.18 164.363 C-305.884 163.94 -305.589 163.517 -305.284 163.081 C-304.624 162.134 -303.964 161.186 -303.305 160.238 C-302.645 160.238 -301.985 160.238 -301.305 160.238 C-300.645 158.918 -299.985 157.598 -299.305 156.238 C-272.811 123.416 -272.811 123.416 -261.773 114.449 C-259.741 112.774 -257.922 110.927 -256.087 109.041 C-245.749 98.432 -245.749 98.432 -241.305 95.238 C-240.645 95.238 -239.985 95.238 -239.305 95.238 C-239.305 94.578 -239.305 93.918 -239.305 93.238 C-238.994 93.008 -238.682 92.777 -238.362 92.539 C-236.883 91.441 -235.406 90.34 -233.93 89.238 C-233.657 89.035 -233.384 88.831 -233.103 88.622 C-229.486 85.917 -225.93 83.156 -222.43 80.301 C-207.533 68.245 -191.252 58.582 -174.467 49.421 C-172.818 48.521 -171.175 47.611 -169.535 46.696 C-133.003 26.351 -91.199 11.131 -49.795 4.462 C-40.931 3.13 -31.985 2.275 -23.065 1.416 C-21.739 1.282 -20.416 1.138 -19.091 0.986 C-12.72 0.274 -6.408 0.046 0 0 Z " fill="#6ABBE3" transform="translate(767.3046875,283.76171875)"/>
<path d="M0 0 C1.067 0.005 2.134 0.01 3.201 0.014 C16.219 0.069 29.567 2.438 41.816 6.93 C58.547 13.224 72.165 22.81 85.938 34.062 C85.938 34.722 85.938 35.383 85.938 36.062 C86.597 36.062 87.257 36.062 87.938 36.062 C87.938 36.722 87.938 37.383 87.938 38.062 C89.257 38.722 90.577 39.383 91.938 40.062 C102.005 50.957 110.767 62.257 116.78 75.932 C118.089 79.074 119.268 82.256 120.375 85.475 C120.901 86.96 121.469 88.423 122.046 89.889 C123.813 94.427 125.033 98.995 126.062 103.75 C126.148 104.14 126.234 104.53 126.322 104.932 C127.851 111.961 128.744 118.862 128.938 126.062 C128.958 126.608 128.978 127.153 129 127.715 C129.549 143.478 127.122 158.782 122.395 173.784 C117.405 188.786 109.148 202.615 99.385 214.97 C98.838 215.658 98.291 216.346 97.745 217.034 C96.447 218.688 95.19 220.374 93.938 222.062 C93.278 222.062 92.618 222.062 91.938 222.062 C91.278 223.382 90.618 224.702 89.938 226.062 C89.278 226.062 88.618 226.062 87.938 226.062 C87.938 226.722 87.938 227.382 87.938 228.062 C75.686 238.693 62.337 246.686 47.938 254.062 C29.059 260.505 11.954 263.439 -8.014 263.14 C-20.105 262.885 -31.607 261.013 -43.062 257.062 C-43.335 256.97 -43.335 256.97 -44.713 256.504 C-53.303 253.549 -61.221 249.63 -69.062 245.062 C-69.301 244.925 -69.301 244.925 -70.507 244.227 C-78.37 239.623 -85.212 234.026 -92.062 228.062 C-92.062 227.403 -92.062 226.743 -92.062 226.062 C-93.383 225.403 -94.702 224.743 -96.062 224.062 C-107.517 211.462 -116.002 198.464 -123.062 183.062 C-123.315 182.518 -123.568 181.974 -123.828 181.414 C-125.888 176.822 -127.345 172.172 -128.625 167.312 C-128.679 167.11 -128.679 167.11 -128.951 166.083 C-131.368 156.844 -132.497 147.581 -133.062 138.062 C-133.097 137.49 -133.132 136.917 -133.167 136.326 C-133.845 122.88 -131.319 109.055 -128.062 96.062 C-127.931 95.531 -127.8 94.999 -127.666 94.452 C-124.173 80.713 -117.29 67.94 -109.359 56.254 C-106.29 51.868 -102.745 47.979 -99.05 44.119 C-97.881 42.869 -96.794 41.567 -95.711 40.242 C-88.208 31.09 -78.066 23.95 -68 17.875 C-66.365 16.918 -64.716 15.987 -63.062 15.062 C-62.694 14.85 -62.325 14.638 -61.946 14.419 C-50.169 7.701 -36.081 3.638 -22.781 1.329 C-15.155 0.145 -7.709 -0.064 0 0 Z " fill="#8F5A31" transform="translate(747.0625,488.9375)"/>
<path d="M0 0 C0.846 -0.002 1.692 -0.005 2.537 -0.009 C18.547 -0.082 33.744 1.22 49.283 5.372 C49.567 5.446 49.567 5.446 51.004 5.825 C69.914 10.841 87.559 18.042 104.22 28.309 C104.517 28.492 104.814 28.675 105.121 28.863 C122.743 39.757 139.015 54.053 151.896 70.29 C160.552 81.424 169.665 93.288 175.22 106.309 C175.435 106.809 175.65 107.309 175.871 107.823 C179.535 116.53 182.181 125.4 184.47 134.559 C184.595 135.054 184.719 135.55 184.848 136.06 C187.528 146.787 189.446 157.428 189.853 168.492 C189.908 169.942 189.978 171.391 190.05 172.84 C190.326 179.088 190.017 185.108 189.22 191.309 C184.22 196.309 184.22 196.309 182.22 197.309 C180.24 197.309 178.26 197.309 176.22 197.309 C174.57 195.659 172.92 194.009 171.22 192.309 C170.89 189.009 170.56 185.709 170.22 182.309 C161.836 171.705 153.048 162.448 142.22 154.309 C141.73 153.937 141.239 153.565 140.734 153.182 C121.788 138.905 101.754 128.036 79.079 121.012 C69.866 118.202 60.581 115.713 51.157 113.722 C49.289 113.324 47.429 112.899 45.568 112.473 C27.732 108.584 8.431 107.434 -9.78 108.309 C-10.24 108.331 -10.701 108.353 -11.175 108.376 C-47.516 110.164 -82.663 116.029 -117.394 126.877 C-118.741 127.297 -120.09 127.711 -121.44 128.124 C-141.957 134.426 -161.882 142.797 -180.857 152.824 C-182.153 153.505 -183.455 154.176 -184.756 154.847 C-192.037 158.608 -199.102 162.532 -205.78 167.309 C-207.76 167.639 -209.74 167.969 -211.78 168.309 C-216.78 165.309 -216.78 165.309 -218.78 163.309 C-218.78 154.372 -218.077 149.48 -215.317 141.777 C-207.227 119.787 -193.828 99.715 -178.819 81.876 C-177.809 80.684 -176.795 79.496 -175.78 78.309 C-175.669 78.178 -175.669 78.178 -175.105 77.517 C-170.615 72.243 -165.977 67.417 -160.678 62.958 C-158.761 61.328 -157.023 59.558 -155.28 57.747 C-151.784 54.136 -147.871 51.21 -143.78 48.309 C-143.12 48.309 -142.46 48.309 -141.78 48.309 C-141.78 47.649 -141.78 46.989 -141.78 46.309 C-125.535 35.165 -109.32 24.179 -90.709 17.391 C-88.659 16.643 -86.629 15.857 -84.605 15.044 C-57.351 4.116 -29.209 0.072 0 0 Z " fill="#8E5A31" transform="translate(761.779899597168,358.6908187866211)"/>
<path d="M0 0 C12.028 2.663 22.782 7.251 33.229 13.734 C39.083 17.463 44.247 22.159 49.375 26.812 C49.375 27.472 49.375 28.133 49.375 28.812 C50.035 28.812 50.695 28.812 51.375 28.812 C58.647 38.293 64.367 47.968 69.375 58.812 C72.958 73.237 75.357 87.209 73.898 102.16 C72.287 115.086 67.265 126.033 61.375 137.812 C58.389 141.824 55.396 145.828 52.375 149.812 C52.115 150.157 51.855 150.502 51.587 150.857 C46.081 158.085 38.671 163.515 31.375 168.812 C25.601 171.848 19.819 174.812 13.688 177.062 C13.286 177.213 12.884 177.363 12.469 177.519 C4.533 180.32 -3.324 181.16 -11.688 181.438 C-12.658 181.476 -13.629 181.515 -14.6 181.555 C-24.209 181.942 -33.943 180.911 -43.188 178.125 C-53.661 174.772 -63.371 169.585 -72.07 162.879 C-81.688 155.218 -89.352 146.469 -95.812 136 C-101.14 127.002 -104.73 116.985 -106.787 106.762 C-108.885 95.448 -108.056 86.978 -106.625 74.812 C-102.881 61.71 -98.408 49.449 -90.567 38.193 C-88.982 36.014 -87.328 33.9 -85.625 31.812 C-85.471 31.622 -85.471 31.622 -84.691 30.657 C-81.047 26.197 -77.211 22.306 -72.625 18.812 C-71.965 18.812 -71.305 18.812 -70.625 18.812 C-70.625 18.153 -70.625 17.492 -70.625 16.812 C-58.195 9.501 -45.839 2.452 -31.608 -0.311 C-21.093 -2.024 -10.442 -2.204 0 0 Z " fill="#8F5A31" transform="translate(761.625,530.1875)"/>
<path d="M0 0 C12.028 2.663 22.782 7.251 33.229 13.734 C39.083 17.463 44.247 22.159 49.375 26.812 C49.375 27.472 49.375 28.133 49.375 28.812 C50.035 28.812 50.695 28.812 51.375 28.812 C58.647 38.293 64.367 47.968 69.375 58.812 C72.958 73.237 75.357 87.209 73.898 102.16 C72.287 115.086 67.265 126.033 61.375 137.812 C58.389 141.824 55.396 145.828 52.375 149.812 C52.115 150.157 51.855 150.502 51.587 150.857 C46.081 158.085 38.671 163.515 31.375 168.812 C25.601 171.848 19.819 174.812 13.688 177.062 C13.286 177.213 12.884 177.363 12.469 177.519 C4.533 180.32 -3.324 181.16 -11.688 181.438 C-12.658 181.476 -13.629 181.515 -14.6 181.555 C-24.209 181.942 -33.943 180.911 -43.188 178.125 C-53.661 174.772 -63.371 169.585 -72.07 162.879 C-81.688 155.218 -89.352 146.469 -95.812 136 C-101.14 127.002 -104.73 116.985 -106.787 106.762 C-108.885 95.448 -108.056 86.978 -106.625 74.812 C-102.881 61.71 -98.408 49.449 -90.567 38.193 C-88.982 36.014 -87.328 33.9 -85.625 31.812 C-85.471 31.622 -85.471 31.622 -84.691 30.657 C-81.047 26.197 -77.211 22.306 -72.625 18.812 C-71.965 18.812 -71.305 18.812 -70.625 18.812 C-70.625 18.153 -70.625 17.492 -70.625 16.812 C-58.195 9.501 -45.839 2.452 -31.608 -0.311 C-21.093 -2.024 -10.442 -2.204 0 0 Z M-34.625 20.812 C-47.294 27.147 -56.963 32.711 -66.445 42.562 C-71.379 47.79 -75.32 55.237 -78.212 61.822 C-80.92 68.313 -82.361 74.909 -83.625 81.812 C-83.625 94.812 -83.625 94.812 -80.625 110.812 C-77.948 118.021 -74.775 124.347 -70.625 130.812 C-69.031 132.577 -67.432 134.337 -65.828 136.092 C-65.285 136.687 -64.744 137.283 -64.205 137.881 C-58.354 144.358 -52.428 149.045 -44.738 153.211 C-37.236 157.17 -29.786 159.42 -21.418 160.616 C-12.092 161.637 -3.487 160.385 5.571 158.27 C13.579 156.239 20.471 152.244 27.375 147.812 C37.045 139.177 44.949 131.195 51.375 119.812 C52.014 118.193 52.633 116.566 53.25 114.938 C53.424 114.497 53.598 114.056 53.777 113.602 C55.632 108.655 56.295 104.211 57.375 98.812 C57.375 76.812 57.375 76.812 54.375 62.812 C48.375 51.812 48.375 51.812 37.375 38.812 C35.725 37.492 34.075 36.173 32.375 34.812 C31.715 34.812 31.055 34.812 30.375 34.812 C30.21 34.317 30.21 34.317 29.375 31.812 C14.375 22.812 14.375 22.812 2.375 18.812 C-2.678 17.978 -7.439 17.685 -12.562 17.75 C-19.625 17.812 -19.625 17.812 -34.625 20.812 Z " fill="#6ABBE3" transform="translate(761.625,530.1875)"/>
<path d="M0 0 C6 2 6 2 13 7 C14.32 9.31 15.64 11.62 17 14 C18 24 18 24 16 32 C15.01 33.65 14.02 35.3 13 37 C12.34 37 11.68 37 11 37 C11 37.66 11 38.32 11 39 C9.68 39.66 9.68 39.66 3 43 C1.35 43.165 1.35 43.165 -7 44 C-14 42 -14 42 -21 37 C-22.32 34.69 -23.64 32.38 -25 30 C-25.33 26.7 -25.66 23.4 -26 20 C-25.01 16.7 -24.02 13.4 -23 10 C-18 5 -18 5 -12 1 C-8 0 -8 0 0 0 Z " fill="#6ABBE3" transform="translate(782,570)"/>
<path d="M0 0 C16 2 16 2 20 4 C14.573 10.541 8.819 16.493 2.35 22.008 C-3.052 26.691 -7.989 31.908 -13 37 C-13.66 37 -14.32 37 -15 37 C-15.66 38.32 -16.32 39.64 -17 41 C-17.485 41.413 -17.969 41.825 -18.469 42.25 C-22.127 45.393 -25.643 48.598 -29 52.062 C-32.68 55.845 -36.687 58.972 -41 62 C-41.66 62 -42.32 62 -43 62 C-38.515 50.788 -30.043 40.745 -23.064 30.912 C-21.154 28.221 -19.261 25.519 -17.375 22.812 C-16.568 21.659 -15.759 20.506 -14.95 19.353 C-14.234 18.333 -13.519 17.312 -12.804 16.292 C-11.699 14.714 -10.59 13.14 -9.478 11.567 C-9.042 10.95 -8.607 10.331 -8.174 9.711 C-7.564 8.839 -6.948 7.97 -6.332 7.102 C-5.979 6.6 -5.625 6.098 -5.261 5.581 C-3.667 3.582 -1.808 1.808 0 0 Z " fill="#6ABBE3" transform="translate(780,378)"/>
<path d="M0 0 C0.33 0.165 0.33 0.165 2 1 C-1.3 5.62 -4.6 10.24 -8 15 C-8.66 15 -9.32 15 -10 15 C-10.66 16.65 -11.32 18.3 -12 20 C-28.825 44.375 -28.825 44.375 -36.09 53.814 C-37.598 55.78 -39.079 57.766 -40.562 59.75 C-41.043 60.391 -41.523 61.031 -42.004 61.672 C-42.333 62.11 -42.661 62.548 -43 63 C-50.949 65.367 -58.823 67.568 -67 69 C-62.122 59.245 -53.397 50.97 -46 43 C-45.34 43 -44.68 43 -44 43 C-43.34 41.68 -42.68 40.36 -42 39 C-40.68 38.34 -39.36 37.68 -38 37 C-38 36.34 -38 35.68 -38 35 C-37.516 34.582 -37.032 34.163 -36.533 33.732 C-31.917 29.727 -27.396 25.636 -22.945 21.448 C-21.936 20.498 -20.924 19.552 -19.912 18.605 C-16.334 15.251 -12.823 11.842 -9.37 8.359 C-7.348 6.326 -5.274 4.39 -3.062 2.562 C-2.76 2.308 -2.458 2.053 -2.146 1.791 C-1.433 1.191 -0.717 0.595 0 0 Z " fill="#6ABBE3" transform="translate(713,396)"/>
<path d="M0 0 C0.825 0.165 0.825 0.165 5 1 C6.485 1.99 6.485 1.99 14 7 C14 8.32 14 9.64 14 11 C11.36 13.64 8.72 16.28 6 19 C5.34 19 4.68 19 4 19 C3.835 19.495 3.835 19.495 3 22 C2.539 22.401 2.077 22.802 1.602 23.215 C-3.53 27.683 -8.603 32.213 -13.648 36.778 C-14.578 37.618 -15.507 38.457 -16.438 39.296 C-17.897 40.613 -19.355 41.931 -20.812 43.25 C-21.256 43.65 -21.7 44.05 -22.157 44.462 C-25.2 47.221 -28.121 50.072 -31 53 C-32.98 52.67 -34.96 52.34 -37 52 C-37.33 51.34 -37.66 50.68 -38 50 C-37.748 49.668 -37.497 49.336 -37.237 48.994 C-36.282 47.731 -35.328 46.467 -34.375 45.203 C-33.768 44.399 -33.159 43.596 -32.551 42.793 C-29.899 39.272 -27.404 35.695 -25 32 C-24.34 32 -23.68 32 -23 32 C-22.34 30.35 -21.68 28.7 -21 27 C-20.739 26.664 -20.478 26.328 -20.209 25.981 C-18.971 24.385 -17.735 22.787 -16.5 21.188 C-16.275 20.896 -16.05 20.605 -15.819 20.305 C-12.321 15.773 -8.908 11.191 -5.602 6.516 C-3.891 4.121 -2.151 2.013 0 0 Z " fill="#6ABBE3" transform="translate(848,400)"/>
<path d="M0 0 C10 2 10 2 19 6 C15.646 9.396 12.23 12.676 8.688 15.875 C8.203 16.314 7.719 16.753 7.22 17.206 C4.589 19.586 1.937 21.935 -0.75 24.25 C-7.357 29.949 -13.641 36.028 -20 42 C-20.495 42.165 -20.495 42.165 -23 43 C-23 43.66 -23 44.32 -23 45 C-23.66 45 -24.32 45 -25 45 C-25 45.66 -25 46.32 -25 47 C-25.108 47.093 -25.108 47.093 -25.655 47.563 C-29.921 51.24 -34.1 54.932 -38 59 C-38.66 59 -39.32 59 -40 59 C-38.628 55.222 -36.864 51.825 -34.812 48.375 C-34.504 47.854 -34.196 47.332 -33.878 46.795 C-32.926 45.193 -31.965 43.595 -31 42 C-30.715 41.527 -30.429 41.054 -30.135 40.567 C-25.724 33.314 -20.793 26.53 -15.618 19.805 C-14.757 18.684 -13.9 17.559 -13.043 16.434 C-11.947 14.996 -10.849 13.561 -9.75 12.125 C-9.55 11.863 -9.55 11.863 -8.538 10.54 C-5.776 6.95 -2.916 3.465 0 0 Z " fill="#6ABBE3" transform="translate(816,386)"/>
<path d="M0 0 C0 0.99 0 1.98 0 3 C-0.205 3.169 -0.205 3.169 -1.24 4.021 C-6.013 8.039 -10.447 12.363 -14.844 16.781 C-15.151 17.09 -15.458 17.398 -15.774 17.716 C-18.02 19.974 -20.26 22.237 -22.5 24.5 C-25.049 27.076 -27.6 29.65 -30.156 32.219 C-30.46 32.524 -30.765 32.83 -31.078 33.145 C-42.789 44.895 -42.789 44.895 -49 48 C-49 48.66 -49 49.32 -49 50 C-53.972 54.366 -58.966 58.705 -64 63 C-58.256 48.64 -46.903 34.548 -37.223 22.526 C-35.842 20.803 -34.482 19.065 -33.125 17.324 C-28.826 11.816 -24.503 6.345 -20 1 C-17.795 0.856 -15.589 0.714 -13.384 0.573 C-12.635 0.525 -11.886 0.476 -11.138 0.427 C-10.055 0.357 -8.973 0.287 -7.891 0.219 C-7.241 0.177 -6.592 0.135 -5.923 0.092 C-3.942 -0.003 -1.982 -0.015 0 0 Z " fill="#6ABBE3" transform="translate(760,377)"/>
<path d="M0 0 C0.66 0.33 1.32 0.66 2 1 C1.735 1.38 1.47 1.76 1.197 2.151 C-4.771 10.715 -10.584 19.364 -16.249 28.131 C-20.389 34.536 -24.575 40.909 -28.812 47.25 C-29.077 47.647 -29.342 48.043 -29.615 48.452 C-31.075 50.635 -32.537 52.818 -34 55 C-38.687 56.456 -43.252 57.472 -48.125 58.125 C-48.719 58.211 -49.314 58.298 -49.926 58.387 C-53.319 58.859 -56.575 59.09 -60 59 C-55.56 51.599 -48.774 45.069 -42.132 39.485 C-39.022 36.859 -36.05 34.125 -33.176 31.242 C-32.837 30.904 -32.498 30.566 -32.149 30.218 C-28.752 26.826 -25.373 23.416 -22 20 C-21.34 20 -20.68 20 -20 20 C-20 19.34 -20 18.68 -20 18 C-19.852 17.882 -19.852 17.882 -19.101 17.285 C-13.078 12.474 -7.29 7.615 -2 2 C-1.34 2 -0.68 2 0 2 C0 1.34 0 0.68 0 0 Z " fill="#6ABBE3" transform="translate(755,394)"/>
<path d="M0 0 C0.66 0 1.32 0 2 0 C0.379 3.49 -1.657 6.591 -3.816 9.77 C-4.193 10.329 -4.57 10.888 -4.946 11.448 C-5.741 12.628 -6.536 13.808 -7.332 14.988 C-14.188 25.15 -20.927 35.344 -27 46 C-27.66 46.66 -28.32 47.32 -29 48 C-35.6 48.33 -42.2 48.66 -49 49 C-49 48.01 -49 47.02 -49 46 C-44.551 41.45 -40.085 36.964 -35.25 32.822 C-31.934 29.973 -28.717 27.021 -25.5 24.062 C-25.226 23.811 -24.953 23.559 -24.671 23.3 C-23.113 21.868 -21.556 20.435 -20 19 C-19.34 19 -18.68 19 -18 19 C-18 18.34 -18 17.68 -18 17 C-17.34 17 -16.68 17 -16 17 C-16 16.34 -16 15.68 -16 15 C-15.515 14.587 -15.031 14.175 -14.531 13.75 C-9.452 9.387 -4.672 4.794 0 0 Z " fill="#6ABBE3" transform="translate(793,399)"/>
<path d="M0 0 C0.66 0.33 1.32 0.66 2 1 C-0.458 4.23 -2.916 7.459 -5.375 10.688 C-5.742 11.169 -6.108 11.651 -6.486 12.147 C-10.726 17.714 -14.973 23.274 -19.25 28.812 C-22.721 33.313 -26.16 37.836 -29.577 42.377 C-30.099 43.07 -30.621 43.763 -31.144 44.455 C-34.236 48.553 -37.211 52.69 -40 57 C-44.571 59.39 -49.021 61.567 -54 63 C-55.32 63 -56.64 63 -58 63 C-54.552 56.103 -48.484 50.56 -43.203 44.949 C-42.873 44.599 -42.543 44.248 -42.203 43.887 C-40.549 42.129 -38.891 40.375 -37.23 38.623 C-34.281 35.503 -31.415 32.386 -28.781 28.99 C-27.846 27.805 -26.836 26.735 -25.75 25.688 C-25.415 25.361 -25.08 25.035 -24.734 24.699 C-24.492 24.468 -24.25 24.238 -24 24 C-23.34 24 -22.68 24 -22 24 C-21.34 22.68 -20.68 21.36 -20 20 C-13.4 13.4 -6.8 6.8 0 0 Z " fill="#6ABBE3" transform="translate(661,416)"/>
<path d="M0 0 C0.165 0.33 0.165 0.33 1 2 C-6.936 13.547 -14.913 25.064 -23.438 36.188 C-23.647 36.462 -23.856 36.736 -24.072 37.019 C-24.669 37.8 -25.27 38.578 -25.871 39.355 C-26.211 39.795 -26.55 40.235 -26.9 40.688 C-28.174 42.208 -29.598 43.598 -31 45 C-42 44 -42 44 -45 43 C-43 39 -43 39 -42.111 38.113 C-40.029 36.034 -37.95 33.952 -35.883 31.858 C-30.732 26.638 -25.587 21.462 -19.992 16.711 C-18.489 15.434 -17.025 14.121 -15.57 12.789 C-10.576 8.216 -5.517 3.93 0 0 Z " fill="#6ABBE3" transform="translate(831,405)"/>
<path d="M0 0 C7 6 7 6 11 11 C11 11.66 11 12.32 11 13 C10.519 13.351 10.037 13.702 9.542 14.063 C-0.527 21.408 -10.498 28.855 -20.298 36.555 C-20.66 36.839 -21.022 37.123 -21.395 37.415 C-22.064 37.941 -22.733 38.468 -23.401 38.996 C-25.216 40.423 -27.062 41.745 -29 43 C-29 41.68 -29 40.36 -29 39 C-26.447 35.415 -23.89 31.833 -21.329 28.254 C-20 26.398 -18.673 24.541 -17.347 22.683 C-15.931 20.697 -14.511 18.714 -13.088 16.733 C-12.538 15.964 -11.988 15.194 -11.439 14.424 C-7.851 9.386 -4.088 4.645 0 0 Z " fill="#6ABBE3" transform="translate(877,418)"/>
<path d="M0 0 C0.66 0 1.32 0 2 0 C0 4 0 4 -0.652 4.864 C-5.329 11.067 -9.97 17.296 -14.562 23.562 C-14.795 23.88 -15.028 24.198 -15.268 24.525 C-17.944 28.177 -20.608 31.836 -23.259 35.505 C-24.83 37.677 -26.412 39.841 -28 42 C-28.277 42.378 -28.555 42.756 -28.84 43.145 C-32.489 48.08 -36.439 52.71 -40.562 57.25 C-40.788 57.501 -41.014 57.751 -41.247 58.01 C-44.584 61.703 -48.113 64.909 -52 68 C-52.33 67.34 -52.66 66.68 -53 66 C-46.427 53.064 -38.389 41.142 -28.959 30.122 C-27.826 28.797 -26.712 27.457 -25.601 26.114 C-24.738 25.072 -23.87 24.036 -23 23 C-22.34 23 -21.68 23 -21 23 C-20.34 21.68 -19.68 20.36 -19 19 C-16.525 16.525 -16.525 16.525 -4 4 C-3.34 4 -2.68 4 -2 4 C-1.34 2.68 -0.68 1.36 0 0 Z " fill="#6ABBE3" transform="translate(625,425)"/>
<path d="M0 0 C1.32 0.33 2.64 0.66 4 1 C6.31 4.3 8.62 7.6 11 11 C11.33 12.32 11.66 13.64 12 15 C11.513 15.366 11.025 15.732 10.523 16.109 C3.088 21.765 -3.945 27.883 -11 34 C-12.98 33.34 -14.96 32.68 -17 32 C-17.33 31.01 -17.66 30.02 -18 29 C-12.755 19.98 -7.356 11.292 -1 3 C-0.67 2.01 -0.34 1.02 0 0 Z " fill="#6ABBE3" transform="translate(899,444)"/>
<path d="M0 0 C-2.811 5.622 -7.576 9.576 -12 14 C-12.66 14 -13.32 14 -14 14 C-14 14.66 -14 15.32 -14 16 C-14.216 16.186 -14.432 16.372 -14.655 16.563 C-18.921 20.24 -23.1 23.932 -27 28 C-27.66 28 -28.32 28 -29 28 C-29.66 29.32 -30.32 30.64 -31 32 C-32.32 33.32 -33.64 34.64 -35 36 C-35.66 36 -36.32 36 -37 36 C-37.66 37.32 -38.32 38.64 -39 40 C-39.66 40 -40.32 40 -41 40 C-41 40.66 -41 41.32 -41 42 C-41.66 42 -42.32 42 -43 42 C-43 42.66 -43 43.32 -43 44 C-43.227 44.196 -43.453 44.393 -43.687 44.595 C-44.73 45.5 -45.771 46.406 -46.812 47.312 C-47.169 47.621 -47.525 47.93 -47.893 48.248 C-50.011 50.094 -52.038 51.988 -54 54 C-54.66 53.67 -55.32 53.34 -56 53 C-50.607 46.034 -45.174 39.124 -39.438 32.438 C-34.889 27.132 -30.6 21.664 -26.371 16.102 C-22.997 11.667 -19.496 7.338 -16 3 C-4 0 -4 0 0 0 Z " fill="#6ABBE3" transform="translate(714,383)"/>
<path d="M0 0 C0.66 0 1.32 0 2 0 C0.064 5.807 -2.546 10.046 -5.762 15.125 C-6.414 16.157 -7.066 17.19 -7.717 18.223 C-8.657 19.717 -9.602 21.208 -10.547 22.699 C-10.69 22.927 -10.69 22.927 -11.412 24.079 C-13.413 27.225 -15.619 30.133 -18 33 C-21.607 32.238 -24.866 30.882 -28.25 29.438 C-28.804 29.204 -29.359 28.97 -29.93 28.729 C-31.288 28.155 -32.644 27.578 -34 27 C-27.048 18.31 -17.299 11.823 -8.25 5.375 C-8.099 5.267 -8.099 5.267 -7.336 4.722 C-2.022 0.932 -2.022 0.932 0 0 Z " fill="#6ABBE3" transform="translate(891,438)"/>
<path d="M0 0 C0.66 0 1.32 0 2 0 C-0.413 6.033 -4.182 10.796 -8 16 C-8.12 16.163 -8.12 16.163 -8.724 16.987 C-10.278 19.102 -11.838 21.213 -13.403 23.319 C-13.92 24.015 -14.436 24.712 -14.95 25.411 C-18.049 29.621 -21.193 33.395 -25 37 C-28.3 36.34 -31.6 35.68 -35 35 C-35 34.01 -35 33.02 -35 32 C-29.223 26.003 -23.402 20.341 -16.871 15.155 C-12.959 12.031 -9.43 8.641 -6 5 C-5.34 5 -4.68 5 -4 5 C-4 4.34 -4 3.68 -4 3 C-2.68 2.01 -1.36 1.02 0 0 Z " fill="#6ABBE3" transform="translate(861,421)"/>
<path d="M0 0 C0.99 0.33 1.98 0.66 3 1 C2.776 1.221 2.776 1.221 1.642 2.342 C-0.058 4.024 -1.755 5.71 -3.451 7.396 C-4.179 8.119 -4.907 8.84 -5.636 9.561 C-10.384 14.253 -14.914 19.061 -19.254 24.133 C-20.301 25.35 -21.366 26.551 -22.434 27.75 C-22.772 28.13 -23.11 28.511 -23.459 28.902 C-23.782 29.265 -24.105 29.627 -24.438 30 C-24.787 30.393 -25.137 30.786 -25.498 31.191 C-26.332 32.128 -27.166 33.064 -28 34 C-29.32 34.66 -30.64 35.32 -32 36 C-30.25 32.072 -27.76 28.714 -25.25 25.25 C-24.8 24.625 -24.35 24 -23.901 23.375 C-18.699 16.153 -13.88 9.897 -7 4 C-4.69 2.68 -2.38 1.36 0 0 Z " fill="#6ABBE3" transform="translate(663,400)"/>
<path d="M0 0 C0.66 0 1.32 0 2 0 C4 7 4 7 4 14 C3.34 14.66 2.68 15.32 2 16 C0.35 15.67 -1.3 15.34 -3 15 C-4.65 13.35 -6.3 11.7 -8 10 C-5 5 -5 5 0 0 Z " fill="#6ABBE3" transform="translate(922,485)"/>
<path d="M0 0 C0.33 0 0.66 0 1 0 C6.281 22.79 3.913 50.806 2 74 C1.67 74 1.34 74 1 74 C0.67 51.56 0.34 29.12 0 6 C-0.66 5.67 -1.32 5.34 -2 5 C-1.34 3.35 -0.68 1.7 0 0 Z " fill="#8FACB8" transform="translate(414,1020)"/>
<path d="M0 0 C0.66 0 1.32 0 2 0 C0.664 3.699 -1.057 6.974 -3.125 10.312 C-3.402 10.767 -3.679 11.221 -3.965 11.689 C-4.64 12.795 -5.319 13.898 -6 15 C-7.65 14.67 -9.3 14.34 -11 14 C-11.33 12.68 -11.66 11.36 -12 10 C-8.04 6.7 -4.08 3.4 0 0 Z " fill="#6ABBE3" transform="translate(907,470)"/>
<path d="M0 0 C0.99 1.32 1.98 2.64 3 4 C2.34 5.65 1.68 7.3 1 9 C-1.31 10.98 -3.62 12.96 -6 15 C-6.33 14.34 -6.66 13.68 -7 13 C-1 1 -1 1 0 0 Z " fill="#6ABBE3" transform="translate(917,471)"/>
<path d="M0 0 C6 1 6 1 14 5 C12.68 5.33 11.36 5.66 10 6 C8.02 5.34 6.04 4.68 4 4 C2.35 4 0.7 4 -1 4 C-1.33 5.32 -1.66 6.64 -2 8 C-2.66 8.99 -3.32 9.98 -4 11 C-4 9.35 -4 7.7 -4 6 C-3.34 6 -2.68 6 -2 6 C-1.67 4.35 -1.34 2.7 -1 1 C-0.67 0.67 -0.34 0.34 0 0 Z " fill="#9FA3A3" transform="translate(537,1069)"/>
<path d="M0 0 C2.31 0.66 4.62 1.32 7 2 C10.383 1.462 13.692 0.891 17 0 C16.67 0.495 16.67 0.495 15 3 C14.34 3.33 14.34 3.33 11 5 C9.02 5 7.04 5 5 5 C3.35 3.35 1.7 1.7 0 0 Z " fill="#93AAB4" transform="translate(384,1224)"/>
<path d="M0 0 C0.66 0.33 1.32 0.66 2 1 C1.34 3.97 0.68 6.94 0 10 C-0.66 9.67 -1.32 9.34 -2 9 C-1.67 7.35 -1.34 5.7 -1 4 C-2.65 4.66 -4.3 5.32 -6 6 C-5.67 5.01 -5.34 4.02 -5 3 C-3.35 2.01 -1.7 1.02 0 0 Z " fill="#8CADBC" transform="translate(326,887)"/>
<path d="M0 0 C0.66 0.33 1.32 0.66 2 1 C-1 10 -1 10 -4 15 C-4.66 14.34 -5.32 13.68 -6 13 C-5.34 13 -4.68 13 -4 13 C-3.867 12.438 -3.734 11.876 -3.598 11.297 C-3 8.905 -2.232 6.583 -1.438 4.25 C-1.299 3.839 -1.16 3.428 -1.018 3.004 C-0.68 2.002 -0.34 1.001 0 0 Z " fill="#96A9B1" transform="translate(529,1084)"/>
<path d="M0 0 C0.66 0 1.32 0 2 0 C2 5.28 2 10.56 2 16 C1.67 16 1.34 16 1 16 C0.34 11.05 -0.32 6.1 -1 1 C-0.67 0.67 -0.34 0.34 0 0 Z " fill="#95AAB2" transform="translate(1217,727)"/>
<path d="M0 0 C0.66 0 1.32 0 2 0 C2 3.96 2 7.92 2 12 C1.67 12 1.34 12 1 12 C0.34 8.37 -0.32 4.74 -1 1 C-0.67 0.67 -0.34 0.34 0 0 Z " fill="#94AAB3" transform="translate(1219,743)"/>
<path d="M0 0 C0.99 0.33 1.98 0.66 3 1 C3 3.64 3 6.28 3 9 C2.01 7.68 1.02 6.36 0 5 C0 3.35 0 1.7 0 0 Z " fill="#8CADBC" transform="translate(187,1153)"/>
<path d="M0 0 C0.66 0 1.32 0 2 0 C2 1.32 2 2.64 2 4 C0.35 3.67 -1.3 3.34 -3 3 C-2.01 2.01 -1.02 1.02 0 0 Z " fill="#6ABBE3" transform="translate(396,502)"/>
<path d="M0 0 C0.33 0.66 0.66 1.32 1 2 C0.175 2.495 0.175 2.495 -4 5 C-4.66 4.67 -5.32 4.34 -6 4 C-5.01 3.01 -4.02 2.02 -3 1 C-2.01 0.67 -1.02 0.34 0 0 Z " fill="#A0A5A6" transform="translate(395,474)"/>
<path d="M0 0 C2.64 0 5.28 0 8 0 C8 0.33 8 0.66 8 1 C5.69 1.66 3.38 2.32 1 3 C0.67 2.01 0.34 1.02 0 0 Z " fill="#96A9B1" transform="translate(671,277)"/>
<path d="M0 0 C1.65 0.33 3.3 0.66 5 1 C4.34 1.66 3.68 2.32 3 3 C1.68 3 0.36 3 -1 3 C-0.67 2.01 -0.34 1.02 0 0 Z " fill="#6ABBE3" transform="translate(401,497)"/>
<path d="M0 0 C0.99 0.33 1.98 0.66 3 1 C1.68 1.99 0.36 2.98 -1 4 C-1.66 3.67 -2.32 3.34 -3 3 C-2.01 2.01 -1.02 1.02 0 0 Z " fill="#9FA6A7" transform="translate(406,465)"/>
<path d="M0 0 C0.825 0.33 0.825 0.33 5 2 C5 2.33 5 2.66 5 3 C3.02 3 1.04 3 -1 3 C-0.67 2.01 -0.34 1.02 0 0 Z " fill="#93AAB4" transform="translate(1433,1266)"/>
<path d="M0 0 C0.99 0 1.98 0 3 0 C2.67 0.99 2.34 1.98 2 3 C1.01 3 0.02 3 -1 3 C-0.67 2.01 -0.34 1.02 0 0 Z " fill="#6ABBE3" transform="translate(537,1069)"/>
<path d="M0 0 C0.66 0.33 1.32 0.66 2 1 C1.34 2.32 0.68 3.64 0 5 C-0.66 4.34 -1.32 3.68 -2 3 C-1.34 2.01 -0.68 1.02 0 0 Z " fill="#91ABB7" transform="translate(515,1112)"/>
<path d="M0 0 C1.32 1.32 2.64 2.64 4 4 C2.68 3.67 1.36 3.34 0 3 C0 2.01 0 1.02 0 0 Z " fill="#95A0A3" transform="translate(1312,935)"/>
<path d="M0 0 C0.66 0 1.32 0 2 0 C1.34 1.65 0.68 3.3 0 5 C-0.33 3.68 -0.66 2.36 -1 1 C-0.67 0.67 -0.34 0.34 0 0 Z " fill="#84B0C5" transform="translate(316,696)"/>
<path d="M0 0 C0.66 0.33 1.32 0.66 2 1 C2.33 2.32 2.66 3.64 3 5 C2.34 5 1.68 5 1 5 C0.34 3.68 -0.32 2.36 -1 1 C-0.67 0.67 -0.34 0.34 0 0 Z " fill="#91ABB7" transform="translate(1071,381)"/>
<path d="M0 0 C0.99 0.33 1.98 0.66 3 1 C3 1.66 3 2.32 3 3 C2.01 2.67 1.02 2.34 0 2 C0 1.34 0 0.68 0 0 Z " fill="#A5A4A1" transform="translate(51,686)"/>
</svg>
