<?xml version="1.0" encoding="UTF-8"?>
<!-- Generator: visioncortex VTracer 0.6.5 -->
<svg version="1.1" xmlns="http://www.w3.org/2000/svg" width="769" height="769">
<path d="M0 0 C0.77 0.32 1.53 0.64 2.32 0.96 C20.08 8.48 36.6 19.16 51 32 C51.49 32.43 51.99 32.87 52.49 33.32 C58.76 38.84 64.76 44.47 70 51 C70.38 51.48 70.38 51.48 72.33 53.89 C99.33 87.92 116.57 130.46 119 174 C119.85 174.16 120.69 174.33 121.56 174.5 C127.24 176.98 130.86 181.45 133.38 187.06 C134.52 192.42 135.08 197.67 135.24 203.15 C136.98 257.44 162.94 302.73 201.62 339.5 C214.52 351.02 228.82 360.7 243.36 370 C266.83 385.07 287.84 403.51 294.61 431.82 C295.32 435.76 295.34 439.69 295.31 443.69 C295.31 444.56 295.3 445.44 295.3 446.34 C295.07 459.02 292.48 470.33 283.69 479.81 C280.16 483.12 276.47 485.21 272 487 C270.97 487.41 269.94 487.83 268.88 488.25 C258.2 490.32 248.15 489.44 238.36 484.73 C229.13 480.54 221.13 480.52 211.16 480.85 C182.37 481.75 156.43 476.84 128.66 469.78 C110.97 465.31 93.17 461.78 75.2 458.65 C54.73 455 34.7 449.21 16 440 C15.2 439.61 14.4 439.22 13.58 438.82 C2.17 433.18 -8.63 426.94 -19.12 419.73 C-19.77 419.28 -20.43 418.83 -21.1 418.36 C-23 417 -23 417 -24.78 415.52 C-28.09 412.82 -29.45 412.01 -33.88 411.91 C-35.25 412.12 -36.63 412.36 -38 412.62 C-39.52 412.86 -41.04 413.09 -42.56 413.31 C-43.32 413.43 -44.07 413.55 -44.84 413.68 C-95.63 421.31 -154.18 410.42 -200.75 389.85 C-203 389 -203 389 -206 389 C-206.15 389.58 -206.15 389.58 -206.94 392.5 C-213.26 411.21 -227.14 429.22 -242 442 C-242.66 442 -243.32 442 -244 442 C-244 442.66 -244 443.32 -244 444 C-245.32 445.26 -245.32 445.26 -247.19 446.69 C-247.88 447.22 -248.57 447.75 -249.28 448.29 C-250.04 448.86 -250.79 449.42 -251.56 450 C-252.33 450.58 -253.09 451.15 -253.88 451.74 C-258.95 455.53 -264.05 459.27 -269.25 462.88 C-269.86 463.31 -270.46 463.74 -271.09 464.19 C-273.74 465.99 -275.56 466.99 -278.8 467.07 C-281 466 -281 466 -282.5 463.92 C-283.21 459.78 -281.66 456.92 -279.94 453.25 C-269.79 430.18 -267.06 406.79 -266.44 381.81 C-266.39 380.18 -266.35 378.54 -266.31 376.9 C-266.2 372.94 -266.1 368.97 -266 365 C-269 367.9 -271.69 370.74 -274.05 374.18 C-274.59 374.94 -275.12 375.71 -275.67 376.5 C-276.76 378.07 -277.84 379.65 -278.92 381.23 C-282.25 385.97 -285.7 389.79 -290.18 393.47 C-291.98 394.98 -293.54 396.58 -295.12 398.31 C-313.61 416.8 -347.28 433.97 -373.8 435.17 C-377 435 -377 435 -379 433.81 C-380 432 -380 432 -379.84 429.64 C-378.77 426.27 -377.29 425.11 -374.56 422.88 C-340.3 393.29 -325.02 347.12 -313 305 C-312.78 304.23 -312.56 303.46 -312.33 302.66 C-311.89 301.11 -311.44 299.55 -311 298 C-311.6 298.5 -312.19 299 -312.81 299.51 C-315.85 302.03 -318.92 304.52 -322 307 C-322.31 307.25 -322.31 307.25 -323.9 308.54 C-334.34 316.96 -345 324.01 -357 330 C-357.39 330.2 -357.39 330.2 -359.37 331.19 C-386.35 344.48 -415.8 351.47 -445.88 351.19 C-447.22 351.19 -448.57 351.19 -449.92 351.19 C-469.9 351.1 -469.9 351.1 -474 347 C-474 344.31 -474 344.31 -473 341 C-471.43 339.73 -471.43 339.73 -469.43 338.55 C-468.71 338.12 -467.98 337.69 -467.24 337.25 C-464.56 335.76 -461.85 334.34 -459.12 332.97 C-449.04 327.9 -440.02 321.73 -431 315 C-430.41 314.56 -429.81 314.12 -429.2 313.67 C-421.94 308.26 -414.98 302.52 -408.1 296.63 C-405.37 294.29 -402.57 292.05 -399.75 289.81 C-387.39 279.71 -376.17 268.26 -364.88 257 C-364.63 256.76 -364.63 256.76 -363.39 255.52 C-358.24 250.4 -353.21 245.24 -348.48 239.73 C-346.42 237.32 -344.27 235.01 -342.12 232.69 C-337.97 228.13 -334.04 223.44 -330.17 218.64 C-327.49 215.38 -324.68 212.26 -321.82 209.17 C-319.65 206.58 -317.83 203.84 -316 201 C-316.85 201.25 -317.7 201.51 -318.57 201.77 C-367.73 216.19 -416.42 210.96 -463.06 190.81 C-463.44 190.65 -463.44 190.65 -465.35 189.84 C-469.14 188.15 -472.02 186.85 -474 183 C-473.75 180.38 -473.75 180.38 -472 178 C-470.23 177.41 -470.23 177.41 -468.04 176.98 C-467.23 176.82 -466.42 176.66 -465.59 176.49 C-465.16 176.41 -465.16 176.41 -463 176 C-461.33 175.67 -459.67 175.33 -458 174.99 C-457.13 174.82 -456.26 174.64 -455.36 174.46 C-434.98 170.22 -415.6 163.9 -396.38 156 C-395.67 155.71 -394.97 155.43 -394.25 155.13 C-384.58 151.15 -375.23 146.72 -365.92 141.97 C-362.9 140.44 -359.86 138.97 -356.82 137.5 C-315.5 117.31 -270.41 92.75 -240.42 57.12 C-230.17 45.11 -218.83 34.22 -206 25 C-205.34 24.52 -204.68 24.05 -204.01 23.56 C-144.33 -19.03 -67.8 -28.33 0 0 Z " fill="#161813" transform="translate(474,148)"/>
<path d="M0 0 C0.79 0.39 1.57 0.77 2.38 1.17 C37.37 18.43 64.13 45.36 82 80 C82.38 80.73 82.76 81.46 83.14 82.21 C95.78 106.94 102.69 133.36 105 161 C101.53 162.64 98.05 164.26 94.56 165.88 C93.59 166.34 92.61 166.8 91.61 167.27 C81.48 171.95 72.49 174.79 61.5 171.18 C58.92 170.15 56.4 169.04 53.88 167.88 C52.97 167.47 52.06 167.07 51.13 166.66 C48.42 165.45 45.71 164.23 43 163 C40.72 161.98 38.45 160.97 36.16 159.96 C34.85 159.38 33.54 158.8 32.24 158.21 C21.68 153.51 14.08 153.16 3.16 156.74 C-3.98 159.59 -9.38 164.21 -13 171 C-17.02 180.85 -16.49 191.37 -16.56 201.81 C-16.83 231.2 -16.83 231.2 -21.56 244.94 C-21.82 245.69 -22.08 246.44 -22.35 247.22 C-27.37 261.13 -35.67 271.63 -46 282 C-47.05 283.08 -48.1 284.15 -49.15 285.23 C-53.36 289.52 -57.6 293.74 -62.19 297.62 C-72.64 306.64 -80.86 317.14 -82.82 331.15 C-83.75 345.68 -79.54 358.75 -70.33 370.05 C-63.61 377.21 -55.13 382.58 -47 388 C-47 388.66 -47 389.32 -47 390 C-104.67 400.53 -178.44 386.29 -226.89 353.25 C-227.4 352.88 -227.4 352.88 -230 351 C-230.56 350.6 -231.11 350.2 -231.69 349.79 C-257.08 331.34 -276.45 306.58 -287 277 C-287.37 275.98 -287.73 274.96 -288.11 273.91 C-307.13 216.87 -295.74 151.36 -269.47 98.67 C-260.56 81.24 -249.99 65.61 -237 51 C-236.41 50.3 -235.82 49.61 -235.22 48.89 C-226.83 38.96 -217.45 29.72 -207 22 C-206.72 21.78 -206.72 21.78 -205.29 20.69 C-147.32 -23.33 -65.53 -32.8 0 0 Z " fill="#6ABBE3" transform="translate(478,161)"/>
<path d="M0 0 C3.91 1.76 7.84 3.47 11.77 5.18 C13.81 6.07 15.85 6.96 17.9 7.87 C18.37 8.07 18.37 8.07 20.74 9.12 C21.57 9.49 22.41 9.86 23.27 10.24 C32.1 13.78 42.45 13.35 51.25 10.03 C55.58 8.18 59.71 6.04 63.88 3.84 C68.87 1.3 72 0.18 77.56 1.16 C81.13 3.33 83.04 5.3 84.56 9.16 C84.88 11.51 85.11 13.88 85.27 16.25 C85.38 17.67 85.49 19.1 85.6 20.53 C85.66 21.27 85.71 22.02 85.77 22.79 C87.92 51.58 93.4 78.64 107.56 104.16 C108.21 105.35 108.85 106.55 109.49 107.75 C123.18 132.85 143.11 155.62 165.56 173.16 C165.86 173.39 165.86 173.39 167.35 174.58 C176.77 182.11 186.51 188.8 196.73 195.19 C203.64 199.53 210.24 204 216.56 209.16 C217.43 209.86 218.29 210.56 219.18 211.28 C230.75 221.14 242.94 237.05 245.38 252.63 C246.36 266.37 246.44 279.31 237.2 290.54 C233.4 294.3 228.93 296.66 223.56 297.16 C222.9 297.23 222.24 297.31 221.56 297.38 C214.16 297.85 207.81 295.62 200.98 293.06 C199.26 292.42 197.54 291.79 195.81 291.16 C171.15 282.26 148.12 271.28 125.88 257.49 C91.2 235.99 56.45 223.27 16.82 214.63 C-9.55 208.87 -34.5 202.1 -58.94 190.47 C-59.51 190.2 -59.51 190.2 -62.43 188.81 C-74.63 182.86 -74.63 182.86 -78.81 177.34 C-80.13 172.75 -80.14 168.71 -78.19 164.41 C-76.44 162.16 -76.44 162.16 -74.19 160.16 C-73.9 159.83 -73.9 159.83 -72.44 158.16 C-72.69 155.41 -72.69 155.41 -73.44 153.16 C-76.83 153.22 -79.47 153.36 -82.17 155.57 C-87.09 161.09 -88.94 166.47 -88.75 173.85 C-87.88 180.2 -84.29 185.14 -79.44 189.16 C-52.98 207.78 -18.97 215.88 12.22 222.15 C52.59 230.26 88.24 244.34 123.33 266.1 C136.61 274.33 150.21 281.95 164.56 288.16 C164.56 288.49 164.56 288.82 164.56 289.16 C140.9 290.1 118.17 285.22 95.41 279.3 C92.79 278.63 90.18 277.95 87.56 277.28 C87.23 277.2 87.23 277.2 85.55 276.76 C74.06 273.83 62.49 271.55 50.81 269.47 C15.8 263.21 -16.07 253.05 -46.44 234.16 C-46.79 233.94 -46.79 233.94 -48.57 232.84 C-58.57 226.6 -68.07 219.86 -77.42 212.69 C-79.5 211.11 -81.6 209.58 -83.71 208.05 C-95.61 199.41 -106.61 190.5 -109.44 175.16 C-110.4 161.7 -108.31 152.88 -99.51 142.47 C-93.53 135.8 -87.03 129.63 -79.87 124.22 C-76.31 121.21 -73.43 117.72 -70.44 114.16 C-69.72 113.33 -69.01 112.5 -68.27 111.65 C-49.13 89.05 -44.07 65.58 -43.87 36.72 C-43.85 33.92 -43.82 31.13 -43.78 28.33 C-43.76 26.61 -43.74 24.89 -43.74 23.17 C-43.63 14.63 -42.7 6.45 -36.44 0.16 C-23.98 -9.24 -13.23 -5.99 0 0 Z " fill="#F66A3E" transform="translate(513.43701171875,329.84375)"/>
<path d="M0 0 C14.66 11.35 25.18 25.5 28.45 44.18 C30.1 63.65 26.59 80.95 14.52 96.62 C3.74 109.2 -11.27 118.95 -28.08 120.4 C-47.24 121.49 -64.39 118.14 -79.37 105.27 C-88.23 97.27 -94.23 88.3 -98.55 77.18 C-98.87 76.39 -99.19 75.6 -99.52 74.78 C-105.14 58.23 -102.02 38.81 -94.48 23.5 C-85.57 8.03 -71.53 -3.33 -54.53 -8.79 C-36.13 -13.69 -15.68 -11.19 0 0 Z " fill="#100F0D" transform="translate(409.546875,255.81640625)"/>
<path d="M0 0 C0.97 0.52 1.94 1.04 2.94 1.58 C20.98 11.96 35.57 31.34 41.25 51.19 C43.98 61.66 45.04 72.2 44 83 C42 85 42 85 39.5 85.25 C37 85 37 85 35 83 C34.77 81.97 34.55 80.94 34.31 79.88 C31.1 68.4 17.21 60.76 7.62 54.95 C-28.46 35.68 -71.54 38.73 -109.49 50.21 C-119.32 53.29 -128.67 57.19 -138 61.56 C-138.39 61.74 -138.39 61.74 -140.36 62.67 C-144.91 64.85 -149.11 67.26 -153.27 70.13 C-155 71 -155 71 -158 70.31 C-158.66 69.88 -159.32 69.45 -160 69 C-161.43 56.37 -151.96 42.22 -144.39 32.57 C-141.7 29.28 -138.87 26.13 -136 23 C-135.22 22.13 -134.44 21.25 -133.64 20.35 C-100.18 -15.3 -42.18 -24.3 0 0 Z " fill="#100F0D" transform="translate(432,193)"/>
<path d="M0 0 C0.33 0.66 0.66 1.32 1 2 C0.25 3.87 0.25 3.87 -0.99 6.16 C-1.45 7.03 -1.9 7.89 -2.37 8.78 C-2.86 9.72 -3.36 10.66 -3.88 11.62 C-16.61 36.4 -24.2 62.86 -30 90 C-81.31 104.97 -131.37 111.24 -182 89 C-179.2 87.13 -177.6 86.51 -174.41 85.74 C-173.49 85.51 -172.58 85.28 -171.63 85.05 C-170.64 84.81 -169.65 84.56 -168.62 84.31 C-107.98 68.87 -50.39 36.49 0 0 Z " fill="#B0D360" transform="translate(205,244)"/>
<path d="M0 0 C0.33 0 0.66 0 1 0 C0.98 1.29 0.96 2.58 0.94 3.9 C0.24 50.84 0.24 50.84 4.75 70.91 C5.03 73.21 4.7 74.81 4 77 C3.67 76.67 3.34 76.34 3 76 C0.13 75.68 -1.42 75.57 -3.79 77.31 C-4.32 77.92 -4.86 78.52 -5.41 79.14 C-5.71 79.47 -5.71 79.47 -7.22 81.14 C-7.83 81.83 -8.44 82.53 -9.06 83.25 C-10.28 84.61 -11.5 85.97 -12.72 87.33 C-13.01 87.65 -13.01 87.65 -14.45 89.26 C-16.23 91.26 -18 93.21 -20 95 C-20.66 95 -21.32 95 -22 95 C-22 95.66 -22 96.32 -22 97 C-23.96 98.76 -25.92 100.39 -28 102 C-28.63 102.49 -29.26 102.98 -29.9 103.48 C-56.96 124.12 -87.71 135.2 -121 141 C-122.21 141.22 -123.41 141.43 -124.66 141.65 C-129.42 142.15 -134.15 142.11 -138.94 142.06 C-139.91 142.06 -140.88 142.05 -141.88 142.05 C-144.25 142.04 -146.63 142.02 -149 142 C-145.7 139.29 -142.34 136.83 -138.75 134.5 C-137.76 133.84 -136.76 133.19 -135.74 132.52 C-134.69 131.83 -133.64 131.15 -132.56 130.44 C-123.35 124.34 -114.44 118.12 -106 111 C-105.4 110.49 -104.8 109.99 -104.18 109.47 C-96.81 103.23 -89.61 96.82 -82.56 90.22 C-79.9 87.73 -77.21 85.32 -74.44 82.96 C-68.93 78.16 -63.82 72.97 -58.67 67.8 C-56.94 66.07 -55.2 64.33 -53.47 62.6 C-48.3 57.44 -43.21 52.27 -38.47 46.72 C-36.57 44.5 -34.58 42.37 -32.58 40.24 C-22.66 29.66 -13.82 18.29 -4.94 6.84 C-4.42 6.18 -3.9 5.51 -3.37 4.82 C-2.19 3.25 -1.09 1.63 0 0 Z " fill="#B0D360" transform="translate(172,347)"/>
<path d="M0 0 C2.26 3.4 3.09 6.68 4.12 10.56 C9.52 29.61 18.69 47.13 31.6 62.18 C33 64 33 64 33 66 C32.26 66.72 31.51 67.43 30.75 68.17 C27.75 71.26 25.95 74.47 24 78.25 C6.33 110.86 -22.84 133.02 -58 144 C-56.51 140.83 -54.73 138.04 -52.73 135.17 C-24.76 94.49 -7.64 48.71 0 0 Z " fill="#B0D360" transform="translate(177,424)"/>
<path d="M0 0 C7.51 5.46 13.09 11.99 15.22 21.14 C16.44 31.89 15.24 41.65 8.91 50.77 C2.21 58.87 -5.75 63.73 -16.09 65.33 C-24.37 65.92 -32.56 64.27 -39.28 59.27 C-40.68 58.03 -42.06 56.76 -43.4 55.46 C-44.05 54.85 -44.7 54.24 -45.37 53.61 C-52.1 46.68 -54.58 38.96 -54.9 29.39 C-54.58 19.58 -51.12 11.62 -44.4 4.46 C-31.43 -6.99 -14.95 -9.6 0 0 Z " fill="#100F0D" transform="translate(394.40234375,280.54296875)"/>
<path d="M0 0 C9.56 7.35 15.91 17.81 17.84 29.77 C19.39 43.05 16.18 55.42 8.12 66.19 C-0.35 75.61 -9.94 81.34 -22.57 83.03 C-36.59 83.71 -48.31 80.08 -59.19 71.06 C-68.5 62.16 -73.82 50.7 -74.31 37.88 C-73.94 24.59 -68.55 13.06 -59.56 3.38 C-42.26 -12.73 -18.96 -12.9 0 0 Z M-53.19 13.56 C-60.43 22.64 -61.87 31.75 -60.88 43.19 C-58.29 54.45 -52.29 61.99 -42.62 68.12 C-34.74 72.09 -25.68 73.14 -17.14 70.94 C-7.68 67.8 0.4 62.13 5.06 53.12 C9.49 43.09 10.97 32.71 7.12 22.19 C2.09 12.37 -6.16 5.01 -16.69 1.6 C-30.85 -1.08 -43.5 2.88 -53.19 13.56 Z " fill="#72BDD4" transform="translate(400.875,273.8125)"/>
<path d="M0 0 C10.65 11.05 14.23 25.08 13.96 40.15 C13.22 54.15 6.99 66.71 -2.68 76.78 C-14.48 87.28 -28.58 92.15 -44.29 91.45 C-59.6 89.97 -71.8 83.18 -82.25 72.06 C-91.22 60.79 -95.29 46.38 -94.25 32.06 C-91.92 15.21 -84.73 2.48 -71.55 -8.11 C-47.79 -24.38 -19.92 -18.96 0 0 Z M-76.43 8.54 C-84.35 19.52 -87.48 30.65 -86.25 44.06 C-83.33 58.02 -75.41 69.07 -63.57 76.82 C-53.13 82.69 -40.87 84.47 -29.12 81.94 C-15.64 77.81 -5.36 69.66 1.34 57.25 C6.97 44.51 7 32.16 2.75 19.06 C1.06 15.47 -0.94 12.28 -3.25 9.06 C-3.69 8.43 -4.13 7.79 -4.59 7.14 C-8.77 1.69 -14.31 -1.63 -20.25 -4.94 C-21.01 -5.38 -21.77 -5.81 -22.55 -6.27 C-41.36 -15.49 -63.79 -6.46 -76.43 8.54 Z " fill="#100F0D" transform="translate(413.25,273.9375)"/>
<path d="M0 0 C3.54 2.96 6.95 5.9 10.12 9.25 C20 19.21 32.21 26.57 44 34 C40.44 59.45 14.74 83.2 -4.38 97.79 C-4.92 98.19 -5.45 98.59 -6 99 C-6.66 98.67 -7.32 98.34 -8 98 C-7.84 97.48 -7.84 97.48 -7.01 94.84 C-2.16 79.06 1.17 63.26 1.13 46.68 C1.13 45.82 1.13 44.96 1.14 44.07 C1.14 42.25 1.13 40.44 1.13 38.63 C1.13 35.9 1.13 33.18 1.14 30.45 C1.14 20.26 0.86 10.16 0 0 Z " fill="#B0D360" transform="translate(216,496)"/>
<path d="M0 0 C12.17 9.39 20.77 22.87 23.11 38.13 C24.84 53.13 21.67 68.53 12.32 80.59 C10.11 83.12 7.82 85.51 5.43 87.87 C4.79 88.52 4.15 89.17 3.49 89.84 C-6.32 99.16 -19.44 103.8 -32.82 104.31 C-48.31 103.86 -62.34 98.43 -73.77 87.81 C-83.31 77.57 -89.47 64.84 -90.57 50.87 C-90.6 50.54 -90.6 50.54 -90.74 48.86 C-91.37 33.4 -85.14 19.09 -75.32 7.43 C-55.1 -13.45 -23.87 -16.44 0 0 Z M-72.76 8.96 C-82.69 19.35 -87.27 32.5 -88.01 46.75 C-87.45 62.98 -80.61 77.49 -68.89 88.56 C-57.11 98.36 -42.62 102.08 -27.57 101.07 C-14.84 99.78 -1.9 93.51 6.8 84.04 C17.18 70.14 21.37 56.13 20.43 38.87 C18.44 25.68 12.75 16.21 3.43 6.87 C2.77 6.21 2.12 5.55 1.45 4.86 C-20.06 -15.55 -52.84 -10.1 -72.76 8.96 Z " fill="#F66A3E" transform="translate(406.57421875,264.12890625)"/>
<path d="M0 0 C11.45 0 20.77 7.76 29 15 C29.77 15.68 30.55 16.36 31.34 17.05 C41.32 26.38 48.21 38.54 50.94 51.94 C51 55 51 55 49.56 57.44 C49.05 57.95 48.53 58.47 48 59 C46.35 58.67 44.7 58.34 43 58 C42.72 57.06 42.44 56.11 42.15 55.14 C39.24 45.69 35.94 35.92 28.79 28.79 C27 27 27 27 27 25 C26.43 24.74 25.86 24.49 25.27 24.23 C22.75 22.87 20.85 21.25 18.69 19.38 C12.35 14.19 5.28 10.65 -2 7 C-2.12 4.62 -2.12 4.62 -2 2 C-1.34 1.34 -0.68 0.68 0 0 Z " fill="#100F0D" transform="translate(527,420)"/>
<path d="M0 0 C3.11 2.68 4.07 5.02 5.25 8.94 C5.33 13.64 4.82 15.32 1.62 18.81 C-2.11 21.16 -4.35 21.94 -8.75 21.94 C-12.43 20.35 -14.76 18.42 -16.75 14.94 C-17.96 11.06 -17.82 9.17 -16.62 5.25 C-12.84 -1.44 -7.14 -2.76 0 0 Z " fill="#71BCD5" transform="translate(395.75,286.0625)"/>
<path d="M0 0 C2 0.05 2 0.05 4.44 0.31 C4.84 0.35 4.84 0.35 6.87 0.55 C9 1 9 1 11 3 C10.53 3.44 10.06 3.88 9.58 4.33 C7.41 6.36 5.23 8.4 3.06 10.44 C2.67 10.8 2.67 10.8 0.7 12.65 C-3.34 16.45 -7.32 20.28 -11.19 24.25 C-14.24 27.36 -17.25 29.79 -21 32 C-17.21 21.52 -8 8 0 0 Z " fill="#6ABBE3" transform="translate(390,189)"/>
<path d="M0 0 C0 4.06 -2.04 6.18 -4.38 9.31 C-5.3 10.56 -6.23 11.82 -7.15 13.07 C-7.39 13.39 -7.39 13.39 -8.59 15.02 C-9.97 16.96 -11.26 18.93 -12.54 20.93 C-19.39 31.51 -19.39 31.51 -25.44 33.44 C-28.63 34.09 -29.84 34.05 -33 33 C-28.46 27.19 -24.01 21.73 -18.32 17.03 C-14.51 13.7 -11.01 10.05 -7.48 6.44 C-5.08 4.01 -2.85 1.9 0 0 Z " fill="#6ABBE3" transform="translate(356,199)"/>
<path d="M0 0 C4.22 0.48 6.8 1.17 10 4 C-2.28 15.37 -2.28 15.37 -8.5 20.94 C-11.77 23.87 -14.95 26.84 -18 30 C-18.66 29.67 -19.32 29.34 -20 29 C-13.88 18.85 -7.44 9.24 0 0 Z " fill="#6ABBE3" transform="translate(408,193)"/>
<path d="M0 0 C0.49 0.02 0.49 0.02 2.99 0.14 C3.98 0.18 4.98 0.21 6 0.25 C6.38 0.27 6.38 0.27 8.3 0.39 C1.61 8.49 -5.76 15.83 -13.74 22.65 C-17.22 25.74 -20.45 29.07 -23.7 32.39 C-23.7 23.97 -13.06 13.8 -7.9 7.2 C-5.7 4.39 -5.7 4.39 -4.26 2.03 C-2.7 0.39 -2.7 0.39 0 0 Z " fill="#6ABBE3" transform="translate(372.69921875,188.609375)"/>
<path d="M0 0 C2.88 0.75 2.88 0.75 6 2 C7.2 4.08 7.2 4.08 8 6 C-8.26 21.27 -8.26 21.27 -15 27 C-16.32 26.34 -17.64 25.68 -19 25 C-18.6 24.49 -18.2 23.98 -17.79 23.46 C-15.97 21.12 -14.14 18.78 -12.31 16.44 C-11.69 15.64 -11.06 14.84 -10.42 14.01 C-6.83 9.42 -3.35 4.77 0 0 Z " fill="#6ABBE3" transform="translate(424,200)"/>
<path d="M0 0 C0 3.62 -0.9 4.73 -2.89 7.71 C-3.5 8.63 -4.1 9.54 -4.73 10.48 C-5.38 11.44 -6.02 12.39 -6.69 13.38 C-7.31 14.32 -7.94 15.27 -8.58 16.24 C-16.78 28.46 -16.78 28.46 -21.89 29.71 C-22.38 29.72 -22.38 29.72 -24.81 29.81 C-25.3 29.84 -25.3 29.84 -27.77 29.96 C-28.14 29.96 -28.14 29.96 -30 30 C-28.65 26.95 -27.17 24.97 -24.73 22.71 C-24.4 22.41 -24.4 22.41 -22.74 20.87 C-22.04 20.23 -21.34 19.6 -20.62 18.94 C-19.91 18.28 -19.2 17.62 -18.47 16.94 C-16.32 14.96 -14.16 12.98 -12 11 C-10.76 9.86 -9.52 8.71 -8.27 7.57 C-5.52 5.04 -2.76 2.52 0 0 Z " fill="#6ABBE3" transform="translate(378,197)"/>
<path d="M0 0 C-2.31 4.68 -4.82 9.23 -7.44 13.75 C-7.91 14.64 -8.38 15.53 -8.87 16.44 C-10.41 19.05 -11.7 21.02 -14 23 C-17.79 23.76 -21.19 23.57 -25 23 C-19.77 16.43 -13.66 10.96 -7.44 5.34 C-6.16 4.15 -4.94 2.9 -3.73 1.64 C-2 0 -2 0 0 0 Z " fill="#6ABBE3" transform="translate(397,201)"/>
<path d="M0 0 C0 4.01 -1.97 5.89 -4.38 8.88 C-5.3 10.04 -6.22 11.2 -7.14 12.36 C-7.62 12.96 -8.09 13.55 -8.58 14.17 C-9.97 15.96 -11.28 17.79 -12.57 19.64 C-17.25 26.25 -20.63 30.51 -29 32 C-27.62 28.92 -26.01 26.72 -23.69 24.28 C-23.36 23.93 -23.36 23.93 -21.69 22.16 C-20.99 21.43 -20.29 20.69 -19.56 19.94 C-19.21 19.56 -19.21 19.56 -17.4 17.66 C-11.7 11.67 -5.9 5.79 0 0 Z " fill="#6ABBE3" transform="translate(330,209)"/>
<path d="M0 0 C0.66 0.33 1.32 0.66 2 1 C-1.8 5.98 -5.61 10.96 -9.42 15.94 C-10.68 17.58 -11.93 19.21 -13.18 20.85 C-16.93 25.74 -20.89 30.41 -25 35 C-25.66 34.67 -26.32 34.34 -27 34 C-20.04 20.81 -10.75 10.27 0 0 Z " fill="#6ABBE3" transform="translate(313,212)"/>
<path d="M0 0 C0 3.44 -0.57 4.18 -2.52 6.91 C-2.78 7.28 -2.78 7.28 -4.12 9.16 C-4.68 9.93 -5.24 10.7 -5.81 11.5 C-6.36 12.27 -6.91 13.04 -7.47 13.84 C-12.63 21.06 -12.63 21.06 -15 23 C-18.69 23.19 -18.69 23.19 -22 23 C-22 20 -22 20 -20.52 18.25 C-19.84 17.63 -19.16 17 -18.46 16.35 C-17.71 15.65 -16.97 14.96 -16.2 14.24 C-15.41 13.52 -14.62 12.8 -13.81 12.06 C-13.04 11.35 -12.27 10.63 -11.48 9.89 C-7.76 6.45 -4.03 3.09 0 0 Z " fill="#6ABBE3" transform="translate(416,202)"/>
<path d="M0 0 C4.88 3.62 4.88 3.62 6 7 C3.44 8.94 0.88 10.88 -1.69 12.81 C-2.05 13.09 -2.05 13.09 -3.87 14.47 C-7.48 17.19 -11.05 19.78 -15 22 C-13.41 17.09 -10.56 13.39 -7.5 9.31 C-7.25 8.97 -7.25 8.97 -5.99 7.26 C-4.08 4.7 -2.27 2.27 0 0 Z " fill="#6ABBE3" transform="translate(439,209)"/>
<path d="M0 0 C0 3 0 3 -1.19 4.44 C-1.46 4.68 -1.46 4.68 -2.86 5.93 C-3.48 6.49 -4.09 7.06 -4.73 7.63 C-5.39 8.23 -6.06 8.82 -6.75 9.44 C-8.12 10.69 -9.49 11.94 -10.86 13.19 C-11.56 13.82 -12.25 14.46 -12.96 15.11 C-16.03 17.95 -18.99 20.9 -21.94 23.88 C-22.45 24.39 -22.96 24.91 -23.49 25.44 C-24.66 26.63 -25.83 27.81 -27 29 C-27.66 28.67 -28.32 28.34 -29 28 C-28.24 27.13 -27.48 26.26 -26.69 25.36 C-25.65 24.16 -24.6 22.95 -23.56 21.75 C-23.02 21.12 -22.47 20.49 -21.91 19.85 C-18.42 15.79 -15.29 11.64 -12.25 7.25 C-9.59 3.6 -7.89 1.37 -3.44 0.25 C-2.87 0.21 -2.87 0.21 0 0 Z " fill="#6ABBE3" transform="translate(357,191)"/>
<path d="M0 0 C3 1 3 1 4.81 3.31 C6 6 6 6 5.35 7.93 C3.73 10.42 1.96 11.97 -0.38 13.81 C-1.15 14.44 -1.92 15.06 -2.71 15.71 C-5 17 -5 17 -7.29 16.7 C-7.85 16.47 -8.42 16.24 -9 16 C-7.57 12.04 -5.67 8.71 -3.38 5.19 C-2.74 4.21 -2.11 3.24 -1.46 2.23 C-1.22 1.86 -1.22 1.86 0 0 Z " fill="#6ABBE3" transform="translate(450,222)"/>
<path d="M0 0 C0.33 0.66 0.66 1.32 1 2 C-0.34 4.45 -1.72 6.74 -3.25 9.06 C-3.66 9.71 -4.07 10.36 -4.49 11.03 C-7.62 15.87 -7.62 15.87 -11 17 C-14.19 15.56 -14.19 15.56 -17 14 C-12.13 8.8 -6.4 3.2 0 0 Z " fill="#6ABBE3" transform="translate(446,219)"/>
<path d="M0 0 C0.33 0.66 0.66 1.32 1 2 C-0.44 4.08 -1.87 6.17 -3.31 8.25 C-3.72 8.84 -4.12 9.42 -4.54 10.03 C-6.64 13.06 -8.76 16.07 -11 19 C-13.31 18.67 -15.62 18.34 -18 18 C-12.63 11.29 -6.38 5.71 0 0 Z " fill="#6ABBE3" transform="translate(431,210)"/>
<path d="M0 0 C0.66 0.33 1.32 0.66 2 1 C0.62 2.5 0.62 2.5 -1 4 C-1.66 4 -2.32 4 -3 4 C-3.23 4.56 -3.47 5.12 -3.71 5.7 C-5.31 8.55 -7.29 10.48 -9.62 12.75 C-10.03 13.15 -10.03 13.15 -12.1 15.17 C-12.73 15.78 -13.35 16.38 -14 17 C-14 11.95 -10.21 8.68 -7 5 C-4.69 2.94 -2.75 1.37 0 0 Z " fill="#6ABBE3" transform="translate(332,200)"/>
<path d="M0 0 C0.33 2.31 0.66 4.62 1 7 C-0.32 7.33 -1.64 7.66 -3 8 C-3.99 6.68 -4.98 5.36 -6 4 C-2.25 0 -2.25 0 0 0 Z " fill="#6ABBE3" transform="translate(463,243)"/>
<path d="M0 0 C0.33 0.66 0.66 1.32 1 2 C0.34 2.99 0.34 2.99 -3 8 C-4.32 7.34 -5.64 6.68 -7 6 C-4.69 4.02 -2.38 2.04 0 0 Z " fill="#6ABBE3" transform="translate(454,235)"/>
<path d="M0 0 C0.66 0 1.32 0 2 0 C2.33 0.99 2.66 1.98 3 3 C2.01 3.82 2.01 3.82 -3 8 C-1.12 2.25 -1.12 2.25 0 0 Z " fill="#6ABBE3" transform="translate(458,236)"/>
</svg>
