<?xml version="1.0" encoding="UTF-8"?>
<!-- Generator: visioncortex VTracer 0.6.5 -->
<svg version="1.1" xmlns="http://www.w3.org/2000/svg" width="256" height="256">
<path d="M0 0 C13.9 10.69 23.31 27.58 25.96 44.93 C26 46.93 26.01 48.93 25.96 50.93 C26.58 51.12 27.2 51.3 27.84 51.5 C31.05 53.67 31.08 56.23 31.96 59.93 C32.27 62.32 32.54 64.72 32.78 67.12 C34.66 82.72 43.2 96.63 54.96 106.93 C58.03 109.19 61.21 111.25 64.4 113.31 C81 124.34 81 124.34 83.96 133.93 C84.3 137.49 84.3 137.49 84.34 141.37 C84.37 142.65 84.4 143.93 84.43 145.24 C83.89 149.51 82.65 151.62 79.96 154.93 C76.05 157.26 72.45 157.25 67.96 156.93 C67.24 156.6 66.51 156.27 65.76 155.92 C62.77 154.87 60.29 154.82 57.14 154.86 C44.85 154.91 33.1 152.4 21.15 149.81 C20.28 149.62 19.4 149.44 18.5 149.25 C5.05 146.4 -8.61 143.03 -19.7 134.5 C-25.17 130.61 -30.9 131.45 -37.35 131.81 C-53.39 132.26 -68.2 130.33 -83.04 123.93 C-83.14 124.67 -83.24 125.41 -83.35 126.17 C-85.45 134.65 -94.38 141.81 -101.04 146.93 C-104.22 148.75 -104.22 148.75 -107.04 149.93 C-107.7 149.6 -108.36 149.27 -109.04 148.93 C-108.52 145.1 -107.62 141.56 -106.47 137.87 C-104.68 131.54 -104.75 125.47 -105.04 118.93 C-105.44 119.44 -105.84 119.95 -106.25 120.47 C-113.91 129.75 -125.01 137.37 -137.22 138.75 C-138.48 138.81 -139.74 138.87 -141.04 138.93 C-140.53 134.55 -139.05 132.13 -136.04 128.93 C-135.38 128.93 -134.72 128.93 -134.04 128.93 C-133.79 128.25 -133.53 127.57 -133.28 126.87 C-132.09 124.07 -130.71 121.47 -129.22 118.82 C-125.04 111.37 -122.16 104.23 -120.04 95.93 C-120.63 96.38 -121.22 96.83 -121.84 97.29 C-137.26 108.54 -152.31 111.54 -171.04 110.93 C-171.2 110.11 -171.2 110.11 -172.04 105.93 C-171.71 105.74 -171.71 105.74 -170.09 104.75 C-154.1 94.85 -138.87 82.65 -127.04 67.93 C-126.23 66.94 -125.43 65.95 -124.6 64.93 C-124.34 64.6 -124.34 64.6 -123.04 62.93 C-124.19 63.09 -125.35 63.25 -126.54 63.41 C-142.28 65.36 -158.09 64.07 -172.04 55.93 C-171.71 54.28 -171.38 52.63 -171.04 50.93 C-170.53 50.84 -170.53 50.84 -167.98 50.34 C-139.92 44.52 -110.46 29.51 -91.57 7.69 C-67.51 -18.49 -28.11 -19.14 0 0 Z " fill="#23281E" transform="translate(172.03515625,56.06640625)"/>
<path d="M0 0 C0.66 1.98 1.32 3.96 2 6 C1.22 6.54 0.43 7.07 -0.38 7.62 C-3.44 10.4 -3.8 12.1 -5 16 C-5.82 17.37 -6.68 18.73 -7.56 20.06 C-9.5 23.03 -10.66 25.4 -11 29 C-7.08 27.48 -3.28 25.77 0.52 24 C6.81 21.46 12.25 20.73 18.94 20.88 C19.72 20.88 20.5 20.89 21.3 20.9 C23.2 20.93 25.1 20.96 27 21 C27 21.66 27 22.32 27 23 C26.24 23.07 25.48 23.15 24.69 23.23 C17.28 24.17 11.42 25.64 6 31 C2.28 36.15 0.17 41.44 0.58 47.84 C2 55.15 6.26 60.39 12.3 64.61 C17.63 67.36 24.02 66.89 29.68 65.2 C32.73 63.91 35.25 62.77 37.58 60.38 C39 59 39 59 41.69 58.81 C42.07 58.84 42.07 58.84 44 59 C44.66 57.68 45.32 56.36 46 55 C47.94 55.38 47.94 55.38 50 56 C52.77 61.55 51.62 70.99 50.39 76.96 C47.71 84.44 42.48 90.31 36.25 95.12 C32.12 98.57 30.22 102.24 29.56 107.56 C30.38 114 33.25 117.72 38 122 C38.5 122.33 38.5 122.33 41 124 C41 124.66 41 125.32 41 126 C16.68 126.81 -5.75 124.82 -24.96 108.31 C-34.31 99.48 -40.37 88.09 -41.18 75.17 C-41.68 51.38 -38.47 30.97 -22.38 12.48 C-8.82 -1.66 -8.82 -1.66 0 0 Z " fill="#69BAE1" transform="translate(102,58)"/>
<path d="M0 0 C2.38 0.63 4.22 1.5 6.36 2.69 C10.68 5.05 14.52 5.42 19.36 4.63 C21.37 3.66 23.38 2.66 25.36 1.63 C29.75 2.02 29.75 2.02 31.36 3.63 C31.69 5.89 31.97 8.17 32.23 10.44 C34.73 29.69 41.84 45.4 57.21 57.96 C61.19 60.98 65.26 63.86 69.36 66.72 C83.09 76.43 83.09 76.43 84.36 83.63 C85.45 93.98 85.45 93.98 82.3 98.32 C78.56 101.26 77.04 101.05 72.36 100.63 C69.58 99.68 67.07 98.68 64.42 97.44 C63.66 97.1 62.91 96.75 62.13 96.4 C54.1 92.66 46.34 88.4 38.6 84.11 C29.25 78.93 20.89 75.98 10.42 73.88 C-16.88 68.12 -16.88 68.12 -22.64 60.63 C-23.11 56.88 -22.8 55.86 -20.64 52.63 C-22.29 53.62 -23.94 54.61 -25.64 55.63 C-25.64 58.82 -25.64 58.82 -24.64 62.63 C-22.3 64.93 -19.58 66.22 -16.64 67.63 C-15.84 68.04 -15.04 68.45 -14.21 68.87 C-6.64 72.4 1.16 74.06 9.29 75.83 C21.44 78.49 31.65 82.54 42.46 88.58 C45.56 90.29 48.68 91.96 51.8 93.63 C53.65 94.63 55.51 95.63 57.36 96.63 C57.36 96.96 57.36 97.29 57.36 97.63 C49.18 98.47 42.04 96.72 34.22 94.63 C25.69 92.37 17.09 90.93 8.36 89.63 C8.36 90.29 8.36 90.95 8.36 91.63 C8.68 91.65 8.68 91.65 10.29 91.78 C11.12 91.85 11.95 91.93 12.8 92 C13.62 92.07 14.44 92.14 15.29 92.21 C15.97 92.35 16.66 92.49 17.36 92.63 C17.69 93.29 18.02 93.95 18.36 94.63 C12.79 94.15 7.69 93.33 2.36 91.63 C2.36 91.3 2.36 90.97 2.36 90.63 C4.01 90.63 5.66 90.63 7.36 90.63 C5.93 87.78 4.27 87.72 1.3 86.63 C-6.97 83.27 -14.33 78.72 -21.64 73.63 C-22.23 73.22 -22.82 72.81 -23.43 72.39 C-27.94 69.14 -31.69 66.04 -33.77 60.79 C-34.3 56.56 -34 53.46 -31.4 49.96 C-28.22 46.4 -24.68 43.24 -21.14 40.05 C-18.23 37.29 -16.3 34.24 -14.64 30.63 C-14.34 30.02 -14.04 29.41 -13.73 28.78 C-11.22 22.71 -11.22 16.41 -11.19 9.92 C-11.11 6.2 -11.04 4.21 -8.87 1.09 C-5.6 -1.05 -3.72 -0.58 0 0 Z " fill="#F4693D" transform="translate(167.640625,108.37109375)"/>
<path d="M0 0 C0.45 0.12 0.45 0.12 2.73 0.75 C10.87 3.43 17.17 7.98 24 13 C24.99 13.66 25.98 14.32 27 15 C27.33 13.68 27.66 12.36 28 11 C29.32 12.98 30.64 14.96 32 17 C30.68 16.67 29.36 16.34 28 16 C28.31 16.48 28.62 16.96 28.95 17.46 C37.2 30.31 43.39 41.41 44 57 C38.92 59.96 35.01 61.92 29 61 C27.17 60.21 25.36 59.37 23.56 58.5 C18.59 56.11 15.47 55.06 10 56 C6.27 58.84 4.4 61.55 3 66 C2.67 65.67 2.67 65.67 1 64 C-2 65 -2 65 -4 68 C-4.74 67.96 -5.49 67.92 -6.25 67.88 C-9.72 68.03 -10.97 69.51 -13.49 71.75 C-18.14 75.58 -24.19 75.55 -29.96 75.44 C-35.63 74.62 -39.93 71.74 -43.37 67.18 C-44.44 65.38 -44.44 65.38 -46 62 C-46.35 61.36 -46.71 60.71 -47.07 60.05 C-49.1 55.58 -48.65 51 -47.16 46.4 C-43.89 39.1 -39.39 35.48 -32.56 31.62 C-28.72 30.69 -24.94 30.85 -21 31 C-21 30.34 -21 29.68 -21 29 C-32.86 29.28 -43.61 30.05 -54.06 36.31 C-55.03 36.87 -56 37.43 -57 38 C-57.99 37.67 -58.98 37.34 -60 37 C-58.87 31.97 -57.29 28.77 -54.16 24.7 C-53 23 -53 23 -51.94 19.75 C-50.87 16.61 -49.8 15.68 -47 14 C-47.19 11.62 -47.19 11.62 -48 9 C-50.56 7.69 -50.56 7.69 -53 7 C-41.85 -6.3 -14.72 -4.43 0 0 Z " fill="#68B8DF" transform="translate(150,50)"/>
<path d="M0 0 C3.37 0.48 5.42 1.27 7.56 3.97 C9.16 6.6 10.6 9.26 12 12 C12.23 12.44 12.23 12.44 13.38 14.68 C17.44 23.05 20.26 31.63 20 41 C20.62 41.19 21.24 41.37 21.88 41.56 C25.09 43.74 25.12 46.29 26 50 C26.31 52.39 26.58 54.79 26.81 57.19 C28.69 72.79 37.23 86.7 49 97 C52.06 99.25 55.24 101.31 58.44 103.38 C75.03 114.41 75.03 114.41 78 124 C78.34 127.56 78.34 127.56 78.38 131.44 C78.4 132.71 78.43 133.99 78.46 135.31 C77.93 139.58 76.69 141.69 74 145 C70.08 147.33 66.49 147.32 62 147 C61.29 146.67 60.58 146.34 59.85 146 C55.85 144.6 52.09 144.79 47.88 144.75 C38.78 144.51 30.18 143.06 21.31 141.06 C20.12 140.8 18.94 140.53 17.71 140.26 C9.28 138.28 9.28 138.28 7 136 C4.84 135.37 4.84 135.37 2.38 134.88 C1.56 134.71 0.74 134.54 -0.1 134.37 C-0.73 134.25 -1.35 134.12 -2 134 C-2 133.34 -2 132.68 -2 132 C3.82 131.77 9.07 132.62 14.75 133.81 C15.19 133.9 15.19 133.9 17.43 134.36 C22.08 135.32 26.64 136.4 31.19 137.75 C35.93 139.14 40.08 139.24 45 139 C40.73 136.7 36.46 134.41 32.17 132.15 C30.76 131.4 29.35 130.65 27.94 129.9 C16.48 123.79 5.49 119.95 -7.38 117.69 C-13.14 116.59 -18.25 114.91 -23.62 112.56 C-24.29 112.27 -24.95 111.99 -25.63 111.69 C-29.54 109.9 -32.88 107.96 -36 105 C-37 101.44 -37 101.44 -37 98 C-35.75 96.06 -35.75 96.06 -34 95 C-33.01 95 -32.02 95 -31 95 C-31.33 97.64 -31.66 100.28 -32 103 C-21.79 110.15 -10.73 112.93 1.31 115.31 C15.73 118.24 27.39 124.43 40.03 131.69 C44.77 134.39 49.59 136.82 54.56 139.06 C55.21 139.36 55.85 139.66 56.51 139.97 C60.82 141.85 64.32 142.44 69 142 C71.44 140.19 71.44 140.19 73 137 C73.88 130.51 73.51 124.64 70 119 C65.58 114.23 60.5 110.59 55.06 107.06 C44.63 100.24 37.02 92.29 30 82 C29.49 81.28 28.99 80.57 28.47 79.83 C22.36 70.2 20.71 57.17 20 46 C17.88 45.31 17.88 45.31 15 45 C14.09 45.47 13.19 45.95 12.25 46.44 C7.96 48.5 4.68 48.82 0 48 C-2.88 46.85 -5.59 45.55 -8.32 44.09 C-11.48 42.81 -13.63 42.59 -17 43 C-18.85 43.98 -18.85 43.98 -20 46 C-20.25 48.84 -20.36 51.54 -20.38 54.38 C-20.91 69.63 -26.33 78.57 -37 89 C-37.92 89.82 -38.84 90.64 -39.79 91.48 C-43.1 95.25 -43.02 98.07 -42.78 102.95 C-40.39 112.33 -27.95 117.98 -20.07 122.69 C-14.57 125.88 -8.86 128.53 -3 131 C-3 131.66 -3 132.32 -3 133 C-9.1 133.49 -12.85 132.05 -18.19 129.19 C-18.89 128.83 -19.58 128.47 -20.3 128.11 C-27.18 124.54 -27.18 124.54 -30 122 C-30 121.34 -30 120.68 -30 120 C-37.92 120 -45.84 120 -54 120 C-54 119.67 -54 119.34 -54 119 C-47.73 118.67 -41.46 118.34 -35 118 C-35 117.34 -35 116.68 -35 116 C-35.56 115.77 -36.11 115.55 -36.69 115.31 C-41.76 112.43 -44.94 108.41 -47 103 C-47.82 98.2 -46.96 95.45 -44.44 91.44 C-41.89 87.88 -39.13 85.3 -35.74 82.59 C-30.52 77.81 -26.42 70.96 -25.82 63.84 C-25.69 60.55 -25.63 57.27 -25.61 53.99 C-25.45 48.53 -24.66 45.31 -21 41 C-17.23 38.49 -14.36 38.26 -10 39 C-7.14 40.18 -4.39 41.52 -1.61 42.88 C1.82 44.35 4.31 44.58 8 44 C11.31 42.5 11.31 42.5 14 41 C14.66 41 15.32 41 16 41 C13.66 27.06 9.86 16.07 1.57 4.4 C0 2 0 2 0 0 Z " fill="#49433F" transform="translate(178,66)"/>
<path d="M0 0 C6.4 2.68 10.84 7.21 14.25 13.19 C16.28 20.81 15.31 26.94 11.49 33.8 C8.11 38.8 3.98 41.78 -2 43 C-9.56 43.9 -15.01 43.49 -21.16 38.79 C-23.94 36.09 -25.37 33.52 -27 30 C-27.35 29.36 -27.71 28.71 -28.07 28.05 C-30.1 23.58 -29.65 19 -28.16 14.4 C-22.55 1.87 -13.13 -1.5 0 0 Z " fill="#4F2D24" transform="translate(131,82)"/>
<path d="M0 0 C0 3.47 -0.89 5.29 -2.31 8.44 C-4.6 13.72 -6.07 18.87 -7.23 24.5 C-8.08 27.26 -8.68 28.32 -11 30 C-25.22 35.3 -40.32 35.01 -55 32 C-54.67 32.99 -54.34 33.98 -54 35 C-55.42 34.55 -56.83 34.09 -58.25 33.62 C-58.64 33.5 -58.64 33.5 -60.64 32.85 C-62.87 32.05 -64.91 31.1 -67 30 C-66.67 28.35 -66.34 26.7 -66 25 C-65.5 24.9 -65.5 24.9 -62.95 24.41 C-46.6 21.02 -32.07 14.58 -17.7 6.15 C-17.35 5.94 -17.35 5.94 -15.56 4.91 C-15.25 4.72 -15.25 4.72 -13.69 3.79 C-10.94 2.5 -8.01 3 -5 3 C-2.25 1.5 -2.25 1.5 0 0 Z " fill="#A9D341" transform="translate(67,82)"/>
<path d="M0 0 C8.08 5.78 13.28 12.16 15 22 C15.12 25.5 15.12 25.5 15 28 C14.01 28 13.02 28 12 28 C11.32 27.11 10.64 26.23 9.94 25.31 C6.57 20.98 1.94 19.13 -3 17 C-3.74 16.63 -4.47 16.27 -5.23 15.89 C-17.62 11.92 -32.39 15.05 -44 20 C-45.26 20.73 -46.52 21.48 -47.76 22.23 C-48.3 22.53 -48.3 22.53 -51 24 C-51.99 23.67 -52.98 23.34 -54 23 C-52.21 13.63 -45.94 6.98 -38.36 1.51 C-27.09 -5.7 -11.76 -7.18 0 0 Z " fill="#131D22" transform="translate(144,64)"/>
<path d="M0 0 C3.37 0.48 5.42 1.27 7.56 3.97 C9.16 6.6 10.59 9.27 12 12 C12.47 12.82 12.94 13.63 13.42 14.47 C16.92 21.12 17.79 27.41 18.19 34.81 C18.45 38.51 18.68 40.61 21.06 43.54 C21.7 44.02 22.34 44.5 23 45 C21.8 44.94 20.61 44.88 19.38 44.81 C16.2 44.8 14.99 45.01 12.06 46.5 C7.88 48.55 4.58 48.8 0 48 C-2.88 46.85 -5.59 45.55 -8.32 44.09 C-11.48 42.81 -13.63 42.59 -17 43 C-18.85 43.98 -18.85 43.98 -20 46 C-20.25 48.84 -20.36 51.54 -20.38 54.38 C-20.91 69.63 -26.33 78.57 -37 89 C-37.92 89.82 -38.84 90.64 -39.79 91.48 C-43.1 95.25 -43.02 98.07 -42.78 102.95 C-40.39 112.33 -27.95 117.98 -20.07 122.69 C-14.57 125.88 -8.86 128.53 -3 131 C-3 131.66 -3 132.32 -3 133 C-9.1 133.49 -12.85 132.05 -18.19 129.19 C-18.89 128.83 -19.58 128.47 -20.3 128.11 C-27.18 124.54 -27.18 124.54 -30 122 C-30 121.34 -30 120.68 -30 120 C-37.92 120 -45.84 120 -54 120 C-54 119.67 -54 119.34 -54 119 C-47.73 118.67 -41.46 118.34 -35 118 C-35 117.34 -35 116.68 -35 116 C-35.56 115.77 -36.11 115.55 -36.69 115.31 C-41.76 112.43 -44.94 108.41 -47 103 C-47.82 98.2 -46.96 95.45 -44.44 91.44 C-41.89 87.88 -39.13 85.3 -35.74 82.59 C-30.52 77.81 -26.42 70.96 -25.82 63.84 C-25.69 60.55 -25.63 57.27 -25.61 53.99 C-25.45 48.53 -24.66 45.31 -21 41 C-17.23 38.49 -14.36 38.26 -10 39 C-7.14 40.18 -4.39 41.52 -1.61 42.88 C1.82 44.35 4.31 44.58 8 44 C11.31 42.5 11.31 42.5 14 41 C14.66 41 15.32 41 16 41 C13.66 27.06 9.86 16.07 1.57 4.4 C0 2 0 2 0 0 Z " fill="#1B1514" transform="translate(178,66)"/>
<path d="M0 0 C0.46 0.3 0.46 0.3 2.76 1.84 C4.53 3.03 6.32 4.2 8.12 5.34 C8.7 5.73 9.28 6.11 9.88 6.5 C10.47 6.88 11.07 7.26 11.68 7.66 C13 9 13 9 13 13 C14.05 12.48 15.1 11.97 16.19 11.44 C21.99 8.59 28.5 11.91 34.38 13.54 C41.76 15.55 48.78 16.23 56.38 16.56 C56.84 16.58 56.84 16.58 59.18 16.69 C61.46 16.8 63.73 16.9 66 17 C66 17.33 66 17.66 66 18 C68.97 18.33 71.94 18.66 75 19 C70.44 22.04 65.93 21.38 60.56 21.38 C59.45 21.37 58.33 21.37 57.18 21.37 C42.97 21.16 29.1 18.65 16 13 C15.9 13.74 15.79 14.47 15.68 15.23 C13.59 23.72 4.66 30.88 -2 36 C-5.18 37.82 -5.18 37.82 -8 39 C-8.66 38.67 -9.32 38.34 -10 38 C-9.62 35.15 -9.13 32.42 -8.27 29.68 C-5.72 21.62 -5.69 14.38 -6 6 C-5.34 5.67 -4.68 5.34 -4 5 C-3.34 9.29 -2.68 13.58 -2 18 C0.12 15.88 -0.58 11.38 -0.44 8.44 C-0.39 7.63 -0.35 6.82 -0.31 5.99 C-0.2 4 -0.1 2 0 0 Z " fill="#36382F" transform="translate(73,167)"/>
<path d="M0 0 C0.33 0 0.66 0 1 0 C1.16 3.8 1.16 3.8 2 23 C1.34 23 0.68 23 0 23 C-0.13 23.29 -0.13 23.29 -0.77 24.76 C-6.38 34.95 -20.38 40.9 -31 44 C-34.37 44.12 -34.37 44.12 -37 44 C-37.65 42.21 -37.65 42.21 -38 40 C-35.74 35.94 -31.81 32.77 -28.31 29.79 C-23.84 25.91 -19.63 21.81 -15.44 17.62 C-14.72 16.92 -14.01 16.22 -13.27 15.49 C-8.9 11.13 -5.01 6.62 -1.33 1.67 C-0.89 1.12 -0.45 0.57 0 0 Z " fill="#A8D140" transform="translate(56,117)"/>
<path d="M0 0 C-0.33 2.64 -0.66 5.28 -1 8 C9.21 15.15 20.27 17.93 32.31 20.31 C42.79 22.44 51.66 25.85 61 31 C61.7 31.38 62.39 31.77 63.11 32.16 C66.55 34.06 69.97 35.99 73.37 37.95 C77.82 40.49 82.38 42.79 87 45 C87 45.66 87 46.32 87 47 C54.18 47.88 54.18 47.88 40 43 C39.34 42.34 38.68 41.68 38 41 C35.84 40.37 35.84 40.37 33.38 39.88 C32.97 39.79 32.97 39.79 30.9 39.37 C30.27 39.25 29.65 39.12 29 39 C29 38.34 29 37.68 29 37 C34.82 36.77 40.07 37.62 45.75 38.81 C46.19 38.9 46.19 38.9 48.43 39.36 C53.08 40.32 57.64 41.4 62.19 42.75 C66.93 44.14 71.08 44.24 76 44 C71.73 41.7 67.46 39.41 63.17 37.15 C61.76 36.4 60.35 35.65 58.94 34.9 C47.48 28.79 36.49 24.95 23.62 22.69 C17.86 21.59 12.75 19.91 7.38 17.56 C6.71 17.27 6.05 16.99 5.37 16.69 C1.46 14.9 -1.88 12.96 -5 10 C-6 6.44 -6 6.44 -6 3 C-4.14 0.12 -3.49 0 0 0 Z " fill="#230E09" transform="translate(147,161)"/>
<path d="M0 0 C5.64 4.67 5.64 4.67 6.39 9.13 C2.46 9.13 1.28 7.77 -1.8 5.38 C-18.15 -6.81 -35.58 -8.57 -55.61 -6.87 C-66.51 -4.87 -75.32 1.07 -83.82 7.91 C-84.52 8.46 -85.21 9.01 -85.93 9.57 C-86.52 10.06 -87.11 10.56 -87.73 11.07 C-90.13 12.43 -91.89 12.32 -94.61 12.13 C-72.16 -17 -29.12 -20.81 0 0 Z " fill="#475D68" transform="translate(171.61328125,55.8671875)"/>
<path d="M0 0 C0.26 0.53 0.51 1.05 0.78 1.59 C2.89 5.75 5.19 9.82 7.44 13.91 C9.87 18.73 9.87 18.73 10 21 C5.15 32.13 -4.18 40.15 -14.97 45.22 C-17 46 -17 46 -19 46 C-17.78 43.45 -16.44 41.02 -15.05 38.56 C-9.49 28.68 -5.68 18.89 -2.58 8 C-1.8 5.31 -0.91 2.65 0 0 Z " fill="#A6D03F" transform="translate(59,143)"/>
<path d="M0 0 C5.46 2.93 5.46 2.93 7 6 C7.43 10.24 7.45 13.91 5.81 17.88 C2.69 21.53 0.3 22.86 -4.5 23.38 C-8.31 22.97 -10.07 22.44 -13 20 C-15.87 15.64 -16.74 12.18 -16 7 C-11.93 0.28 -7.46 -0.94 0 0 Z " fill="#0C0D0C" transform="translate(129,92)"/>
<path d="M0 0 C5.44 2.27 9.84 6 13 11 C13.75 13.31 13.75 13.31 14 15 C13.34 15 12.68 15 12 15 C11.67 15.66 11.34 16.32 11 17 C10.63 15.95 10.26 14.9 9.88 13.81 C7.67 8.71 4.1 5.94 -0.94 3.69 C-7.1 2.3 -11.62 2.66 -17.14 5.66 C-21.14 8.54 -23.46 12.38 -25 17 C-25.77 23.44 -24.94 28.75 -21 34 C-16.23 38.37 -11.79 40.39 -5.19 40.28 C0.09 39.61 3.91 36.97 7.81 33.5 C11.19 29.09 11.94 23.33 13 18 C13.33 18 13.66 18 14 18 C14.56 24.77 14.51 29.74 10.42 35.35 C6.08 40.39 1.84 42.54 -4.73 43.33 C-11.42 43.7 -15.8 42.89 -21.16 38.79 C-23.94 36.09 -25.37 33.52 -27 30 C-27.35 29.36 -27.71 28.71 -28.07 28.05 C-30.1 23.58 -29.65 19 -28.16 14.4 C-22.55 1.87 -13.13 -1.5 0 0 Z " fill="#131619" transform="translate(131,82)"/>
<path d="M0 0 C4.79 2.16 7.71 4.38 9.9 9.32 C10.69 14.28 10.56 18.74 8.21 23.25 C5.3 27.12 2.85 28.97 -1.96 29.82 C-11.09 30 -11.09 30 -15.22 26.63 C-18.96 22.73 -19.96 19.77 -20.47 14.38 C-20.35 10.07 -18.89 7.63 -16.1 4.32 C-10.96 -0.21 -6.94 -2.26 0 0 Z M-15.1 8.32 C-16.66 11.44 -16.38 13.86 -16.1 17.32 C-14.8 20.67 -13.15 23.49 -10.29 25.75 C-5.49 26.99 -2.19 26.89 2.21 24.57 C5.31 21.97 6.6 20.11 7.27 16.13 C7.4 11.7 7.38 9.92 4.53 6.32 C0.58 3.31 -1.9 2.93 -6.77 2.96 C-10.69 3.56 -12.4 5.49 -15.1 8.32 Z " fill="#E5E6E2" transform="translate(129.09765625,88.68359375)"/>
<path d="M0 0 C-1.38 3.35 -2.63 4.7 -5.82 6.37 C-6.6 6.78 -7.37 7.18 -8.17 7.6 C-9 8.02 -9.83 8.44 -10.69 8.88 C-11.11 9.09 -11.11 9.09 -13.27 10.21 C-24.47 15.88 -36.04 20.21 -48 24 C-47.01 24.66 -46.02 25.32 -45 26 C-48.82 27.37 -52.07 26.68 -56 26 C-56.33 24.35 -56.66 22.7 -57 21 C-56 20.72 -55 20.43 -53.97 20.14 C-52.65 19.76 -51.32 19.38 -50 19 C-48.79 18.66 -47.59 18.31 -46.34 17.96 C-34.73 14.54 -24.26 9.7 -13.5 4.19 C-9.24 2.03 -4.86 0 0 0 Z " fill="#5C5D57" transform="translate(57,87)"/>
<path d="M0 0 C0 0.99 0 1.98 0 3 C-1.67 4.67 -3.33 6.33 -5 8 C-5 8.99 -5 9.98 -5 11 C-5.31 12.67 -5.64 14.34 -6 16 C0.08 17.7 4.77 18.13 11 17 C8.42 18.72 6.57 19.61 3.69 20.56 C2.95 20.81 2.21 21.06 1.45 21.32 C-4.37 22.94 -9.89 23.13 -15.88 23.06 C-16.66 23.06 -17.44 23.05 -18.25 23.05 C-20.17 23.04 -22.08 23.02 -24 23 C-24.33 21.35 -24.66 19.7 -25 18 C-24.68 17.81 -24.68 17.81 -23.05 16.82 C-15.18 11.95 -6.59 6.59 0 0 Z " fill="#8C9F5B" transform="translate(25,144)"/>
<path d="M0 0 C-0.25 1.88 -0.25 1.88 -1 4 C-1.3 4.14 -1.3 4.14 -2.84 4.88 C-5.45 6.24 -6.56 7.74 -8.25 10.12 C-8.77 10.85 -9.29 11.57 -9.83 12.32 C-10.21 12.87 -10.6 13.43 -11 14 C-10.44 13.44 -9.89 12.89 -9.31 12.31 C-6.88 9.88 -4.44 7.44 -2 5 C-2.6 8.36 -3.85 10.38 -6 13 C-5.24 12.22 -4.47 11.43 -3.69 10.62 C-1 8 -1 8 2 6 C2 6.99 2 7.98 2 9 C2.99 9.33 3.98 9.66 5 10 C5.27 9.4 5.54 8.8 5.81 8.19 C6.98 6.03 8.19 4.64 10 3 C10 4.65 10 6.3 10 8 C11.98 7.01 13.96 6.02 16 5 C16.16 5.5 16.16 5.5 17 8 C20.63 7.67 24.26 7.34 28 7 C27.67 7.99 27.34 8.98 27 10 C25.89 10.09 24.77 10.17 23.62 10.26 C11.76 11.31 -0.41 12.92 -10.77 19.23 C-11.84 19.81 -12.9 20.4 -14 21 C-14.99 20.67 -15.98 20.34 -17 20 C-15.5 12.18 -11 6.79 -5.25 1.44 C-3 0 -3 0 0 0 Z " fill="#0F171B" transform="translate(107,67)"/>
<path d="M0 0 C4.4 2.92 8.72 5.92 13 9 C11.73 17.42 5.54 24.76 -1 30 C-1.66 30 -2.32 30 -3 30 C-2.87 29.26 -2.73 28.52 -2.6 27.75 C-1.05 18.51 -0.43 9.35 0 0 Z " fill="#A8D241" transform="translate(73,167)"/>
<path d="M0 0 C2.67 2.36 3.96 4.75 5.5 7.94 C11.3 18.71 18.94 26.17 29.76 31.7 C30.5 32.13 31.24 32.56 32 33 C32 33.66 32 34.32 32 35 C29.69 35.66 27.38 36.32 25 37 C24.97 36.71 24.97 36.71 24.85 35.27 C23.59 31.91 21.35 30.76 18.44 28.75 C17.43 28.04 16.41 27.34 15.37 26.61 C14.59 26.08 13.81 25.55 13 25 C12.95 26.1 12.9 27.19 12.85 28.32 C12.78 29.78 12.7 31.23 12.62 32.69 C12.61 33.05 12.61 33.05 12.53 34.87 C12.31 38.97 11.82 42.24 10 46 C9.67 46 9.34 46 9 46 C9 39.73 9 33.46 9 27 C8.01 27 7.02 27 6 27 C6.14 26.36 6.14 26.36 6.88 23.12 C7.53 17.67 5.41 14.84 2.44 10.44 C0.36 6.91 0.15 4.05 0 0 Z " fill="#232E19" transform="translate(61,143)"/>
<path d="M0 0 C2.43 4.1 2.32 7.87 2.46 12.54 C2.64 13.35 2.82 14.16 3 15 C3.32 15.15 3.32 15.15 4.91 15.9 C7 17 7 17 8.2 20.18 C8.97 23.86 9.45 27.44 9.81 31.19 C11.31 42.91 15.86 51.7 23 61 C22.67 61.66 22.34 62.32 22 63 C21.79 62.76 21.79 62.76 20.75 61.56 C19 60 19 60 17.11 59.71 C13.06 58.34 11.66 54.29 9.68 50.73 C5.43 41.93 3.76 31.46 3.18 21.79 C3 20 3 20 2 18 C2.99 18 3.98 18 5 18 C4.68 17.82 4.68 17.82 3.06 16.94 C0.1 14.15 0.26 12 0 8 C-0.06 5.33 -0.05 2.67 0 0 Z " fill="#43403D" transform="translate(195,92)"/>
<path d="M0 0 C0.33 0.66 0.66 1.32 1 2 C1.66 1.34 2.32 0.68 3 0 C3.99 0.33 4.98 0.66 6 1 C5.86 1.28 5.86 1.28 5.12 2.69 C4 5 4 5 3 7.62 C2 10 2 10 0 12 C-0.99 12 -1.98 12 -3 12 C-3.33 10.68 -3.66 9.36 -4 8 C-4.66 8.99 -4.66 8.99 -8 14 C-11.88 13.12 -11.88 13.12 -13 12 C-13.62 12.83 -14.24 13.65 -14.88 14.5 C-15.23 14.91 -15.23 14.91 -17 17 C-17.66 17 -18.32 17 -19 17 C-18.67 16.38 -18.34 15.76 -18 15.12 C-17 13 -17 13 -17 11 C-18.98 13.64 -20.96 16.28 -23 19 C-23.66 18.67 -24.32 18.34 -25 18 C-23.74 16.35 -22.46 14.7 -21.19 13.06 C-20.48 12.15 -19.77 11.23 -19.04 10.29 C-17 8 -17 8 -14 7 C-13.67 6.01 -13.34 5.02 -13 4 C-13.66 3.67 -14.32 3.34 -15 3 C-9.45 -0.82 -6.6 -1.59 0 0 Z " fill="#131C22" transform="translate(120,63)"/>
<path d="M0 0 C0 0.33 0 0.66 0 1 C-6.27 1.66 -12.54 2.32 -19 3 C-18.34 3.66 -17.68 4.32 -17 5 C-17.74 5.16 -18.48 5.32 -19.24 5.48 C-33.16 8.68 -44.17 14.81 -55.08 23.9 C-57.51 25.29 -59.25 25.2 -62 25 C-46.83 5.31 -23.75 -0.98 0 0 Z " fill="#3D3F3E" transform="translate(139,43)"/>
<path d="M0 0 C1.32 0 2.64 0 4 0 C4.33 0.99 4.66 1.98 5 3 C6.65 2.67 8.3 2.34 10 2 C9.67 2.99 9.34 3.98 9 5 C11 5 11 5 14 4 C14.33 5.65 14.66 7.3 15 9 C15.33 8.34 15.66 7.68 16 7 C19.06 8.02 20.15 8.44 22 11 C22.19 14.19 22.19 14.19 22 17 C21.34 17.33 20.68 17.66 20 18 C17.97 17.07 15.96 16.07 14 15 C14.33 14.01 14.66 13.02 15 12 C14.38 12.19 13.76 12.37 13.12 12.56 C11 13 11 13 9 12 C9.66 11.01 10.32 10.02 11 9 C9.68 9.99 8.36 10.98 7 12 C7 11.01 7 10.02 7 9 C6.67 9.5 6.67 9.5 5 12 C2.62 12.29 2.62 12.29 -0.12 12.19 C-1.04 12.16 -1.95 12.13 -2.88 12.11 C-3.58 12.07 -4.28 12.04 -5 12 C-6 9 -6 9 -4.93 6.74 C-4.39 5.94 -3.86 5.14 -3.31 4.31 C-2.79 3.5 -2.27 2.7 -1.74 1.86 C-1.16 1.25 -0.59 0.63 0 0 Z " fill="#48758D" transform="translate(129,63)"/>
<path d="M0 0 C-0.33 2.64 -0.66 5.28 -1 8 C10.3 15.91 23.04 18.67 36.36 21.3 C37.32 21.49 38.28 21.69 39.27 21.89 C39.7 21.97 39.7 21.97 41.88 22.39 C44 23 44 23 46 25 C45.34 25 44.68 25 44 25 C44 25.66 44 26.32 44 27 C3.65 19.6 3.65 19.6 -4.77 9.98 C-6.36 7.43 -6.45 5.95 -6 3 C-4.01 0.25 -3.49 0 0 0 Z " fill="#230E09" transform="translate(147,161)"/>
<path d="M0 0 C0.16 0.66 0.16 0.66 1 4 C-0.98 5.65 -2.96 7.3 -5 9 C-4.67 8.01 -4.34 7.02 -4 6 C-5.15 6.16 -6.29 6.32 -7.48 6.49 C-16.83 7.65 -30.28 9.05 -39 5 C-40.25 2.92 -40.25 2.92 -41 1 C-39.76 0.98 -38.52 0.96 -37.25 0.94 C-36.55 0.93 -35.86 0.91 -35.14 0.9 C-33 1 -33 1 -31.14 1.49 C-22.88 3.45 -13.64 2.04 -5.43 0.44 C-3 0 -3 0 0 0 Z " fill="#43433E" transform="translate(53,113)"/>
<path d="M0 0 C0.33 0.66 0.66 1.32 1 2 C1.99 2 2.98 2 4 2 C4 4.97 4 7.94 4 11 C3.67 11 3.34 11 3 11 C2.84 10.01 2.84 10.01 2 5 C1.53 5.82 1.05 6.65 0.56 7.5 C-4.68 15.32 -12.56 21.11 -21.56 23.75 C-24.72 24.07 -27.83 24.06 -31 24 C-30.01 22.02 -29.02 20.04 -28 18 C-27.34 18 -26.68 18 -26 18 C-26 18.99 -26 19.98 -26 21 C-15.56 15.84 -5.99 10.41 0 0 Z " fill="#3A3C35" transform="translate(66,168)"/>
<path d="M0 0 C0 3.63 -1.07 5.86 -2.5 9.19 C-2.73 9.73 -2.73 9.73 -3.91 12.48 C-4.27 13.31 -4.63 14.14 -5 15 C-5.99 14.67 -6.98 14.34 -8 14 C-8.33 14.16 -8.33 14.16 -10 15 C-12.12 14.06 -12.12 14.06 -14 13 C-14.33 13.5 -14.33 13.5 -16 16 C-18.16 16.29 -18.16 16.29 -20.62 16.19 C-21.03 16.17 -21.03 16.17 -23.1 16.11 C-23.73 16.07 -24.35 16.04 -25 16 C-21.24 12.72 -17.29 10.43 -12.89 8.15 C-11 7 -11 7 -10 5 C-12.31 5.66 -14.62 6.32 -17 7 C-14.65 4.28 -12.38 3.19 -9 2 C-8.67 2.66 -8.34 3.32 -8 4 C-5.03 2.88 -2.67 1.78 0 0 Z " fill="#A5CD40" transform="translate(67,82)"/>
<path d="M0 0 C0.99 0.01 1.99 0.02 3.01 0.03 C3.39 0.03 3.39 0.03 5.31 0.06 C5.31 0.72 5.31 1.38 5.31 2.06 C4.66 2.09 4.01 2.11 3.34 2.14 C-2.41 2.51 -6.22 3.13 -10.69 7.06 C-14.11 11.03 -15.3 13.99 -15.01 19.11 C-14.27 23.61 -12.46 26.36 -9.12 29.38 C-5.91 31.6 -3.91 32.24 -0.06 32.62 C0.75 32.71 1.57 32.79 2.41 32.88 C2.73 32.91 2.73 32.91 4.31 33.06 C4.31 33.72 4.31 34.38 4.31 35.06 C-2.65 35.57 -7 35.27 -12.69 31.06 C-17.48 25.89 -18.04 21.7 -17.97 14.86 C-17.43 9.49 -15.08 6.35 -11.12 2.69 C-7.32 0.15 -4.47 -0.05 0 0 Z " fill="#150E0B" transform="translate(124.6875,85.9375)"/>
<path d="M0 0 C0.33 0 0.66 0 1 0 C1 5.61 1 11.22 1 17 C-4.57 19.79 -6.18 20.53 -12 20 C-12.68 19.68 -13.36 19.35 -14.06 19.02 C-18.47 17.49 -22.86 17.57 -27.5 17.44 C-29.36 17.38 -31.23 17.31 -33.09 17.25 C-33.92 17.22 -34.74 17.2 -35.58 17.17 C-38.12 16.99 -40.52 16.55 -43 16 C-43 15.67 -43 15.34 -43 15 C-34.75 15 -26.5 15 -18 15 C-17.67 14.34 -17.34 13.68 -17 13 C-16.66 13.16 -16.66 13.16 -14.94 14 C-11.34 15.23 -8.78 15.48 -5 15 C-2.15 12.75 -1.18 11 -0.54 7.44 C-0.28 4.96 -0.1 2.49 0 0 Z " fill="#383431" transform="translate(252,193)"/>
<path d="M0 0 C0 0.99 0 1.98 0 3 C0.66 3.66 1.32 4.32 2 5 C-1.2 8.22 -4.4 11.44 -7.61 14.66 C-8.7 15.76 -9.78 16.85 -10.87 17.95 C-12.44 19.53 -14.01 21.1 -15.58 22.68 C-15.82 22.92 -15.82 22.92 -17.04 24.15 C-22.23 29.35 -22.23 29.35 -25 31 C-25.99 30.67 -26.98 30.34 -28 30 C-27.26 29.3 -26.52 28.6 -25.75 27.88 C-23 25 -23 25 -21.19 22.12 C-19.32 19.45 -17.88 17.92 -15.44 15.88 C-9.75 11.11 -4.93 5.52 0 0 Z " fill="#25261E" transform="translate(47,122)"/>
<path d="M0 0 C4.27 0.47 6.59 3.19 9.5 6.06 C14.58 10.93 19.77 14.69 25.8 18.34 C26.16 18.62 26.16 18.62 28 20 C28 20.99 28 21.98 28 23 C28.66 23.33 29.32 23.66 30 24 C28.32 24.71 28.32 24.71 26 25 C16 19.47 6.15 10.67 0 1 C0 0.67 0 0.34 0 0 Z " fill="#201411" transform="translate(211,151)"/>
<path d="M0 0 C-1.51 3.25 -3.37 6.08 -5.44 9 C-6.03 9.85 -6.63 10.69 -7.25 11.56 C-8.81 13.73 -10.39 15.87 -12 18 C-12.99 17.34 -13.98 16.68 -15 16 C-16.98 17.32 -18.96 18.64 -21 20 C-22.32 19.34 -23.64 18.68 -25 18 C-21.02 13.61 -16.46 10.36 -11.62 6.96 C-9 5 -9 5 -6.85 2.82 C-4.67 0.68 -3.06 0 0 0 Z " fill="#181B1B" transform="translate(82,67)"/>
<path d="M0 0 C1.54 0.14 3.08 0.29 4.62 0.44 C5.48 0.52 6.34 0.6 7.23 0.68 C9.06 0.89 10.88 1.16 12.69 1.5 C17.24 2.19 21.78 2.36 26.38 2.56 C27.3 2.61 28.23 2.65 29.18 2.69 C31.46 2.8 33.73 2.9 36 3 C36 3.33 36 3.66 36 4 C38.97 4.33 41.94 4.66 45 5 C41.61 7.26 40.45 7.25 36.48 7.23 C35.4 7.23 34.31 7.23 33.19 7.22 C32.06 7.21 30.92 7.2 29.75 7.19 C28.63 7.19 27.51 7.19 26.36 7.19 C18.7 7.14 11.7 6.97 4.56 3.94 C3.7 3.58 2.83 3.21 1.94 2.84 C1.62 2.7 1.62 2.7 0 2 C0 1.34 0 0.68 0 0 Z " fill="#4A4A49" transform="translate(103,181)"/>
<path d="M0 0 C-0.36 2.7 -0.68 3.74 -2.85 5.48 C-4.9 6.66 -6.95 7.83 -9 9 C-4.38 9 0.24 9 5 9 C5 9.66 5 10.32 5 11 C-1.88 13.62 -8.72 13.18 -16 13 C-16 11.68 -16 10.36 -16 9 C-15.01 9 -14.02 9 -13 9 C-12.96 8.42 -12.92 7.84 -12.88 7.25 C-11.54 3.81 -9.14 2.78 -6 1 C-3.81 0.27 -2.29 0 0 0 Z " fill="#171811" transform="translate(18,153)"/>
<path d="M0 0 C5.9 -0.24 11.23 0.66 17 1.88 C17.86 2.05 18.73 2.22 19.62 2.4 C24.48 3.4 29.24 4.57 34 6 C33.67 7.32 33.34 8.64 33 10 C13 8 13 8 9 4 C6.84 3.37 6.84 3.37 4.38 2.88 C3.97 2.79 3.97 2.79 1.9 2.37 C1.27 2.25 0.65 2.12 0 2 C0 1.34 0 0.68 0 0 Z " fill="#190F0B" transform="translate(176,198)"/>
<path d="M0 0 C0.66 0.33 1.32 0.66 2 1 C2.45 7.43 1.82 10.74 -2 16 C-7.33 19.93 -12.6 19.84 -19 19 C-22.25 17 -22.25 17 -24 15 C-23.67 14.01 -23.34 13.02 -23 12 C-18.25 13.88 -18.25 13.88 -16 15 C-11.81 15.4 -9.47 15.24 -5.69 13.31 C-1.28 9.52 -0.78 5.61 0 0 Z " fill="#E7E7E5" transform="translate(137,99)"/>
<path d="M0 0 C-1.42 3.57 -2.89 4.83 -6.28 6.58 C-7.12 7.02 -7.96 7.45 -8.83 7.91 C-9.71 8.35 -10.59 8.79 -11.5 9.25 C-12.38 9.71 -13.26 10.17 -14.17 10.64 C-20.7 14 -20.7 14 -23 14 C-23 13.34 -23 12.68 -23 12 C-24.98 12.33 -26.96 12.66 -29 13 C-25.37 10.01 -21.37 8.02 -17.19 5.94 C-16.84 5.76 -16.84 5.76 -15.11 4.87 C-5.37 0 -5.37 0 0 0 Z " fill="#3E4039" transform="translate(57,87)"/>
<path d="M0 0 C0.31 0.16 0.31 0.16 1.89 0.96 C2.58 1.31 3.27 1.66 3.98 2.02 C4.34 2.2 4.34 2.2 6.14 3.12 C6.85 3.48 7.56 3.84 8.3 4.21 C9.63 4.89 10.95 5.56 12.28 6.24 C14.23 7.23 16.18 8.21 18.14 9.18 C18.14 9.84 18.14 10.5 18.14 11.18 C12.07 11.66 8.28 10.26 2.95 7.43 C2.26 7.09 1.56 6.74 0.84 6.38 C-2.99 4.41 -5.99 2.48 -8.86 -0.82 C-5.17 -2.05 -3.48 -1.53 0 0 Z " fill="#332B29" transform="translate(156.859375,187.816162109375)"/>
<path d="M0 0 C3.37 0.48 5.42 1.27 7.56 3.97 C11.2 9.95 14.69 16.38 17 23 C16.67 23.66 16.34 24.32 16 25 C15.01 24.34 14.02 23.68 13 23 C12.67 23.66 12.34 24.32 12 25 C11.8 24.35 11.61 23.69 11.41 23.02 C9.11 16.01 5.88 10.43 1.61 4.43 C0 2 0 2 0 0 Z " fill="#313535" transform="translate(178,66)"/>
<path d="M0 0 C0.62 0.66 1.24 1.32 1.88 2 C5.22 5.36 8.96 8.22 12.7 11.13 C14.6 12.67 16.32 14.23 18 16 C14.68 17.02 11.82 17.04 8.36 16.88 C7.82 16.85 7.82 16.85 5.12 16.73 C4.01 16.68 2.89 16.62 1.75 16.56 C0.62 16.51 -0.5 16.46 -1.66 16.4 C-4.44 16.27 -7.22 16.14 -10 16 C-10 15.67 -10 15.34 -10 15 C-3.73 14.67 2.54 14.34 9 14 C9 13.34 9 12.68 9 12 C8.44 11.77 7.89 11.55 7.31 11.31 C4.27 9.59 2.24 7.68 0 5 C-0.31 2.19 -0.31 2.19 0 0 Z " fill="#1B1414" transform="translate(134,170)"/>
<path d="M0 0 C0.56 0.72 1.11 1.44 1.69 2.19 C7.49 9.25 7.49 9.25 11 11 C11 11.66 11 12.32 11 13 C7.13 13.03 3.25 13.05 -0.62 13.06 C-1.17 13.07 -1.17 13.07 -3.94 13.09 C-4.47 13.09 -4.47 13.09 -7.16 13.1 C-8.14 13.1 -9.11 13.11 -10.12 13.11 C-13.15 12.99 -16.02 12.56 -19 12 C-19 11.67 -19 11.34 -19 11 C-13.72 11 -8.44 11 -3 11 C-2.01 7.37 -1.02 3.74 0 0 Z " fill="#5EA3C5" transform="translate(132,171)"/>
<path d="M0 0 C0.99 0.33 1.98 0.66 3 1 C2.86 1.28 2.86 1.28 2.12 2.69 C1 5 1 5 0 7.62 C-1 10 -1 10 -3 12 C-3.99 12 -4.98 12 -6 12 C-6.33 10.68 -6.66 9.36 -7 8 C-7.66 8.99 -7.66 8.99 -11 14 C-12.32 13.67 -13.64 13.34 -15 13 C-12.69 10.69 -10.38 8.38 -8 6 C-8.33 5.34 -8.66 4.68 -9 4 C-8.34 3.01 -7.68 2.02 -7 1 C-6.22 1.21 -5.43 1.41 -4.62 1.62 C-3.76 1.75 -2.89 1.87 -2 2 C-1.34 1.34 -0.68 0.68 0 0 Z " fill="#416E87" transform="translate(123,63)"/>
<path d="M0 0 C-0.66 0.66 -1.32 1.32 -2 2 C-1.01 3.98 -0.02 5.96 1 8 C-2.96 7.67 -6.92 7.34 -11 7 C-10.67 7.99 -10.34 8.98 -10 10 C-12.97 9.01 -15.94 8.02 -19 7 C-17.68 6.67 -16.36 6.34 -15 6 C-14.67 5.67 -14.34 5.34 -14 5 C-14.33 4.34 -14.66 3.68 -15 3 C-12.88 2.3 -10.75 1.62 -8.62 0.94 C-8.03 0.75 -8.03 0.75 -5.04 -0.22 C-2 -1 -2 -1 0 0 Z " fill="#A1C83F" transform="translate(23,107)"/>
<path d="M0 0 C0.35 0.09 0.35 0.09 2.1 0.52 C4.07 1 6.03 1.5 8 2 C7.01 2.33 6.02 2.66 5 3 C5 3.66 5 4.32 5 5 C7.97 5.66 10.94 6.32 14 7 C9.26 8.19 6.39 7.13 1.94 5.62 C1.22 5.39 0.5 5.16 -0.24 4.91 C-2.17 4.29 -4.08 3.64 -6 3 C-6.99 2.67 -7.98 2.34 -9 2 C-9.12 2.8 -9.25 3.61 -9.38 4.44 C-9.58 5.28 -9.79 6.13 -10 7 C-10.33 7.16 -10.33 7.16 -12 8 C-12.33 5.69 -12.66 3.38 -13 1 C-11.67 0.67 -10.33 0.33 -9 0 C-8.36 -0.21 -7.72 -0.41 -7.06 -0.62 C-4.4 -1.11 -2.63 -0.66 0 0 Z " fill="#636562" transform="translate(98,178)"/>
<path d="M0 0 C0.33 0 0.66 0 1 0 C1.18 4.15 1.28 8.29 1.38 12.44 C1.4 13.02 1.4 13.02 1.53 15.97 C1.66 23.98 0.44 29 -5 35 C-7.88 37.56 -7.88 37.56 -10 39 C-9.45 35.11 -8.37 32.72 -6.06 29.56 C-1.32 23.05 -0.66 16.96 -0.38 9.12 C-0.34 8.25 -0.3 7.37 -0.26 6.46 C-0.16 4.31 -0.08 2.15 0 0 Z " fill="#1B1618" transform="translate(153,113)"/>
<path d="M0 0 C5.4 0.34 9.18 3.43 13 7 C15.45 10.1 16.91 12.93 17.25 16.94 C17.17 17.62 17.09 18.3 17 19 C16.01 18.67 15.02 18.34 14 18 C13.34 16.31 12.67 14.61 12.01 12.91 C9.51 8.18 4.73 5.22 0 3 C0 2.01 0 1.02 0 0 Z " fill="#33140E" transform="translate(175,140)"/>
<path d="M0 0 C3.72 0.51 6.73 1.12 10 3 C10 3.66 10 4.32 10 5 C1.75 5 -6.5 5 -15 5 C-15 4.34 -15 3.68 -15 3 C-16.32 2.67 -17.64 2.34 -19 2 C-12.73 2 -6.46 2 0 2 C0 1.34 0 0.68 0 0 Z " fill="#140A07" transform="translate(224,203)"/>
<path d="M0 0 C7.25 0.82 12.29 3.31 17 9 C17.72 11.23 17.72 11.23 18 13 C14.04 13 12.7 11.55 9.56 9.19 C8.62 8.48 7.67 7.77 6.69 7.04 C5.8 6.37 4.92 5.69 4 5 C3.23 4.46 2.45 3.92 1.65 3.36 C1.11 2.91 0.56 2.46 0 2 C0 1.34 0 0.68 0 0 Z " fill="#131A1E" transform="translate(160,52)"/>
<path d="M0 0 C0 0.99 0 1.98 0 3 C-4.68 7.46 -8.26 9.73 -14.81 10.38 C-20.16 10.24 -24.86 8.02 -28.73 4.36 C-29.15 3.91 -29.57 3.46 -30 3 C-29.67 2.34 -29.34 1.68 -29 1 C-28.28 1.78 -27.56 2.57 -26.81 3.38 C-22.11 7.39 -15.92 7.41 -10 8 C-10 7.34 -10 6.68 -10 6 C-12.97 6 -15.94 6 -19 6 C-19 5.67 -19 5.34 -19 5 C-17.96 4.97 -16.93 4.95 -15.86 4.92 C-14.49 4.87 -13.12 4.81 -11.75 4.75 C-11.07 4.74 -10.39 4.72 -9.68 4.71 C-6.13 4.53 -4.3 4.25 -1.52 1.95 C-1.02 1.31 -0.52 0.66 0 0 Z " fill="#7F3F2F" transform="translate(139,113)"/>
<path d="M0 0 C1.32 0 2.64 0 4 0 C4.69 2.25 4.69 2.25 5 5 C3.56 7.12 3.56 7.12 2 9 C2 9.99 2 10.98 2 12 C-0.31 12 -2.62 12 -5 12 C-6 9 -6 9 -4.93 6.74 C-4.39 5.94 -3.86 5.14 -3.31 4.31 C-2.79 3.5 -2.27 2.7 -1.74 1.86 C-1.16 1.25 -0.59 0.63 0 0 Z " fill="#365A71" transform="translate(129,63)"/>
<path d="M0 0 C0.33 0 0.66 0 1 0 C1.09 0.58 1.17 1.16 1.26 1.76 C2.31 7.6 3.74 10.84 8 15 C10.92 16.75 13.37 17.33 16.75 17.62 C17.55 17.7 18.35 17.77 19.17 17.85 C19.78 17.9 20.38 17.95 21 18 C21 18.66 21 19.32 21 20 C14.03 20.5 9.69 20.21 4 16 C0.91 12.83 -0.67 10.44 -1 6 C-0.56 2.69 -0.56 2.69 0 0 Z " fill="#18110E" transform="translate(108,101)"/>
<path d="M0 0 C0.48 0.01 0.48 0.01 2.94 0.06 C2.94 3.36 2.94 6.66 2.94 10.06 C2.28 10.06 1.62 10.06 0.94 10.06 C0.94 8.08 0.94 6.1 0.94 4.06 C0.28 4.06 -0.38 4.06 -1.06 4.06 C-1.31 4.78 -1.56 5.51 -1.81 6.25 C-3.17 9.31 -4.89 11.53 -7.06 14.06 C-8.38 13.73 -9.7 13.4 -11.06 13.06 C-10.11 11.72 -9.15 10.39 -8.19 9.06 C-7.65 8.32 -7.12 7.58 -6.57 6.81 C-6.07 6.23 -5.58 5.66 -5.06 5.06 C-4.4 5.06 -3.74 5.06 -3.06 5.06 C-3.16 4.74 -3.16 4.74 -3.62 3.12 C-3.77 2.44 -3.91 1.76 -4.06 1.06 C-3.06 0.06 -3.06 0.06 0 0 Z " fill="#0A0C07" transform="translate(57.0625,111.9375)"/>
<path d="M0 0 C-1 3 -1 3 -3.41 4.35 C-9.73 6.95 -15.16 8.66 -22 9 C-21.01 8.67 -20.02 8.34 -19 8 C-19 7.34 -19 6.68 -19 6 C-18.01 6 -17.02 6 -16 6 C-16 5.34 -16 4.68 -16 4 C-10.71 1.9 -5.78 0 0 0 Z " fill="#2E2F2B" transform="translate(34,99)"/>
<path d="M0 0 C0.66 0 1.32 0 2 0 C2.59 7.57 0.43 13.88 -2 21 C-2.33 21 -2.66 21 -3 21 C-2.67 16.71 -2.34 12.42 -2 8 C-3.65 8 -5.3 8 -7 8 C-6.02 6.85 -5.04 5.71 -4.06 4.56 C-3.52 3.92 -2.97 3.29 -2.41 2.63 C-1.63 1.73 -0.84 0.84 0 0 Z " fill="#10120A" transform="translate(56,141)"/>
<path d="M0 0 C0.98 3.05 0.98 4.95 0 8 C-0.99 8 -1.98 8 -3 8 C-3.66 9.32 -4.32 10.64 -5 12 C-2.03 12 0.94 12 4 12 C0.74 15.26 -3.41 15.93 -7.94 16.12 C-8.62 16.08 -9.3 16.04 -10 16 C-9.5 11.62 -8.02 9.2 -5 6 C-4.34 6 -3.68 6 -3 6 C-2.69 5.2 -2.38 4.39 -2.06 3.56 C-1 1 -1 1 0 0 Z " fill="#4E4E4C" transform="translate(41,179)"/>
<path d="M0 0 C0 0.33 0 0.66 0 1 C-6.27 1.66 -12.54 2.32 -19 3 C-18.34 3.66 -17.68 4.32 -17 5 C-20.3 5.66 -23.6 6.32 -27 7 C-27 6.67 -27 6.34 -27 6 C-27.99 5.84 -27.99 5.84 -33 5 C-23.35 -1.43 -11.09 -0.33 0 0 Z " fill="#5E5E5E" transform="translate(139,43)"/>
<path d="M0 0 C2.31 1.65 4.62 3.3 7 5 C6.09 6.13 5.17 7.26 4.25 8.38 C3.74 9 3.23 9.63 2.7 10.27 C0.92 12.08 -0.68 13 -3 14 C-2.69 11.85 -2.38 9.71 -2.06 7.56 C-1.89 6.37 -1.71 5.17 -1.54 3.94 C-1 1 -1 1 0 0 Z " fill="#9FC93C" transform="translate(73,183)"/>
<path d="M0 0 C2.43 4.1 2.32 7.87 2.46 12.54 C2.64 13.35 2.82 14.16 3 15 C4.96 16.14 4.96 16.14 7 17 C9.18 22.34 9.23 27.29 9 33 C8.67 33 8.34 33 8 33 C7.34 29.04 6.68 25.08 6 21 C5.67 23.97 5.34 26.94 5 30 C4.67 30 4.34 30 4 30 C3.94 29.3 3.88 28.6 3.82 27.88 C3.73 26.97 3.65 26.06 3.56 25.12 C3.52 24.67 3.52 24.67 3.32 22.38 C3 20 3 20 2 18 C2.99 18 3.98 18 5 18 C4.68 17.82 4.68 17.82 3.06 16.94 C0.1 14.15 0.26 12 0 8 C-0.06 5.33 -0.05 2.67 0 0 Z " fill="#6C625C" transform="translate(195,92)"/>
<path d="M0 0 C-0.33 0.66 -0.66 1.32 -1 2 C-5.29 1.84 -5.29 1.84 -27 1 C-21.71 -4.29 -5.99 -3.76 0 0 Z " fill="#121212" transform="translate(145,46)"/>
<path d="M0 0 C0.33 0 0.66 0 1 0 C1.66 4.29 2.32 8.58 3 13 C3.33 13 3.66 13 4 13 C3.67 15.97 3.34 18.94 3 22 C2.34 21.67 1.68 21.34 1 21 C0.01 23.97 -0.98 26.94 -2 30 C-2.66 29.67 -3.32 29.34 -4 29 C-3.89 28.62 -3.89 28.62 -3.34 26.68 C-1.31 18.86 -0.75 11.93 -0.99 3.92 C-0.99 3.44 -0.99 3.44 -1 1 C-0.67 0.67 -0.34 0.34 0 0 Z " fill="#686963" transform="translate(68,172)"/>
<path d="M0 0 C0.33 0 0.66 0 1 0 C1.56 6.76 1.52 11.74 -2.58 17.34 C-4.6 19.7 -6.28 21.45 -9 23 C-12.81 23.25 -12.81 23.25 -16 23 C-14.04 21.7 -12.06 20.42 -10.06 19.19 C-2.89 14.07 -1.75 8.31 0 0 Z " fill="#161416" transform="translate(144,100)"/>
<path d="M0 0 C0.33 0.17 0.33 0.17 2 1 C2.52 2.99 2.52 2.99 2.89 5.59 C3.02 6.52 3.15 7.45 3.29 8.41 C3.42 9.39 3.55 10.37 3.69 11.38 C3.83 12.35 3.97 13.32 4.12 14.32 C5.13 21.61 5.13 21.61 4 25 C-0.24 20.76 -0.11 14.78 -0.14 9.08 C-0.12 6.05 -0.07 3.03 0 0 Z " fill="#1B1513" transform="translate(200,112)"/>
<path d="M0 0 C1.32 0.33 2.64 0.66 4 1 C4 1.99 4 2.98 4 4 C5.32 3.34 6.64 2.68 8 2 C6.51 5.8 4.24 7.61 1 10 C1 9.01 1 8.02 1 7 C0.67 7.5 0.67 7.5 -1 10 C-1.99 9.67 -2.98 9.34 -4 9 C-4.33 8.34 -4.66 7.68 -5 7 C-3.35 4.69 -1.7 2.38 0 0 Z " fill="#5185A4" transform="translate(135,65)"/>
<path d="M0 0 C1.32 0 2.64 0 4 0 C4 0.99 4 1.98 4 3 C5.16 2.83 5.16 2.83 11 2 C11 2.99 11 3.98 11 5 C13.64 5.33 16.28 5.66 19 6 C19 6.66 19 7.32 19 8 C16.73 8.13 14.46 8.23 12.19 8.31 C11.56 8.34 11.56 8.34 8.36 8.49 C5 8 5 8 3.05 5.61 C2 3 2 3 2 1 C1.34 0.67 0.68 0.34 0 0 Z " fill="#A1C73F" transform="translate(19,108)"/>
<path d="M0 0 C3.68 0.6 7.35 1.25 11 2 C10.67 3.32 10.34 4.64 10 6 C2.54 5.25 -4.69 3.63 -12 2 C-12 1.67 -12 1.34 -12 1 C-3.43 0.86 -3.43 0.86 0 2 C0 1.34 0 0.68 0 0 Z " fill="#534D48" transform="translate(199,202)"/>
<path d="M0 0 C2.46 0.45 4.92 0.91 7.38 1.38 C8.07 1.5 8.77 1.63 9.49 1.76 C14.77 2.77 14.77 2.77 17 5 C16.34 5 15.68 5 15 5 C15 5.66 15 6.32 15 7 C8.4 5.68 1.8 4.36 -5 3 C-5 2.67 -5 2.34 -5 2 C-3.35 1.67 -1.7 1.34 0 1 C0 0.67 0 0.34 0 0 Z " fill="#33140D" transform="translate(176,181)"/>
<path d="M0 0 C0.33 0 0.66 0 1 0 C1 1.65 1 3.3 1 5 C1.99 4.67 2.98 4.34 4 4 C4 4.66 4 5.32 4 6 C3.34 6 2.68 6 2 6 C1.67 7.32 1.34 8.64 1 10 C0.34 10 -0.32 10 -1 10 C-1 10.99 -1 11.98 -1 13 C-1.99 13.33 -2.98 13.66 -4 14 C-4.66 13.67 -5.32 13.34 -6 13 C-6 11.68 -6 10.36 -6 9 C-5.34 9 -4.68 9 -4 9 C-3.8 8.43 -3.59 7.87 -3.38 7.29 C-3.11 6.55 -2.84 5.82 -2.56 5.06 C-2.3 4.33 -2.03 3.6 -1.75 2.85 C-1 1 -1 1 0 0 Z " fill="#2C2D28" transform="translate(69,192)"/>
<path d="M0 0 C0 0.99 0 1.98 0 3 C0.66 3.66 1.32 4.32 2 5 C0.79 6.35 -0.45 7.68 -1.69 9 C-2.03 9.37 -2.03 9.37 -3.76 11.25 C-6.41 13.32 -7.72 13.37 -11 13 C-7.61 8.31 -4.22 3.97 0 0 Z " fill="#2B2D24" transform="translate(47,122)"/>
<path d="M0 0 C0.33 0.99 0.66 1.98 1 3 C1.99 2.01 2.98 1.02 4 0 C4.66 0.33 5.32 0.66 6 1 C5.67 1.5 5.67 1.5 4 4 C4.62 3.81 5.24 3.63 5.88 3.44 C8 3 8 3 10 4 C8.81 5.56 8.81 5.56 7 7 C4.31 6.69 4.31 6.69 2 6 C2 6.66 2 7.32 2 8 C-3.61 7.67 -9.22 7.34 -15 7 C-15 6.67 -15 6.34 -15 6 C-12.86 5.83 -12.86 5.83 -2 5 C-1.34 3.35 -0.68 1.7 0 0 Z " fill="#1D323D" transform="translate(136,71)"/>
<path d="M0 0 C0.71 1.7 0.71 1.7 1 4 C-0.36 6.36 -0.36 6.36 -2.31 8.75 C-2.63 9.15 -2.63 9.15 -4.24 11.17 C-4.82 11.78 -5.4 12.38 -6 13 C-6.66 13 -7.32 13 -8 13 C-7.67 12.38 -7.34 11.76 -7 11.12 C-6 9 -6 9 -6 7 C-7.98 9.64 -9.96 12.28 -12 15 C-12.66 14.67 -13.32 14.34 -14 14 C-12.78 12.39 -11.55 10.79 -10.31 9.19 C-9.63 8.29 -8.94 7.4 -8.24 6.48 C-5.99 3.99 -3.94 2.59 -1 1 C-0.67 0.67 -0.34 0.34 0 0 Z " fill="#426D84" transform="translate(109,67)"/>
<path d="M0 0 C1.94 0.51 1.94 0.51 4 2 C4.52 4.71 4.84 7.14 5 9.88 C5.45 17.34 5.45 17.34 8.06 20.51 C8.7 21 9.34 21.49 10 22 C7.69 21.34 5.38 20.68 3 20 C2.88 18.93 2.75 17.86 2.62 16.75 C1.93 11.14 0.96 5.57 0 0 Z " fill="#0F1111" transform="translate(191,89)"/>
<path d="M0 0 C0.33 0 0.66 0 1 0 C1 5.61 1 11.22 1 17 C-4.51 19.75 -6.23 20.54 -12 20 C-12.99 19.34 -13.98 18.68 -15 18 C-13.76 18.04 -12.53 18.08 -11.25 18.12 C-7.98 18.14 -5.79 17.86 -3 16 C-3 15.01 -3 14.02 -3 13 C-2.34 12.01 -1.68 11.02 -1 10 C-0.59 7.52 -0.59 7.52 -0.38 4.81 C-0.3 3.91 -0.23 3.01 -0.15 2.08 C-0.1 1.39 -0.05 0.71 0 0 Z " fill="#614C44" transform="translate(252,193)"/>
<path d="M0 0 C4.44 1.4 6.98 3.48 10 7 C10.81 9.31 10.81 9.31 11 11 C10.67 11 10.34 11 10 11 C9.67 12.65 9.34 14.3 9 16 C8.67 16 8.34 16 8 16 C7.91 15.39 7.83 14.77 7.74 14.14 C6.59 7.54 6.59 7.54 3.81 5 C0.54 3.84 -2.55 3.34 -6 3 C-6 2.67 -6 2.34 -6 2 C-4.02 2 -2.04 2 0 2 C0 1.34 0 0.68 0 0 Z " fill="#C5C4C1" transform="translate(128,89)"/>
<path d="M0 0 C0.66 0.99 1.32 1.98 2 3 C1.34 3 0.68 3 0 3 C0 4.65 0 6.3 0 8 C1.32 8.66 2.64 9.32 4 10 C2.38 10.84 0.75 11.67 -0.88 12.5 C-1.78 12.96 -2.68 13.43 -3.62 13.91 C-6 15 -6 15 -8 15 C-6.38 11.7 -4.64 8.47 -2.88 5.25 C-2.34 4.27 -1.8 3.28 -1.24 2.27 C-0.83 1.52 -0.42 0.77 0 0 Z " fill="#94BA3A" transform="translate(48,174)"/>
<path d="M0 0 C0.99 0.33 1.98 0.66 3 1 C3.05 3.92 3.09 6.83 3.12 9.75 C3.13 10.16 3.13 10.16 3.18 12.25 C3.18 13.05 3.19 13.85 3.2 14.67 C3.21 15.41 3.22 16.14 3.23 16.89 C3 19 3 19 1 23 C1 16.73 1 10.46 1 4 C0.01 4 -0.98 4 -2 4 C-1.34 2.68 -0.68 1.36 0 0 Z " fill="#090A07" transform="translate(69,166)"/>
<path d="M0 0 C0 0.99 0 1.98 0 3 C-8.91 2.67 -17.82 2.34 -27 2 C-27 1.67 -27 1.34 -27 1 C-26.49 0.97 -26.49 0.97 -23.89 0.82 C-22.53 0.73 -21.17 0.65 -19.81 0.56 C-19.14 0.52 -18.47 0.48 -17.77 0.44 C-14.88 0.26 -12.09 0.02 -9.25 -0.56 C-6.04 -1.19 -3.19 -0.56 0 0 Z " fill="#0E0A09" transform="translate(151,184)"/>
<path d="M0 0 C1.32 0.66 2.64 1.32 4 2 C4 2.66 4 3.32 4 4 C4.66 4.33 5.32 4.66 6 5 C5.67 5.99 5.34 6.98 5 8 C4.3 7.86 3.6 7.71 2.88 7.56 C-0.08 6.99 -3.03 6.48 -6 6 C-4 4 -2 2 0 0 Z " fill="#63B4DC" transform="translate(92,59)"/>
<path d="M0 0 C3.9 0.58 6.13 2.36 9 5 C12 9.34 12 9.34 12 12 C8.96 11.67 8.01 11.01 5.86 8.75 C5.16 7.84 4.47 6.94 3.75 6 C3.04 5.09 2.34 4.19 1.61 3.25 C0 1 0 1 0 0 Z " fill="#1E1310" transform="translate(211,151)"/>
<path d="M0 0 C0.66 0.33 1.32 0.66 2 1 C2.45 7.46 1.59 10.61 -2 16 C-3.65 15.67 -5.3 15.34 -7 15 C-6.38 14.44 -5.76 13.89 -5.12 13.31 C-1.47 9.34 -0.73 5.25 0 0 Z " fill="#D3D3CF" transform="translate(137,99)"/>
<path d="M0 0 C0.33 1.32 0.66 2.64 1 4 C0.01 4.66 -0.98 5.32 -2 6 C-2.5 7.01 -2.99 8.02 -3.5 9.06 C-5 12 -5 12 -8 13 C-8.69 15.06 -8.69 15.06 -9 17 C-9.66 17 -10.32 17 -11 17 C-9.67 12.09 -7.67 8.98 -4.38 5.12 C-3.56 4.16 -2.74 3.19 -1.9 2.2 C-1.27 1.47 -0.65 0.75 0 0 Z " fill="#5FA9CE" transform="translate(82,68)"/>
<path d="M0 0 C0.66 0.33 1.32 0.66 2 1 C1.67 1.66 1.34 2.32 1 3 C1.99 3 2.98 3 4 3 C2.38 6.24 -0.68 7.72 -4 9 C-6.44 8.25 -6.44 8.25 -8 7 C-5.42 4.35 -3.08 2.06 0 0 Z " fill="#4F524A" transform="translate(65,78)"/>
<path d="M0 0 C0.66 0 1.32 0 2 0 C2 0.99 2 1.98 2 3 C2.56 2.67 3.11 2.34 3.69 2 C6.3 0.87 8.18 0.84 11 1 C8.64 3.53 7.34 4.89 4 6 C1.67 6.04 -0.67 6.04 -3 6 C-2.01 4.02 -1.02 2.04 0 0 Z " fill="#13150D" transform="translate(38,186)"/>
<path d="M0 0 C1.88 3.27 2.49 6.28 3 10 C2.34 10 1.68 10 1 10 C0.67 11.32 0.34 12.64 0 14 C-0.33 14 -0.66 14 -1 14 C-1.99 14.33 -2.98 14.66 -4 15 C-3.53 12.69 -3.05 10.37 -2.56 8.06 C-2.3 6.77 -2.03 5.49 -1.75 4.16 C-1 1 -1 1 0 0 Z " fill="#96BE3C" transform="translate(59,143)"/>
<path d="M0 0 C3.61 1.28 4.26 2.32 5.94 5.69 C6.6 6.02 7.26 6.35 7.94 6.69 C7.94 7.35 7.94 8.01 7.94 8.69 C2.68 7.28 -0.78 4.94 -5.06 1.69 C-2.06 -0.31 -2.06 -0.31 0 0 Z " fill="#484340" transform="translate(153.0625,186.3125)"/>
<path d="M0 0 C0.7 1.77 0.7 1.77 1 4 C-0.33 5.92 -0.33 5.92 -2.25 7.75 C-2.56 8.06 -2.56 8.06 -4.14 9.61 C-6 11 -6 11 -9 11 C-7.6 5.71 -4.15 3.23 0 0 Z " fill="#1E1819" transform="translate(142,149)"/>
<path d="M0 0 C0.33 1.32 0.66 2.64 1 4 C-1.91 4.97 -3.97 5.2 -7 5.25 C-7.87 5.28 -8.73 5.3 -9.62 5.33 C-12.43 4.94 -13.26 4.17 -15 2 C-13.06 1.66 -11.13 1.33 -9.19 1 C-8.65 0.91 -8.65 0.91 -5.92 0.44 C-3 0 -3 0 0 0 Z " fill="#202417" transform="translate(53,113)"/>
<path d="M0 0 C1.32 0 2.64 0 4 0 C4.38 1.99 4.71 3.99 5 6 C4 7 4 7 1.44 7.06 C1.04 7.05 1.04 7.05 -1 7 C-1.62 4.62 -1.62 4.62 -2 2 C-1.34 1.34 -0.68 0.68 0 0 Z " fill="#E4E3E0" transform="translate(128,95)"/>
<path d="M0 0 C0.99 0.33 1.98 0.66 3 1 C3 1.99 3 2.98 3 4 C2.34 4 1.68 4 1 4 C-0 6 -0.49 7.83 -1 10 C-2.65 9.67 -4.3 9.34 -6 9 C-5.75 6.62 -5.75 6.62 -5 4 C-3 2.81 -3 2.81 -1 2 C-0.67 1.34 -0.34 0.68 0 0 Z " fill="#AAD440" transform="translate(53,173)"/>
<path d="M0 0 C2.33 2.14 3.79 4.17 5.19 7 C5.53 7.68 5.88 8.36 6.23 9.06 C7 11 7 11 7 14 C6.01 14 5.02 14 4 14 C-0.59 4.59 -0.59 4.59 0 0 Z " fill="#141D16" transform="translate(61,143)"/>
<path d="M0 0 C-1.56 3.82 -4.04 6.19 -7 9 C-8.32 8.34 -9.64 7.68 -11 7 C-10.07 6.01 -9.13 5.04 -8.19 4.06 C-7.67 3.52 -7.14 2.97 -6.61 2.41 C-4.53 0.59 -2.76 0 0 0 Z " fill="#222425" transform="translate(82,67)"/>
<path d="M0 0 C0 0.66 0 1.32 0 2 C-3.67 2 -7.33 2 -11 2 C-10.67 1.01 -10.34 0.02 -10 -1 C-10.99 -1.33 -11.98 -1.66 -13 -2 C-8.14 -3.68 -4.21 -2.81 0 0 Z " fill="#10181D" transform="translate(143,64)"/>
<path d="M0 0 C-0.68 1.92 -0.68 1.92 -2 4 C-4.38 4.83 -4.38 4.83 -7.12 5.25 C-8.04 5.4 -8.95 5.55 -9.88 5.7 C-10.58 5.8 -11.28 5.9 -12 6 C-12.33 5.01 -12.66 4.02 -13 3 C-11.59 2.49 -10.17 1.99 -8.75 1.5 C-7.96 1.22 -7.17 0.94 -6.36 0.66 C-4 0 -4 0 0 0 Z " fill="#1B2010" transform="translate(38,157)"/>
<path d="M0 0 C2.31 0 4.62 0 7 0 C7 0.99 7 1.98 7 3 C7.99 3.66 8.98 4.32 10 5 C6.19 6.47 3.71 5.43 0 4 C0 2.68 0 1.36 0 0 Z " fill="#12130E" transform="translate(2,108)"/>
<path d="M0 0 C0.99 0.33 1.98 0.66 3 1 C3 4.3 3 7.6 3 11 C2.34 10.34 1.68 9.68 1 9 C0.01 11.31 -0.98 13.62 -2 16 C-3.27 12.19 -2.52 10.18 -1.56 6.31 C-1.28 5.13 -0.99 3.95 -0.69 2.74 C-0.46 1.83 -0.24 0.93 0 0 Z " fill="#533731" transform="translate(143,97)"/>
<path d="M0 0 C0 3.2 -0.74 5.09 -2 8 C-2.66 7.01 -3.32 6.02 -4 5 C-5.98 5.66 -7.96 6.32 -10 7 C-10 6.34 -10 5.68 -10 5 C-12.31 5.66 -14.62 6.32 -17 7 C-14.65 4.28 -12.38 3.19 -9 2 C-8.67 2.66 -8.34 3.32 -8 4 C-5.03 2.88 -2.67 1.78 0 0 Z " fill="#768A47" transform="translate(67,82)"/>
<path d="M0 0 C-1.56 3.82 -3.92 6.29 -7 9 C-7.99 9 -8.98 9 -10 9 C-9.46 5.2 -7.89 3.46 -5 1 C-2 0 -2 0 0 0 Z " fill="#1C1C18" transform="translate(40,134)"/>
<path d="M0 0 C-2.38 2.75 -4.69 3.89 -8.06 5.19 C-8.94 5.53 -9.82 5.88 -10.72 6.23 C-13 7 -13 7 -15 7 C-15 6.34 -15 5.68 -15 5 C-10.24 0.92 -6.19 -0.64 0 0 Z " fill="#0F1215" transform="translate(113,48)"/>
<path d="M0 0 C0.66 0.33 1.32 0.66 2 1 C1.68 1.63 1.37 2.27 1.04 2.92 C-0.36 7.05 -0.46 10.98 -0.62 15.31 C-0.66 16.15 -0.7 16.98 -0.74 17.85 C-0.84 19.9 -0.92 21.95 -1 24 C-1.33 24 -1.66 24 -2 24 C-2 18.39 -2 12.78 -2 7 C-2.66 7 -3.32 7 -4 7 C-2.93 4.08 -2.22 2.22 0 0 Z " fill="#492921" transform="translate(158,106)"/>
<path d="M0 0 C4.51 3.34 6.68 5.33 8 11 C7.34 11 6.68 11 6 11 C5.67 11.66 5.34 12.32 5 13 C4.59 11.95 4.18 10.9 3.75 9.81 C2.31 6.41 0.45 3.79 -2 1 C-1.34 0.67 -0.68 0.34 0 0 Z " fill="#1C1E21" transform="translate(137,86)"/>
<path d="M0 0 C6.5 0.52 12.66 1.47 19 3 C19 3.33 19 3.66 19 4 C12.36 4.21 6.47 3.51 0 2 C0 1.34 0 0.68 0 0 Z " fill="#0B0E0F" transform="translate(103,181)"/>
<path d="M0 0 C0.99 0 1.98 0 3 0 C2.69 0.71 2.39 1.41 2.07 2.14 C0.98 5.04 0.39 7.76 -0.12 10.81 C-0.29 11.79 -0.46 12.76 -0.63 13.77 C-0.69 14.14 -0.69 14.14 -1 16 C-1.66 16 -2.32 16 -3 16 C-2.89 13.9 -2.76 11.79 -2.62 9.69 C-2.56 8.52 -2.49 7.34 -2.41 6.14 C-2 3 -2 3 0 0 Z " fill="#0F0E0E" transform="translate(106,91)"/>
<path d="M0 0 C0.33 0.99 0.66 1.98 1 3 C-2.3 3.66 -5.6 4.32 -9 5 C-9.66 4.01 -10.32 3.02 -11 2 C-7.37 -0.33 -4.23 -0.16 0 0 Z " fill="#DDDDD9" transform="translate(127,88)"/>
<path d="M0 0 C0.66 0.33 1.32 0.66 2 1 C-3.75 5 -3.75 5 -6 5 C-5.67 5.99 -5.34 6.98 -5 8 C-6.32 8.33 -7.64 8.66 -9 9 C-9 8.34 -9 7.68 -9 7 C-10.32 7.33 -11.64 7.66 -13 8 C-10.62 5.33 -8.13 3.85 -4.94 2.25 C-4.06 1.8 -3.18 1.35 -2.28 0.89 C-1.53 0.6 -0.77 0.3 0 0 Z " fill="#525453" transform="translate(104,48)"/>
<path d="M0 0 C0.33 0 0.66 0 1 0 C0.67 4.29 0.34 8.58 0 13 C-0.66 13 -1.32 13 -2 13 C-2.12 13.64 -2.25 14.28 -2.38 14.94 C-2.58 15.62 -2.79 16.3 -3 17 C-3.66 17.33 -4.32 17.66 -5 18 C-3.37 11.99 -1.73 5.98 0 0 Z " fill="#575956" transform="translate(53,149)"/>
<path d="M0 0 C0.33 0 0.66 0 1 0 C1.65 2.08 2.29 4.17 2.94 6.25 C3.12 6.83 3.12 6.83 4.03 9.77 C4.75 12.17 5.43 14.56 6 17 C5.34 17 4.68 17 4 17 C3.67 15.35 3.34 13.7 3 12 C2.34 12 1.68 12 1 12 C0.67 12.66 0.34 13.32 0 14 C0 9.33 0 4.67 0 0 Z " fill="#5A5551" transform="translate(204,126)"/>
<path d="M0 0 C0.33 0 0.66 0 1 0 C1 8.58 1 17.16 1 26 C0.01 25.67 -0.98 25.34 -2 25 C-1.85 24.21 -1.69 23.43 -1.54 22.62 C-0.87 18.12 -0.65 13.66 -0.44 9.12 C-0.39 8.25 -0.35 7.37 -0.31 6.46 C-0.2 4.31 -0.1 2.15 0 0 Z " fill="#243A46" transform="translate(153,113)"/>
<path d="M0 0 C4.71 0.48 8.67 0.97 13 3 C12.67 3.66 12.34 4.32 12 5 C3.43 4.14 3.43 4.14 0 2 C0 1.34 0 0.68 0 0 Z " fill="#131A1E" transform="translate(146,47)"/>
<path d="M0 0 C0.33 0 0.66 0 1 0 C1 1.65 1 3.3 1 5 C1.99 5.33 2.98 5.66 4 6 C2.38 7.71 0.71 9.37 -1 11 C-1.66 11 -2.32 11 -3 11 C-2.01 7.37 -1.02 3.74 0 0 Z " fill="#98BD39" transform="translate(54,159)"/>
<path d="M0 0 C-1.65 1.98 -3.3 3.96 -5 6 C-5.99 5.34 -6.98 4.68 -8 4 C-11.19 4.38 -11.19 4.38 -14 5 C-14.33 4.34 -14.66 3.68 -15 3 C-12.88 2.3 -10.75 1.62 -8.62 0.94 C-8.03 0.75 -8.03 0.75 -5.04 -0.22 C-2 -1 -2 -1 0 0 Z " fill="#8EB038" transform="translate(23,107)"/>
<path d="M0 0 C0.33 0 0.66 0 1 0 C1.33 3.63 1.66 7.26 2 11 C0.84 11.5 0.84 11.5 -5 14 C-5 12.68 -5 11.36 -5 10 C-2 9 -2 9 1 10 C0.67 9.34 0.34 8.68 0 8 C-0.13 5.33 -0.04 2.68 0 0 Z " fill="#5DA4C8" transform="translate(192,96)"/>
<path d="M0 0 C6.23 1.65 11.54 3.56 17 7 C16.67 7.16 16.67 7.16 15 8 C12.38 7.06 12.38 7.06 10 6 C9.67 6.66 9.34 7.32 9 8 C8.01 7.34 7.02 6.68 6 6 C6.66 5.67 7.32 5.34 8 5 C5.36 4.01 2.72 3.02 0 2 C0 1.34 0 0.68 0 0 Z " fill="#595A57" transform="translate(150,46)"/>
<path d="M0 0 C4.23 1.31 8.07 2.94 12 5 C12 5.33 12 5.66 12 6 C8.37 6 4.74 6 1 6 C2.32 5.67 3.64 5.34 5 5 C5 4.34 5 3.68 5 3 C3.68 3.33 2.36 3.66 1 4 C0.67 2.68 0.34 1.36 0 0 Z " fill="#CE5C39" transform="translate(213,200)"/>
<path d="M0 0 C10.56 0.78 10.56 0.78 15 3 C15 3.33 15 3.66 15 4 C9.16 4.35 5.15 4.17 0 1 C0 0.67 0 0.34 0 0 Z " fill="#160804" transform="translate(162,179)"/>
<path d="M0 0 C2.41 0.96 3.76 1.65 5.25 3.81 C6.11 6.32 6.15 8.36 6 11 C5.01 10.67 4.02 10.34 3 10 C1.25 6.51 0 3.93 0 0 Z " fill="#260E0A" transform="translate(186,148)"/>
<path d="M0 0 C1.78 3.06 2.24 5.24 2.2 8.77 C2.19 9.66 2.18 10.54 2.18 11.46 C2.16 12.38 2.14 13.3 2.12 14.25 C2.12 15.19 2.11 16.12 2.1 17.09 C2.07 19.39 2.04 21.7 2 24 C1.67 24 1.34 24 1 24 C0.96 22.8 0.93 21.59 0.89 20.35 C0.82 18.78 0.75 17.2 0.69 15.62 C0.68 15.23 0.68 15.23 0.62 13.22 C0.52 11.14 0.27 9.07 0 7 C-0.99 6.34 -1.98 5.68 -3 5 C-2.34 5 -1.68 5 -1 5 C-0.67 3.35 -0.34 1.7 0 0 Z " fill="#2D4442" transform="translate(59,106)"/>
<path d="M0 0 C0.66 0 1.32 0 2 0 C2 2.31 2 4.62 2 7 C1.67 7.16 1.67 7.16 0 8 C0 7.34 0 6.68 0 6 C-0.66 6 -1.32 6 -2 6 C-2.33 7.65 -2.66 9.3 -3 11 C-3.66 11 -4.32 11 -5 11 C-4.33 6.81 -2.14 3.6 0 0 Z " fill="#24271B" transform="translate(84,181)"/>
<path d="M0 0 C0.66 0.33 1.32 0.66 2 1 C1 4.69 0.31 5.81 -3 7.88 C-3.99 8.25 -4.98 8.62 -6 9 C-6.66 8.67 -7.32 8.34 -8 8 C-7.01 7.34 -6.02 6.68 -5 6 C-5.66 5.34 -6.32 4.68 -7 4 C-1.73 0.78 -1.73 0.78 0 0 Z " fill="#2F3227" transform="translate(53,182)"/>
<path d="M0 0 C0.12 0.62 0.25 1.24 0.38 1.88 C1 4 1 4 3 6 C1.51 6.5 1.51 6.5 -6 9 C-6.66 8.01 -7.32 7.02 -8 6 C-2.25 3 -2.25 3 0 3 C0 2.01 0 1.02 0 0 Z " fill="#1A1E22" transform="translate(194,104)"/>
<path d="M0 0 C1.32 0.66 2.64 1.32 4 2 C3.34 2.66 2.68 3.32 2 4 C2.66 4.66 3.32 5.32 4 6 C3.34 6 2.68 6 2 6 C1.67 6.99 1.34 7.98 1 9 C0 6 0 6 0 3 C-0.82 3.5 -0.82 3.5 -5 6 C-5.33 5.01 -5.66 4.02 -6 3 C-5 2 -5 2 -2.44 1.94 C-2.04 1.95 -2.04 1.95 0 2 C0 1.34 0 0.68 0 0 Z " fill="#1C2D36" transform="translate(143,64)"/>
<path d="M0 0 C0.99 0.19 1.98 0.37 3 0.56 C7.17 1.18 10.85 0.66 15 0 C10.1 3.27 5.87 4.28 0 4 C0.66 3.67 1.32 3.34 2 3 C2 2.34 2 1.68 2 1 C1.34 0.67 0.68 0.34 0 0 Z " fill="#54564F" transform="translate(21,161)"/>
<path d="M0 0 C-0.12 1.75 -0.12 1.75 -1 4 C-6.22 8 -6.22 8 -9 8 C-8.67 7.01 -8.34 6.02 -8 5 C-7.34 5 -6.68 5 -6 5 C-5.71 4.36 -5.42 3.72 -5.12 3.06 C-3.72 0.49 -2.92 0 0 0 Z " fill="#151A0D" transform="translate(18,153)"/>
<path d="M0 0 C0.33 0 0.66 0 1 0 C1.97 5.37 1.97 5.37 2 8 C0.56 10 0.56 10 -1 11 C-3 8 -3 8 -3 5 C-3.66 4.67 -4.32 4.34 -5 4 C-4.34 4 -3.68 4 -3 4 C-2.67 3.01 -2.34 2.02 -2 1 C-2 1.66 -2 2.32 -2 3 C-1.34 3 -0.68 3 0 3 C0 2.01 0 1.02 0 0 Z " fill="#304024" transform="translate(61,136)"/>
<path d="M0 0 C1.37 3.82 0.68 7.07 0 11 C0.99 11.33 1.98 11.66 3 12 C3.62 14.38 3.62 14.38 4 17 C3.34 17.66 2.68 18.32 2 19 C-0.79 13.53 -1.62 9.13 -1 3 C-0.67 2.01 -0.34 1.02 0 0 Z " fill="#223540" transform="translate(103,96)"/>
<path d="M0 0 C7.62 1.75 7.62 1.75 11 4 C10.67 4.66 10.34 5.32 10 6 C6.7 5.01 3.4 4.02 0 3 C0 2.01 0 1.02 0 0 Z " fill="#152127" transform="translate(138,77)"/>
<path d="M0 0 C-1.52 4.55 -5.17 6.5 -9 9 C-9.33 8.34 -9.66 7.68 -10 7 C-9.34 6.67 -8.68 6.34 -8 6 C-7.67 5.01 -7.34 4.02 -7 3 C-6.34 3 -5.68 3 -5 3 C-5 2.34 -5 1.68 -5 1 C-3 0 -3 0 0 0 Z " fill="#4B4A49" transform="translate(78,195)"/>
<path d="M0 0 C0 0.99 0 1.98 0 3 C-1.67 4.67 -3.33 6.33 -5 8 C-5 8.99 -5 9.98 -5 11 C-5.66 11 -6.32 11 -7 11 C-7 10.34 -7 9.68 -7 9 C-8.32 9.33 -9.64 9.66 -11 10 C-7.51 6.4 -3.89 3.17 0 0 Z " fill="#61625C" transform="translate(25,144)"/>
<path d="M0 0 C0.33 0 0.66 0 1 0 C2.14 4.98 3.22 9.94 4 15 C0.74 12.16 -0.69 10.35 -1 6 C-0.56 2.69 -0.56 2.69 0 0 Z " fill="#231C19" transform="translate(108,101)"/>
<path d="M0 0 C0.99 0.01 1.99 0.02 3.01 0.03 C3.39 0.03 3.39 0.03 5.31 0.06 C5.31 0.72 5.31 1.38 5.31 2.06 C0.69 2.39 -3.93 2.72 -8.69 3.06 C-8.69 2.4 -8.69 1.74 -8.69 1.06 C-5.54 0.01 -3.3 -0.04 0 0 Z " fill="#130B08" transform="translate(124.6875,85.9375)"/>
<path d="M0 0 C0.99 0.33 1.98 0.66 3 1 C3 5.29 3 9.58 3 14 C0.32 11.32 0.61 9.61 0.38 5.88 C0.3 4.78 0.23 3.68 0.15 2.55 C0.1 1.71 0.05 0.87 0 0 Z " fill="#0D0807" transform="translate(252,190)"/>
<path d="M0 0 C-0.39 2.8 -0.8 3.82 -2.94 5.75 C-5 7 -5 7 -7 7 C-6.67 5.02 -6.34 3.04 -6 1 C-3.92 0.45 -2.16 0 0 0 Z " fill="#41433E" transform="translate(60,180)"/>
<path d="M0 0 C0.66 1.32 1.32 2.64 2 4 C0.68 5.65 -0.64 7.3 -2 9 C-3.32 8.67 -4.64 8.34 -6 8 C-4.02 5.36 -2.04 2.72 0 0 Z " fill="#15180E" transform="translate(52,117)"/>
<path d="M0 0 C0.66 0.66 1.32 1.32 2 2 C2.99 1.67 3.98 1.34 5 1 C5 1.99 5 2.98 5 4 C2.75 5.75 2.75 5.75 0 7 C-2.31 6.69 -2.31 6.69 -4 6 C-3.53 5.38 -3.05 4.76 -2.56 4.12 C-1 2 -1 2 0 0 Z " fill="#4C84A2" transform="translate(142,69)"/>
<path d="M0 0 C-0.25 1.88 -0.25 1.88 -1 4 C-3.28 5.44 -5.43 6.14 -8 7 C-7.62 4.25 -7.19 3.18 -5.12 1.25 C-3 0 -3 0 0 0 Z " fill="#0D1217" transform="translate(107,67)"/>
<path d="M0 0 C1.32 0 2.64 0 4 0 C4 0.66 4 1.32 4 2 C4.66 2.33 5.32 2.66 6 3 C4.35 5.31 2.7 7.62 1 10 C0.34 9.67 -0.32 9.34 -1 9 C0.88 3.12 0.88 3.12 2 2 C1.34 1.34 0.68 0.68 0 0 Z " fill="#233B48" transform="translate(123,62)"/>
<path d="M0 0 C0 0.99 0 1.98 0 3 C2.64 3 5.28 3 8 3 C8 3.33 8 3.66 8 4 C3.38 4 -1.24 4 -6 4 C-5.67 3.01 -5.34 2.02 -5 1 C-2 0 -2 0 0 0 Z " fill="#070705" transform="translate(7,161)"/>
<path d="M0 0 C0.33 0 0.66 0 1 0 C1.05 1.75 1.09 3.5 1.12 5.25 C1.15 6.22 1.17 7.2 1.2 8.2 C1 11.02 0.45 12.61 -1 15 C-1.66 15 -2.32 15 -3 15 C-2.87 14.42 -2.73 13.84 -2.6 13.24 C-1.6 8.84 -0.69 4.46 0 0 Z " fill="#0F0F10" transform="translate(144,100)"/>
<path d="M0 0 C2.88 0.19 2.88 0.19 6 1 C7.38 3.56 7.38 3.56 8 6 C4.07 6 2.84 4.61 0 2 C0 1.34 0 0.68 0 0 Z " fill="#14191B" transform="translate(170,59)"/>
<path d="M0 0 C0 1.98 0 3.96 0 6 C-1.32 6.33 -2.64 6.66 -4 7 C-4.33 5.35 -4.66 3.7 -5 2 C-1.12 0 -1.12 0 0 0 Z " fill="#ABD444" transform="translate(64,86)"/>
<path d="M0 0 C0.66 0 1.32 0 2 0 C2.19 2.38 2.19 2.38 2 5 C1.01 5.66 0.02 6.32 -1 7 C-1 6.34 -1 5.68 -1 5 C-2.32 5.33 -3.64 5.66 -5 6 C-3.38 3.96 -1.71 1.96 0 0 Z " fill="#22261C" transform="translate(61,175)"/>
<path d="M0 0 C-0.33 2.97 -0.66 5.94 -1 9 C-1.66 9 -2.32 9 -3 9 C-3 7.35 -3 5.7 -3 4 C-3.66 4 -4.32 4 -5 4 C-5.33 5.32 -5.66 6.64 -6 8 C-6.36 3.5 -6.36 3.5 -4.69 1.19 C-3 0 -3 0 0 0 Z " fill="#3A1911" transform="translate(147,161)"/>
<path d="M0 0 C-0.33 0.99 -0.66 1.98 -1 3 C-4.56 4.69 -4.56 4.69 -8 6 C-8 5.34 -8 4.68 -8 4 C-8.66 3.67 -9.32 3.34 -10 3 C-8.71 2.5 -7.42 2 -6.12 1.5 C-5.77 1.36 -5.77 1.36 -3.95 0.66 C-2 0 -2 0 0 0 Z " fill="#12140D" transform="translate(34,99)"/>
<path d="M0 0 C2.87 0.57 3.86 0.86 6 3 C6.12 5.62 6.12 5.62 6 8 C1.12 3.38 1.12 3.38 0 0 Z " fill="#170D0A" transform="translate(246,181)"/>
<path d="M0 0 C1 4 1 4 0.06 6.25 C-0.11 6.54 -0.11 6.54 -1 8 C-2.65 8 -4.3 8 -6 8 C-4.02 5.36 -2.04 2.72 0 0 Z " fill="#474844" transform="translate(42,127)"/>
<path d="M0 0 C1.98 0.66 3.96 1.32 6 2 C6 2.66 6 3.32 6 4 C3.69 4.66 1.38 5.32 -1 6 C-0.67 4.02 -0.34 2.04 0 0 Z " fill="#0C0E0D" transform="translate(87,174)"/>
<path d="M0 0 C2.8 2.07 3.03 3.14 3.69 6.69 C3.79 7.78 3.89 8.87 4 10 C3.67 10.16 3.67 10.16 2 11 C0.58 7.18 -0.24 4.09 0 0 Z " fill="#100805" transform="translate(201,126)"/>
<path d="M0 0 C0.33 0.99 0.66 1.98 1 3 C-0.21 4.82 -0.21 4.82 -1.94 6.69 C-2.5 7.31 -3.07 7.93 -3.65 8.57 C-4.1 9.04 -4.54 9.52 -5 10 C-5.99 9.67 -6.98 9.34 -8 9 C-5.36 6.03 -2.72 3.06 0 0 Z " fill="#9DC53D" transform="translate(51,123)"/>
<path d="M0 0 C0.6 0.21 1.2 0.41 1.81 0.62 C1.81 1.28 1.81 1.94 1.81 2.62 C0.66 3.12 0.66 3.12 -5.19 5.62 C-5.19 4.31 -5.19 2.98 -5.19 1.62 C-2.19 -0.38 -2.19 -0.38 0 0 Z " fill="#0D1316" transform="translate(100.1875,80.375)"/>
<path d="M0 0 C0 4 -1.73 5.8 -4 9 C-5.32 8.67 -6.64 8.34 -8 8 C-5.36 5.36 -2.72 2.72 0 0 Z " fill="#609BBC" transform="translate(116,68)"/>
<path d="M0 0 C3.24 0.35 4.62 0.56 6.81 3.06 C7.2 3.7 7.6 4.34 8 5 C7.67 5.66 7.34 6.32 7 7 C6.01 6.67 5.02 6.34 4 6 C3.67 4.67 3.33 3.33 3 2 C2.01 1.67 1.02 1.34 0 1 C0 0.67 0 0.34 0 0 Z " fill="#0C1115" transform="translate(144,67)"/>
<path d="M0 0 C2.31 0.33 4.62 0.66 7 1 C7.33 1.99 7.66 2.98 8 4 C4.28 4.2 3.23 4.15 0 2 C0 1.34 0 0.68 0 0 Z " fill="#140D0B" transform="translate(167,195)"/>
<path d="M0 0 C2.31 0.33 4.62 0.66 7 1 C7.33 1.99 7.66 2.98 8 4 C4.28 4.2 3.23 4.15 0 2 C0 1.34 0 0.68 0 0 Z " fill="#101211" transform="translate(94,178)"/>
<path d="M0 0 C0.66 0 1.32 0 2 0 C2 1.65 2 3.3 2 5 C2.99 5 3.98 5 5 5 C5 5.99 5 6.98 5 8 C1.12 7.12 1.12 7.12 0 6 C-0.04 4 -0.04 2 0 0 Z " fill="#160906" transform="translate(142,165)"/>
<path d="M0 0 C4.28 2.31 7.72 4.33 11 8 C10.01 7.84 10.01 7.84 5 7 C5 6.01 5 5.02 5 4 C4.18 3.67 4.18 3.67 0 2 C0 1.34 0 0.68 0 0 Z " fill="#666664" transform="translate(226,163)"/>
<path d="M0 0 C-2.53 3.09 -5.22 3.91 -9 5 C-8.34 3.68 -7.68 2.36 -7 1 C-7.66 0.67 -8.32 0.34 -9 0 C-5.93 -1.53 -3.3 -0.55 0 0 Z " fill="#5B5E55" transform="translate(45,156)"/>
<path d="M0 0 C3.96 0 7.92 0 12 0 C10.68 0.33 9.36 0.66 8 1 C8.33 1.99 8.66 2.98 9 4 C6.03 3.01 3.06 2.02 0 1 C0 0.67 0 0.34 0 0 Z " fill="#5A5B52" transform="translate(4,113)"/>
<path d="M0 0 C1.98 0 3.96 0 6 0 C6 0.99 6 1.98 6 3 C4.02 3.33 2.04 3.66 0 4 C0 2.68 0 1.36 0 0 Z " fill="#9CC63C" transform="translate(50,109)"/>
<path d="M0 0 C0.66 0.33 1.32 0.66 2 1 C0.25 5.88 0.25 5.88 -2 7 C-2.33 6.01 -2.66 5.02 -3 4 C-5.06 3.31 -5.06 3.31 -7 3 C-4.7 1.93 -2.36 0.94 0 0 Z " fill="#97BE39" transform="translate(31,102)"/>
<path d="M0 0 C0.66 0.33 1.32 0.66 2 1 C2 3.64 2 6.28 2 9 C1.01 9.33 0.02 9.66 -1 10 C-0.67 6.7 -0.34 3.4 0 0 Z " fill="#EBECE6" transform="translate(137,99)"/>
<path d="M0 0 C0 1.65 0 3.3 0 5 C-2.64 5 -5.28 5 -8 5 C-1.87 0 -1.87 0 0 0 Z " fill="#9EC63C" transform="translate(59,88)"/>
<path d="M0 0 C-0.62 1.94 -0.62 1.94 -2 4 C-5.12 4.75 -5.12 4.75 -8 5 C-7.67 4.01 -7.34 3.02 -7 2 C-4.57 0.81 -2.72 0 0 0 Z " fill="#12150C" transform="translate(57,87)"/>
<path d="M0 0 C-1.16 0.99 -1.16 0.99 -7 6 C-7 4.02 -7 2.04 -7 0 C-3.99 -0.93 -3.13 -1.04 0 0 Z " fill="#294455" transform="translate(116,69)"/>
<path d="M0 0 C2 1.38 2 1.38 4 3 C4 3.66 4 4.32 4 5 C3.34 5 2.68 5 2 5 C1.67 5.99 1.34 6.98 1 8 C0.01 5.69 -0.98 3.38 -2 1 C-1.34 0.67 -0.68 0.34 0 0 Z " fill="#202C21" transform="translate(68,156)"/>
<path d="M0 0 C0.66 0 1.32 0 2 0 C2.93 5.42 3.21 8.8 1 14 C0.67 14 0.34 14 0 14 C0 9.38 0 4.76 0 0 Z " fill="#181A13" transform="translate(53,148)"/>
<path d="M0 0 C-0.33 0.66 -0.66 1.32 -1 2 C-3.97 2 -6.94 2 -10 2 C-10 1.34 -10 0.68 -10 0 C-3.38 -1.12 -3.38 -1.12 0 0 Z " fill="#1F0E0A" transform="translate(188,112)"/>
<path d="M0 0 C-0.33 0.99 -0.66 1.98 -1 3 C-6.75 1.25 -6.75 1.25 -9 -1 C-3.38 -2.25 -3.38 -2.25 0 0 Z " fill="#5FAACE" transform="translate(180,107)"/>
<path d="M0 0 C0.99 0.33 1.98 0.66 3 1 C2.25 2.94 2.25 2.94 1 5 C-1.12 5.75 -1.12 5.75 -3 6 C-1.12 1.12 -1.12 1.12 0 0 Z " fill="#EEEDEA" transform="translate(115,91)"/>
<path d="M0 0 C1.32 0 2.64 0 4 0 C4 0.66 4 1.32 4 2 C2.25 3.51 2.25 3.51 0 5.12 C-0.74 5.66 -1.48 6.2 -2.25 6.76 C-2.83 7.17 -3.41 7.58 -4 8 C-2.88 5.03 -1.78 2.67 0 0 Z " fill="#62A0C5" transform="translate(129,63)"/>
<path d="M0 0 C2.9 2.4 3.5 4.31 4 8 C3.01 8 2.02 8 1 8 C0.67 5.36 0.34 2.72 0 0 Z " fill="#0F150F" transform="translate(61,143)"/>
<path d="M0 0 C0.99 1.32 1.98 2.64 3 4 C1.68 4.99 0.36 5.98 -1 7 C-1.66 5.35 -2.32 3.7 -3 2 C-2.01 2 -1.02 2 0 2 C0 1.34 0 0.68 0 0 Z " fill="#D8D8D4" transform="translate(113,106)"/>
<path d="M0 0 C0.66 0.99 1.32 1.98 2 3 C1.34 3 0.68 3 0 3 C0.33 4.65 0.66 6.3 1 8 C0.34 8.33 0.34 8.33 -3 10 C-2.01 6.7 -1.02 3.4 0 0 Z " fill="#5797B7" transform="translate(66,93)"/>
<path d="M0 0 C0.66 0 1.32 0 2 0 C1.81 1.88 1.81 1.88 1 4 C-1.56 5.25 -1.56 5.25 -4 6 C-4.66 5.34 -5.32 4.68 -6 4 C-5.6 3.86 -5.6 3.86 -3.56 3.12 C-1 2 -1 2 0 0 Z " fill="#15180E" transform="translate(63,81)"/>
<path d="M0 0 C-0.25 1.88 -0.25 1.88 -1 4 C-3.06 5.25 -3.06 5.25 -5 6 C-5 4.68 -5 3.36 -5 2 C-2 0 -2 0 0 0 Z " fill="#111416" transform="translate(95,55)"/>
<path d="M0 0 C-4.79 1.39 -9.15 0.69 -14 0 C-14 -0.33 -14 -0.66 -14 -1 C-12.42 -1.22 -10.83 -1.43 -9.25 -1.62 C-8.37 -1.74 -7.49 -1.86 -6.58 -1.98 C-3.77 -2 -2.37 -1.45 0 0 Z " fill="#47423F" transform="translate(134,119)"/>
<path d="M0 0 C0.41 0.05 0.41 0.05 2.48 0.31 C2.79 0.35 2.79 0.35 4.38 0.56 C2.19 1.12 0.03 1.63 -2.19 2.06 C-4.62 2.56 -4.62 2.56 -7.62 3.56 C-7.29 2.57 -6.97 1.58 -6.62 0.56 C-4.1 -0.7 -2.77 -0.36 0 0 Z " fill="#D4603D" transform="translate(165.625,108.4375)"/>
<path d="M0 0 C0.83 0.33 0.83 0.33 5 2 C4.4 2.25 3.8 2.5 3.19 2.75 C0.71 4.16 -0.43 5.65 -2 8 C-2 6.35 -2 4.7 -2 3 C-1.34 3 -0.68 3 0 3 C0 2.01 0 1.02 0 0 Z " fill="#1E1C1D" transform="translate(127,92)"/>
<path d="M0 0 C0.99 0.33 1.98 0.66 3 1 C2.49 3.17 2 5 1 7 C0.01 6.67 -0.98 6.34 -2 6 C-1.34 4.02 -0.68 2.04 0 0 Z " fill="#1E333E" transform="translate(154,77)"/>
<path d="M0 0 C0.33 0.99 0.66 1.98 1 3 C1.99 3.33 2.98 3.66 4 4 C4.33 3.34 4.66 2.68 5 2 C5 2.99 5 3.98 5 5 C5.99 5.33 6.98 5.66 8 6 C5.03 5.67 2.06 5.34 -1 5 C-1.33 4.01 -1.66 3.02 -2 2 C-1.34 1.34 -0.68 0.68 0 0 Z " fill="#152026" transform="translate(108,73)"/>
<path d="M0 0 C0.66 0 1.32 0 2 0 C2 1.98 2 3.96 2 6 C0.35 6 -1.3 6 -3 6 C-2.01 4.02 -1.02 2.04 0 0 Z " fill="#080807" transform="translate(38,186)"/>
<path d="M0 0 C-1.07 2.92 -1.78 4.78 -4 7 C-4.69 5.19 -4.69 5.19 -5 3 C-3.38 0.85 -2.75 0 0 0 Z " fill="#181C0F" transform="translate(46,178)"/>
<path d="M0 0 C1.32 1.65 2.64 3.3 4 5 C2.68 6.32 1.36 7.64 0 9 C-0.66 8.67 -1.32 8.34 -2 8 C-1.34 5.36 -0.68 2.72 0 0 Z " fill="#5CA5C8" transform="translate(132,171)"/>
<path d="M0 0 C2.04 1.62 4.04 3.29 6 5 C6 5.66 6 6.32 6 7 C4.68 7.33 3.36 7.66 2 8 C1.67 7.34 1.34 6.68 1 6 C1.66 6 2.32 6 3 6 C2.75 5.69 2.75 5.69 1.5 4.12 C0 2 0 2 0 0 Z " fill="#3F3734" transform="translate(220,157)"/>
<path d="M0 0 C0.66 0.33 1.32 0.66 2 1 C-0.25 3.56 -0.25 3.56 -3 6 C-4.32 5.67 -5.64 5.34 -7 5 C-4.69 3.35 -2.38 1.7 0 0 Z " fill="#60615F" transform="translate(12,154)"/>
<path d="M0 0 C0.33 0.99 0.66 1.98 1 3 C0.67 3.5 0.67 3.5 -1 6 C-2.32 5.34 -3.64 4.68 -5 4 C-3.35 2.68 -1.7 1.36 0 0 Z " fill="#9FC43C" transform="translate(27,148)"/>
<path d="M0 0 C0.33 0.99 0.66 1.98 1 3 C-0.94 5.69 -0.94 5.69 -3 8 C-3.99 7.67 -4.98 7.34 -6 7 C-4.02 4.69 -2.04 2.38 0 0 Z " fill="#141E25" transform="translate(104,72)"/>
<path d="M0 0 C1 3 1 3 1 5 C2.32 4.67 3.64 4.34 5 4 C5 4.66 5 5.32 5 6 C2.12 6.12 2.12 6.12 -1 6 C-1.66 5.34 -2.32 4.68 -3 4 C-2.01 2.68 -1.02 1.36 0 0 Z " fill="#1E303A" transform="translate(116,70)"/>
<path d="M0 0 C0.99 0.33 1.98 0.66 3 1 C0.69 3.31 -1.62 5.62 -4 8 C-4 4.09 -2.49 2.88 0 0 Z " fill="#63A5C9" transform="translate(123,63)"/>
<path d="M0 0 C5.88 3.75 5.88 3.75 7 6 C5.02 6 3.04 6 1 6 C0.67 4.02 0.34 2.04 0 0 Z " fill="#4C4C49" transform="translate(168,54)"/>
<path d="M0 0 C2.88 1.29 4.87 2.66 7 5 C0.25 4.25 0.25 4.25 -2 2 C-1.34 2 -0.68 2 0 2 C0 1.34 0 0.68 0 0 Z " fill="#401A10" transform="translate(160,177)"/>
<path d="M0 0 C0.66 0 1.32 0 2 0 C2.66 2.31 3.32 4.62 4 7 C3.67 7.16 3.67 7.16 2 8 C0.24 4.91 0 3.77 0 0 Z " fill="#110807" transform="translate(205,138)"/>
<path d="M0 0 C0 0.66 0 1.32 0 2 C-2.31 2 -4.62 2 -7 2 C-7 1.34 -7 0.68 -7 0 C-4.33 -1.33 -2.83 -0.67 0 0 Z " fill="#EDEEEB" transform="translate(125,116)"/>
<path d="M0 0 C2.64 0 5.28 0 8 0 C7.01 0.33 6.02 0.66 5 1 C5 1.66 5 2.32 5 3 C3.35 2.67 1.7 2.34 0 2 C0 1.34 0 0.68 0 0 Z " fill="#22241A" transform="translate(12,114)"/>
<path d="M0 0 C0.99 0.33 1.98 0.66 3 1 C2.4 3.35 1.73 5.69 1 8 C0.67 8.16 0.67 8.16 -1 9 C-1.99 8.34 -2.98 7.68 -4 7 C-2.68 6.67 -1.36 6.34 0 6 C0 4.02 0 2.04 0 0 Z " fill="#3A3938" transform="translate(132,95)"/>
<path d="M0 0 C0 0.99 0 1.98 0 3 C-0.66 3 -1.32 3 -2 3 C-2 2.34 -2 1.68 -2 1 C-4.31 1.66 -6.62 2.32 -9 3 C-6.39 -0.48 -4.17 -0.28 0 0 Z " fill="#575952" transform="translate(46,93)"/>
<path d="M0 0 C0.99 0.66 1.98 1.32 3 2 C1.02 3.32 -0.96 4.64 -3 6 C-3.33 5.01 -3.66 4.02 -4 3 C-2.68 2.01 -1.36 1.02 0 0 Z " fill="#241D1A" transform="translate(115,88)"/>
<path d="M0 0 C0.66 0 1.32 0 2 0 C0.51 3.8 -1.76 5.61 -5 8 C-3.63 5.05 -2.12 2.48 0 0 Z " fill="#72B2D3" transform="translate(141,67)"/>
<path d="M0 0 C1.32 0.33 2.64 0.66 4 1 C4.33 2.65 4.66 4.3 5 6 C4.01 5.67 3.02 5.34 2 5 C0.81 2.44 0.81 2.44 0 0 Z " fill="#0D0F11" transform="translate(178,66)"/>
<path d="M0 0 C1.32 0.66 2.64 1.32 4 2 C2.02 3.32 0.04 4.64 -2 6 C-1.12 1.12 -1.12 1.12 0 0 Z " fill="#63B1D8" transform="translate(100,66)"/>
</svg>
