<?xml version="1.0" encoding="UTF-8"?>
<!-- Generator: visioncortex VTracer 0.6.5 -->
<svg version="1.1" xmlns="http://www.w3.org/2000/svg" width="769" height="769">
<path d="M0 0 C0.375 -0 0.749 -0.001 1.135 -0.001 C29.408 -0.004 56.608 5.311 82.75 16.25 C83.132 16.408 83.514 16.566 83.907 16.729 C102.107 24.293 119.052 35.107 133.75 48.25 C134.243 48.684 134.736 49.118 135.244 49.565 C141.507 55.087 147.529 60.71 152.75 67.25 C152.934 67.478 152.934 67.478 153.865 68.631 C178.513 99.311 194.187 135.606 200.227 174.477 C200.991 179.714 201.455 184.967 201.75 190.25 C203.73 190.91 205.71 191.57 207.75 192.25 C215.502 201.109 215.502 201.109 216.75 206.25 C217.573 210.623 217.859 214.965 217.989 219.4 C218.941 251.081 228.069 281.334 244.562 308.355 C247.985 313.868 251.811 319.097 255.75 324.25 C256.11 324.722 256.471 325.194 256.842 325.681 C275.723 350.135 298.998 368.902 324.888 385.472 C335.497 392.265 345.775 399.342 354.75 408.25 C355.103 408.599 355.455 408.947 355.818 409.306 C365.782 419.349 373.157 432.347 376.863 446 C378.027 450.617 378.104 455.199 378.062 459.938 C378.062 460.155 378.062 460.155 378.057 461.257 C377.991 470.659 376.992 479.688 372.5 488.125 C369.589 493.076 365.729 497.532 360.77 500.5 C358.822 501.571 356.813 502.43 354.75 503.25 C354.491 503.363 354.491 503.363 353.18 503.934 C346.819 506.251 338.951 506.075 332.346 505.027 C327.045 503.867 321.987 501.584 316.941 499.637 C316.344 499.406 315.746 499.176 315.13 498.939 C313.67 498.376 312.21 497.813 310.75 497.25 C310.301 497.259 309.851 497.268 309.389 497.277 C275.746 497.91 245.617 494.74 212.986 486.429 C201.349 483.47 189.714 480.741 177.91 478.523 C177.337 478.415 176.763 478.307 176.172 478.196 C170.62 477.153 165.063 476.138 159.497 475.17 C139.367 471.653 119.243 466.356 100.833 457.276 C100.5 457.112 100.166 456.948 99.822 456.779 C99.468 456.604 99.115 456.43 98.75 456.25 C98.361 456.06 97.973 455.87 97.572 455.674 C81.645 447.884 67.12 438.587 52.75 428.25 C52.314 428.305 51.877 428.361 51.427 428.418 C4.821 434.269 -42.569 430.927 -108.25 410.25 C-108.901 409.986 -109.553 409.722 -110.205 409.458 C-113.57 408.094 -116.92 406.698 -120.25 405.25 C-121.24 405.25 -122.23 405.25 -123.25 405.25 C-123.362 405.714 -123.474 406.178 -123.59 406.656 C-128.258 423.746 -140.816 440.129 -153.189 452.451 C-155.182 454.413 -157.202 456.345 -159.25 458.25 C-159.91 458.25 -160.57 458.25 -161.25 458.25 C-161.25 458.91 -161.25 459.57 -161.25 460.25 C-171.637 468.376 -182.154 476.117 -193.25 483.25 C-194.9 482.92 -196.55 482.59 -198.25 482.25 C-198.91 480.6 -199.57 478.95 -200.25 477.25 C-200.064 476.824 -199.878 476.398 -199.687 475.959 C-193.901 462.593 -189.231 449.206 -186.5 434.875 C-186.384 434.27 -186.269 433.664 -186.149 433.041 C-184.172 421.875 -183.997 410.574 -183.718 399.27 C-183.667 397.231 -183.611 395.193 -183.557 393.154 C-183.451 389.186 -183.349 385.218 -183.25 381.25 C-186.252 384.132 -188.972 386.979 -191.301 390.43 C-191.84 391.202 -192.38 391.974 -192.92 392.746 C-193.74 393.93 -194.556 395.116 -195.367 396.306 C-198.908 401.485 -202.556 405.744 -207.43 409.716 C-209.239 411.196 -210.803 412.838 -212.375 414.562 C-229.539 432.154 -255.327 442.531 -278.559 449.146 C-279.206 449.327 -279.853 449.508 -280.5 449.688 C-281.084 449.852 -281.668 450.016 -282.27 450.186 C-286.311 451.231 -290.085 451.427 -294.25 451.25 C-295.24 450.26 -296.23 449.27 -297.25 448.25 C-296.92 446.6 -296.59 444.95 -296.25 443.25 C-295.644 442.728 -295.038 442.206 -294.414 441.668 C-283.749 432.355 -274.843 422.2 -267.25 410.25 C-267.056 409.945 -266.861 409.64 -266.661 409.325 C-249.281 381.954 -239.092 352.238 -230.25 321.25 C-230.027 320.471 -229.804 319.692 -229.581 318.914 C-229.136 317.359 -228.692 315.805 -228.25 314.25 C-228.494 314.455 -228.738 314.659 -228.99 314.87 C-232.08 317.449 -235.2 319.988 -238.335 322.512 C-239.275 323.27 -240.212 324.03 -241.149 324.791 C-251.575 333.221 -262.247 340.269 -274.25 346.25 C-274.64 346.446 -275.029 346.641 -275.431 346.842 C-301.957 360.106 -331.408 367.738 -361.132 367.456 C-362.809 367.44 -364.486 367.435 -366.163 367.436 C-373.251 367.435 -380.231 367.286 -387.25 366.25 C-387.91 365.755 -387.91 365.755 -391.25 363.25 C-390.92 361.27 -390.59 359.29 -390.25 357.25 C-386.366 354.739 -382.485 352.289 -378.348 350.215 C-378.186 350.133 -378.186 350.133 -377.365 349.722 C-376.695 349.386 -376.024 349.049 -375.353 348.713 C-365.645 343.808 -356.95 337.745 -348.25 331.25 C-347.651 330.806 -347.052 330.361 -346.453 329.917 C-339.759 324.94 -333.305 319.702 -326.975 314.274 C-324.122 311.828 -321.242 309.429 -318.296 307.095 C-305.663 297.029 -294.308 285.398 -282.884 274.007 C-282.136 273.261 -281.386 272.515 -280.637 271.77 C-275.213 266.372 -269.938 260.907 -264.97 255.085 C-263.16 252.987 -261.255 250.972 -259.375 248.938 C-255.602 244.823 -252.015 240.595 -248.515 236.246 C-245.785 232.864 -242.95 229.599 -239.988 226.417 C-237.394 223.58 -235.317 220.481 -233.25 217.25 C-233.425 217.303 -233.425 217.303 -234.313 217.57 C-265.386 226.845 -298.263 229.874 -330.25 223.25 C-330.456 223.208 -330.456 223.208 -331.496 222.993 C-351.301 218.852 -369.957 211.791 -388.25 203.25 C-389.24 201.93 -390.23 200.61 -391.25 199.25 C-390.59 197.6 -389.93 195.95 -389.25 194.25 C-384.594 193.196 -379.935 192.178 -375.254 191.242 C-353.943 186.943 -333.707 180.502 -313.625 172.25 C-313.272 172.105 -312.918 171.961 -312.554 171.812 C-302.868 167.845 -293.463 163.475 -284.141 158.716 C-280.807 157.017 -277.442 155.383 -274.074 153.75 C-233.283 133.853 -188.026 109.478 -158.436 74.281 C-148.008 61.906 -136.398 50.689 -123.25 41.25 C-122.925 41.015 -122.6 40.78 -122.266 40.538 C-92.707 19.211 -58.171 4.739 -21.801 0.688 C-14.562 -0.04 -7.269 0.003 0 0 Z " fill="#161614" transform="translate(391.25,131.75)"/>
<path d="M0 0 C0.347 -0.001 0.693 -0.002 1.051 -0.003 C30.346 -0.055 59.636 5.567 85.946 18.755 C87.109 19.336 88.276 19.909 89.444 20.481 C100.344 25.841 110.572 31.709 120.062 39.312 C120.363 39.553 120.663 39.794 120.973 40.042 C141.392 56.49 157.057 76.015 169.062 99.312 C169.25 99.673 169.437 100.034 169.63 100.406 C182.576 125.44 189.79 152.246 192.062 180.312 C189.1 181.713 186.131 183.099 183.157 184.475 C182.15 184.943 181.145 185.415 180.141 185.889 C172.315 189.585 164.949 192.89 156.133 192.195 C150.657 191.576 145.899 189.471 140.938 187.188 C140.024 186.78 139.11 186.375 138.195 185.97 C135.91 184.958 133.632 183.93 131.356 182.898 C128.309 181.519 125.25 180.167 122.19 178.819 C121.224 178.391 120.262 177.957 119.3 177.521 C113.924 175.127 108.19 172.784 102.207 173 C95.422 173.803 88.075 176.016 82.562 180.125 C78.978 182.968 76.488 186.48 74.062 190.312 C70.46 199.989 70.58 209.62 70.51 219.794 C70.29 250.477 70.29 250.477 65.5 264.25 C65.373 264.621 65.247 264.993 65.117 265.375 C60.287 279.367 52.211 290.143 41.847 300.523 C40.789 301.587 39.743 302.662 38.696 303.737 C34.24 308.307 29.756 312.816 24.875 316.938 C16.546 324.059 9.875 331.917 6.062 342.312 C3.513 350.092 3.573 358.313 5.062 366.312 C7.139 375.078 11.565 383.671 17.627 390.346 C24.115 397.047 32.329 402.176 40.062 407.312 C40.062 407.973 40.062 408.632 40.062 409.312 C-2.924 417.4 -53.335 409.122 -94.125 395.125 C-111.18 389.13 -128.311 380.991 -142.938 370.312 C-143.499 369.909 -144.061 369.505 -144.623 369.101 C-165.813 353.777 -183.975 333.288 -194.831 309.367 C-196.73 305.087 -198.374 300.726 -199.938 296.312 C-200.127 295.792 -200.316 295.271 -200.51 294.735 C-212.278 261.813 -212.41 223.767 -206.416 189.684 C-203.772 175.213 -199.755 161.201 -194.938 147.312 C-194.781 146.862 -194.625 146.411 -194.464 145.946 C-184.917 118.666 -170.314 93.181 -151.082 71.604 C-150.088 70.483 -149.117 69.349 -148.156 68.199 C-140.251 58.786 -131.313 49.706 -121.414 42.404 C-120.343 41.612 -119.281 40.814 -118.223 40.006 C-100.274 26.335 -80.288 16.48 -58.938 9.312 C-58.555 9.184 -58.173 9.055 -57.78 8.922 C-49.638 6.196 -41.457 4.058 -33 2.562 C-32.664 2.503 -32.329 2.444 -31.983 2.383 C-29.64 1.977 -27.294 1.626 -24.938 1.312 C-24.759 1.289 -24.759 1.289 -23.854 1.168 C-15.932 0.154 -7.978 0.022 0 0 Z " fill="#6ABBE3" transform="translate(390.9375,141.6875)"/>
<path d="M0 0 C0.256 0.002 0.256 0.002 1.549 0.014 C5.619 0.052 8.637 1.409 12.375 2.938 C12.742 3.087 13.109 3.237 13.486 3.392 C18.491 5.442 23.467 7.551 28.422 9.719 C28.937 9.944 29.452 10.169 29.982 10.401 C32.538 11.52 35.091 12.644 37.643 13.773 C38.591 14.19 39.54 14.607 40.488 15.023 C40.917 15.215 41.345 15.406 41.787 15.603 C45.609 17.277 48.973 18.194 53.203 18.16 C53.378 18.159 53.378 18.159 54.262 18.156 C55.362 18.15 56.462 18.138 57.562 18.125 C58.315 18.12 59.068 18.115 59.82 18.111 C69.926 18.051 80.415 11.697 89.312 7.062 C91.952 7.062 94.592 7.062 97.312 7.062 C102.312 11.062 102.312 11.062 104.312 15.062 C104.341 15.442 104.37 15.821 104.399 16.212 C107.544 57.449 114.884 94.229 138.588 129.013 C141.944 133.873 145.572 138.493 149.312 143.062 C149.738 143.59 150.163 144.117 150.587 144.645 C160.426 156.851 171.316 168.263 183.75 177.851 C184.869 178.719 185.98 179.593 187.086 180.478 C195.612 187.303 204.364 193.518 213.625 199.312 C221.486 204.232 229.13 209.172 236.312 215.062 C236.744 215.411 237.176 215.759 237.621 216.117 C249.862 226.096 258 238.867 263.848 253.393 C264.763 255.934 265.14 258.375 265.312 261.062 C265.353 261.629 265.394 262.196 265.437 262.779 C266.019 272.26 265.539 281.338 261.312 290.062 C258.648 294.617 255.715 297.941 251.146 300.562 C248.519 302.017 246.334 302.854 243.312 303.062 C243 303.099 242.688 303.135 242.367 303.173 C234.175 304.073 227.108 301.366 219.562 298.528 C218.221 298.028 216.875 297.54 215.529 297.054 C189.855 287.764 166.052 275.912 142.774 261.758 C136.906 258.195 130.95 254.804 124.93 251.506 C122.903 250.395 120.897 249.251 118.895 248.098 C96.409 235.292 71.566 228.194 46.469 222.621 C45.984 222.514 45.5 222.406 45.001 222.295 C40.101 221.209 35.199 220.133 30.29 219.088 C12.759 215.352 -4.705 211.175 -21.312 204.312 C-21.823 204.105 -22.334 203.898 -22.859 203.684 C-30.213 200.691 -37.393 197.414 -44.438 193.75 C-44.828 193.549 -45.219 193.349 -45.621 193.142 C-51.641 190.022 -55.857 186.808 -59.688 181.062 C-59.688 173.062 -59.688 173.062 -58.438 170.812 C-56.842 168.133 -54.964 166.182 -52.688 164.062 C-52.853 163.238 -52.853 163.238 -53.688 159.062 C-55.998 159.393 -58.308 159.722 -60.688 160.062 C-67.533 168.049 -67.533 168.049 -68.688 173.062 C-69.007 177.003 -69.18 181.046 -67.521 184.653 C-65.328 189.271 -63.007 192.667 -58.793 195.708 C-32.764 213.623 -0.14 221.637 30.337 227.742 C70.633 235.818 106.769 249.152 141.655 271.292 C155.254 279.906 169.497 287.739 184.312 294.062 C184.312 294.392 184.312 294.723 184.312 295.062 C161.361 296.067 139.118 291.436 117.026 285.693 C114.125 284.939 111.222 284.19 108.317 283.445 C107.648 283.273 106.978 283.101 106.308 282.929 C94.539 279.905 82.713 277.554 70.75 275.438 C56.747 272.953 42.928 270.251 29.312 266.062 C29.101 265.997 29.101 265.997 28.028 265.668 C8.521 259.627 -9.381 250.832 -26.688 240.062 C-27.038 239.845 -27.389 239.628 -27.751 239.404 C-37.771 233.199 -47.334 226.534 -56.677 219.352 C-59.078 217.512 -61.513 215.724 -63.965 213.953 C-73.265 207.214 -81.722 200.975 -86.625 190.25 C-89.167 184.451 -89.828 179.597 -89.75 173.312 C-89.745 172.608 -89.74 171.904 -89.736 171.199 C-89.698 165.534 -88.312 161.1 -85.688 156.062 C-80.004 146.916 -71.263 139.748 -63.385 132.555 C-61.112 130.473 -58.919 128.333 -56.756 126.136 C-55.793 125.168 -54.808 124.238 -53.801 123.316 C-41.552 111.952 -32.94 96.847 -27.928 81.027 C-27.453 79.382 -27.061 77.734 -26.688 76.062 C-26.602 75.696 -26.517 75.33 -26.43 74.953 C-23.96 63.952 -24.295 52.662 -24.172 41.451 C-24.14 38.647 -24.101 35.844 -24.052 33.041 C-24.032 31.753 -24.023 30.466 -24.015 29.178 C-23.941 23.545 -23.062 18.535 -21.688 13.062 C-16.669 6.037 -16.669 6.037 -12.875 3.625 C-12.519 3.395 -12.162 3.165 -11.795 2.928 C-7.787 0.39 -4.705 -0.079 0 0 Z " fill="#E18A48" transform="translate(493.6875,323.9375)"/>
<path d="M0 0 C6.464 2.843 11.876 7.25 17.125 11.902 C17.494 12.226 17.863 12.55 18.243 12.883 C25.577 19.423 30.049 27.043 33.875 36.027 C34.074 36.494 34.273 36.96 34.477 37.44 C37.548 45.028 38.507 52.02 38.438 60.152 C38.435 60.615 38.433 61.077 38.43 61.554 C38.325 74.139 35.331 84.324 29.107 95.279 C26.541 99.52 23.516 103.297 20.125 106.902 C19.825 107.223 19.526 107.543 19.217 107.873 C11.958 115.388 1.571 121.253 -8.375 124.402 C-19.353 127.447 -32.668 127.42 -43.739 124.82 C-46.535 124.03 -49.204 123.043 -51.875 121.902 C-52.419 121.672 -52.963 121.441 -53.524 121.203 C-64.027 116.553 -72.99 109.272 -79.941 100.126 C-83.739 94.792 -86.523 88.995 -88.875 82.902 C-88.958 82.701 -88.958 82.701 -89.375 81.684 C-93.258 71.948 -92.975 60.049 -91.738 49.766 C-90.251 39.559 -85.975 29.457 -79.659 21.304 C-71.939 11.647 -62.281 3.58 -50.738 -1.066 C-33.919 -7.332 -16.546 -6.612 0 0 Z " fill="#100F0D" transform="translate(399.875,250.09765625)"/>
<path d="M0 0 C3.001 1.424 5.904 3.006 8.779 4.668 C10.308 5.549 11.853 6.387 13.408 7.22 C25.776 14.148 36.278 26.007 43.546 38.055 C50.772 50.462 54.66 63.946 54.738 78.317 C54.726 81.762 54.63 85.201 54.47 88.642 C53.81 89.302 53.15 89.962 52.47 90.642 C50.82 90.642 49.17 90.642 47.47 90.642 C45.47 88.642 45.47 88.642 43.47 81.642 C35.581 70.929 23.359 62.682 11.345 57.205 C0.532 52.548 -11.814 48.885 -23.53 47.642 C-24.084 47.582 -24.639 47.522 -25.211 47.46 C-57.841 44.17 -91.399 50.882 -121.181 64.267 C-123.304 65.231 -125.418 66.215 -127.53 67.205 C-127.924 67.389 -128.318 67.572 -128.723 67.762 C-134.248 70.356 -139.422 73.301 -144.53 76.642 C-146.18 75.982 -147.83 75.322 -149.53 74.642 C-149.53 64.7 -145.277 56.405 -140.403 47.822 C-136.463 41.013 -131.506 35.14 -126.194 29.368 C-125.563 28.679 -124.941 27.982 -124.32 27.284 C-112.124 13.647 -95.347 3.8 -78.155 -2.108 C-75.632 -2.925 -73.086 -3.651 -70.53 -4.358 C-69.946 -4.523 -69.363 -4.688 -68.762 -4.858 C-46.883 -10.756 -20.67 -9.488 0 0 Z " fill="#100F0D" transform="translate(421.5296936035156,187.35775756835938)"/>
<path d="M0 0 C0.33 0.66 0.66 1.32 1 2 C0.714 2.541 0.428 3.082 0.133 3.639 C-14.332 31.128 -23.526 59.707 -30 90 C-69.034 101.406 -107.532 109.561 -147.97 99.843 C-159.535 96.988 -171.094 93.859 -182 89 C-179.575 87.159 -177.358 86.428 -174.414 85.738 C-173.485 85.509 -172.556 85.278 -171.628 85.048 C-171.139 84.929 -170.651 84.81 -170.148 84.687 C-124.58 73.481 -80.008 51.645 -29 20 C-28.643 19.77 -28.287 19.539 -27.919 19.302 C-18.411 13.153 -9.166 6.646 0 0 Z " fill="#E18A48" transform="translate(205,244)"/>
<path d="M0 0 C0.33 0 0.66 0 1 0 C0.991 0.531 0.982 1.062 0.973 1.609 C0.864 8.364 0.793 15.119 0.75 21.875 C0.748 22.143 0.748 22.143 0.74 23.499 C0.644 40.375 1.302 56.473 5 73 C4.67 74.32 4.34 75.64 4 77 C3.67 76.67 3.34 76.34 3 76 C1.35 76 -0.3 76 -2 76 C-2.439 76.469 -2.877 76.938 -3.329 77.421 C-4.967 79.172 -6.605 80.921 -8.244 82.671 C-8.951 83.427 -9.658 84.182 -10.365 84.938 C-11.385 86.028 -12.405 87.118 -13.426 88.207 C-13.738 88.542 -14.051 88.876 -14.373 89.221 C-16.214 91.184 -18.087 93.107 -20 95 C-20.66 95 -21.32 95 -22 95 C-22 95.66 -22 96.32 -22 97 C-50.787 120.757 -82.937 134.376 -119.648 140.764 C-120.769 140.96 -121.887 141.164 -123.006 141.373 C-128.285 142.267 -133.601 142.111 -138.938 142.062 C-139.917 142.057 -140.897 142.053 -141.877 142.049 C-144.251 142.038 -146.626 142.021 -149 142 C-145.709 139.279 -142.337 136.816 -138.754 134.496 C-137.748 133.837 -136.743 133.178 -135.738 132.519 C-135.479 132.349 -135.479 132.349 -134.166 131.49 C-124.402 125.082 -114.922 118.538 -106 111 C-105.705 110.752 -105.41 110.503 -105.106 110.247 C-97.415 103.767 -89.902 97.097 -82.562 90.221 C-82.074 89.764 -81.586 89.308 -81.098 88.852 C-80.851 88.621 -80.604 88.39 -80.35 88.152 C-79.024 86.921 -77.681 85.718 -76.302 84.548 C-70.114 79.283 -64.402 73.555 -58.673 67.803 C-57.228 66.353 -55.78 64.908 -54.33 63.463 C-48.599 57.752 -42.973 52.013 -37.73 45.844 C-36.525 44.45 -35.269 43.105 -34.008 41.762 C-33.771 41.509 -33.534 41.256 -33.29 40.996 C-32.813 40.488 -32.337 39.98 -31.86 39.472 C-26.295 33.529 -21.032 27.403 -16 21 C-15.864 20.827 -15.864 20.827 -15.176 19.952 C-12.966 17.139 -10.762 14.321 -8.562 11.5 C-8.251 11.101 -7.94 10.701 -7.619 10.29 C-6.725 9.142 -5.833 7.993 -4.941 6.844 C-4.674 6.5 -4.407 6.157 -4.131 5.803 C-2.671 3.916 -1.298 2.003 0 0 Z " fill="#E18A48" transform="translate(172,347)"/>
<path d="M0 0 C1.527 2.101 2.359 3.829 3.008 6.379 C3.186 7.05 3.366 7.722 3.546 8.393 C3.639 8.745 3.732 9.098 3.829 9.461 C9.271 29.686 19.286 48.181 33 64 C33 64.66 33 65.32 33 66 C32.688 66.274 32.375 66.548 32.053 66.83 C28.586 70.054 26.506 73.31 24.349 77.472 C18.212 89.232 10.134 99.252 1.044 108.889 C0.056 109.941 -0.914 111.008 -1.883 112.078 C-16.273 127.601 -38.16 137.839 -58 144 C-56.514 140.829 -54.731 138.034 -52.727 135.168 C-43.382 121.602 -35.077 107.887 -28 93 C-27.796 92.572 -27.592 92.145 -27.381 91.704 C-13.673 62.862 -4.876 31.497 0 0 Z " fill="#E18A48" transform="translate(177,424)"/>
<path d="M0 0 C0.65 0.005 1.299 0.009 1.969 0.014 C8.102 0.059 13.358 2.068 18.75 5.062 C25.649 10.049 29.648 15.262 33.212 22.841 C34.28 25.265 34.647 27.434 34.75 30.062 C34.765 30.232 34.765 30.232 34.84 31.091 C35.484 38.577 33.924 45.265 30.75 52.062 C27.56 58.091 22.49 62.615 16.872 66.367 C13.979 68.161 11.062 69.306 7.75 70.062 C7.378 70.148 7.006 70.233 6.623 70.32 C0.406 71.603 -5.308 70.968 -11.359 69.137 C-19.131 66.455 -24.729 60.936 -30.25 55.062 C-35.25 42.062 -35.25 42.062 -35.25 28.062 C-32.488 20.413 -29.613 13.701 -23.297 8.34 C-18.914 4.839 -14.022 1.555 -8.499 0.248 C-5.689 -0.169 -2.833 -0.037 0 0 Z " fill="#100F0D" transform="translate(375.25,274.9375)"/>
<path d="M0 0 C7.381 3.176 14.52 7.728 19.427 14.208 C20.366 15.549 21.222 16.923 22.052 18.333 C22.281 18.717 22.511 19.102 22.747 19.497 C26.241 25.508 28.303 31.419 29.052 38.333 C29.072 38.515 29.072 38.515 29.173 39.437 C29.864 46.996 28.259 54.942 25.4 61.926 C21.514 70.331 15.591 76.995 8.052 82.333 C1.115 86.765 -6.774 88.861 -14.948 89.333 C-23.455 89.626 -31.017 88.049 -38.58 84.109 C-42.396 81.946 -45.748 79.322 -48.948 76.333 C-49.091 76.201 -49.091 76.201 -49.813 75.53 C-55.065 70.481 -58.059 63.925 -60.948 57.333 C-61.098 56.998 -61.247 56.663 -61.402 56.318 C-63.871 50.546 -63.624 43.464 -62.948 37.333 C-61.322 27.848 -57.059 19.748 -51.108 12.279 C-45.976 6.162 -38.991 1.76 -31.595 -1.147 C-21.911 -4.479 -9.31 -3.796 0 0 Z M-31.113 10.951 C-37.015 14.369 -42.01 18.481 -45.569 24.359 C-48.596 29.708 -50.066 34.28 -50.038 40.479 C-50.029 41.173 -50.02 41.868 -50.01 42.583 C-49.99 44.811 -49.969 47.038 -49.948 49.333 C-45.96 59.701 -43.518 64.64 -35.948 71.333 C-31.078 75.193 -25.641 77.072 -19.539 78.005 C-13.074 78.744 -6.79 77.671 -0.794 75.163 C4.574 72.651 8.82 68.394 13.052 64.333 C17.354 56.21 20.551 49.275 20.255 39.911 C19.917 34.21 18.606 29.07 15.552 24.271 C12.09 19.033 8.193 14.451 2.522 11.551 C-8.49 6.475 -20.209 5.168 -31.113 10.951 Z " fill="#72B7D8" transform="translate(389.94775390625,267.666748046875)"/>
<path d="M0 0 C7.447 4.545 14.935 11.797 19.43 19.302 C24.668 29.026 26.395 39.637 26.145 50.527 C25.825 59.987 22.727 68.228 17.938 76.332 C12.665 84.752 6.09 90.931 -2.617 95.742 C-11.598 100.342 -21.058 102.243 -31.096 101.874 C-40.054 101.4 -48.914 98.807 -56.51 93.99 C-64.716 88.411 -71.715 81.825 -76.352 72.961 C-80.531 64.003 -82.751 53.815 -82.194 43.933 C-81.332 34.151 -78.614 24.6 -73.062 16.438 C-67.186 8.566 -60.09 1.569 -51.062 -2.562 C-46.831 -4.275 -42.504 -5.526 -38.062 -6.562 C-37.685 -6.653 -37.308 -6.743 -36.919 -6.835 C-24.577 -9.585 -10.793 -6.122 0 0 Z M-53.312 8.625 C-61.316 14.481 -66.808 21.583 -70.875 30.602 C-74.171 38.317 -75.02 46.081 -74.062 54.438 C-72.516 62.912 -68.432 70.759 -63.062 77.438 C-57.439 83.917 -50.136 88.586 -42.062 91.438 C-38.116 92.54 -34.135 93.074 -30.062 93.438 C-29.44 93.508 -28.817 93.579 -28.176 93.652 C-21.356 94.065 -13.624 91.868 -7.522 88.897 C-0.167 84.935 6.405 79.179 10.974 72.183 C15.573 64.549 18.095 55.874 18.312 46.938 C18.138 39.05 16.215 30.824 12.125 24.062 C11.108 22.486 10.037 20.957 8.938 19.438 C8.825 19.274 8.825 19.274 8.255 18.447 C3.86 12.157 -2.663 7.974 -9.539 4.744 C-23.702 -1.424 -40.424 -0.081 -53.312 8.625 Z " fill="#100F0D" transform="translate(401.0625,263.5625)"/>
<path d="M0 0 C6.546 5.468 6.546 5.468 9.333 8.417 C19.239 18.841 31.913 26.404 44 34 C43.469 38.524 41.598 42.364 39.562 46.375 C39.388 46.721 39.213 47.068 39.033 47.425 C28.307 68.545 12.902 84.848 -6 99 C-6.66 98.67 -7.32 98.34 -8 98 C-7.864 97.569 -7.728 97.138 -7.589 96.693 C-5.096 88.703 -2.765 80.74 -1.25 72.5 C-1.135 71.879 -1.02 71.259 -0.901 70.619 C0.501 62.642 1.156 54.775 1.133 46.68 C1.133 45.809 1.134 44.939 1.136 44.068 C1.137 42.255 1.135 40.441 1.13 38.628 C1.125 36.352 1.128 34.077 1.134 31.801 C1.157 21.158 0.911 10.608 0 0 Z " fill="#E18A48" transform="translate(216,496)"/>
<path d="M0 0 C0.241 0.105 0.241 0.105 1.463 0.637 C1.703 0.742 1.703 0.742 2.918 1.271 C11.85 5.327 19.468 11.447 25.393 19.275 C31.532 27.883 35.426 37.096 36.463 47.637 C36.483 47.837 36.483 47.837 36.584 48.85 C37.376 58.37 35.407 68.755 31.563 77.455 C28.304 84.168 23.753 89.44 18.463 94.637 C18.136 94.971 17.808 95.305 17.471 95.648 C10.963 102.238 2.848 106.471 -5.994 109.118 C-16.312 111.863 -26.407 111.25 -36.645 108.549 C-43.248 106.704 -48.944 103.585 -54.537 99.637 C-54.711 99.517 -54.711 99.517 -55.593 98.912 C-63.384 93.426 -68.942 84.593 -73.017 76.131 C-75.741 70.186 -77.041 64.138 -77.537 57.637 C-77.551 57.471 -77.551 57.471 -77.624 56.631 C-78.294 47.868 -76.559 38.711 -72.873 30.754 C-67.873 20.351 -61.261 11.841 -51.662 5.262 C-46.313 1.779 -40.699 -0.705 -34.537 -2.363 C-34.165 -2.464 -33.793 -2.565 -33.41 -2.669 C-22.736 -5.179 -10.037 -4.154 0 0 Z M-47.658 5.719 C-55.914 10.974 -63.329 18.183 -68.139 26.735 C-72.567 35.415 -75.085 45.826 -74.822 55.59 C-74.249 64.075 -71.8 74.528 -67.162 81.714 C-66.956 82.019 -66.749 82.323 -66.537 82.637 C-66.296 82.993 -66.055 83.349 -65.807 83.716 C-60.015 92.052 -53.348 98.231 -44.162 102.636 C-34.198 107.163 -24.413 108.744 -13.525 107.747 C-2.995 106.575 6.034 101.838 14.463 95.637 C21.791 90.216 26.491 81.446 30.089 73.202 C31.065 70.726 31.859 68.228 32.463 65.637 C32.554 65.272 32.646 64.907 32.74 64.531 C34.8 55.519 34.114 45.203 31.428 36.407 C28.302 27.131 23.366 20.519 16.463 13.637 C16.296 13.466 16.296 13.466 15.451 12.601 C10.198 7.287 4.403 4.29 -2.537 1.637 C-3.131 1.401 -3.726 1.165 -4.338 0.922 C-6.058 0.338 -7.75 -0.064 -9.537 -0.363 C-9.967 -0.435 -10.396 -0.507 -10.838 -0.582 C-23.246 -2.48 -36.692 -0.626 -47.658 5.719 Z " fill="#E18A48" transform="translate(393.537109375,257.36279296875)"/>
<path d="M0 0 C8.541 1.068 14.743 3.816 21.641 8.863 C24.179 10.812 26.604 12.88 29 15 C29.195 15.169 29.195 15.169 30.18 16.026 C38.83 23.668 45.137 33.317 48.906 44.233 C50.035 47.773 50.746 51.285 51 55 C50.01 56.32 49.02 57.64 48 59 C46.35 58.67 44.7 58.34 43 58 C42.885 57.608 42.77 57.217 42.652 56.813 C40.507 49.634 38.251 42.802 34.438 36.312 C34.157 35.833 33.877 35.353 33.588 34.858 C31.733 31.838 29.616 29.387 27 27 C27 26.34 27 25.68 27 25 C26.429 24.745 25.858 24.49 25.27 24.227 C23.204 23.193 21.59 21.892 19.853 20.385 C13.252 14.666 5.765 10.872 -2 7 C-2 5.35 -2 3.7 -2 2 C-1.34 1.34 -0.68 0.68 0 0 Z " fill="#100F0D" transform="translate(527,420)"/>
<path d="M0 0 C2.31 0 4.62 0 7 0 C7.825 0.495 7.825 0.495 12 3 C12.99 5.31 13.98 7.62 15 10 C14.67 12.31 14.34 14.62 14 17 C12.02 18.65 10.04 20.3 8 22 C5.69 22.33 3.38 22.66 1 23 C-4 20 -4 20 -7 16 C-7.33 14.02 -7.66 12.04 -8 10 C-7.01 7.69 -6.02 5.38 -5 3 C-3.35 2.01 -1.7 1.02 0 0 Z " fill="#72B7D8" transform="translate(386,285)"/>
<path d="M0 0 C2.97 0.33 5.94 0.66 9 1 C9.66 1.66 10.32 2.32 11 3 C10.532 3.438 10.064 3.875 9.582 4.326 C7.407 6.361 5.235 8.399 3.062 10.438 C2.673 10.803 2.283 11.169 1.881 11.546 C-2.555 15.707 -6.948 19.887 -11.188 24.25 C-14.199 27.341 -17.224 29.883 -21 32 C-19.656 28.143 -17.802 24.924 -15.5 21.562 C-15.158 21.057 -14.817 20.551 -14.465 20.03 C-11.555 15.751 -8.567 11.525 -5.562 7.312 C-5.452 7.158 -5.452 7.158 -4.893 6.374 C-4.265 5.494 -3.635 4.616 -3.004 3.738 C-2.641 3.233 -2.278 2.728 -1.905 2.208 C-1 1 -1 1 0 0 Z " fill="#6ABBE3" transform="translate(390,189)"/>
<path d="M0 0 C0 0.99 0 1.98 0 3 C-3.333 7.667 -3.333 7.667 -20 31 C-21.65 31.495 -21.65 31.495 -30 34 C-30.99 33.67 -31.98 33.34 -33 33 C-24.583 22.182 -24.583 22.182 -19.314 17.856 C-15.091 14.346 -11.316 10.363 -7.479 6.442 C-7.206 6.164 -6.933 5.887 -6.651 5.601 C-6.138 5.08 -5.626 4.556 -5.118 4.03 C-3.524 2.414 -1.912 1.194 0 0 Z " fill="#6ABBE3" transform="translate(356,199)"/>
<path d="M0 0 C6 1 6 1 10 4 C8.043 5.814 6.084 7.626 4.125 9.438 C3.832 9.709 3.538 9.98 3.236 10.26 C-0.649 13.85 -4.555 17.413 -8.5 20.938 C-11.772 23.863 -14.968 26.824 -18 30 C-18.66 29.67 -19.32 29.34 -20 29 C-13.889 18.84 -7.436 9.24 0 0 Z " fill="#6ABBE3" transform="translate(408,193)"/>
<path d="M0 0 C3.63 0 7.26 0 11 0 C4.592 7.757 -2.423 14.914 -10.083 21.442 C-13.932 24.744 -17.463 28.37 -21 32 C-21 31.01 -21 30.02 -21 29 C-15.748 20.833 -10.137 13.082 -4.132 5.457 C-2.732 3.655 -1.369 1.825 0 0 Z " fill="#6ABBE3" transform="translate(370,189)"/>
<path d="M0 0 C1.98 0.66 3.96 1.32 6 2 C6.66 3.32 7.32 4.64 8 6 C-8.257 21.27 -8.257 21.27 -15 27 C-16.32 26.34 -17.64 25.68 -19 25 C-18.602 24.491 -18.204 23.983 -17.794 23.459 C-16.292 21.538 -14.793 19.616 -13.293 17.694 C-12.649 16.868 -12.004 16.043 -11.359 15.219 C-7.453 10.226 -3.627 5.2 0 0 Z " fill="#6ABBE3" transform="translate(424,200)"/>
<path d="M0 0 C0 0.99 0 1.98 0 3 C-1.894 5.905 -3.797 8.803 -5.707 11.698 C-6.354 12.68 -6.999 13.665 -7.641 14.651 C-11.07 19.907 -14.294 24.798 -19 29 C-22.63 29.33 -26.26 29.66 -30 30 C-24.195 18.39 -9.641 8.777 0 0 Z " fill="#6ABBE3" transform="translate(378,197)"/>
<path d="M0 0 C0.66 0 1.32 0 2 0 C0.569 2.981 -1.042 5.762 -2.82 8.547 C-3.084 8.963 -3.347 9.379 -3.619 9.808 C-4.452 11.123 -5.289 12.436 -6.125 13.75 C-6.694 14.647 -7.263 15.544 -7.832 16.441 C-9.219 18.629 -10.61 20.814 -12 23 C-15.63 23 -19.26 23 -23 23 C-17.985 16.696 -12.176 11.44 -6.226 6.046 C-4.083 4.096 -2.018 2.079 0 0 Z " fill="#6ABBE3" transform="translate(395,201)"/>
<path d="M0 0 C0 0.99 0 1.98 0 3 C-3.333 7.333 -3.333 7.333 -20 29 C-21.485 29.495 -21.485 29.495 -29 32 C-26.75 27.5 -26.75 27.5 -25.479 26.16 C-25.194 25.855 -24.909 25.55 -24.615 25.236 C-24.31 24.92 -24.005 24.603 -23.691 24.277 C-23.368 23.935 -23.045 23.593 -22.713 23.24 C-21.667 22.135 -20.615 21.036 -19.562 19.938 C-18.841 19.178 -18.12 18.418 -17.398 17.658 C-11.701 11.67 -5.906 5.782 0 0 Z " fill="#6ABBE3" transform="translate(330,209)"/>
<path d="M0 0 C0.66 0.33 1.32 0.66 2 1 C-1.804 5.983 -5.612 10.963 -9.423 15.94 C-10.347 17.146 -11.269 18.352 -12.19 19.56 C-16.261 24.894 -20.52 30.003 -25 35 C-25.66 34.67 -26.32 34.34 -27 34 C-20.109 20.818 -10.739 10.216 0 0 Z " fill="#6ABBE3" transform="translate(313,212)"/>
<path d="M0 0 C0 0.99 0 1.98 0 3 C-1.65 5.369 -3.304 7.735 -4.962 10.098 C-5.525 10.902 -6.086 11.706 -6.647 12.51 C-7.456 13.672 -8.268 14.83 -9.082 15.988 C-9.329 16.345 -9.576 16.701 -9.831 17.068 C-11.385 19.271 -13.042 21.144 -15 23 C-17.31 23 -19.62 23 -22 23 C-22 22.01 -22 21.02 -22 20 C-19.673 17.792 -17.343 15.587 -15.011 13.384 C-14.22 12.636 -13.43 11.887 -12.64 11.138 C-4.221 3.15 -4.221 3.15 0 0 Z " fill="#6ABBE3" transform="translate(416,202)"/>
<path d="M0 0 C1.65 1.32 3.3 2.64 5 4 C5.33 4.99 5.66 5.98 6 7 C3.815 8.657 1.628 10.311 -0.561 11.962 C-1.304 12.523 -2.046 13.084 -2.787 13.647 C-10.684 19.638 -10.684 19.638 -15 22 C-13.665 17.496 -11.039 14.026 -8.259 10.324 C-7.497 9.308 -6.742 8.286 -5.988 7.264 C-5.503 6.609 -5.017 5.955 -4.531 5.301 C-4.307 4.999 -4.083 4.697 -3.852 4.385 C-2.646 2.782 -1.43 1.43 0 0 Z " fill="#6ABBE3" transform="translate(439,209)"/>
<path d="M0 0 C0 0.99 0 1.98 0 3 C-0.392 3.361 -0.783 3.723 -1.187 4.095 C-9.98 12.216 -18.613 20.459 -27 29 C-27.66 28.67 -28.32 28.34 -29 28 C-28.684 27.639 -28.367 27.277 -28.041 26.905 C-20.996 18.845 -14.288 10.669 -8 2 C-5.36 1.34 -2.72 0.68 0 0 Z " fill="#6ABBE3" transform="translate(357,191)"/>
<path d="M0 0 C0.99 0.33 1.98 0.66 3 1 C3.99 2.65 4.98 4.3 6 6 C4 10 4 10 -5 17 C-6.32 16.67 -7.64 16.34 -9 16 C-7.62 12.042 -5.67 8.681 -3.375 5.188 C-3.213 4.936 -3.213 4.936 -2.391 3.666 C-1.598 2.441 -0.801 1.22 0 0 Z " fill="#6ABBE3" transform="translate(450,222)"/>
<path d="M0 0 C0.33 0.66 0.66 1.32 1 2 C-0.485 4.31 -0.485 4.31 -8 16 C-8.99 16.33 -9.98 16.66 -11 17 C-12.98 16.01 -14.96 15.02 -17 14 C-13.816 10.604 -10.444 7.656 -6.812 4.75 C-6.372 4.397 -5.932 4.044 -5.479 3.68 C-1.983 0.91 -1.983 0.91 0 0 Z " fill="#6ABBE3" transform="translate(446,219)"/>
<path d="M0 0 C0.33 0.66 0.66 1.32 1 2 C-0.226 3.779 -1.453 5.557 -2.68 7.334 C-3.097 7.937 -3.513 8.541 -3.928 9.144 C-6.225 12.477 -8.54 15.784 -11 19 C-13.31 18.67 -15.62 18.34 -18 18 C-12.74 11.241 -6.365 5.684 0 0 Z " fill="#6ABBE3" transform="translate(431,210)"/>
<path d="M0 0 C0.66 0.33 1.32 0.66 2 1 C1.01 1.99 0.02 2.98 -1 4 C-1.66 4 -2.32 4 -3 4 C-3.235 4.562 -3.469 5.124 -3.711 5.703 C-5.137 8.554 -7.348 10.565 -9.625 12.75 C-10.045 13.161 -10.465 13.572 -10.898 13.996 C-11.928 15.002 -12.962 16.003 -14 17 C-14 16.01 -14 15.02 -14 14 C-5.611 2.641 -5.611 2.641 0 0 Z " fill="#6ABBE3" transform="translate(332,200)"/>
<path d="M0 0 C0.66 0 1.32 0 2 0 C2.33 2.31 2.66 4.62 3 7 C1.68 7.33 0.36 7.66 -1 8 C-1.99 6.68 -2.98 5.36 -4 4 C-2.68 2.68 -1.36 1.36 0 0 Z " fill="#6ABBE3" transform="translate(461,243)"/>
<path d="M0 0 C0.33 0.66 0.66 1.32 1 2 C0.34 2.99 0.34 2.99 -3 8 C-4.32 7.34 -5.64 6.68 -7 6 C-4.69 4.02 -2.38 2.04 0 0 Z " fill="#6ABBE3" transform="translate(454,235)"/>
<path d="M0 0 C0.66 0 1.32 0 2 0 C2.33 0.99 2.66 1.98 3 3 C2.01 3.825 2.01 3.825 -3 8 C-0.991 1.839 -0.991 1.839 0 0 Z " fill="#6ABBE3" transform="translate(458,236)"/>
</svg>
