<?xml version="1.0" encoding="UTF-8"?>
<!-- Generator: visioncortex VTracer 0.6.5 -->
<svg version="1.1" xmlns="http://www.w3.org/2000/svg" width="769" height="769">
<path d="M0 0 C0.35 -0 0.69 -0 1.05 -0 C30.35 -0.05 59.64 5.57 85.95 18.75 C87.11 19.34 88.28 19.91 89.44 20.48 C100.34 25.84 110.57 31.71 120.06 39.31 C120.36 39.55 120.66 39.79 120.97 40.04 C141.39 56.49 157.06 76.02 169.06 99.31 C169.25 99.67 169.44 100.03 169.63 100.41 C182.58 125.44 189.79 152.25 192.06 180.31 C189.1 181.71 186.13 183.1 183.16 184.48 C182.15 184.94 181.14 185.41 180.14 185.89 C172.31 189.59 164.95 192.89 156.13 192.2 C150.66 191.58 145.9 189.47 140.94 187.19 C140.02 186.78 139.11 186.37 138.19 185.97 C135.91 184.96 133.63 183.93 131.36 182.9 C128.31 181.52 125.25 180.17 122.19 178.82 C121.22 178.39 120.26 177.96 119.3 177.52 C113.92 175.13 108.19 172.78 102.21 173 C95.83 173.75 88.91 175.79 83.56 179.38 C79.27 182.59 75.78 186.4 73.61 191.33 C70.15 200.46 70.58 210.19 70.51 219.79 C70.29 250.48 70.29 250.48 65.5 264.25 C65.37 264.62 65.25 264.99 65.12 265.38 C60.29 279.37 52.21 290.14 41.85 300.52 C40.79 301.59 39.74 302.66 38.7 303.74 C34.24 308.31 29.76 312.82 24.88 316.94 C16.55 324.06 9.87 331.92 6.06 342.31 C3.51 350.09 3.57 358.31 5.06 366.31 C7.14 375.08 11.57 383.67 17.63 390.35 C24.11 397.05 32.33 402.18 40.06 407.31 C40.06 407.97 40.06 408.63 40.06 409.31 C-2.92 417.4 -53.34 409.12 -94.12 395.12 C-111.18 389.13 -128.31 380.99 -142.94 370.31 C-143.5 369.91 -144.06 369.5 -144.62 369.1 C-165.81 353.78 -183.98 333.29 -194.83 309.37 C-196.73 305.09 -198.37 300.73 -199.94 296.31 C-200.13 295.79 -200.32 295.27 -200.51 294.73 C-212.28 261.81 -212.41 223.77 -206.42 189.68 C-203.77 175.21 -199.76 161.2 -194.94 147.31 C-194.78 146.86 -194.62 146.41 -194.46 145.95 C-184.92 118.67 -170.31 93.18 -151.08 71.6 C-150.09 70.48 -149.12 69.35 -148.16 68.2 C-140.25 58.79 -131.31 49.71 -121.41 42.4 C-120.34 41.61 -119.28 40.81 -118.22 40.01 C-100.27 26.33 -80.29 16.48 -58.94 9.31 C-58.56 9.18 -58.17 9.06 -57.78 8.92 C-49.64 6.2 -41.46 4.06 -33 2.56 C-32.66 2.5 -32.33 2.44 -31.98 2.38 C-29.64 1.98 -27.29 1.63 -24.94 1.31 C-24.76 1.29 -24.76 1.29 -23.85 1.17 C-15.93 0.15 -7.98 0.02 0 0 Z M-42.94 42.31 C-43.13 42.37 -43.13 42.37 -44.12 42.67 C-60.73 47.76 -75.06 55.58 -87.94 67.31 C-88.16 67.52 -88.16 67.52 -89.31 68.55 C-99.36 77.76 -107.02 88.33 -113.44 100.31 C-113.6 100.62 -113.77 100.93 -113.94 101.25 C-118.92 110.61 -118.92 110.61 -119.13 115.43 C-119.11 116.01 -119.09 116.59 -119.06 117.19 C-119.04 117.78 -119.03 118.38 -119.01 118.99 C-119 119.21 -119 119.21 -118.94 120.31 C-117.29 120.97 -115.64 121.63 -113.94 122.31 C-113.56 122.09 -113.19 121.86 -112.8 121.63 C-95.24 111.16 -76.76 103.37 -56.94 98.31 C-56.54 98.21 -56.15 98.11 -55.74 98.01 C-42.95 94.77 -30.1 93.15 -16.94 92.31 C-16.66 92.29 -16.66 92.29 -15.25 92.2 C-12.13 92.03 -9.06 92.1 -5.94 92.31 C-5.28 92.35 -4.63 92.39 -3.95 92.44 C8.47 93.26 20.18 95.62 32.06 99.31 C32.68 99.5 33.29 99.69 33.93 99.89 C48.42 104.49 62.88 114.21 73.12 125.44 C75.17 128.07 75.99 130.68 76.7 133.89 C76.82 134.36 76.94 134.83 77.06 135.31 C77.39 135.64 77.72 135.97 78.06 136.31 C79.71 136.31 81.36 136.31 83.06 136.31 C83.72 135.65 84.38 134.99 85.06 134.31 C85.81 118.27 84.31 103.39 76.86 88.93 C69.3 74.68 58.17 61.58 44.43 52.95 C29.33 43.7 13.32 38.42 -4.42 37.88 C-17.66 37.6 -30.25 38.42 -42.94 42.31 Z M-54.94 114.31 C-64.96 121.83 -73.38 131.57 -78.35 143.14 C-78.9 144.52 -79.43 145.91 -79.94 147.31 C-80.1 147.75 -80.26 148.18 -80.43 148.62 C-84.06 158.67 -84.41 170.99 -82.75 181.5 C-81.76 186.65 -79.99 191.5 -77.94 196.31 C-77.72 196.82 -77.51 197.34 -77.29 197.86 C-73.09 207.52 -65.52 216.04 -57.16 222.38 C-51.82 226.17 -46.03 228.95 -39.94 231.31 C-39.54 231.48 -39.14 231.64 -38.74 231.81 C-28.83 235.83 -16.28 235.5 -5.8 234.17 C5.02 232.48 14.79 227.12 23.31 220.44 C32.27 213.08 39.24 203.97 43.36 193.05 C44.37 190.17 45.29 187.27 46.06 184.31 C46.16 183.95 46.27 183.58 46.37 183.2 C48.7 173.53 48.33 161.19 45.58 151.68 C44.58 148.48 43.39 145.39 42.06 142.31 C41.84 141.79 41.61 141.27 41.38 140.73 C37.97 133.13 32.95 127.13 27.06 121.31 C26.72 120.98 26.39 120.64 26.04 120.3 C17.82 112.3 8.67 107.54 -2.41 104.67 C-20.25 100.46 -39.9 103.7 -54.94 114.31 Z " fill="#6ABBE3" transform="translate(390.9375,141.6875)"/>
<path d="M0 0 C4.99 1.46 9.71 3.7 14.44 5.84 C18.86 7.85 23.31 9.76 27.76 11.7 C29.29 12.36 30.81 13.04 32.33 13.71 C33.28 14.13 34.23 14.54 35.18 14.96 C35.39 15.06 35.39 15.06 36.47 15.54 C43.07 18.43 49.92 18.72 57.03 18.23 C64.12 17.41 70.55 13.78 76.77 10.5 C77.28 10.23 77.79 9.96 78.31 9.69 C78.56 9.56 78.56 9.56 79.81 8.89 C82.83 7.36 85.34 6.51 88.75 6.62 C89.84 6.72 90.92 6.83 92 7 C92.8 7.57 93.59 8.16 94.38 8.75 C94.82 9.07 95.26 9.4 95.71 9.73 C97.33 11.32 98.27 12.88 99 15 C99.4 17.35 99.56 19.71 99.71 22.09 C99.76 22.79 99.82 23.49 99.87 24.19 C99.98 25.67 100.09 27.15 100.2 28.63 C102.29 56.96 107.52 84 121.51 109.11 C122 110 122.49 110.9 122.97 111.8 C136.6 137.25 156.45 160.64 179.18 178.35 C180.05 179.04 180.92 179.73 181.79 180.43 C190.31 187.25 199.06 193.46 208.31 199.25 C216.17 204.17 223.82 209.11 231 215 C231.43 215.35 231.86 215.7 232.31 216.05 C244.57 226.05 252.62 238.8 258.54 253.31 C259.47 255.86 259.83 258.3 260 261 C260.04 261.6 260.08 262.21 260.12 262.83 C260.67 271.83 260.52 280.39 256.65 288.73 C254.54 292.86 252.05 296.61 248.23 299.34 C245.06 301.38 241.78 302.74 238 303 C237.69 303.04 237.38 303.07 237.05 303.11 C228.86 304.01 221.79 301.3 214.24 298.46 C212.91 297.97 211.58 297.49 210.25 297.01 C185.58 288.13 162.55 277.12 140.32 263.33 C105.66 241.84 70.87 229.11 31.26 220.47 C5.25 214.8 -19.49 208.22 -43.6 196.74 C-44.49 196.32 -45.38 195.9 -46.27 195.48 C-59.63 189.12 -59.63 189.12 -63.81 184.01 C-64.52 182.98 -64.77 182.24 -65 181 C-65.19 178.33 -65.12 175.67 -65 173 C-63.07 169.44 -60.97 166.76 -58 164 C-58.17 163.18 -58.17 163.18 -59 159 C-61.31 159.33 -63.62 159.66 -66 160 C-72.66 167.08 -72.66 167.08 -73.75 171.34 C-74.4 175.68 -74.85 179.98 -73.28 184.18 C-71.39 188.51 -68.77 192.12 -65 195 C-38.89 213.84 -4.33 221.77 26.66 227.99 C67.02 236.1 102.69 250.17 137.77 271.94 C151.03 280.17 164.64 287.83 179 294 C179 294.33 179 294.66 179 295 C156.05 296 133.81 291.37 111.71 285.63 C108.81 284.88 105.91 284.13 103 283.38 C102.34 283.21 101.67 283.04 101 282.87 C89.17 279.83 77.27 277.45 65.25 275.31 C30.22 269.06 -1.63 258.9 -32 240 C-32.35 239.78 -32.7 239.57 -33.06 239.34 C-43.08 233.14 -52.65 226.47 -61.99 219.29 C-64.39 217.45 -66.83 215.66 -69.28 213.89 C-78.58 207.15 -87.03 200.91 -91.94 190.19 C-95.39 182.32 -95.79 174.49 -95 166 C-93.86 159.58 -90.23 154.48 -86.13 149.54 C-79.96 142.37 -73.03 135.74 -65.44 130.06 C-62.2 127.51 -59.63 124.33 -57 121.18 C-55.95 119.94 -54.89 118.72 -53.83 117.49 C-46.21 108.57 -39.93 99.14 -35.69 88.19 C-35.46 87.61 -35.23 87.03 -34.99 86.43 C-29.98 72.66 -29.54 58.44 -29.45 43.96 C-29.42 40.24 -29.38 36.53 -29.33 32.82 C-29.31 31.55 -29.31 30.28 -29.3 29.01 C-29.27 24.96 -28.97 21.11 -28.11 17.14 C-28.08 16.96 -28.08 16.96 -27.88 16.05 C-27.03 12.47 -25.32 9.47 -22.82 6.77 C-16.44 0.78 -8.59 -1.5 0 0 Z M28 96 C27.34 96.66 26.68 97.32 26 98 C26 99.65 26 101.3 26 103 C26.25 103.13 26.25 103.13 27.51 103.79 C45.73 113.39 45.73 113.39 53 121 C53.66 121 54.32 121 55 121 C55.13 121.28 55.13 121.28 55.79 122.72 C56.81 124.75 58.05 126.49 59.41 128.3 C65.14 135.95 68.81 144.71 71 154 C72.65 154.33 74.3 154.66 76 155 C76.99 153.68 77.98 152.36 79 151 C78.17 141.16 74.42 132.2 69 124 C65.8 119.57 61.93 115.77 58 112 C57.34 111.33 56.67 110.66 56.01 109.99 C52.13 106.2 47.64 103.38 43 100.62 C42.71 100.45 42.42 100.27 42.13 100.09 C37.45 97.26 33.35 96.32 28 96 Z " fill="#F66A3E" transform="translate(499,324)"/>
<path d="M0 0 C0.37 -0 0.75 -0 1.14 -0 C29.41 -0 56.61 5.31 82.75 16.25 C83.13 16.41 83.51 16.57 83.91 16.73 C102.11 24.29 119.05 35.11 133.75 48.25 C134.24 48.68 134.74 49.12 135.24 49.57 C141.51 55.09 147.53 60.71 152.75 67.25 C152.93 67.48 152.93 67.48 153.87 68.63 C178.51 99.31 194.19 135.61 200.23 174.48 C200.99 179.71 201.45 184.97 201.75 190.25 C203.73 190.91 205.71 191.57 207.75 192.25 C214.9 199.78 214.9 199.78 216.12 203.31 C217.34 208.64 217.83 213.95 217.99 219.4 C218.94 251.08 228.07 281.33 244.56 308.35 C247.99 313.87 251.81 319.1 255.75 324.25 C256.11 324.72 256.47 325.19 256.84 325.68 C275.72 350.14 299 368.9 324.89 385.47 C335.5 392.26 345.77 399.34 354.75 408.25 C355.1 408.6 355.46 408.95 355.82 409.31 C365.78 419.35 373.16 432.35 376.86 446 C378.03 450.62 378.1 455.2 378.06 459.94 C378.06 460.16 378.06 460.16 378.06 461.26 C377.99 470.66 376.99 479.69 372.5 488.12 C369.59 493.08 365.73 497.53 360.77 500.5 C358.82 501.57 356.81 502.43 354.75 503.25 C354.49 503.36 354.49 503.36 353.18 503.93 C346.82 506.25 338.95 506.07 332.35 505.03 C328.43 504.17 324.71 502.74 321.11 500.98 C311.95 496.69 303.8 496.76 293.91 497.1 C289.33 497.26 284.74 497.27 280.16 497.29 C279.7 497.3 279.24 497.3 278.77 497.3 C256.11 497.39 234.81 491.99 212.99 486.43 C201.35 483.47 189.71 480.74 177.91 478.52 C177.34 478.42 176.76 478.31 176.17 478.2 C170.62 477.15 165.06 476.14 159.5 475.17 C139.37 471.65 119.24 466.36 100.83 457.28 C100.5 457.11 100.17 456.95 99.82 456.78 C99.47 456.6 99.11 456.43 98.75 456.25 C98.36 456.06 97.97 455.87 97.57 455.67 C81.64 447.88 67.12 438.59 52.75 428.25 C52.31 428.31 51.88 428.36 51.43 428.42 C4.82 434.27 -42.57 430.93 -113.67 407.98 C-114.68 407.56 -115.69 407.12 -116.69 406.67 C-118.97 405.68 -120.71 404.97 -123.25 405.25 C-123.36 405.71 -123.47 406.18 -123.59 406.66 C-128.26 423.75 -140.82 440.13 -153.19 452.45 C-155.18 454.41 -157.2 456.34 -159.25 458.25 C-159.91 458.25 -160.57 458.25 -161.25 458.25 C-161.25 458.91 -161.25 459.57 -161.25 460.25 C-171.64 468.38 -182.15 476.12 -193.25 483.25 C-194.9 482.92 -196.55 482.59 -198.25 482.25 C-198.91 480.6 -199.57 478.95 -200.25 477.25 C-200.06 476.82 -199.88 476.4 -199.69 475.96 C-193.9 462.59 -189.23 449.21 -186.5 434.88 C-186.38 434.27 -186.27 433.66 -186.15 433.04 C-184.17 421.88 -184 410.57 -183.72 399.27 C-183.67 397.23 -183.61 395.19 -183.56 393.15 C-183.45 389.19 -183.35 385.22 -183.25 381.25 C-186.25 384.13 -188.97 386.98 -191.3 390.43 C-191.84 391.2 -192.38 391.97 -192.92 392.75 C-193.74 393.93 -194.56 395.12 -195.37 396.31 C-198.91 401.49 -202.56 405.74 -207.43 409.72 C-209.24 411.2 -210.8 412.84 -212.38 414.56 C-229.54 432.15 -255.33 442.53 -278.56 449.15 C-279.21 449.33 -279.85 449.51 -280.5 449.69 C-281.08 449.85 -281.67 450.02 -282.27 450.19 C-286.31 451.23 -290.09 451.43 -294.25 451.25 C-295.24 450.26 -296.23 449.27 -297.25 448.25 C-296.92 446.6 -296.59 444.95 -296.25 443.25 C-295.64 442.73 -295.04 442.21 -294.41 441.67 C-283.75 432.36 -274.84 422.2 -267.25 410.25 C-267.06 409.94 -266.86 409.64 -266.66 409.33 C-249.28 381.95 -239.09 352.24 -230.25 321.25 C-230.03 320.47 -229.8 319.69 -229.58 318.91 C-229.14 317.36 -228.69 315.8 -228.25 314.25 C-228.49 314.45 -228.74 314.66 -228.99 314.87 C-232.08 317.45 -235.2 319.99 -238.33 322.51 C-239.27 323.27 -240.21 324.03 -241.15 324.79 C-251.57 333.22 -262.25 340.27 -274.25 346.25 C-274.64 346.45 -275.03 346.64 -275.43 346.84 C-301.96 360.11 -331.41 367.74 -361.13 367.46 C-362.81 367.44 -364.49 367.44 -366.16 367.44 C-373.25 367.44 -380.23 367.29 -387.25 366.25 C-387.91 365.75 -387.91 365.75 -391.25 363.25 C-390.92 361.27 -390.59 359.29 -390.25 357.25 C-386.37 354.74 -382.49 352.29 -378.35 350.21 C-378.19 350.13 -378.19 350.13 -377.37 349.72 C-376.69 349.39 -376.02 349.05 -375.35 348.71 C-365.64 343.81 -356.95 337.74 -348.25 331.25 C-347.65 330.81 -347.05 330.36 -346.45 329.92 C-339.76 324.94 -333.31 319.7 -326.97 314.27 C-324.12 311.83 -321.24 309.43 -318.3 307.1 C-305.66 297.03 -294.31 285.4 -282.88 274.01 C-282.14 273.26 -281.39 272.52 -280.64 271.77 C-275.21 266.37 -269.94 260.91 -264.97 255.08 C-263.16 252.99 -261.26 250.97 -259.38 248.94 C-255.6 244.82 -252.01 240.59 -248.52 236.25 C-245.78 232.86 -242.95 229.6 -239.99 226.42 C-237.39 223.58 -235.32 220.48 -233.25 217.25 C-233.43 217.3 -233.43 217.3 -234.31 217.57 C-265.39 226.85 -298.26 229.87 -330.25 223.25 C-330.46 223.21 -330.46 223.21 -331.5 222.99 C-348.34 219.47 -364.53 213.88 -380.31 207.06 C-380.7 206.9 -381.08 206.74 -381.48 206.57 C-388.21 203.7 -388.21 203.7 -390.25 201.01 C-390.41 200.72 -390.41 200.72 -391.25 199.25 C-390.59 197.6 -389.93 195.95 -389.25 194.25 C-384.59 193.2 -379.94 192.18 -375.25 191.24 C-353.94 186.94 -333.71 180.5 -313.62 172.25 C-313.27 172.11 -312.92 171.96 -312.55 171.81 C-302.87 167.85 -293.46 163.47 -284.14 158.72 C-280.81 157.02 -277.44 155.38 -274.07 153.75 C-233.28 133.85 -188.03 109.48 -158.44 74.28 C-148.01 61.91 -136.4 50.69 -123.25 41.25 C-122.93 41.02 -122.6 40.78 -122.27 40.54 C-92.71 19.21 -58.17 4.74 -21.8 0.69 C-14.56 -0.04 -7.27 0 0 0 Z M-106.71 41.57 C-111.76 44.86 -116.55 48.48 -121.25 52.25 C-121.76 52.65 -122.26 53.06 -122.79 53.47 C-135.32 63.51 -147.34 74.84 -157.05 87.67 C-157.92 88.81 -158.79 89.95 -159.68 91.08 C-169.43 103.64 -177.12 117.06 -184.25 131.25 C-184.45 131.65 -184.65 132.05 -184.86 132.46 C-195.96 154.47 -203.23 179 -207.25 203.25 C-207.28 203.44 -207.28 203.44 -207.44 204.4 C-208.21 209 -208.81 213.61 -209.25 218.25 C-209.28 218.54 -209.28 218.54 -209.42 220.04 C-212.36 252.49 -209.54 287.5 -195.83 317.4 C-184.22 342.31 -165.97 364.56 -143.45 380.44 C-136.74 385.08 -129.6 388.98 -122.34 392.69 C-121.29 393.23 -120.24 393.78 -119.19 394.33 C-77.66 415.91 -26.57 423.2 19.85 421.16 C26.53 420.85 33.16 420.49 39.75 419.25 C39.42 418.26 39.09 417.27 38.75 416.25 C38.45 416.07 38.15 415.88 37.84 415.69 C27.58 409.31 16.56 401.82 10.56 391.01 C9.93 389.77 9.33 388.52 8.75 387.25 C8.55 386.82 8.35 386.4 8.14 385.95 C4.44 377.81 3.21 369.31 3.93 360.4 C4.81 353.11 7.67 346.33 11.75 340.25 C18.13 331.81 26.36 324.78 34.1 317.62 C35.32 316.5 36.53 315.38 37.75 314.25 C38.02 314 38.29 313.75 38.57 313.49 C50.43 302.48 60.37 289.47 65.19 273.81 C65.66 272.23 66.12 270.65 66.56 269.06 C66.67 268.69 66.77 268.32 66.88 267.94 C67.98 264.01 68.86 260.11 69.3 256.05 C69.32 255.86 69.32 255.86 69.43 254.88 C69.82 251 69.91 247.13 69.95 243.23 C69.96 241.96 69.98 240.7 70 239.44 C70.06 235.85 70.12 232.26 70.15 228.68 C70.37 206.5 70.37 206.5 74.38 199.08 C77.33 194.12 81.29 190.44 86.25 187.5 C91.39 184.76 97.39 183.25 103.19 182.81 C106.32 183.03 109.13 183.9 112.1 184.89 C112.36 184.98 112.36 184.98 113.68 185.42 C120.19 187.67 126.43 190.52 132.69 193.38 C134.48 194.18 136.27 194.99 138.07 195.8 C139.17 196.3 140.27 196.8 141.37 197.3 C148.28 200.42 154.36 202.79 162.07 202.14 C172.61 200.69 182.37 194.95 191.75 190.25 C188.87 154.7 177.98 119.66 157.67 90.08 C156.07 87.77 154.42 85.51 152.75 83.25 C152.57 83 152.57 83 151.65 81.74 C149.47 78.8 147.16 76 144.75 73.25 C144.33 72.76 143.91 72.28 143.47 71.77 C123.2 48.46 96.64 31.01 67.46 20.77 C25.61 6.56 -20.33 5.79 -106.71 41.57 Z M-186.25 112.25 C-186.38 112.34 -186.38 112.34 -187.02 112.83 C-195.24 118.93 -203.65 124.7 -212.25 130.25 C-212.62 130.49 -212.99 130.73 -213.37 130.97 C-250.48 154.91 -290.77 176.19 -368.25 200.25 C-367.07 201.67 -366.15 202.29 -364.44 203.04 C-363.71 203.3 -362.97 203.55 -362.23 203.8 C-361.83 203.94 -361.43 204.08 -361.01 204.22 C-359.68 204.68 -358.34 205.12 -357 205.56 C-356.54 205.72 -356.08 205.87 -355.6 206.03 C-344.99 209.53 -334.22 212.16 -323.25 214.25 C-322.89 214.32 -322.53 214.39 -322.17 214.46 C-286.48 221.24 -250.27 212.73 -216.25 202.25 C-216.21 202.07 -216.21 202.07 -216 201.15 C-209.01 170.54 -199.68 142.21 -185.25 114.25 C-185.58 113.59 -185.91 112.93 -186.25 112.25 Z M88.75 196.25 C88.27 196.54 87.79 196.83 87.29 197.12 C84.53 199 83 201.22 81.5 204.12 C81.34 204.44 81.17 204.76 81 205.08 C78.49 210.43 78.6 216.38 78.55 222.17 C78.54 223.5 78.52 224.82 78.5 226.15 C78.44 229.91 78.38 233.67 78.35 237.43 C78.21 252.2 77.54 266.74 71.94 280.62 C71.81 280.95 71.68 281.28 71.55 281.62 C66.24 295.15 57.15 307.68 46.48 317.57 C45.38 318.6 44.31 319.67 43.25 320.75 C42.85 321.14 42.46 321.54 42.05 321.95 C41.08 322.91 40.12 323.89 39.17 324.87 C36.14 327.95 33.05 330.89 29.75 333.69 C23.02 339.48 17.29 346.01 13.75 354.25 C11.67 360.44 11.87 368.46 13.05 374.88 C15.04 382.58 19.2 389.66 24.73 395.35 C31.57 402 39.6 407.34 47.37 412.83 C49.77 414.53 52.13 416.28 54.47 418.07 C64.59 425.79 75.35 432.24 86.42 438.5 C87.68 439.21 88.93 439.93 90.19 440.65 C114.92 454.87 142.04 461.74 169.84 466.95 C176.8 468.25 183.75 469.59 190.69 471 C190.98 471.06 190.98 471.06 192.47 471.36 C203.04 473.53 213.45 476.19 223.88 478.94 C235.76 482.07 247.51 484.87 259.75 486.25 C260.75 486.38 261.76 486.51 262.76 486.64 C270.71 487.58 278.76 487.35 286.75 487.25 C283.66 484.63 280.21 482.88 276.58 481.12 C274.8 480.25 273.02 479.37 271.24 478.48 C270.87 478.3 270.5 478.12 270.12 477.93 C260.56 473.18 251.17 468.27 242.19 462.5 C227.23 452.91 211.21 444 194.75 437.25 C194.56 437.17 194.56 437.17 193.62 436.79 C173.38 428.53 152.28 423.7 130.9 419.46 C103 413.93 76.39 405.6 51.06 392.44 C50.72 392.26 50.37 392.08 50.02 391.9 C44.46 389.02 39.93 385.44 36.5 380.12 C36.19 379.65 35.87 379.17 35.55 378.68 C33.72 375.41 33.5 372.46 33.5 368.8 C33.61 364.84 34.68 361.64 36.75 358.25 C38.29 356.11 39.98 354.21 41.75 352.25 C44.06 351.92 46.37 351.59 48.75 351.25 C48.92 352.07 48.92 352.07 49.75 356.25 C49.33 356.65 48.91 357.05 48.47 357.46 C47.92 357.99 47.37 358.53 46.81 359.06 C46.53 359.32 46.26 359.58 45.97 359.85 C44.71 361.08 43.83 362.09 43.06 363.69 C42.67 365.63 42.64 367.46 42.69 369.44 C42.69 369.81 42.7 370.17 42.7 370.55 C42.73 372.83 43.01 373.88 44.12 375.88 C47.16 380.57 51.9 382.76 56.75 385.25 C57.09 385.43 57.43 385.6 57.77 385.78 C81.16 397.87 105.12 405.29 130.79 410.83 C162.71 417.71 192.75 425.62 221.83 440.77 C223.28 441.53 224.74 442.26 226.2 443 C233.71 446.87 240.92 451.14 248.14 455.52 C273.46 470.9 299.5 482.81 327.39 492.75 C327.77 492.89 328.16 493.03 328.56 493.17 C334.6 495.3 340.62 496.15 346.99 495.03 C351.62 493.96 355.88 492.14 359.41 488.89 C363.81 483.92 366.44 476.66 367.75 470.25 C368.04 467.49 368.09 464.77 368.06 462 C368.06 461.63 368.06 461.25 368.05 460.87 C367.91 448.39 363.55 437.84 357.3 427.16 C354.63 422.76 351.3 418.95 347.75 415.25 C347.38 414.85 347 414.45 346.62 414.04 C338.05 405.09 327.33 398.74 316.99 392.05 C306.91 385.52 297.08 378.82 287.75 371.25 C287.61 371.14 287.61 371.14 286.91 370.57 C272.51 358.86 259.39 346.06 248.38 331.1 C247.76 330.26 247.14 329.44 246.51 328.62 C227.86 304.21 214.14 274.87 210.09 244.23 C209.63 240.44 209.34 236.63 209.04 232.83 C208.98 232.07 208.92 231.3 208.86 230.54 C208.58 227.07 208.31 223.6 208.09 220.13 C207.99 218.66 207.88 217.19 207.77 215.72 C207.69 214.71 207.64 213.69 207.58 212.68 C207.31 209.27 206.73 206.82 204.88 203.91 C203.39 201.79 201.93 200.58 199.75 199.25 C196.01 198.78 192.71 198.76 189.19 200.17 C186.41 201.41 183.7 202.79 181 204.19 C179.6 204.89 178.2 205.6 176.79 206.3 C175.92 206.73 175.06 207.17 174.2 207.61 C168.03 210.74 161.55 210.85 154.74 210.52 C143.5 209.77 132.13 202.8 122.1 198.08 C121.59 197.85 121.09 197.61 120.57 197.37 C119.62 196.92 118.68 196.48 117.73 196.03 C112.75 193.69 107.92 191.85 102.38 191.88 C101.9 191.88 101.43 191.88 100.94 191.88 C96.16 192.05 92.68 193.65 88.75 196.25 Z M-219.25 215.25 C-219.5 215.57 -219.74 215.89 -219.99 216.22 C-222.34 219.29 -224.7 222.35 -227.06 225.41 C-228.25 226.96 -229.44 228.5 -230.63 230.05 C-236.76 238.06 -243.18 245.62 -250.08 252.98 C-251.61 254.64 -253.09 256.35 -254.56 258.06 C-263.72 268.62 -273.5 278.6 -283.36 288.49 C-284.12 289.24 -284.87 289.99 -285.62 290.75 C-291.05 296.21 -296.55 301.53 -302.42 306.53 C-304.08 307.97 -305.69 309.47 -307.3 310.96 C-312.62 315.87 -318.09 320.51 -323.74 325.03 C-325.05 326.09 -326.35 327.17 -327.64 328.25 C-336.42 335.64 -345.71 342.01 -355.39 348.17 C-355.88 348.48 -356.36 348.79 -356.85 349.11 C-357.75 349.68 -358.66 350.25 -359.56 350.82 C-362.63 352.76 -365.45 354.93 -368.25 357.25 C-336.23 358.96 -304.57 350.38 -276.02 336.16 C-263.51 329.75 -252.03 321.21 -241.25 312.25 C-241.25 311.59 -241.25 310.93 -241.25 310.25 C-240.7 310.03 -240.15 309.81 -239.59 309.58 C-236.47 308.02 -234.21 305.47 -231.81 303 C-231.32 302.5 -230.83 302.01 -230.34 301.51 C-227.13 298.24 -224.04 294.9 -221.25 291.25 C-220.46 291.22 -219.67 291.2 -218.88 291.19 C-218.43 291.18 -217.99 291.16 -217.54 291.15 C-216.18 291.26 -215.43 291.61 -214.25 292.25 C-214.68 287.39 -215.13 282.57 -216 277.77 C-218.3 264.82 -218.63 252.22 -218.46 239.09 C-218.42 236.39 -218.41 233.68 -218.4 230.98 C-218.36 225.74 -218.31 220.49 -218.25 215.25 C-218.58 215.25 -218.91 215.25 -219.25 215.25 Z M-214.25 292.25 C-214.31 292.59 -214.37 292.92 -214.43 293.27 C-217.45 310.29 -220.77 326.97 -226.29 343.39 C-227.13 345.87 -227.92 348.35 -228.7 350.85 C-238.21 380.9 -252.79 407.79 -271.25 433.25 C-271.25 434.24 -271.25 435.23 -271.25 436.25 C-246.31 427.16 -223.7 414.78 -206.25 394.25 C-198.82 385.25 -192.44 375.54 -187.05 365.2 C-186.88 364.88 -186.71 364.56 -186.54 364.23 C-186.09 363.38 -185.65 362.52 -185.21 361.66 C-184.05 359.96 -183.01 359.28 -181.25 358.25 C-182.55 355.51 -183.97 353.12 -185.79 350.7 C-186.29 350.03 -186.79 349.35 -187.29 348.67 C-187.55 348.31 -187.81 347.96 -188.07 347.6 C-194.18 339.25 -199.09 330.71 -203.25 321.25 C-203.39 320.93 -203.53 320.61 -203.68 320.28 C-207.69 311.16 -210.75 301.89 -213.25 292.25 C-213.58 292.25 -213.91 292.25 -214.25 292.25 Z M-175.25 364.25 C-175.24 364.42 -175.24 364.42 -175.16 365.31 C-174.32 375.81 -174.03 386.27 -174.01 396.8 C-174.01 398.55 -173.99 400.3 -173.97 402.05 C-173.76 418.59 -175.24 434.8 -179.88 450.75 C-180.09 451.54 -180.31 452.33 -180.53 453.12 C-180.92 454.54 -181.32 455.95 -181.73 457.37 C-182.27 459.32 -182.77 461.28 -183.25 463.25 C-180 461.77 -177.38 459.94 -174.62 457.69 C-174.19 457.34 -173.76 456.98 -173.31 456.62 C-168.47 452.66 -163.76 448.58 -159.25 444.25 C-159.05 444.06 -159.05 444.06 -158.02 443.07 C-146.09 431.42 -138.26 416.22 -131.25 401.25 C-131.42 400.59 -131.42 400.59 -132.25 397.25 C-132.58 397.06 -132.9 396.87 -133.24 396.67 C-145.62 389.4 -156.59 381 -167.15 371.26 C-169.79 368.85 -172.53 366.56 -175.25 364.25 Z " fill="#161813" transform="translate(391.25,131.75)"/>
<path d="M0 0 C3 1.42 5.9 3.01 8.78 4.67 C10.31 5.55 11.85 6.39 13.41 7.22 C25.78 14.15 36.28 26.01 43.55 38.06 C50.77 50.46 54.66 63.95 54.74 78.32 C54.73 81.76 54.63 85.2 54.47 88.64 C53.81 89.3 53.15 89.96 52.47 90.64 C50.82 90.64 49.17 90.64 47.47 90.64 C46.51 89.84 46.51 89.84 45.47 88.64 C45.08 87.2 45.08 87.2 44.78 85.52 C43.67 81.53 41.77 78.84 38.9 75.88 C23.83 61.48 5.64 54.26 -14.24 49.21 C-17.32 48.47 -20.38 47.98 -23.53 47.64 C-24.08 47.58 -24.64 47.52 -25.21 47.46 C-57.84 44.17 -91.4 50.88 -121.18 64.27 C-123.3 65.23 -125.42 66.21 -127.53 67.2 C-127.92 67.39 -128.32 67.57 -128.72 67.76 C-134.25 70.36 -139.42 73.3 -144.53 76.64 C-146.18 75.98 -147.83 75.32 -149.53 74.64 C-150.07 71.23 -149.82 68.24 -148.7 65 C-143.49 51.44 -135.96 39.98 -126.19 29.37 C-125.56 28.68 -124.94 27.98 -124.32 27.28 C-112.12 13.65 -95.35 3.8 -78.15 -2.11 C-75.63 -2.92 -73.09 -3.65 -70.53 -4.36 C-69.95 -4.52 -69.36 -4.69 -68.76 -4.86 C-46.88 -10.76 -20.67 -9.49 0 0 Z M-51.53 1.64 C-59.25 11.4 -66.91 21.09 -73.53 31.64 C-73.2 32.3 -72.87 32.96 -72.53 33.64 C-72.15 33.25 -71.77 32.87 -71.37 32.47 C-58.54 19.47 -58.54 19.47 -53.39 15.14 C-48.83 11.27 -44.71 6.91 -40.53 2.64 C-40.53 2.31 -40.53 1.98 -40.53 1.64 C-44.16 1.64 -47.79 1.64 -51.53 1.64 Z M-31.53 1.64 C-39.04 11.31 -45.82 21.41 -52.53 31.64 C-52.2 32.3 -51.87 32.96 -51.53 33.64 C-44.89 27.59 -38.32 21.51 -32.01 15.1 C-28.36 11.41 -24.5 7.99 -20.53 4.64 C-21.19 3.98 -21.85 3.32 -22.53 2.64 C-25.5 2.31 -28.47 1.98 -31.53 1.64 Z M-64.53 3.64 C-67.5 4.63 -70.47 5.62 -73.53 6.64 C-74.14 7.44 -74.74 8.24 -75.37 9.06 C-81.22 16.76 -87.27 24.26 -93.53 31.64 C-92.54 31.64 -91.55 31.64 -90.53 31.64 C-90.29 31.41 -90.06 31.17 -89.82 30.92 C-87.34 28.42 -84.85 25.92 -82.37 23.43 C-81.45 22.5 -80.52 21.57 -79.6 20.64 C-74.42 15.41 -69.24 10.29 -63.53 5.64 C-63.86 4.98 -64.19 4.32 -64.53 3.64 Z M-13.53 5.64 C-20.98 14.86 -27.42 24.49 -33.53 34.64 C-32.54 34.64 -31.55 34.64 -30.53 34.64 C-30.24 34.35 -29.95 34.05 -29.65 33.74 C-24.11 28.12 -18.55 22.59 -12.52 17.48 C-10.67 15.91 -8.85 14.3 -7.03 12.7 C-6.35 12.11 -5.68 11.52 -5 10.93 C-4.51 10.5 -4.03 10.08 -3.53 9.64 C-5.26 8.03 -6.81 6.83 -9.13 6.22 C-10.6 5.98 -12.05 5.79 -13.53 5.64 Z M-43.53 9.64 C-43.94 10.03 -44.35 10.41 -44.78 10.81 C-54.33 19.79 -63.91 28.73 -73.53 37.64 C-73.53 38.3 -73.53 38.96 -73.53 39.64 C-69.9 39.31 -66.27 38.98 -62.53 38.64 C-57.4 34.06 -53.95 28.56 -50.22 22.83 C-49.57 21.84 -48.91 20.85 -48.26 19.86 C-46.68 17.46 -45.1 15.05 -43.53 12.64 C-43.53 11.65 -43.53 10.66 -43.53 9.64 Z M-65.53 11.64 C-70.49 16.04 -75.43 20.44 -80.06 25.2 C-81.65 26.81 -83.28 28.29 -85.05 29.7 C-90.34 33.96 -94.37 39.32 -98.53 44.64 C-97.54 44.97 -96.55 45.3 -95.53 45.64 C-92.23 44.65 -88.93 43.66 -85.53 42.64 C-84.68 41.47 -83.84 40.3 -82.97 39.09 C-76.84 30.6 -70.7 22.11 -64.53 13.64 C-64.69 13.31 -64.69 13.31 -65.53 11.64 Z M2.47 12.64 C0.24 15.54 -1.98 18.44 -4.2 21.34 C-4.96 22.32 -5.71 23.31 -6.47 24.29 C-7.56 25.71 -8.65 27.14 -9.74 28.56 C-10.07 28.99 -10.41 29.43 -10.75 29.87 C-12.89 32.68 -14.78 35.57 -16.53 38.64 C-15.21 38.97 -13.89 39.3 -12.53 39.64 C-12.31 39.43 -12.31 39.43 -11.17 38.36 C-9.48 36.76 -7.78 35.16 -6.08 33.56 C-5.35 32.88 -4.62 32.19 -3.89 31.5 C0.79 27.08 5.54 22.78 10.47 18.64 C9.81 17.32 9.15 16 8.47 14.64 C6.49 13.98 4.51 13.32 2.47 12.64 Z M-26.53 13.64 C-26.85 13.97 -27.17 14.3 -27.5 14.63 C-29.01 16.16 -30.52 17.68 -32.03 19.2 C-32.3 19.48 -32.57 19.75 -32.85 20.04 C-36.45 23.65 -40.08 27.18 -44.03 30.41 C-46.37 32.36 -47.59 34.06 -49.53 36.64 C-45.9 36.64 -42.27 36.64 -38.53 36.64 C-36.86 34.01 -35.18 31.38 -33.51 28.74 C-32.94 27.85 -32.38 26.96 -31.81 26.06 C-30.99 24.77 -30.17 23.48 -29.35 22.19 C-29.1 21.79 -28.85 21.4 -28.59 20.99 C-27.08 18.6 -25.75 16.19 -24.53 13.64 C-25.19 13.64 -25.85 13.64 -26.53 13.64 Z M-5.53 14.64 C-5.87 14.96 -6.21 15.28 -6.56 15.6 C-13.84 22.34 -21.14 29.04 -28.53 35.64 C-28.2 36.3 -27.87 36.96 -27.53 37.64 C-25.22 37.64 -22.91 37.64 -20.53 37.64 C-14.43 31.15 -9.48 24.02 -4.53 16.64 C-4.86 15.98 -5.19 15.32 -5.53 14.64 Z M-91.53 21.64 C-94.25 24.34 -96.97 27.04 -99.69 29.75 C-100.61 30.66 -101.53 31.58 -102.46 32.49 C-106.92 36.92 -111.38 41.35 -115.56 46.05 C-115.83 46.36 -116.11 46.66 -116.4 46.98 C-118.29 49.15 -119.18 50.94 -120.53 53.64 C-117.23 52.32 -113.93 51 -110.53 49.64 C-109.92 48.85 -109.32 48.07 -108.69 47.26 C-102.64 39.38 -96.58 31.51 -90.53 23.64 C-90.86 22.98 -91.19 22.32 -91.53 21.64 Z M17.47 21.64 C11.76 27.8 7.15 34.71 2.47 41.64 C2.8 42.3 3.13 42.96 3.47 43.64 C6 41.69 8.53 39.73 11.05 37.77 C11.91 37.1 12.77 36.44 13.63 35.77 C14.87 34.82 16.1 33.86 17.34 32.9 C17.72 32.6 18.1 32.31 18.5 32 C18.68 31.86 18.68 31.86 19.59 31.15 C19.91 30.91 20.22 30.67 20.55 30.41 C21.58 29.55 22.52 28.59 23.47 27.64 C21.82 25.66 20.17 23.68 18.47 21.64 C18.14 21.64 17.81 21.64 17.47 21.64 Z M9.47 22.64 C9.27 22.85 9.07 23.05 8.86 23.27 C4.76 27.46 0.6 31.54 -3.91 35.29 C-5.85 36.93 -7.24 38.46 -8.53 40.64 C-6.22 40.97 -3.91 41.3 -1.53 41.64 C0.03 39.59 1.57 37.52 3.12 35.45 C3.64 34.75 4.17 34.05 4.7 33.35 C5.46 32.34 6.21 31.33 6.97 30.31 C7.2 30.01 7.44 29.7 7.68 29.38 C9.29 27.19 9.95 25.31 10.47 22.64 C10.14 22.64 9.81 22.64 9.47 22.64 Z M-108.53 24.64 C-115.48 31.16 -122.01 37.81 -127.65 45.52 C-127.77 45.67 -127.77 45.67 -128.34 46.44 C-131.43 50.63 -133.69 54.77 -135.53 59.64 C-131.44 58.08 -129.11 55.18 -126.4 51.89 C-126.17 51.61 -125.93 51.33 -125.69 51.04 C-118.71 42.68 -112.53 33.72 -106.53 24.64 C-107.19 24.64 -107.85 24.64 -108.53 24.64 Z M24.47 31.64 C12.58 40.16 12.58 40.16 7.47 44.64 C8.05 45.13 8.63 45.61 9.22 46.08 C9.55 46.35 9.87 46.61 10.2 46.89 C11.91 47.91 13.53 48.22 15.47 48.64 C16.78 46.94 18.06 45.23 19.35 43.52 C19.71 43.04 20.07 42.57 20.45 42.08 C22.92 38.76 24.41 35.64 25.47 31.64 C25.14 31.64 24.81 31.64 24.47 31.64 Z M28.47 34.64 C26.99 36.95 26.99 36.95 19.47 48.64 C19.8 49.63 20.13 50.62 20.47 51.64 C22.12 51.31 23.77 50.98 25.47 50.64 C28.44 48 31.41 45.36 34.47 42.64 C32.22 37.02 32.22 37.02 30.47 34.64 C29.81 34.64 29.15 34.64 28.47 34.64 Z " fill="#111210" transform="translate(421.5296936035156,187.35775756835938)"/>
<path d="M0 0 C0.33 0.66 0.66 1.32 1 2 C0.71 2.54 0.43 3.08 0.13 3.64 C-14.33 31.13 -23.53 59.71 -30 90 C-69.03 101.41 -107.53 109.56 -147.97 99.84 C-159.53 96.99 -171.09 93.86 -182 89 C-179.58 87.16 -177.36 86.43 -174.41 85.74 C-173.49 85.51 -172.56 85.28 -171.63 85.05 C-171.14 84.93 -170.65 84.81 -170.15 84.69 C-124.58 73.48 -80.01 51.64 -29 20 C-28.64 19.77 -28.29 19.54 -27.92 19.3 C-18.41 13.15 -9.17 6.65 0 0 Z " fill="#B0D360" transform="translate(205,244)"/>
<path d="M0 0 C0.33 0 0.66 0 1 0 C0.99 0.53 0.98 1.06 0.97 1.61 C0.86 8.36 0.79 15.12 0.75 21.88 C0.75 22.14 0.75 22.14 0.74 23.5 C0.65 37.83 0.88 51.68 3.67 65.79 C3.76 66.26 3.85 66.74 3.95 67.23 C4.12 68.08 4.31 68.93 4.5 69.78 C5.09 72.51 4.85 74.34 4 77 C3.67 76.67 3.34 76.34 3 76 C1.35 76 -0.3 76 -2 76 C-2.4 76.43 -2.81 76.87 -3.22 77.31 C-4.73 78.94 -6.25 80.56 -7.76 82.19 C-8.41 82.89 -9.07 83.59 -9.72 84.29 C-16.66 91.76 -16.66 91.76 -20 95 C-20.66 95 -21.32 95 -22 95 C-22 95.66 -22 96.32 -22 97 C-50.79 120.76 -82.94 134.38 -119.65 140.76 C-120.77 140.96 -121.89 141.16 -123.01 141.37 C-128.29 142.27 -133.6 142.11 -138.94 142.06 C-139.92 142.06 -140.9 142.05 -141.88 142.05 C-144.25 142.04 -146.63 142.02 -149 142 C-145.71 139.28 -142.34 136.82 -138.75 134.5 C-137.75 133.84 -136.74 133.18 -135.74 132.52 C-135.48 132.35 -135.48 132.35 -134.17 131.49 C-124.4 125.08 -114.92 118.54 -106 111 C-105.7 110.75 -105.41 110.5 -105.11 110.25 C-97.42 103.77 -89.9 97.1 -82.56 90.22 C-82.07 89.76 -81.59 89.31 -81.1 88.85 C-80.85 88.62 -80.6 88.39 -80.35 88.15 C-79.02 86.92 -77.68 85.72 -76.3 84.55 C-70.11 79.28 -64.4 73.56 -58.67 67.8 C-57.23 66.35 -55.78 64.91 -54.33 63.46 C-48.6 57.75 -42.97 52.01 -37.73 45.84 C-36.52 44.45 -35.27 43.11 -34.01 41.76 C-33.77 41.51 -33.53 41.26 -33.29 41 C-32.81 40.49 -32.34 39.98 -31.86 39.47 C-26.29 33.53 -21.03 27.4 -16 21 C-15.86 20.83 -15.86 20.83 -15.18 19.95 C-12.97 17.14 -10.76 14.32 -8.56 11.5 C-8.25 11.1 -7.94 10.7 -7.62 10.29 C-6.72 9.14 -5.83 7.99 -4.94 6.84 C-4.67 6.5 -4.41 6.16 -4.13 5.8 C-2.67 3.92 -1.3 2 0 0 Z " fill="#B0D360" transform="translate(172,347)"/>
<path d="M0 0 C1.53 2.1 2.36 3.83 3.01 6.38 C3.19 7.05 3.37 7.72 3.55 8.39 C3.64 8.75 3.73 9.1 3.83 9.46 C9.27 29.69 19.29 48.18 33 64 C33 64.66 33 65.32 33 66 C32.84 66.14 32.84 66.14 32.05 66.84 C28.69 69.96 26.6 73.18 24.52 77.24 C14.83 95.97 0.11 113.53 -17.71 124.98 C-18.8 125.66 -19.9 126.33 -21 127 C-21.29 127.18 -21.57 127.35 -21.87 127.53 C-33.39 134.56 -45.1 139.99 -58 144 C-56.51 140.83 -54.73 138.03 -52.73 135.17 C-43.38 121.6 -35.08 107.89 -28 93 C-27.8 92.57 -27.59 92.14 -27.38 91.7 C-13.67 62.86 -4.88 31.5 0 0 Z " fill="#B0D360" transform="translate(177,424)"/>
<path d="M0 0 C6.85 2.74 12.94 7.27 17.56 13.01 C19.87 16.07 21.96 19.17 22.9 22.92 C22.96 23.14 22.96 23.14 23.24 24.21 C23.56 25.78 23.75 27.32 23.9 28.92 C23.94 29.27 23.97 29.62 24.01 29.97 C24.64 37.45 23.07 44.14 19.9 50.92 C16.71 56.95 11.64 61.48 6.03 65.23 C3.13 67.02 0.22 68.16 -3.1 68.92 C-3.46 69.01 -3.83 69.09 -4.21 69.18 C-10.6 70.52 -16.73 69.82 -22.98 68.06 C-27.89 66.44 -31.45 63.5 -35.1 59.92 C-35.42 59.62 -35.75 59.31 -36.09 59 C-40.23 55.07 -43.14 50.83 -45.01 45.42 C-46.9 39.03 -47.18 31.98 -45.78 25.46 C-44.06 19.28 -40.58 13.5 -36.1 8.92 C-31.37 4.59 -25.61 0.6 -19.3 -0.87 C-13.15 -1.91 -5.95 -2 0 0 Z M-0.1 8.92 C-0.92 9.42 -0.92 9.42 -5.1 11.92 C-6.09 14.23 -7.08 16.54 -8.1 18.92 C-7.77 20.9 -7.44 22.88 -7.1 24.92 C-5.45 26.9 -3.8 28.88 -2.1 30.92 C0.21 31.25 2.52 31.58 4.9 31.92 C11.33 28.92 11.33 28.92 13.9 25.92 C14.23 23.61 14.56 21.3 14.9 18.92 C13.91 16.61 12.92 14.3 11.9 11.92 C11.08 11.43 11.08 11.43 6.9 8.92 C4.59 8.92 2.28 8.92 -0.1 8.92 Z " fill="#100F0D" transform="translate(386.09619140625,276.076416015625)"/>
<path d="M0 0 C6.46 2.84 11.88 7.25 17.12 11.9 C17.49 12.23 17.86 12.55 18.24 12.88 C25.58 19.42 30.05 27.04 33.88 36.03 C34.07 36.49 34.27 36.96 34.48 37.44 C37.55 45.03 38.51 52.02 38.44 60.15 C38.44 60.61 38.43 61.08 38.43 61.55 C38.33 74.14 35.33 84.32 29.11 95.28 C26.54 99.52 23.52 103.3 20.12 106.9 C19.83 107.22 19.53 107.54 19.22 107.87 C11.96 115.39 1.57 121.25 -8.38 124.4 C-19.35 127.45 -32.67 127.42 -43.74 124.82 C-46.53 124.03 -49.2 123.04 -51.88 121.9 C-52.42 121.67 -52.96 121.44 -53.52 121.2 C-64.03 116.55 -72.99 109.27 -79.94 100.13 C-83.74 94.79 -86.52 88.99 -88.88 82.9 C-88.96 82.7 -88.96 82.7 -89.38 81.68 C-93.26 71.95 -92.98 60.05 -91.74 49.77 C-90.25 39.56 -85.98 29.46 -79.66 21.3 C-71.94 11.65 -62.28 3.58 -50.74 -1.07 C-33.92 -7.33 -16.55 -6.61 0 0 Z M-48.88 7.9 C-49.07 7.98 -49.07 7.98 -50.03 8.36 C-57.8 11.44 -65.34 17.38 -70.68 23.78 C-77.57 32.8 -82.19 43.15 -83.7 54.39 C-84.87 64.52 -82.92 74.77 -79.14 84.2 C-77.26 88.46 -74.57 92.15 -71.72 95.81 C-70.97 96.77 -70.27 97.76 -69.58 98.77 C-64.77 105.42 -56.57 110.34 -49.16 113.67 C-39.28 117.59 -28.87 119.06 -18.3 117.7 C-9.27 116.16 -0.31 112.56 6.86 106.79 C9.4 104.62 11.78 102.29 14.12 99.9 C14.46 99.58 14.79 99.25 15.14 98.91 C21.03 93.08 25.31 86.03 27.67 78.06 C30.64 66.53 31.11 56.05 28.21 44.48 C25.35 34.39 19.38 25.88 12 18.56 C4.82 11.63 -4.04 6.98 -13.71 4.53 C-25.46 1.85 -37.86 3.29 -48.88 7.9 Z " fill="#100F0D" transform="translate(399.875,250.09765625)"/>
<path d="M0 0 C7.59 3.19 15.38 8.13 20.66 14.52 C21.9 16.15 22.98 17.85 24.02 19.61 C24.25 20 24.48 20.38 24.72 20.78 C28.21 26.79 30.27 32.7 31.02 39.61 C31.04 39.79 31.04 39.79 31.14 40.72 C31.83 48.28 30.23 56.22 27.37 63.2 C23.48 71.61 17.56 78.27 10.02 83.61 C3.66 87.68 -3.75 90.03 -11.27 90.56 C-20.12 90.81 -28.96 89.49 -36.81 85.26 C-44.37 80.81 -50.43 75.25 -54.92 67.67 C-59.22 59.89 -61.49 52.59 -61.4 43.64 C-61 35 -58.25 27.04 -53.67 19.74 C-48.52 12.03 -42.52 6.47 -34.24 2.23 C-24.32 -2.63 -10.53 -3.73 0 0 Z M-27.98 11.61 C-28.34 11.82 -28.71 12.02 -29.08 12.23 C-35.02 15.65 -40.02 19.73 -43.6 25.64 C-47.19 31.98 -48.34 37.61 -48.36 44.91 C-48.19 51.68 -46.49 57.79 -42.98 63.61 C-39.08 69.04 -33.56 73.82 -27.49 76.67 C-21.83 78.98 -15.3 80.02 -9.21 79.42 C-2.65 78.46 3.06 75.87 8.34 71.92 C13.71 67.66 17.05 63.11 19.58 56.75 C19.65 56.56 19.65 56.56 20.02 55.61 C20.14 55.31 20.14 55.31 20.76 53.77 C22.9 47.55 22.61 40.46 21.4 34.05 C20.11 28.45 16.95 23.78 13.09 19.6 C8.26 14.71 2.77 11.15 -3.79 9.03 C-11.58 7.24 -20.97 7.61 -27.98 11.61 Z " fill="#72BDD4" transform="translate(387.978515625,266.387939453125)"/>
<path d="M0 0 C3.25 2.04 6.16 4.42 9 7 C9.36 7.32 9.71 7.64 10.08 7.97 C17.44 14.65 21.66 21.26 24.75 30.7 C27.64 39.98 28.17 50.1 26.28 59.68 C23.92 69.62 18.68 79.04 11.75 86.53 C5.2 93.09 -2.96 97.79 -11.81 100.5 C-21.25 103.03 -31.1 103.15 -40.59 100.87 C-50.78 98.05 -59.11 92.8 -66.68 85.47 C-73.22 78.75 -76.8 71.01 -79.27 62.04 C-81.97 51.33 -81.47 41.37 -78.53 30.73 C-75.55 21 -69.79 13.19 -62.45 6.3 C-55.02 -0.37 -46.64 -3.77 -37 -6 C-36.61 -6.1 -36.21 -6.19 -35.81 -6.29 C-24.38 -8.88 -9.96 -5.73 0 0 Z M-53.49 10.09 C-61.76 16.56 -67.03 24.31 -71 34 C-73.64 40.55 -73.8 48.05 -73 55 C-71.45 63.47 -67.37 71.32 -62 78 C-56.8 83.99 -50.14 88.57 -42.74 91.44 C-34.76 94.02 -25.54 94.81 -17.3 93.22 C-8.68 91.16 -0.93 86.73 5.55 80.73 C10.93 75.36 14.88 68.94 17.09 61.66 C19.75 51.78 19.65 43.1 17.04 33.21 C15.56 28.27 13.01 24.15 10 20 C9.89 19.84 9.89 19.84 9.32 19.01 C5.14 13.03 -0.71 9.49 -7 6 C-7.2 5.89 -7.2 5.89 -8.19 5.31 C-14.17 1.9 -20.32 1.47 -27.06 1.51 C-36.96 1.69 -45.43 4.19 -53.49 10.09 Z " fill="#100F0D" transform="translate(400,263)"/>
<path d="M0 0 C6.55 5.47 6.55 5.47 9.33 8.42 C19.24 18.84 31.91 26.4 44 34 C43.47 38.52 41.6 42.36 39.56 46.38 C39.39 46.72 39.21 47.07 39.03 47.42 C28.31 68.55 12.9 84.85 -6 99 C-6.66 98.67 -7.32 98.34 -8 98 C-7.86 97.57 -7.73 97.14 -7.59 96.69 C-5.1 88.7 -2.76 80.74 -1.25 72.5 C-1.13 71.88 -1.02 71.26 -0.9 70.62 C0.5 62.64 1.16 54.78 1.13 46.68 C1.13 45.81 1.13 44.94 1.14 44.07 C1.14 42.25 1.14 40.44 1.13 38.63 C1.12 36.35 1.13 34.08 1.13 31.8 C1.16 21.16 0.91 10.61 0 0 Z " fill="#B0D360" transform="translate(216,496)"/>
<path d="M0 0 C9.15 4.04 17.32 9.75 23.32 17.83 C30.16 27.54 34.28 36.94 35.5 48.77 C36.28 58.28 34.31 68.67 30.47 77.36 C27.21 84.08 22.66 89.35 17.37 94.55 C17.04 94.88 16.72 95.21 16.38 95.56 C9.87 102.15 1.76 106.38 -7.09 109.03 C-17.4 111.77 -27.5 111.17 -37.74 108.46 C-44.34 106.61 -50.07 103.54 -55.63 99.55 C-55.82 99.41 -55.82 99.41 -56.8 98.71 C-65.28 92.41 -70.93 83.21 -75.16 73.66 C-77.33 68.5 -78.21 63.1 -78.63 57.55 C-78.64 57.38 -78.64 57.38 -78.72 56.54 C-79.39 47.78 -77.65 38.62 -73.96 30.66 C-68.96 20.26 -62.35 11.75 -52.75 5.17 C-47.4 1.69 -41.79 -0.8 -35.63 -2.45 C-35.26 -2.55 -34.89 -2.65 -34.51 -2.76 C-23.31 -5.4 -10.59 -4.25 0 0 Z M-48.63 5.55 C-52.27 7.87 -55.5 10.59 -58.63 13.55 C-59 13.89 -59.36 14.24 -59.74 14.59 C-66.02 20.7 -70.56 27.9 -73.17 36.29 C-76.21 47.34 -76.43 56.71 -73.61 67.74 C-72.21 72.99 -70.7 78.01 -67.63 82.55 C-67.39 82.9 -67.15 83.26 -66.9 83.63 C-61.11 91.96 -54.44 98.14 -45.25 102.55 C-35.29 107.07 -25.5 108.65 -14.62 107.66 C-4.09 106.48 4.94 101.75 13.37 95.55 C20.7 90.13 25.4 81.36 29 73.11 C29.97 70.64 30.77 68.14 31.37 65.55 C31.46 65.18 31.55 64.82 31.65 64.44 C33.71 55.43 33.02 45.11 30.34 36.32 C27.21 27.04 22.27 20.43 15.37 13.55 C15.2 13.38 15.2 13.38 14.36 12.51 C9.11 7.2 3.31 4.19 -3.63 1.55 C-4.23 1.31 -4.84 1.08 -5.46 0.83 C-19.3 -3.79 -36.09 -1.65 -48.63 5.55 Z " fill="#F66A3E" transform="translate(394.62890625,257.453125)"/>
<path d="M0 0 C5.66 0.03 9.89 1.59 14.79 4.36 C19.93 7.42 24.53 11.04 29 15 C29.19 15.17 29.19 15.17 30.18 16.03 C38.83 23.67 45.14 33.32 48.91 44.23 C50.04 47.77 50.75 51.29 51 55 C50.01 56.32 49.02 57.64 48 59 C46.35 58.67 44.7 58.34 43 58 C42.89 57.61 42.77 57.22 42.65 56.81 C40.51 49.63 38.25 42.8 34.44 36.31 C34.16 35.83 33.88 35.35 33.59 34.86 C31.73 31.84 29.62 29.39 27 27 C27 26.34 27 25.68 27 25 C26.43 24.74 25.86 24.49 25.27 24.23 C23.2 23.19 21.59 21.89 19.85 20.38 C13.25 14.67 5.77 10.87 -2 7 C-2 5.35 -2 3.7 -2 2 C-1.34 1.34 -0.68 0.68 0 0 Z " fill="#100F0D" transform="translate(527,420)"/>
<path d="M0 0 C2.31 0 4.62 0 7 0 C7.82 0.5 7.82 0.5 12 3 C12.99 5.31 13.98 7.62 15 10 C14.67 12.31 14.34 14.62 14 17 C12.02 18.65 10.04 20.3 8 22 C5.69 22.33 3.38 22.66 1 23 C-1.96 21.4 -4.51 19.99 -6.44 17.18 C-7.53 14.89 -7.72 12.51 -8 10 C-7.01 7.69 -6.02 5.38 -5 3 C-3.35 2.01 -1.7 1.02 0 0 Z " fill="#71BCD5" transform="translate(386,285)"/>
<path d="M0 0 C2.97 0.33 5.94 0.66 9 1 C9.66 1.66 10.32 2.32 11 3 C10.53 3.44 10.06 3.88 9.58 4.33 C7.41 6.36 5.23 8.4 3.06 10.44 C2.67 10.8 2.28 11.17 1.88 11.55 C-2.56 15.71 -6.95 19.89 -11.19 24.25 C-14.2 27.34 -17.22 29.88 -21 32 C-19.66 28.14 -17.8 24.92 -15.5 21.56 C-15.16 21.06 -14.82 20.55 -14.46 20.03 C-11.55 15.75 -8.57 11.53 -5.56 7.31 C-5.45 7.16 -5.45 7.16 -4.89 6.37 C-4.26 5.49 -3.63 4.62 -3 3.74 C-2.64 3.23 -2.28 2.73 -1.9 2.21 C-1 1 -1 1 0 0 Z " fill="#6ABBE3" transform="translate(390,189)"/>
<path d="M0 0 C0 0.99 0 1.98 0 3 C-3.33 7.67 -3.33 7.67 -20 31 C-21.65 31.5 -21.65 31.5 -30 34 C-30.99 33.67 -31.98 33.34 -33 33 C-24.58 22.18 -24.58 22.18 -19.31 17.86 C-15.09 14.35 -11.32 10.36 -7.48 6.44 C-7.21 6.16 -6.93 5.89 -6.65 5.6 C-6.14 5.08 -5.63 4.56 -5.12 4.03 C-3.52 2.41 -1.91 1.19 0 0 Z " fill="#6ABBE3" transform="translate(356,199)"/>
<path d="M0 0 C5.11 0.49 5.11 0.49 7.29 1.73 C8.23 2.45 9.13 3.19 10 4 C8.04 5.81 6.08 7.63 4.12 9.44 C3.83 9.71 3.54 9.98 3.24 10.26 C-0.65 13.85 -4.56 17.41 -8.5 20.94 C-11.77 23.86 -14.97 26.82 -18 30 C-18.66 29.67 -19.32 29.34 -20 29 C-13.89 18.84 -7.45 9.22 0 0 Z " fill="#6ABBE3" transform="translate(408,193)"/>
<path d="M0 0 C3.63 0 7.26 0 11 0 C4.59 7.76 -2.42 14.91 -10.08 21.44 C-13.93 24.74 -17.46 28.37 -21 32 C-21 31.01 -21 30.02 -21 29 C-15.75 20.83 -10.14 13.08 -4.13 5.46 C-2.73 3.66 -1.37 1.83 0 0 Z " fill="#6ABBE3" transform="translate(370,189)"/>
<path d="M0 0 C1.98 0.66 3.96 1.32 6 2 C6.66 3.32 7.32 4.64 8 6 C-8.26 21.27 -8.26 21.27 -15 27 C-16.32 26.34 -17.64 25.68 -19 25 C-18.6 24.49 -18.2 23.98 -17.79 23.46 C-16.29 21.54 -14.79 19.62 -13.29 17.69 C-12.65 16.87 -12 16.04 -11.36 15.22 C-7.45 10.23 -3.63 5.2 0 0 Z " fill="#6ABBE3" transform="translate(424,200)"/>
<path d="M0 0 C0 0.99 0 1.98 0 3 C-1.89 5.9 -3.8 8.8 -5.71 11.7 C-6.35 12.68 -7 13.66 -7.64 14.65 C-11.07 19.91 -14.29 24.8 -19 29 C-22.63 29.33 -26.26 29.66 -30 30 C-27.75 25.5 -27.75 25.5 -26.49 24.34 C-26.21 24.08 -25.93 23.81 -25.64 23.54 C-25.34 23.27 -25.04 23 -24.73 22.71 C-24.41 22.42 -24.09 22.12 -23.76 21.81 C-22.72 20.85 -21.67 19.89 -20.62 18.94 C-19.91 18.27 -19.19 17.61 -18.47 16.94 C-16.66 15.27 -14.85 13.61 -13.04 11.95 C-11.74 10.76 -10.45 9.57 -9.16 8.39 C-6.11 5.58 -3.06 2.79 0 0 Z " fill="#6ABBE3" transform="translate(378,197)"/>
<path d="M0 0 C0.66 0 1.32 0 2 0 C0.57 2.98 -1.04 5.76 -2.82 8.55 C-3.08 8.96 -3.35 9.38 -3.62 9.81 C-4.45 11.12 -5.29 12.44 -6.12 13.75 C-6.69 14.65 -7.26 15.54 -7.83 16.44 C-9.22 18.63 -10.61 20.81 -12 23 C-15.63 23 -19.26 23 -23 23 C-17.99 16.7 -12.18 11.44 -6.23 6.05 C-4.08 4.1 -2.02 2.08 0 0 Z " fill="#6ABBE3" transform="translate(395,201)"/>
<path d="M0 0 C0 0.99 0 1.98 0 3 C-3.33 7.33 -3.33 7.33 -20 29 C-21.49 29.5 -21.49 29.5 -29 32 C-26.75 27.5 -26.75 27.5 -25.48 26.16 C-25.19 25.86 -24.91 25.55 -24.62 25.24 C-24.31 24.92 -24.01 24.6 -23.69 24.28 C-23.37 23.93 -23.05 23.59 -22.71 23.24 C-21.67 22.13 -20.62 21.04 -19.56 19.94 C-18.84 19.18 -18.12 18.42 -17.4 17.66 C-11.7 11.67 -5.91 5.78 0 0 Z " fill="#6ABBE3" transform="translate(330,209)"/>
<path d="M0 0 C0.66 0.33 1.32 0.66 2 1 C-1.8 5.98 -5.61 10.96 -9.42 15.94 C-10.35 17.15 -11.27 18.35 -12.19 19.56 C-16.26 24.89 -20.52 30 -25 35 C-25.66 34.67 -26.32 34.34 -27 34 C-20.11 20.82 -10.74 10.22 0 0 Z " fill="#6ABBE3" transform="translate(313,212)"/>
<path d="M0 0 C0 0.99 0 1.98 0 3 C-1.65 5.37 -3.3 7.73 -4.96 10.1 C-5.52 10.9 -6.09 11.71 -6.65 12.51 C-7.46 13.67 -8.27 14.83 -9.08 15.99 C-9.33 16.34 -9.58 16.7 -9.83 17.07 C-11.39 19.27 -13.04 21.14 -15 23 C-17.31 23 -19.62 23 -22 23 C-22 22.01 -22 21.02 -22 20 C-19.67 17.79 -17.34 15.59 -15.01 13.38 C-14.22 12.64 -13.43 11.89 -12.64 11.14 C-4.22 3.15 -4.22 3.15 0 0 Z " fill="#6ABBE3" transform="translate(416,202)"/>
<path d="M0 0 C1.65 1.32 3.3 2.64 5 4 C5.33 4.99 5.66 5.98 6 7 C3.82 8.66 1.63 10.31 -0.56 11.96 C-1.3 12.52 -2.05 13.08 -2.79 13.65 C-10.68 19.64 -10.68 19.64 -15 22 C-13.66 17.5 -11.04 14.03 -8.26 10.32 C-7.5 9.31 -6.74 8.29 -5.99 7.26 C-5.5 6.61 -5.02 5.95 -4.53 5.3 C-4.31 5 -4.08 4.7 -3.85 4.39 C-2.65 2.78 -1.43 1.43 0 0 Z " fill="#6ABBE3" transform="translate(439,209)"/>
<path d="M0 0 C0 0.99 0 1.98 0 3 C-0.39 3.36 -0.78 3.72 -1.19 4.09 C-9.98 12.22 -18.61 20.46 -27 29 C-27.66 28.67 -28.32 28.34 -29 28 C-28.68 27.64 -28.37 27.28 -28.04 26.91 C-21 18.85 -14.29 10.67 -8 2 C-5.36 1.34 -2.72 0.68 0 0 Z " fill="#6ABBE3" transform="translate(357,191)"/>
<path d="M0 0 C0.99 0.33 1.98 0.66 3 1 C3.99 2.65 4.98 4.3 6 6 C4.97 8.56 3.99 10.18 1.84 11.92 C1.02 12.54 0.2 13.15 -0.62 13.75 C-0.84 13.91 -0.84 13.91 -1.9 14.71 C-2.93 15.48 -3.96 16.24 -5 17 C-6.32 16.67 -7.64 16.34 -9 16 C-7.62 12.04 -5.67 8.68 -3.38 5.19 C-3.21 4.94 -3.21 4.94 -2.39 3.67 C-1.6 2.44 -0.8 1.22 0 0 Z " fill="#6ABBE3" transform="translate(450,222)"/>
<path d="M0 0 C0.33 0.66 0.66 1.32 1 2 C-0.49 4.31 -0.49 4.31 -8 16 C-8.99 16.33 -9.98 16.66 -11 17 C-12.98 16.01 -14.96 15.02 -17 14 C-13.82 10.6 -10.44 7.66 -6.81 4.75 C-6.37 4.4 -5.93 4.04 -5.48 3.68 C-1.98 0.91 -1.98 0.91 0 0 Z " fill="#6ABBE3" transform="translate(446,219)"/>
<path d="M0 0 C0.33 0.66 0.66 1.32 1 2 C-0.23 3.78 -1.45 5.56 -2.68 7.33 C-3.1 7.94 -3.51 8.54 -3.93 9.14 C-6.23 12.48 -8.54 15.78 -11 19 C-13.31 18.67 -15.62 18.34 -18 18 C-12.74 11.24 -6.37 5.68 0 0 Z " fill="#6ABBE3" transform="translate(431,210)"/>
</svg>
