<?xml version="1.0" encoding="UTF-8"?>
<!-- Generator: visioncortex VTracer 0.6.5 -->
<svg version="1.1" xmlns="http://www.w3.org/2000/svg" width="769" height="769">
<path d="M0 0 C0.77 0.32 1.53 0.64 2.32 0.96 C20.08 8.48 36.6 19.16 51 32 C51.49 32.43 51.99 32.87 52.49 33.32 C58.76 38.84 64.76 44.47 70 51 C70.38 51.48 70.38 51.48 72.33 53.89 C99.33 87.92 116.57 130.46 119 174 C119.85 174.16 120.69 174.33 121.56 174.5 C127.24 176.98 130.86 181.45 133.38 187.06 C134.52 192.42 135.08 197.67 135.24 203.15 C136.98 257.44 162.94 302.73 201.62 339.5 C214.52 351.02 228.82 360.7 243.36 370 C266.83 385.07 287.84 403.51 294.61 431.82 C295.32 435.76 295.34 439.69 295.31 443.69 C295.31 444.56 295.3 445.44 295.3 446.34 C295.07 459.02 292.48 470.33 283.69 479.81 C280.16 483.12 276.47 485.21 272 487 C270.97 487.41 269.94 487.83 268.88 488.25 C258.2 490.32 248.15 489.44 238.36 484.73 C229.13 480.54 221.13 480.52 211.16 480.85 C182.37 481.75 156.43 476.84 128.66 469.78 C110.97 465.31 93.17 461.78 75.2 458.65 C54.73 455 34.7 449.21 16 440 C15.2 439.61 14.4 439.22 13.58 438.82 C2.17 433.18 -8.63 426.94 -19.12 419.73 C-19.77 419.28 -20.43 418.83 -21.1 418.36 C-23 417 -23 417 -24.78 415.52 C-28.09 412.82 -29.45 412.01 -33.88 411.91 C-35.25 412.12 -36.63 412.36 -38 412.62 C-39.52 412.86 -41.04 413.09 -42.56 413.31 C-43.32 413.43 -44.07 413.55 -44.84 413.68 C-95.63 421.31 -154.18 410.42 -200.75 389.85 C-203 389 -203 389 -206 389 C-206.15 389.58 -206.15 389.58 -206.94 392.5 C-213.26 411.21 -227.14 429.22 -242 442 C-242.66 442 -243.32 442 -244 442 C-244 442.66 -244 443.32 -244 444 C-245.32 445.26 -245.32 445.26 -247.19 446.69 C-247.88 447.22 -248.57 447.75 -249.28 448.29 C-250.04 448.86 -250.79 449.42 -251.56 450 C-252.33 450.58 -253.09 451.15 -253.88 451.74 C-258.95 455.53 -264.05 459.27 -269.25 462.88 C-269.86 463.31 -270.46 463.74 -271.09 464.19 C-273.74 465.99 -275.56 466.99 -278.8 467.07 C-281 466 -281 466 -282.5 463.92 C-283.21 459.78 -281.66 456.92 -279.94 453.25 C-269.79 430.18 -267.06 406.79 -266.44 381.81 C-266.39 380.18 -266.35 378.54 -266.31 376.9 C-266.2 372.94 -266.1 368.97 -266 365 C-269 367.9 -271.69 370.74 -274.05 374.18 C-274.59 374.94 -275.12 375.71 -275.67 376.5 C-276.76 378.07 -277.84 379.65 -278.92 381.23 C-282.25 385.97 -285.7 389.79 -290.18 393.47 C-291.98 394.98 -293.54 396.58 -295.12 398.31 C-313.61 416.8 -347.28 433.97 -373.8 435.17 C-377 435 -377 435 -379 433.81 C-380 432 -380 432 -379.84 429.64 C-378.77 426.27 -377.29 425.11 -374.56 422.88 C-340.3 393.29 -325.02 347.12 -313 305 C-312.78 304.23 -312.56 303.46 -312.33 302.66 C-311.89 301.11 -311.44 299.55 -311 298 C-311.6 298.5 -312.19 299 -312.81 299.51 C-315.85 302.03 -318.92 304.52 -322 307 C-322.31 307.25 -322.31 307.25 -323.9 308.54 C-334.34 316.96 -345 324.01 -357 330 C-357.39 330.2 -357.39 330.2 -359.37 331.19 C-386.35 344.48 -415.8 351.47 -445.88 351.19 C-447.22 351.19 -448.57 351.19 -449.92 351.19 C-469.9 351.1 -469.9 351.1 -474 347 C-474 344.31 -474 344.31 -473 341 C-471.43 339.73 -471.43 339.73 -469.43 338.55 C-468.71 338.12 -467.98 337.69 -467.24 337.25 C-464.56 335.76 -461.85 334.34 -459.12 332.97 C-449.04 327.9 -440.02 321.73 -431 315 C-430.41 314.56 -429.81 314.12 -429.2 313.67 C-421.94 308.26 -414.98 302.52 -408.1 296.63 C-405.37 294.29 -402.57 292.05 -399.75 289.81 C-387.39 279.71 -376.17 268.26 -364.88 257 C-364.63 256.76 -364.63 256.76 -363.39 255.52 C-358.24 250.4 -353.21 245.24 -348.48 239.73 C-346.42 237.32 -344.27 235.01 -342.12 232.69 C-337.97 228.13 -334.04 223.44 -330.17 218.64 C-327.49 215.38 -324.68 212.26 -321.82 209.17 C-319.65 206.58 -317.83 203.84 -316 201 C-316.85 201.25 -317.7 201.51 -318.57 201.77 C-367.73 216.19 -416.42 210.96 -463.06 190.81 C-463.44 190.65 -463.44 190.65 -465.35 189.84 C-469.14 188.15 -472.02 186.85 -474 183 C-473.75 180.38 -473.75 180.38 -472 178 C-470.23 177.41 -470.23 177.41 -468.04 176.98 C-467.23 176.82 -466.42 176.66 -465.59 176.49 C-465.16 176.41 -465.16 176.41 -463 176 C-461.33 175.67 -459.67 175.33 -458 174.99 C-457.13 174.82 -456.26 174.64 -455.36 174.46 C-434.98 170.22 -415.6 163.9 -396.38 156 C-395.67 155.71 -394.97 155.43 -394.25 155.13 C-384.58 151.15 -375.23 146.72 -365.92 141.97 C-362.9 140.44 -359.86 138.97 -356.82 137.5 C-315.5 117.31 -270.41 92.75 -240.42 57.12 C-230.17 45.11 -218.83 34.22 -206 25 C-205.34 24.52 -204.68 24.05 -204.01 23.56 C-144.33 -19.03 -67.8 -28.33 0 0 Z " fill="#161713" transform="translate(474,148)"/>
<path d="M0 0 C1.51 1.59 1.51 1.59 1.51 3.59 C2.11 3.86 2.7 4.12 3.32 4.39 C7.26 6.55 9.7 10.15 12.51 13.59 C13.26 14.49 14 15.39 14.77 16.31 C40.46 48.36 55.46 88.76 58.51 129.59 C54.57 131.33 50.63 133.06 46.68 134.77 C44.33 135.79 42.02 136.83 39.71 137.95 C31.67 141.69 23.09 142.31 14.64 139.37 C11.04 137.97 7.53 136.38 4.03 134.75 C0.15 132.97 -3.77 131.27 -7.68 129.57 C-9.73 128.68 -11.78 127.79 -13.82 126.88 C-14.76 126.47 -15.7 126.06 -16.66 125.63 C-17.5 125.26 -18.33 124.89 -19.19 124.51 C-27.68 121.11 -36.17 122.13 -44.49 125.59 C-52.29 129.63 -58.2 135.2 -61.12 143.62 C-63.49 151.94 -62.99 160.77 -63.05 169.34 C-63.38 205.66 -72.02 230.51 -97.85 256.13 C-101.35 259.55 -104.95 262.82 -108.66 266 C-120.5 276.3 -128.6 288.14 -129.74 304.09 C-129.47 319.68 -123.5 331.92 -112.49 342.59 C-107.04 347.4 -101.27 351.55 -95.11 355.37 C-94.57 355.77 -94.04 356.18 -93.49 356.59 C-93.49 357.25 -93.49 357.91 -93.49 358.59 C-152.87 368.53 -226.8 354.24 -276.36 319.72 C-283.97 314.27 -290.84 308.16 -297.49 301.59 C-297.77 301.33 -297.77 301.33 -299.18 299.97 C-303.5 295.77 -307.29 291.32 -310.93 286.53 C-311.49 285.79 -312.05 285.05 -312.63 284.28 C-317.56 277.69 -321.72 270.93 -325.49 263.59 C-326.09 262.45 -326.69 261.31 -327.32 260.13 C-351.6 212.42 -346.38 151.68 -330.44 102.4 C-327.82 94.65 -324.76 87.09 -321.49 79.59 C-321.17 78.86 -320.85 78.12 -320.52 77.36 C-310.95 55.61 -298.14 36.4 -282.49 18.59 C-281.7 17.7 -280.92 16.8 -280.11 15.88 C-277.93 13.42 -275.72 11 -273.49 8.59 C-272.81 7.86 -272.12 7.12 -271.42 6.36 C-265.02 -0.3 -257.86 -5.87 -250.49 -11.41 C-249.66 -12.03 -248.82 -12.66 -247.96 -13.31 C-172.46 -68.07 -69.27 -60.69 0 0 Z " fill="#6ABAE2" transform="translate(524.48828125,192.40625)"/>
<path d="M0 0 C1.84 0.82 3.67 1.65 5.51 2.47 C5.97 2.68 5.97 2.68 8.3 3.75 C12.63 5.71 17 7.58 21.38 9.44 C22.13 9.77 22.89 10.1 23.67 10.44 C33.55 14.65 42.57 16.43 53.08 13.02 C58.34 10.89 63.3 8.34 68.31 5.69 C73.32 3.15 76.49 2.02 82.06 3 C85.64 5.18 87.5 7.16 89.06 11 C89.41 13.54 89.41 13.54 89.55 16.42 C89.62 17.49 89.68 18.57 89.75 19.68 C89.81 20.84 89.87 22 89.94 23.19 C93.84 82.48 119.57 131.06 163.88 170.51 C166.56 172.74 169.29 174.88 172.06 177 C173.1 177.8 174.13 178.6 175.2 179.43 C183.02 185.38 191.19 190.65 199.5 195.88 C222.9 210.67 242.84 227.25 249.64 255.41 C251.55 267.22 250.37 279.87 243.69 290.06 C237.79 296.66 231.87 298.51 223.38 299.38 C212.41 299.05 201.18 293.32 191.06 289.38 C190.39 289.11 189.71 288.85 189.02 288.58 C169.41 280.93 151.3 271.65 133.21 260.88 C95.14 238.2 58.74 224.21 15.6 214.98 C-59.63 198.85 -59.63 198.85 -73.94 179 C-75.26 174.52 -75.33 171.1 -73.75 166.69 C-71.94 164 -71.94 164 -69.69 161.94 C-69.11 161.3 -68.53 160.66 -67.94 160 C-68.19 157.25 -68.19 157.25 -68.94 155 C-75.71 154.69 -75.71 154.69 -78.94 157 C-80 158.69 -80 158.69 -80.94 161 C-81.47 162.01 -82.01 163.02 -82.56 164.06 C-84.95 169.84 -85.13 175.86 -82.91 181.72 C-72.83 200.3 -41.07 209.19 -21.94 215 C-7.86 219.02 6.41 222.12 20.75 225 C57.33 232.36 89.24 245.21 121.21 264.3 C136.54 273.43 152.03 282.16 168.06 290 C168.06 290.33 168.06 290.66 168.06 291 C144.94 291.38 123.18 287.07 100.94 281.17 C86.43 277.33 71.97 274.16 57.21 271.51 C23.7 265.49 -7.49 256.66 -36.94 239 C-37.73 238.53 -38.52 238.06 -39.33 237.57 C-50.93 230.6 -61.87 222.86 -72.66 214.71 C-74.89 213.04 -77.14 211.39 -79.41 209.76 C-91.84 200.75 -101.92 191.91 -104.94 176 C-105.59 167.44 -105.41 160.45 -100.94 153 C-100.36 152.01 -99.78 151.02 -99.19 150 C-94.43 143.65 -89.18 138.01 -83.14 132.88 C-75.9 126.71 -68.85 120.47 -62.94 113 C-62.52 112.48 -62.11 111.97 -61.69 111.43 C-47.9 93.99 -39.97 75.08 -39.69 52.58 C-39.66 50.73 -39.63 48.88 -39.59 47.03 C-39.54 44.14 -39.5 41.26 -39.46 38.37 C-39.42 35.56 -39.37 32.76 -39.32 29.95 C-39.31 29.1 -39.3 28.26 -39.29 27.38 C-39.1 17.93 -38.24 9.37 -31.33 2.38 C-21.7 -6.47 -11.17 -5.27 0 0 Z " fill="#F66A3E" transform="translate(508.9375,328)"/>
<path d="M0 0 C4.35 3.31 8.19 7.1 12 11 C12.68 11.66 13.36 12.31 14.05 12.99 C25.45 24.79 29.98 41.98 30 58 C28.91 75.7 21.28 93.1 8.15 105.27 C-8.91 119.01 -25.7 122.13 -47 121 C-61.27 119.45 -74.19 111.09 -84 101 C-84.55 100.48 -85.1 99.97 -85.66 99.44 C-97.53 87.29 -101.52 69.58 -101.42 53.27 C-100.95 35.45 -93.68 20.48 -81 8 C-80.35 7.35 -79.7 6.71 -79.04 6.04 C-58.01 -13.65 -23.8 -15.72 0 0 Z " fill="#13120F" transform="translate(409,255)"/>
<path d="M0 0 C5.58 4.69 10.05 9.9 14.38 15.75 C15.09 16.71 15.8 17.67 16.54 18.66 C26.34 32.57 30.59 48.09 30.69 65 C30.69 65.42 30.69 65.42 30.7 67.53 C30.63 73.49 30.63 73.49 28.38 75.75 C25.88 76 25.88 76 23.38 75.75 C21.38 73.75 21.38 73.75 20.56 70.5 C16.42 57.43 -0.03 49.37 -11.3 43.31 C-16.72 40.68 -22.31 38.8 -28.06 37.06 C-28.73 36.86 -29.4 36.66 -30.08 36.45 C-41.69 33.11 -53.13 32.38 -65.12 32.44 C-65.88 32.44 -66.63 32.44 -67.4 32.44 C-79.36 32.5 -90.93 33.11 -102.62 35.75 C-103.54 35.95 -104.45 36.16 -105.39 36.37 C-125.89 41.08 -146.73 47.95 -164.31 59.81 C-167.62 61.75 -167.62 61.75 -170.56 61.62 C-172.62 60.75 -172.62 60.75 -173.62 59.75 C-175.27 47.42 -165.49 33.54 -158.62 23.94 C-142.03 2.51 -120.69 -11.9 -94.62 -19.25 C-93.56 -19.57 -92.5 -19.89 -91.41 -20.22 C-58.79 -28.45 -26.09 -20.28 0 0 Z " fill="#131210" transform="translate(445.625,202.25)"/>
<path d="M0 0 C0.33 0.66 0.66 1.32 1 2 C-0.01 4.02 -1.12 5.99 -2.25 7.94 C-16.3 33.32 -24.31 61.69 -30 90 C-30.67 90.16 -31.34 90.32 -32.03 90.48 C-37.37 91.78 -42.65 93.18 -47.91 94.8 C-92.44 108.44 -137.79 106.68 -181 89 C-178.08 87.05 -176.25 86.42 -172.9 85.59 C-171.86 85.33 -170.83 85.06 -169.76 84.79 C-169.21 84.65 -169.21 84.65 -166.38 83.94 C-143.67 77.97 -122.41 69.29 -101.15 59.46 C-98.49 58.23 -95.83 57.02 -93.16 55.81 C-82.41 50.92 -72.07 45.29 -61.76 39.54 C-59.14 38.08 -56.51 36.64 -53.88 35.2 C-43.58 29.49 -33.66 23.29 -23.88 16.75 C-23.31 16.37 -22.75 16 -22.17 15.61 C-14.65 10.58 -7.28 5.37 0 0 Z " fill="#B0D360" transform="translate(205,244)"/>
<path d="M0 0 C0.33 0 0.66 0 1 0 C0.99 0.55 0.98 1.09 0.97 1.65 C0.19 52.01 0.19 52.01 4.75 71.01 C5.03 73.26 4.68 74.85 4 77 C3.42 76.65 2.84 76.3 2.25 75.94 C-0 75 -0 75 -2.12 75.12 C-4 76 -4 76 -4.8 77.7 C-6.43 80.83 -8.63 83.14 -11 85.75 C-11.45 86.26 -11.9 86.76 -12.37 87.29 C-13.53 88.57 -14.76 89.79 -16 91 C-16.66 91 -17.32 91 -18 91 C-18 91.66 -18 92.32 -18 93 C-45.36 122.09 -93.06 140.81 -132.3 142.07 C-134.7 142.1 -137.1 142.09 -139.5 142.06 C-140.32 142.06 -141.14 142.05 -141.99 142.05 C-143.99 142.04 -146 142.02 -148 142 C-144.73 138.37 -140.97 136.03 -136.81 133.56 C-127.7 128.02 -119.34 121.63 -111 115 C-110.45 114.57 -109.91 114.14 -109.35 113.69 C-103.49 109.03 -97.86 104.15 -92.32 99.11 C-90.28 97.25 -88.21 95.43 -86.12 93.62 C-76.23 84.98 -66.79 75.95 -57.52 66.65 C-55.68 64.8 -53.83 62.96 -51.98 61.12 C-46.63 55.77 -41.34 50.44 -36.43 44.68 C-34.58 42.51 -32.63 40.45 -30.68 38.39 C-22.69 29.93 -15.63 20.87 -8.68 11.56 C-8.13 10.82 -7.58 10.08 -7.01 9.32 C-5.93 7.88 -4.86 6.43 -3.79 4.98 C-2.55 3.3 -1.28 1.65 0 0 Z " fill="#B0D360" transform="translate(172,347)"/>
<path d="M0 0 C1.45 2.76 2.53 5.44 3.45 8.42 C9.22 26.79 17.02 45.59 29.81 60.31 C32 63 32 63 31.81 65.38 C31.68 65.64 31.68 65.64 31 67 C30.34 67 29.68 67 29 67 C28.87 67.42 28.87 67.42 28.24 69.57 C26.9 73.27 25.16 76.53 23.12 79.88 C22.93 80.2 22.93 80.2 21.94 81.83 C10.08 100.96 -3.89 116.06 -23 128 C-23.6 128.38 -24.21 128.76 -24.83 129.15 C-34.89 135.4 -46.13 141.43 -58 143 C-55.36 139 -52.72 135.01 -49.95 131.11 C-22.79 92.76 -6.67 46.35 0 0 Z " fill="#B0D360" transform="translate(177,424)"/>
<path d="M0 0 C9.38 5.96 16.24 12.23 19.54 23.09 C21.73 33.79 19.3 43.1 14.23 52.51 C7.71 60.49 -0.05 66.26 -10.33 68.01 C-20.71 68.98 -28.68 66.42 -37.02 60.26 C-39.64 57.82 -39.64 57.82 -42.02 55.26 C-42.36 54.91 -42.36 54.91 -44.08 53.14 C-49.88 44.53 -51.12 35.47 -50.02 25.26 C-48.1 15.59 -42.56 8.62 -34.9 2.6 C-25.03 -3.97 -10.65 -5.71 0 0 Z " fill="#0E0D0B" transform="translate(390.015625,277.73828125)"/>
<path d="M0 0 C4.35 3.31 8.19 7.1 12 11 C12.68 11.66 13.36 12.31 14.05 12.99 C25.45 24.79 29.98 41.98 30 58 C28.91 75.7 21.28 93.1 8.15 105.27 C-8.91 119.01 -25.7 122.13 -47 121 C-61.27 119.45 -74.19 111.09 -84 101 C-84.55 100.48 -85.1 99.97 -85.66 99.44 C-97.53 87.29 -101.52 69.58 -101.42 53.27 C-100.95 35.45 -93.68 20.48 -81 8 C-80.35 7.35 -79.7 6.71 -79.04 6.04 C-58.01 -13.65 -23.8 -15.72 0 0 Z M-75.91 14.57 C-86.73 27.12 -93.79 42.18 -92.85 59.03 C-91.46 75.2 -84.4 88.64 -72.7 99.83 C-61.31 109 -47.22 113.89 -32.51 113.28 C-14.99 111.34 -1.37 103.09 9.81 89.62 C19.09 77.11 22.17 62.25 20.38 46.94 C17.97 32.74 10.73 19.86 -0.5 10.66 C-24.13 -5.05 -54.34 -6.15 -75.91 14.57 Z " fill="#12110F" transform="translate(409,255)"/>
<path d="M0 0 C10.22 7.94 16.69 18.78 18.67 31.54 C19.83 45 16.4 56.27 8.2 66.92 C0.78 75.35 -8.65 81.75 -20.06 82.65 C-33.43 83.35 -44.13 81.95 -55.07 73.5 C-55.71 73.02 -56.34 72.54 -57 72.04 C-66.75 64.2 -71.93 52.97 -73.42 40.61 C-73.84 27.86 -69.06 15.89 -60.89 6.25 C-44.53 -11.09 -19.31 -13.75 0 0 Z M-53.07 14.5 C-54.84 16.82 -55.84 18.79 -57.07 21.5 C-57.36 22.08 -57.36 22.08 -58.82 25.06 C-61.89 33.8 -60.87 43.63 -57.32 52.04 C-52.89 60.76 -46.47 66.77 -37.41 70.63 C-28.73 73.4 -19.36 73.12 -10.94 69.5 C-0.58 63.93 6.02 55.79 9.52 44.61 C11.4 34.89 9.87 26.05 5.3 17.43 C-0.84 9.84 -7.79 4.59 -17.07 1.5 C-32.14 0.37 -42.65 3.06 -53.07 14.5 Z " fill="#6FBCD7" transform="translate(400.07421875,273.50390625)"/>
<path d="M0 0 C0.35 0.35 0.35 0.35 2.1 2.15 C14.47 14.5 28.8 25.4 44 34 C42.14 40.09 39.89 45.7 36.88 51.31 C36.48 52.05 36.09 52.78 35.69 53.54 C25.78 71.63 11.14 86.66 -6 98 C-7.7 94.61 -5.76 91.06 -4.75 87.56 C3.13 58.6 2.45 29.67 0 0 Z " fill="#B0D360" transform="translate(216,496)"/>
<path d="M0 0 C12.05 10 19.59 23.92 21.29 39.48 C22.08 56.04 17.24 70.92 6.38 83.45 C-4.14 94.56 -18.79 101.83 -34.21 102.42 C-50.13 101.95 -63.89 96.86 -75.53 85.98 C-87.13 73.51 -92.57 59.11 -92.59 42.11 C-91.56 27.03 -84.55 13.19 -74.02 2.5 C-52.32 -16.35 -22.97 -16.8 0 0 Z M-77.59 10.3 C-87.67 22.47 -90.88 36.56 -89.59 52.11 C-86.94 67.57 -80.06 80.63 -67.14 89.85 C-53.27 98.57 -39.01 101.27 -22.87 98.46 C-7.87 94.2 4.46 85.39 12.13 71.73 C19.39 56.88 20.82 41.03 15.67 25.26 C13.76 20.47 11.42 16.28 8.41 12.11 C7.92 11.42 7.43 10.74 6.93 10.03 C-1.73 -0.87 -13.85 -6.91 -27.28 -9.64 C-28.37 -9.73 -29.46 -9.81 -30.59 -9.89 C-31.22 -9.95 -31.84 -10 -32.48 -10.05 C-50.96 -10.87 -65.39 -3.05 -77.59 10.3 Z " fill="#F66A3E" transform="translate(408.58984375,265.89453125)"/>
<path d="M0 0 C2.53 1.03 4.76 2.06 7.12 3.38 C7.78 3.73 8.43 4.09 9.1 4.46 C26.31 14.21 38.02 29.08 44.25 47.74 C45.11 51.48 44.76 54.26 44 58 C43.01 58.17 43.01 58.17 38 59 C36.2 54.96 34.65 50.95 33.25 46.75 C26.48 28.1 11.82 17.1 -5.41 8.68 C-8 7 -8 7 -8.94 4.9 C-9 3 -9 3 -7.94 1.25 C-5.13 -0.56 -3.32 -0.29 0 0 Z " fill="#13110F" transform="translate(533,420)"/>
<path d="M0 0 C2.88 2.29 4.79 4.25 5.24 7.99 C5.36 11.89 5.3 14.41 3.5 17.94 C0.2 20.66 -2.75 21.66 -7 22 C-10.35 21.31 -11.76 20.21 -14.31 17.94 C-16.64 13.89 -16.95 10.56 -16 6 C-12.32 -0.75 -7.17 -1.91 0 0 Z " fill="#6EBCDB" transform="translate(395,286)"/>
<path d="M0 0 C1.46 0.11 2.92 0.24 4.38 0.38 C4.78 0.41 4.78 0.41 6.84 0.59 C9 1 9 1 11 3 C10.59 3.38 10.19 3.75 9.77 4.14 C2.68 10.7 -4.35 17.28 -11.12 24.16 C-13.63 26.61 -16.26 28.82 -19 31 C-19.66 30.67 -20.32 30.34 -21 30 C-14.35 19.75 -7.2 9.87 0 0 Z " fill="#6AB8DE" transform="translate(390,189)"/>
<path d="M0 0 C0 4.28 -2.44 6.61 -4.94 9.88 C-10.86 17.64 -10.86 17.64 -13.28 21.77 C-18.35 30.3 -18.35 30.3 -23.45 32.47 C-26.65 33.22 -29.72 33.74 -33 34 C-28.54 27.5 -23.28 21.97 -17.69 16.42 C-16.23 14.98 -14.79 13.53 -13.35 12.07 C-12.43 11.16 -11.52 10.25 -10.58 9.31 C-9.75 8.48 -8.92 7.65 -8.06 6.8 C-6 5 -6 5 -4 5 C-4 4.34 -4 3.68 -4 3 C-2 1.38 -2 1.38 0 0 Z " fill="#6AB8DE" transform="translate(356,199)"/>
<path d="M0 0 C2.82 0.36 2.82 0.36 4.88 0.81 C0.44 6.19 -4.32 10.96 -9.44 15.69 C-15.45 21.29 -21.39 26.93 -27.12 32.81 C-27.12 26.75 -21.11 20.8 -17.63 15.95 C-16.22 13.95 -14.88 11.92 -13.55 9.87 C-6.96 0.03 -6.96 0.03 0 0 Z " fill="#6AB7DD" transform="translate(376.125,188.1875)"/>
<path d="M0 0 C1.28 0.29 2.56 0.58 3.88 0.88 C4.59 1.04 5.31 1.2 6.05 1.37 C8 2 8 2 10 4 C0.54 12.55 0.54 12.55 -4 16.44 C-8.91 20.71 -13.44 25.36 -18 30 C-18.66 29.67 -19.32 29.34 -20 29 C-13.68 19.04 -7.26 9.3 0 0 Z " fill="#6AB7DC" transform="translate(408,193)"/>
<path d="M0 0 C0.17 0.33 0.17 0.33 1 2 C0.39 2.84 -0.21 3.67 -0.84 4.54 C-1.24 5.09 -1.63 5.65 -2.05 6.22 C-2.94 7.46 -3.84 8.7 -4.75 9.94 C-7.16 13.28 -9.4 16.62 -11.43 20.2 C-17.3 30.33 -17.3 30.33 -22.52 32.39 C-25.75 32.88 -28.74 33.12 -32 33 C-29.75 28.73 -26.84 25.77 -23.25 22.62 C-22.17 21.65 -21.08 20.68 -20 19.71 C-19.48 19.25 -18.96 18.78 -18.43 18.3 C-16.64 16.67 -14.94 14.98 -13.25 13.25 C-10.23 10.16 -7.01 7.36 -3.7 4.58 C-2 3 -2 3 0 0 Z " fill="#6AB7DD" transform="translate(380,194)"/>
<path d="M0 0 C2.88 0.75 2.88 0.75 6 2 C7.2 4.08 7.2 4.08 8 6 C7.43 6.51 6.86 7.02 6.27 7.55 C-0.88 13.96 -7.95 20.47 -15 27 C-15.99 26.67 -16.98 26.34 -18 26 C-16.56 22.91 -14.85 20.29 -12.81 17.56 C-12.2 16.73 -11.58 15.9 -10.95 15.04 C-10.3 14.18 -9.66 13.32 -9 12.44 C-7.73 10.73 -6.46 9.02 -5.19 7.31 C-4.91 6.93 -4.91 6.93 -3.48 5.02 C-2.28 3.38 -1.13 1.69 0 0 Z " fill="#6AB9E1" transform="translate(424,200)"/>
<path d="M0 0 C0 4.93 -2.85 8.53 -5.31 12.69 C-5.55 13.13 -5.55 13.13 -6.77 15.39 C-8.34 18.02 -9.66 20.01 -12 22 C-15.79 22.77 -19.19 22.57 -23 22 C-16.27 13.67 -8.15 6.91 0 0 Z " fill="#6AB7DD" transform="translate(395,202)"/>
<path d="M0 0 C0.66 0.33 1.32 0.66 2 1 C1.24 1.94 0.48 2.89 -0.31 3.86 C-6.04 10.98 -11.67 18.13 -17.06 25.51 C-21.01 30.58 -23.64 32.53 -30 34 C-27.88 29.88 -25.16 27.05 -21.88 23.87 C-20.07 22.07 -18.41 20.2 -16.75 18.25 C-12.86 13.72 -8.62 9.59 -4.36 5.42 C-2 3 -2 3 0 0 Z " fill="#6AB8DE" transform="translate(332,206)"/>
<path d="M0 0 C0 4.21 -2.28 6.55 -4.69 9.81 C-5.12 10.42 -5.56 11.02 -6.01 11.64 C-7.32 13.45 -8.65 15.23 -10 17 C-10.44 17.58 -10.88 18.17 -11.34 18.77 C-14.62 22.94 -14.62 22.94 -18.19 23.5 C-21 23 -21 23 -23 21 C-20.48 18.62 -17.96 16.25 -15.44 13.88 C-14.73 13.21 -14.03 12.54 -13.3 11.86 C-8.97 7.78 -4.55 3.84 0 0 Z " fill="#6AB9E0" transform="translate(416,202)"/>
<path d="M0 0 C1.65 1.65 3.3 3.3 5 5 C3.59 8.36 1.99 10.06 -0.91 12.23 C-1.67 12.81 -2.44 13.38 -3.22 13.97 C-3.62 14.27 -3.62 14.27 -5.62 15.75 C-6.43 16.35 -7.23 16.95 -8.05 17.57 C-10.03 19.06 -12.01 20.53 -14 22 C-14 18.55 -13.41 17.8 -11.45 15.06 C-10.91 14.31 -10.38 13.56 -9.83 12.79 C-9.27 12.01 -8.71 11.24 -8.12 10.44 C-7.57 9.66 -7.01 8.88 -6.44 8.07 C-2.33 2.33 -2.33 2.33 0 0 Z " fill="#6AB6DC" transform="translate(439,209)"/>
<path d="M0 0 C-1.41 3.02 -3.07 5.62 -5.05 8.3 C-5.64 9.11 -6.24 9.93 -6.86 10.76 C-7.48 11.6 -8.11 12.45 -8.75 13.31 C-9.05 13.73 -9.05 13.73 -10.59 15.83 C-14.21 20.73 -17.87 25.52 -22 30 C-22.66 30 -23.32 30 -24 30 C-24.33 30.99 -24.66 31.98 -25 33 C-25.66 32.67 -26.32 32.34 -27 32 C-21.65 23.23 -16.09 15.49 -9 8 C-7.12 5.81 -5.26 3.61 -3.41 1.4 C-2 0 -2 0 0 0 Z " fill="#69B5DA" transform="translate(312,215)"/>
<path d="M0 0 C0 3 0 3 -2.13 5.21 C-3.12 6.07 -4.11 6.93 -5.12 7.81 C-10.17 12.28 -15 16.91 -19.75 21.69 C-20.06 22 -20.06 22 -21.63 23.58 C-23.09 25.05 -24.54 26.53 -26 28 C-26.66 27.67 -27.32 27.34 -28 27 C-27.23 26.12 -26.45 25.23 -25.66 24.32 C-24.6 23.11 -23.55 21.9 -22.5 20.69 C-21.95 20.06 -21.4 19.43 -20.84 18.78 C-17.51 14.91 -14.57 10.99 -11.75 6.75 C-9.29 3.23 -7.72 1.38 -3.5 0.31 C-2.35 0.21 -1.19 0.11 0 0 Z " fill="#6AB7DD" transform="translate(357,191)"/>
<path d="M0 0 C0.66 0 1.32 0 2 0 C4.19 2.81 4.19 2.81 6 6 C4.76 9.71 3.2 10.8 0.19 13.25 C-0.25 13.61 -0.25 13.61 -2.46 15.45 C-5 17 -5 17 -7.32 16.73 C-7.88 16.49 -8.43 16.25 -9 16 C-7.57 12.09 -5.72 8.71 -3.5 5.19 C-3.2 4.7 -3.2 4.7 -1.66 2.23 C-1.11 1.49 -0.56 0.76 0 0 Z " fill="#6AB9E0" transform="translate(450,222)"/>
<path d="M0 0 C0.33 0.66 0.66 1.32 1 2 C-0.36 4.44 -1.77 6.74 -3.31 9.06 C-3.73 9.71 -4.15 10.36 -4.58 11.03 C-7.73 15.86 -7.73 15.86 -10 17 C-12.36 16.06 -14.7 15.07 -17 14 C-12.13 8.8 -6.4 3.2 0 0 Z " fill="#6AB7DD" transform="translate(446,219)"/>
<path d="M0 0 C0.66 0.33 1.32 0.66 2 1 C1.3 1.98 0.6 2.95 -0.12 3.96 C-1.04 5.24 -1.96 6.53 -2.88 7.81 C-3.34 8.46 -3.8 9.1 -4.27 9.76 C-4.71 10.38 -5.16 11 -5.62 11.64 C-6.03 12.22 -6.43 12.79 -6.85 13.37 C-7.93 14.9 -8.97 16.45 -10 18 C-12.31 17.67 -14.62 17.34 -17 17 C-11.9 10.67 -6.07 5.37 0 0 Z " fill="#6AB6DB" transform="translate(430,211)"/>
<path d="M0 0 C0.66 0.33 1.32 0.66 2 1 C-0.1 5.77 -2.48 10.79 -7.33 13.12 C-9.54 13.85 -11.73 14.48 -14 15 C-11.72 10.7 -8.86 6.98 -5 4 C-4.3 3.84 -3.59 3.68 -2.87 3.52 C-2.25 3.35 -1.64 3.18 -1 3 C-0.67 2.01 -0.34 1.02 0 0 Z " fill="#6AB7DD" transform="translate(316,225)"/>
<path d="M0 0 C0.66 0.33 1.32 0.66 2 1 C1.29 1.77 0.57 2.55 -0.16 3.34 C-5.52 9.16 -10.84 15.01 -16 21 C-16 17.13 -14.81 16.19 -12.38 13.25 C-12.01 12.81 -12.01 12.81 -10.17 10.58 C-9.46 9.73 -8.74 8.88 -8 8 C-7.41 7.28 -6.81 6.56 -6.2 5.82 C-2.29 1.14 -2.29 1.14 0 0 Z " fill="#6AB5DA" transform="translate(330,201)"/>
<path d="M0 0 C0.33 0.66 0.66 1.32 1 2 C-2.63 6.99 -5.57 10.94 -11 14 C-13.13 16.23 -15.08 18.59 -17 21 C-17.66 20.34 -18.32 19.68 -19 19 C-14.05 13.95 -9.06 9.05 -3.63 4.51 C-2 3 -2 3 0 0 Z " fill="#66A9C9" transform="translate(380,194)"/>
<path d="M0 0 C0.66 0 1.32 0 2 0 C2.33 2.31 2.66 4.62 3 7 C1.12 7.62 1.12 7.62 -1 8 C-1.66 7.34 -2.32 6.68 -3 6 C-2.63 3.07 -2.14 2.14 0 0 Z " fill="#6AB5D9" transform="translate(461,243)"/>
<path d="M0 0 C0.66 0 1.32 0 2 0 C0.48 3.48 -1.58 5.96 -4.12 8.75 C-4.49 9.15 -4.49 9.15 -6.32 11.17 C-6.87 11.78 -7.43 12.38 -8 13 C-8 9.04 -6.59 7.85 -4.12 4.81 C-3.41 3.91 -2.69 3.01 -1.95 2.08 C-1.3 1.39 -0.66 0.71 0 0 Z " fill="#5F93AB" transform="translate(322,209)"/>
<path d="M0 0 C0 3.58 -1.09 5.05 -3 8 C-3.99 7.67 -4.98 7.34 -6 7 C-4.61 3.63 -3.02 2.01 0 0 Z " fill="#6AB7DD" transform="translate(454,235)"/>
<path d="M0 0 C0.66 0.33 1.32 0.66 2 1 C-0.64 4.3 -3.28 7.6 -6 11 C-6.66 10.34 -7.32 9.68 -8 9 C-5.36 6.03 -2.72 3.06 0 0 Z " fill="#6097B0" transform="translate(332,206)"/>
<path d="M0 0 C0.66 0.99 1.32 1.98 2 3 C0.72 4.71 -0.62 6.37 -2 8 C-2.66 8 -3.32 8 -4 8 C-3.4 4.64 -2.15 2.62 0 0 Z " fill="#65A4C2" transform="translate(459,236)"/>
</svg>
