<?xml version="1.0" encoding="UTF-8"?>
<!-- Generator: visioncortex VTracer 0.6.5 -->
<svg version="1.1" xmlns="http://www.w3.org/2000/svg" width="512" height="512">
<path d="M0 0 C5.18 4.54 9.45 9.65 13.56 15.18 C13.85 15.55 13.85 15.55 15.31 17.43 C30.51 37.78 39.75 63.05 41.87 88.27 C42.56 91.18 42.56 91.18 44.45 92.38 C45.15 92.64 45.84 92.91 46.56 93.18 C48.01 94.8 48.01 94.8 49.24 96.62 C49.45 96.92 49.45 96.92 50.51 98.43 C52.52 101.79 52.7 104.83 52.85 108.67 C53.21 118.05 54.42 127.04 56.56 136.18 C56.71 136.85 56.87 137.53 57.02 138.22 C61.73 158.11 72.15 175.58 86.09 190.4 C87.56 192.18 87.56 192.18 87.56 194.18 C88.22 194.18 88.88 194.18 89.56 194.18 C89.56 194.84 89.56 195.5 89.56 196.18 C90.22 196.18 90.88 196.18 91.56 196.18 C91.56 196.84 91.56 197.5 91.56 198.18 C92.22 198.18 92.88 198.18 93.56 198.18 C93.56 198.84 93.56 199.5 93.56 200.18 C94.22 200.18 94.88 200.18 95.56 200.18 C95.56 200.84 95.56 201.5 95.56 202.18 C96.87 202.89 98.21 203.55 99.56 204.18 C100.8 205.07 102.01 205.99 103.21 206.94 C103.55 207.21 103.55 207.21 105.29 208.57 C105.66 208.86 105.66 208.86 107.49 210.3 C115.11 216.23 122.9 221.85 131.56 226.18 C131.56 226.84 131.56 227.5 131.56 228.18 C133.2 228.89 134.87 229.55 136.56 230.18 C137.55 230.84 138.54 231.5 139.56 232.18 C139.56 232.84 139.56 233.5 139.56 234.18 C140.22 234.18 140.88 234.18 141.56 234.18 C141.56 234.84 141.56 235.5 141.56 236.18 C142.22 236.18 142.88 236.18 143.56 236.18 C143.56 236.84 143.56 237.5 143.56 238.18 C144.22 238.18 144.88 238.18 145.56 238.18 C154.87 248.44 158.96 259.25 159.06 272.93 C159.06 273.37 159.06 273.37 159.08 275.58 C158.92 283.61 157.42 291.32 151.56 297.18 C150.9 297.18 150.24 297.18 149.56 297.18 C149.56 297.84 149.56 298.5 149.56 299.18 C141.75 303.82 133.57 304.28 124.87 302.37 C121.56 301.18 121.56 301.18 118.11 299.6 C112.59 297.54 107.18 297.99 101.37 298.18 C82.36 298.43 65.14 295 46.78 290.37 C36.94 287.9 27.06 285.88 17.08 284.05 C-8.75 279.28 -33.69 271.29 -54.55 254.6 C-57.61 252.3 -59.88 252.07 -63.55 252.52 C-64.36 252.61 -65.17 252.71 -66 252.8 C-66.44 252.85 -66.44 252.85 -68.63 253.12 C-100.12 256.51 -137.75 253.67 -166.44 239.23 C-169.09 237.93 -171.56 236.83 -174.44 236.18 C-176.32 239.55 -176.32 239.55 -176.76 242.2 C-179.1 252.42 -189.59 264.22 -197.44 271.18 C-198.1 271.18 -198.76 271.18 -199.44 271.18 C-199.44 271.84 -199.44 272.5 -199.44 273.18 C-201.05 274.57 -201.05 274.57 -203.28 276.15 C-204.07 276.72 -204.87 277.29 -205.7 277.88 C-206.54 278.47 -207.39 279.07 -208.26 279.68 C-209.09 280.27 -209.92 280.87 -210.78 281.48 C-220.12 288.12 -220.12 288.12 -223.01 288.62 C-223.81 288.47 -224.61 288.33 -225.44 288.18 C-226.73 285.96 -226.73 285.96 -227.44 283.18 C-226.69 280.81 -226.69 280.81 -225.32 278.3 C-219.78 267.04 -217.42 254.63 -216.44 242.18 C-216.36 241.25 -216.29 240.32 -216.21 239.36 C-215.29 227.33 -215.29 227.33 -216.44 222.18 C-220.28 224.78 -222.5 229.3 -225.01 233.12 C-227.01 236 -229.25 238.29 -231.76 240.74 C-232.15 241.12 -232.15 241.12 -234.12 243.06 C-240.79 249.14 -240.79 249.14 -245.44 250.18 C-245.44 250.84 -245.44 251.5 -245.44 252.18 C-247.08 253.18 -247.08 253.18 -249.35 254.24 C-250.18 254.62 -251 255.01 -251.86 255.41 C-252.73 255.81 -253.6 256.21 -254.51 256.62 C-255.35 257.01 -256.2 257.41 -257.07 257.81 C-259.52 258.95 -261.98 260.07 -264.44 261.18 C-264.77 261.33 -264.77 261.33 -266.41 262.07 C-270.05 263.69 -273.64 264.91 -277.51 265.87 C-278.49 266.12 -279.47 266.37 -280.48 266.63 C-283.57 267.2 -286.3 267.42 -289.44 267.18 C-290.1 266.52 -290.76 265.86 -291.44 265.18 C-291.44 261.4 -290.41 260.14 -287.82 257.34 C-286.7 256.3 -285.57 255.27 -284.44 254.24 C-277.78 247.86 -272.98 241.18 -268.44 233.18 C-268.26 232.85 -268.26 232.85 -267.3 231.21 C-259.35 217.36 -254.03 202.81 -249.44 187.55 C-249.22 186.83 -249 186.1 -248.78 185.35 C-248.28 183.64 -247.86 181.91 -247.44 180.18 C-247.77 179.85 -248.1 179.52 -248.44 179.18 C-249.43 179.51 -250.42 179.84 -251.44 180.18 C-251.44 180.84 -251.44 181.5 -251.44 182.18 C-252.9 183.47 -252.9 183.47 -254.82 184.8 C-255.44 185.25 -256.07 185.7 -256.72 186.16 C-258.44 187.18 -258.44 187.18 -260.44 187.18 C-260.44 187.84 -260.44 188.5 -260.44 189.18 C-263.04 190.86 -265.61 192.38 -268.32 193.87 C-269.13 194.31 -269.94 194.76 -270.78 195.22 C-290.96 206.04 -311.75 211.4 -334.63 211.3 C-335.58 211.31 -336.52 211.31 -337.5 211.32 C-351.33 211.3 -351.33 211.3 -353.44 209.18 C-354.01 206.43 -354.01 206.43 -353.44 203.18 C-351.08 200.99 -348.29 199.66 -345.44 198.18 C-344.48 197.64 -343.52 197.09 -342.53 196.53 C-334.79 192.18 -334.79 192.18 -332.44 192.18 C-332.44 191.52 -332.44 190.86 -332.44 190.18 C-330.08 188.5 -327.71 186.92 -325.26 185.37 C-320.44 182.32 -316.41 179.32 -312.44 175.18 C-311.01 174.03 -309.55 172.9 -308.07 171.8 C-304.47 169.06 -301.3 166.15 -298.16 162.9 C-296.47 161.2 -294.71 159.66 -292.88 158.12 C-284.39 150.79 -276.33 142.66 -269.08 134.1 C-267.09 131.76 -265.01 129.51 -262.94 127.24 C-262.21 126.41 -261.48 125.59 -260.72 124.73 C-259.12 122.93 -257.47 121.17 -255.79 119.44 C-251.82 115.09 -251.82 115.09 -251.44 113.18 C-255.88 113.31 -260.15 114.6 -264.43 115.69 C-289.89 121.86 -317.71 115.9 -341.61 106.86 C-343.22 106.26 -344.85 105.7 -346.48 105.15 C-348.71 104.33 -350.55 103.62 -352.44 102.18 C-353.88 98.55 -353.88 98.55 -353.44 95.18 C-348.93 93.2 -344.06 92.42 -339.26 91.43 C-326.46 88.68 -313.76 85.11 -301.96 79.38 C-299.28 78.1 -296.57 77.02 -293.82 75.93 C-287.2 73.2 -280.98 69.84 -274.69 66.44 C-270.88 64.39 -267.02 62.46 -263.13 60.55 C-257.51 57.78 -252.13 54.72 -246.77 51.46 C-244.44 50.18 -244.44 50.18 -242.44 50.18 C-242.44 49.52 -242.44 48.86 -242.44 48.18 C-240.86 47.17 -240.86 47.17 -238.63 46.05 C-232.83 42.96 -227.69 39.12 -222.44 35.18 C-221.74 34.66 -221.04 34.15 -220.32 33.61 C-218.35 32.15 -216.39 30.67 -214.44 29.18 C-213.64 28.59 -212.84 27.99 -212.01 27.38 C-206.67 23.32 -202.62 19.11 -198.54 13.81 C-178.27 -11.6 -144.37 -29.99 -112.22 -34.11 C-70.05 -38.63 -32.26 -27.36 0 0 Z " fill="#151712" transform="translate(353.443359375,121.82080078125)"/>
<path d="M0 0 C2.44 0.06 2.44 0.06 5 1 C5.33 2.33 5.67 3.67 6 5 C7.66 5.36 9.33 5.69 11 6 C10.67 6.99 10.34 7.98 10 9 C10.41 9.85 10.82 10.69 11.25 11.56 C11.5 12.37 11.75 13.17 12 14 C9.56 15.12 9.56 15.12 7 16 C7.16 16.5 7.16 16.5 8 19 C7.01 19.66 6.02 20.32 5 21 C5.04 21.93 5.08 22.85 5.12 23.81 C5 27 5 27 2.88 29.54 C1.93 30.37 0.98 31.2 0 32.06 C-8.17 39.62 -15.48 49.88 -17.56 61 C-17.38 61.66 -17.19 62.32 -17 63 C-11.44 62.78 -7.22 60.22 -2.5 57.56 C4.61 53.61 10.59 50.35 19 51 C21 53 21 53 22 55 C21.04 57.35 20.04 59.68 19 62 C18.87 62.64 18.74 63.27 18.61 63.93 C17.8 66.68 16.34 68.52 14.62 70.81 C7.33 80.98 5.6 91.6 7 104 C8.81 110.92 11.58 117.34 16 123 C16.7 123.99 17.4 124.98 18.12 126 C23.94 132.84 34.04 137.85 42.93 138.57 C56.9 139.08 67.38 137.02 78.39 128.05 C80.06 126.44 81.54 124.8 83 123 C86.65 119.15 86.65 119.15 89.12 118.12 C91 117 91 117 92 113.94 C92.33 112.97 92.66 112 93 111 C95.12 110 95.12 110 97 110 C97 110.66 97 111.32 97 112 C97.66 112 98.32 112 99 112 C99 112.66 99 113.32 99 114 C99.66 114 100.32 114 101 114 C101 114.66 101 115.32 101 116 C101.66 116 102.32 116 103 116 C103.14 116.62 103.29 117.24 103.44 117.88 C104 120 104 120 107 122 C107.66 125.63 107.46 129.32 107.44 133 C107.46 134.02 107.48 135.05 107.5 136.1 C107.5 136.59 107.5 136.59 107.5 139.06 C107.5 139.96 107.5 140.86 107.5 141.79 C107.42 142.15 107.42 142.15 107 144 C105.05 145.16 105.05 145.16 103 146 C101.53 148.66 100.92 150.27 101.25 153.31 C101.5 153.87 101.75 154.43 102 155 C102.66 155 103.32 155 104 155 C104.8 163.64 100.72 170.41 95.42 176.94 C89.63 183.61 83.44 189.85 76.67 195.54 C73.76 198.09 71.31 200.89 69 204 C68.58 204.55 68.17 205.09 67.74 205.66 C63.31 212.73 64.04 222.54 65.44 230.5 C66.09 232.53 66.89 234.17 68 236 C68.43 236.71 68.86 237.42 69.3 238.16 C73.22 243.83 77.99 247.42 83.73 251.08 C85.18 252.01 86.6 253 88 254 C88 254.66 88 255.32 88 256 C50.7 264.91 1.99 252.6 -30 233 C-53.13 217.81 -67.85 196.46 -75 170 C-75.21 169.25 -75.43 168.5 -75.65 167.73 C-84.28 136.01 -77.61 95.89 -63 67 C-62.71 66.41 -62.43 65.83 -62.13 65.23 C-54.74 50.2 -45.62 37.09 -34 25 C-33.15 24.1 -32.3 23.19 -31.42 22.26 C-14.26 4.51 -14.26 4.51 -6 4 C-6 4.66 -6 5.32 -6 6 C-5.67 6.33 -5.67 6.33 -4 8 C-4.33 8.66 -4.66 9.32 -5 10 C-5.66 10 -6.32 10 -7 10 C-7 10.66 -7 11.32 -7 12 C-6.61 11.61 -6.61 11.61 -4.62 9.62 C-3.76 8.76 -2.89 7.89 -2 7 C-1.34 7 -0.68 7 0 7 C0 7.66 0 8.32 0 9 C1.69 7.81 1.69 7.81 3 6 C1.69 4.5 1.69 4.5 0 3 C0 2.01 0 1.02 0 0 Z " fill="#69BAE2" transform="translate(199,111)"/>
<path d="M0 0 C3.08 1.26 6.08 2.62 9.08 4.04 C11.08 4.96 13.08 5.88 15.08 6.79 C15.94 7.2 16.81 7.61 17.7 8.03 C24.36 10.88 33.11 11.89 39.98 9.34 C43.05 7.88 45.92 6.24 48.82 4.48 C52.81 2.72 54.92 2.9 59.08 4.04 C61.15 5.63 61.96 6.56 62.57 9.12 C62.63 9.91 62.68 10.7 62.74 11.51 C62.81 12.38 62.88 13.26 62.95 14.16 C63.01 15.09 63.08 16.02 63.14 16.98 C63.3 18.9 63.46 20.81 63.62 22.73 C63.69 23.65 63.77 24.57 63.85 25.52 C64.29 30.42 65.1 35.22 66.08 40.04 C66.19 40.59 66.19 40.59 66.73 43.34 C67.97 49.14 69.42 54.5 72.02 59.85 C72.9 61.67 73.7 63.53 74.48 65.39 C87.52 95.27 112.63 117.13 139.55 134.26 C153.33 143.11 165.18 153.41 169.08 170.04 C169.9 178.85 169.84 187.33 165.08 195.04 C160.77 199.35 157.13 200.22 151.16 200.39 C143.93 200.32 138.33 198.41 131.77 195.54 C130.68 195.09 129.59 194.63 128.47 194.16 C112.85 187.52 98.18 179.44 83.49 170.98 C80.61 169.32 77.72 167.67 74.83 166.04 C73.65 165.37 72.47 164.69 71.3 164.02 C64.37 160.01 57.46 156.59 49.85 154.09 C49.46 153.96 49.46 153.96 47.5 153.31 C38.48 150.41 29.28 148.44 20.02 146.48 C0.11 142.24 -18.81 137.4 -36.98 127.98 C-37.63 127.65 -38.27 127.32 -38.94 126.99 C-42.41 125.13 -45.02 123.55 -46.92 120.04 C-47.48 117.18 -47.21 115.02 -46.92 112.04 C-45.55 110.04 -45.55 110.04 -43.92 109.04 C-43.26 109.04 -42.6 109.04 -41.92 109.04 C-41.98 106.98 -41.98 106.98 -42.92 105.04 C-46.19 105.04 -47.67 105.83 -50.17 107.92 C-52.4 110.63 -52.88 112.71 -53.36 116.17 C-52.75 121.6 -50.54 125 -46.92 129.04 C-43.52 131.43 -39.92 133.08 -36.11 134.73 C-35.59 134.96 -35.59 134.96 -32.98 136.14 C-29.97 137.48 -26.95 138.77 -23.92 140.04 C-23.2 140.36 -22.47 140.67 -21.72 141 C-10.24 145.92 2.05 148.15 14.24 150.6 C21.14 151.98 27.96 153.44 34.73 155.38 C37.25 156.09 39.78 156.69 42.33 157.29 C59.63 162.06 76.54 172.41 91.59 181.95 C96.88 185.21 102.46 187.98 107.98 190.81 C108.77 191.21 109.56 191.62 110.38 192.04 C111.09 192.4 111.81 192.76 112.54 193.14 C113.05 193.44 113.56 193.74 114.08 194.04 C114.08 194.37 114.08 194.7 114.08 195.04 C101.84 196.34 87.85 193.96 76.14 190.36 C70.28 188.58 64.15 188.3 58.08 189.04 C58.08 189.7 58.08 190.36 58.08 191.04 C60.53 191.82 60.53 191.82 63.77 192.54 C71.86 194.36 71.86 194.36 75.08 196.04 C70.81 197.6 67.28 196.23 63.08 195.04 C56.25 193.21 49.4 191.68 42.45 190.39 C42.07 190.32 42.07 190.32 40.15 189.97 C38.58 189.68 37.02 189.39 35.45 189.11 C21.58 186.54 8.06 183.77 -4.92 178.04 C-5.72 177.69 -6.52 177.34 -7.35 176.98 C-9.69 175.9 -9.69 175.9 -12.92 174.04 C-11.32 173.33 -11.32 173.33 -8.92 173.04 C-6.91 174.01 -4.9 175.01 -2.92 176.04 C-2.26 175.71 -1.6 175.38 -0.92 175.04 C-0.26 174.71 0.4 174.38 1.08 174.04 C1.74 174.37 2.4 174.7 3.08 175.04 C0.5 171.67 -3.32 170.24 -7.05 168.48 C-21.46 161.43 -34.59 153.24 -47.23 143.36 C-48.71 142.21 -50.21 141.09 -51.71 139.97 C-58.81 134.67 -65.09 129.05 -66.92 120.04 C-67.87 112.45 -67.76 106.48 -62.96 100.3 C-57.93 94.74 -52.77 89.34 -46.92 84.62 C-34.04 73.54 -26.53 58.68 -23.92 42.04 C-23.49 36.05 -23.44 30.06 -23.41 24.05 C-23.29 8.1 -23.29 8.1 -18.45 2.27 C-12.52 -2.06 -6.91 -2.26 0 0 Z " fill="#F5693D" transform="translate(335.921875,216.95703125)"/>
<path d="M0 0 C0.66 0.17 1.32 0.33 2 0.5 C17.6 4.51 33.11 13.21 45 24 C45.84 24.72 46.67 25.44 47.53 26.18 C71.16 46.78 86.56 76.78 90 108 C90.15 108.78 90.3 109.56 90.46 110.36 C90.75 112.5 90.75 112.5 90 116 C86.87 118 83.53 118.92 80 120 C79.43 120.29 79.43 120.29 76.56 121.75 C66.43 125.31 58.28 122 49 117.56 C46.79 116.54 44.58 115.52 42.38 114.5 C41.41 114.05 40.45 113.59 39.46 113.12 C34.31 110.77 29.31 109.88 23.88 111.72 C17.14 114.88 12.92 119.1 10 126 C9.62 129.43 9.62 129.43 9.59 133.16 C9.58 133.84 9.57 134.51 9.56 135.2 C9.53 137.34 9.51 139.48 9.5 141.62 C9.39 161.91 9.39 161.91 6 170 C5.67 169.01 5.34 168.02 5 167 C4.34 167 3.68 167 3 167 C1.56 164.31 1.56 164.31 1 161 C3.25 158.12 3.25 158.12 6 156 C6.66 156 7.32 156 8 156 C8.33 152.39 7.99 148.74 7.81 145.12 C7.8 144.61 7.8 144.61 7.72 142 C7.67 141.01 7.63 140.02 7.58 139.01 C7.56 138.55 7.56 138.55 7.46 136.25 C7 134 7 134 4 132 C4 130.68 4 129.36 4 128 C3.34 128 2.68 128 2 128 C2 127.34 2 126.68 2 126 C1.34 126 0.68 126 0 126 C0 125.34 0 124.68 0 124 C-0.66 124 -1.32 124 -2 124 C-2 123.34 -2 122.68 -2 122 C-3.88 122.94 -3.88 122.94 -6 125 C-6.7 127.32 -7.37 129.66 -8 132 C-8.66 131.67 -9.32 131.34 -10 131 C-13.34 132.22 -15.02 133.99 -17.19 136.75 C-23.23 143.86 -32.22 149.86 -41.56 151.43 C-44.28 151.64 -46.96 151.71 -49.69 151.69 C-50.65 151.68 -51.61 151.68 -52.6 151.67 C-61.52 151.39 -67.67 149.06 -75 144 C-75.72 143.51 -76.45 143.02 -77.19 142.52 C-85.47 136.15 -90.48 125.93 -93 116 C-94.86 101.73 -91.35 90.59 -83 79 C-82.34 78.34 -81.68 77.68 -81 77 C-80.65 74.67 -80.32 72.33 -80 70 C-79.33 68.67 -78.67 67.33 -78 66 C-78.33 65.84 -78.33 65.84 -80 65 C-80 64.67 -80 64.34 -80 64 C-90.47 62.57 -100.46 69.63 -109.09 74.74 C-112 76 -112 76 -114.94 76.2 C-115.62 75.8 -116.3 75.41 -117 75 C-117.1 63.38 -108.72 53.14 -101.08 45.09 C-99.66 43.66 -98.21 42.28 -96.73 40.92 C-95 39 -95 39 -95 35.88 C-95 34.93 -95 33.98 -95 33 C-93 31.75 -93 31.75 -91 31 C-91 30.34 -91 29.68 -91 29 C-91.66 28.67 -92.32 28.34 -93 28 C-92.49 27.89 -92.49 27.89 -89.94 27.31 C-88.97 26.88 -88 26.45 -87 26 C-88.19 23 -88.19 23 -90 20 C-89.67 19.34 -89.34 18.68 -89 18 C-91 17.32 -93 16.65 -95 16 C-95 15.34 -95 14.68 -95 14 C-95.99 13.67 -96.98 13.34 -98 13 C-98 14.32 -98 15.64 -98 17 C-97.01 17.33 -96.02 17.66 -95 18 C-95.66 18.99 -96.32 19.98 -97 21 C-97.66 21 -98.32 21 -99 21 C-99 20.34 -99 19.68 -99 19 C-99.66 19 -100.32 19 -101 19 C-101.31 19.64 -101.62 20.28 -101.94 20.94 C-103 23 -103 23 -106 24 C-106 23.34 -106 22.68 -106 22 C-105.34 22 -104.68 22 -104 22 C-104 21.34 -104 20.68 -104 20 C-104.99 19.34 -105.98 18.68 -107 18 C-107.33 17.67 -107.66 17.34 -108 17 C-105.48 13.7 -101.72 12.02 -98.12 10.12 C-97.46 9.77 -96.79 9.42 -96.1 9.06 C-66.98 -5.98 -31.53 -8.45 0 0 Z " fill="#69B9E1" transform="translate(298,99)"/>
<path d="M0 0 C3.2 2.36 4.03 5.25 5 9 C4.98 9.95 4.96 10.9 4.94 11.88 C4.96 12.58 4.98 13.28 5 14 C5.99 14 6.98 14 8 14 C8.88 15.61 8.88 15.61 9.56 17.75 C10.89 21.82 10.89 21.82 11.99 23.75 C13.5 27.13 13.97 30.68 14.56 34.31 C14.69 35.05 14.81 35.78 14.94 36.54 C15.53 40.01 16.06 43.48 16.48 46.98 C16.57 47.48 16.57 47.48 17 50 C18.75 51 18.75 51 21 52 C25.24 56.93 27.04 60.92 27.29 67.49 C27.65 76.87 28.87 85.86 31 95 C31.08 95.34 31.08 95.34 31.47 97.05 C36.18 116.93 46.59 134.4 60.53 149.22 C62 151 62 151 62 153 C62.66 153 63.32 153 64 153 C64 153.66 64 154.32 64 155 C64.66 155 65.32 155 66 155 C66 155.66 66 156.32 66 157 C66.66 157 67.32 157 68 157 C68 157.66 68 158.32 68 159 C68.66 159 69.32 159 70 159 C70 159.66 70 160.32 70 161 C71.31 161.71 72.65 162.37 74 163 C75.24 163.89 76.46 164.81 77.65 165.76 C78.34 166.3 79.03 166.84 79.74 167.39 C80.1 167.68 80.1 167.68 81.94 169.12 C89.56 175.05 97.34 180.67 106 185 C106 185.66 106 186.32 106 187 C107.65 187.71 109.32 188.37 111 189 C111.99 189.66 112.98 190.32 114 191 C114 191.66 114 192.32 114 193 C114.66 193 115.32 193 116 193 C116 193.66 116 194.32 116 195 C116.66 195 117.32 195 118 195 C118 195.66 118 196.32 118 197 C118.66 197 119.32 197 120 197 C129.31 207.26 133.4 218.07 133.5 231.75 C133.51 232.63 133.51 233.5 133.52 234.4 C133.36 242.43 131.86 250.14 126 256 C125.34 256 124.68 256 124 256 C124 256.66 124 257.32 124 258 C116.19 262.64 108.02 263.11 99.31 261.19 C96 260 96 260 92.55 258.43 C87.04 256.36 81.62 256.81 75.81 257 C63.95 257.21 52.65 256.23 41 254 C40.57 253.92 40.57 253.92 38.41 253.52 C38 253.44 38 253.44 35.91 253.02 C35.16 252.88 34.41 252.73 33.64 252.58 C33.37 252.48 33.37 252.48 32 252 C32 251.34 32 250.68 32 250 C29.3 249.22 29.3 249.22 25.75 248.5 C17.9 246.9 17.9 246.9 15 245 C15 244.34 15 243.68 15 243 C22.56 240.4 29.6 242.31 36.99 244.43 C46.6 247.11 59.16 250 69 248 C66.41 246.18 63.92 244.92 61.06 243.56 C59.21 242.64 57.35 241.71 55.5 240.78 C54.55 240.31 53.61 239.84 52.64 239.36 C49.2 237.59 45.91 235.62 42.62 233.56 C16.35 217.42 -9.63 208.98 -39.8 203.18 C-56.48 199.89 -84.48 193.1 -95.06 178.38 C-97.12 174.47 -97.82 171.42 -97 167 C-95.35 163.08 -93.61 160.41 -90 158 C-87.31 158.12 -87.31 158.12 -85 159 C-85 160.32 -85 161.64 -85 163 C-85.33 163.21 -85.33 163.21 -87 164.25 C-89 166 -89 166 -89.56 169.88 C-89.67 173.03 -89.02 173.98 -86.99 176.48 C-68.08 192.39 -38.13 196.34 -14.76 201.36 C-1.22 204.3 11.63 207.74 23.88 214.44 C24.65 214.85 25.43 215.27 26.24 215.7 C34.03 219.92 41.65 224.45 49.28 228.95 C61.79 236.28 74.58 242.47 88 248 C89.09 248.49 90.18 248.98 91.3 249.48 C100.08 253.24 108.25 254.72 117.56 251.94 C121.74 248.62 124.02 244.26 125 239 C126.03 224.77 123.28 214.06 114 203 C106.82 195.11 97.77 189.83 88.85 184.13 C61.61 166.67 35.2 139.75 26 108 C25.47 106.6 24.93 105.2 24.38 103.81 C20.57 93.74 19.24 82.51 18.79 71.8 C18.78 71.47 18.78 71.47 18.7 69.75 C18.63 67.85 18.58 65.95 18.54 64.05 C18 61 18 61 16.15 59.08 C13.64 57.82 11.91 57.77 9.16 58.27 C6.38 59.21 4 60.62 1.44 62.06 C-6.5 66.16 -13.9 66.47 -22.46 64 C-25.71 62.79 -28.85 61.45 -32 60 C-32.44 59.81 -32.44 59.81 -34.64 58.85 C-37.61 57.55 -40.55 56.23 -43.44 54.75 C-47.6 53.53 -51.71 53.39 -56 54 C-59 56 -59 56 -61 58 C-61.66 58 -62.32 58 -63 58 C-64.7 62.72 -65.25 66.82 -65.27 71.87 C-65.29 73.16 -65.31 74.45 -65.33 75.78 C-65.33 76.11 -65.33 76.11 -65.35 77.81 C-65.69 103.67 -71.79 121.01 -90 140 C-92.53 142.39 -95.11 144.7 -97.74 146.97 C-102.91 151.61 -108.57 156.76 -109.3 163.95 C-109.34 174.61 -107.88 180.73 -100.61 188.63 C-96.88 192.02 -92.76 194.81 -88.49 197.46 C-86.68 198.64 -86.68 198.64 -84 201 C-84.22 203.75 -84.22 203.75 -85 206 C-83.06 206.69 -83.06 206.69 -81 207 C-81 207.66 -81 208.32 -81 209 C-87.68 210.1 -94.37 210.1 -101.12 210.12 C-101.56 210.13 -101.56 210.13 -103.75 210.14 C-105.83 210.13 -107.92 210.07 -110 210 C-110 209.67 -110 209.34 -110 209 C-107.92 208.67 -105.84 208.48 -103.75 208.28 C-103.17 208.19 -102.6 208.1 -102 208 C-102 207.67 -102 207.34 -102 207 C-101.18 207.02 -100.35 207.04 -99.5 207.06 C-99.09 207.05 -99.09 207.05 -97 207 C-97 206.34 -97 205.68 -97 205 C-96.01 205.21 -95.02 205.41 -94 205.62 C-93.5 205.69 -93.5 205.69 -91 206 C-91 204.68 -91 203.36 -91 202 C-92.59 201.31 -94.18 200.64 -95.8 200.03 C-104.57 195.93 -110.42 188.9 -114.81 180.56 C-117.23 173.45 -117.65 162.58 -114.56 155.62 C-109.66 147.85 -102.7 141.68 -95.94 135.56 C-90.08 130.24 -85.22 124.75 -81 118 C-80.6 117.37 -80.19 116.75 -79.77 116.1 C-72.29 103.02 -72.48 87.94 -72.59 73.36 C-72.58 65.51 -72.14 59.24 -67 53 C-64.65 50.84 -64.65 50.84 -62.38 49.5 C-61.62 49.04 -60.86 48.57 -60.09 48.09 C-55.24 45.55 -50.18 45.11 -44.94 46.58 C-42.82 47.38 -40.75 48.26 -38.69 49.19 C-37.95 49.5 -37.2 49.82 -36.44 50.14 C-32.26 51.94 -28.19 53.9 -24.12 55.94 C-18.66 58.41 -13.92 59.17 -8 58 C-4.49 56.62 -1.18 55.06 2.15 53.31 C5 52 5 52 9 52 C8.95 48.92 8.65 46.27 8.12 43.25 C7.98 42.36 7.84 41.47 7.69 40.55 C5.83 29.9 2.99 19.12 -1.2 9.14 C-2.31 6.16 -1.76 4.03 -1 1 C-0.67 0.67 -0.34 0.34 0 0 Z " fill="#2C2522" transform="translate(379,163)"/>
<path d="M0 0 C3.65 2.74 6.86 5.69 10 9 C10.52 9.54 11.04 10.08 11.58 10.63 C19.31 19.2 21.47 29.53 21.25 40.77 C20.39 51.96 14.89 63.5 6.55 71.07 C-5.28 80.01 -16.63 83.02 -31.47 81.43 C-37.76 80.36 -42.77 77.61 -48 74 C-48.72 73.51 -49.45 73.02 -50.19 72.52 C-58.47 66.15 -63.48 55.93 -66 46 C-67.67 33.23 -65.19 22.31 -58.02 11.61 C-53.15 5.32 -47.16 0.45 -40 -3 C-39.39 -3.3 -38.79 -3.6 -38.16 -3.9 C-25.63 -9.11 -11.31 -6.83 0 0 Z " fill="#1A120F" transform="translate(271,169)"/>
<path d="M0 0 C3.54 2.82 6.8 5.81 10 9 C10.28 9.27 10.28 9.27 11.71 10.64 C22.16 21.58 25.08 35.62 25.56 50.16 C25.37 51.09 25.19 52.03 25 53 C22.66 54.34 22.66 54.34 20 54 C18.54 50.88 18.54 50.88 17.85 48.92 C15.58 43.79 9.4 40.32 5 37 C4.34 36.48 3.68 35.96 3 35.43 C-3.45 30.85 -11.5 29.17 -19 27 C-19.5 26.84 -19.5 26.84 -22 26 C-24.45 25.87 -26.87 25.79 -29.32 25.76 C-29.68 25.76 -29.68 25.76 -31.51 25.73 C-61.21 25.41 -61.21 25.41 -75 30 C-75.67 30.21 -76.34 30.43 -77.03 30.65 C-85.52 33.41 -93.37 36.96 -101.04 41.55 C-103.77 43.12 -105.83 43.99 -108.99 44.22 C-109.65 43.82 -110.32 43.42 -111 43 C-111.1 31.6 -102.92 21.2 -95.33 13.3 C-94.95 12.92 -94.95 12.92 -93 11 C-92.24 10.23 -91.48 9.46 -90.7 8.67 C-66.95 -14.15 -27.57 -18.88 0 0 Z " fill="#0B1113" transform="translate(292,131)"/>
<path d="M0 0 C-1.28 3.95 -3.28 7.6 -5.12 11.31 C-8.35 18.06 -10.87 24.98 -13.25 32.06 C-13.6 33.1 -13.95 34.13 -14.31 35.2 C-16.17 40.89 -17.45 46.27 -18.25 52.19 C-18.97 55.7 -19.32 57.41 -22.03 59.77 C-25.28 61.32 -28.51 62.2 -32 63 C-32.89 63.21 -33.77 63.43 -34.68 63.65 C-46.89 66.58 -58.9 69.2 -71.5 69.19 C-71.89 69.19 -71.89 69.19 -73.85 69.19 C-84.45 69.07 -94.74 67.71 -105 65 C-108.06 64.69 -108.06 64.69 -110 65 C-109.67 65.99 -109.34 66.98 -109 68 C-107.66 67.69 -106.33 67.35 -105 67 C-104.01 67.66 -103.02 68.32 -102 69 C-102.33 69.33 -102.66 69.66 -103 70 C-93.18 73.85 -82.61 73.51 -72.25 73.62 C-69.76 73.66 -67.28 73.7 -64.79 73.75 C-63.25 73.77 -61.72 73.8 -60.18 73.81 C-58.45 73.84 -56.73 73.91 -55 74 C-55 74.33 -55 74.66 -55 75 C-60.51 76.31 -66.06 76.15 -71.69 76.12 C-72.68 76.12 -73.67 76.12 -74.69 76.11 C-92.64 75.96 -108.45 72.01 -125.17 65.68 C-126.78 65.08 -128.41 64.52 -130.04 63.97 C-132.27 63.15 -134.1 62.44 -136 61 C-137.44 57.38 -137.44 57.38 -137 54 C-132.49 52.02 -127.62 51.24 -122.81 50.25 C-115.14 48.62 -107.73 46.48 -100.28 44.02 C-92.45 41.43 -92.45 41.43 -89 41 C-91.42 43.32 -92.6 44 -96 44 C-96 44.66 -96 45.32 -96 46 C-96.33 46.16 -96.33 46.16 -98 47 C-97.67 47.66 -97.34 48.32 -97 49 C-90.09 48.84 -84 45.76 -77.75 43.06 C-76.6 42.57 -75.44 42.08 -74.25 41.57 C-64.99 37.55 -56.04 33.11 -47.21 28.22 C-45 27 -42.77 25.8 -40.54 24.61 C-27.98 17.85 -15.17 10.6 -4.05 1.62 C-2 0 -2 0 0 0 Z " fill="#A7D141" transform="translate(137,163)"/>
<path d="M0 0 C0.33 0 0.66 0 1 0 C1.14 2.43 1.21 4.84 1.25 7.27 C1.28 8.81 1.31 10.36 1.35 11.9 C1.39 14.34 1.44 16.78 1.48 19.22 C1.76 35.75 1.76 35.75 3.68 43.84 C4.04 46.24 3.9 47.76 3 50 C2.24 50.15 1.49 50.3 0.71 50.46 C-2.96 51.19 -4.01 52.83 -6.38 55.69 C-9.11 58.9 -11.75 61.76 -15.06 64.38 C-16.03 65.24 -17 66.11 -18 67 C-18 68.32 -18 69.64 -18 71 C-15.02 71 -13.68 69.74 -11.38 67.88 C-10.59 67.26 -9.81 66.64 -9 66 C-8.34 66.33 -7.68 66.66 -7 67 C-8.25 68.56 -8.25 68.56 -10 70 C-10.66 70 -11.32 70 -12 70 C-12 70.66 -12 71.32 -12 72 C-13.46 73.29 -13.46 73.29 -15.38 74.62 C-16 75.07 -16.63 75.52 -17.27 75.98 C-19 77 -19 77 -21 77 C-21 77.66 -21 78.32 -21 79 C-22.57 80.13 -22.57 80.13 -24.76 81.35 C-25.16 81.57 -25.16 81.57 -27.15 82.68 C-27.99 83.14 -28.83 83.59 -29.69 84.06 C-30.5 84.52 -31.32 84.98 -32.16 85.46 C-36.11 87.63 -39.47 89.41 -44 90 C-42.4 87.54 -40.45 86.75 -37.81 85.56 C-36.88 85.05 -35.96 84.53 -35 84 C-35 82.68 -35 81.36 -35 80 C-36.66 80.05 -36.66 80.05 -39.06 80.88 C-39.97 81.18 -40.89 81.49 -41.82 81.8 C-45.37 83.14 -48.87 84.56 -52.38 86 C-58.81 88.64 -65.18 90.61 -72 92 C-72.95 92.2 -73.9 92.41 -74.88 92.62 C-82.62 94.12 -91.15 95.11 -99 94 C-97.08 91.62 -94.71 90.04 -92.16 88.4 C-91.41 87.91 -90.66 87.43 -89.89 86.93 C-89.5 86.67 -89.5 86.67 -87.5 85.38 C-77.46 78.77 -68.46 71.45 -59.58 63.34 C-58.18 62.07 -56.78 60.81 -55.34 59.59 C-49.46 54.56 -43.99 49.14 -38.53 43.66 C-36.94 42.07 -35.35 40.48 -33.76 38.89 C-28.29 33.44 -22.98 27.91 -18 22 C-17.05 20.9 -16.1 19.79 -15.16 18.69 C-14.27 17.65 -13.38 16.61 -12.5 15.56 C-12.03 15.01 -11.56 14.46 -11.08 13.89 C-7.68 9.86 -4.41 5.73 -1.24 1.51 C-0.83 1.01 -0.42 0.51 0 0 Z " fill="#A7D140" transform="translate(114,232)"/>
<path d="M0 0 C5.18 4.54 9.45 9.65 13.56 15.18 C13.85 15.55 13.85 15.55 15.31 17.43 C23.33 28.16 29.48 40.69 34.24 53.18 C34.5 53.84 34.76 54.51 35.02 55.19 C36.68 59.8 36.68 59.8 35.56 63.18 C33.6 60.3 33.56 58.78 33.56 55.18 C32.57 55.18 31.58 55.18 30.56 55.18 C29.68 52.84 29.68 52.84 28.99 49.8 C27.75 44.38 27.75 44.38 25.56 42.18 C25.1 42.95 24.65 43.72 24.18 44.51 C23.64 45.06 23.11 45.61 22.56 46.18 C20.96 43.78 19.81 41.54 18.62 38.93 C5.16 11.58 -18.83 -9.62 -47.75 -19.57 C-51.62 -20.79 -55.51 -21.83 -59.44 -22.82 C-60.71 -23.16 -61.98 -23.5 -63.29 -23.84 C-82.36 -28.07 -105.63 -27.93 -124.44 -22.82 C-125.42 -22.59 -126.4 -22.36 -127.41 -22.13 C-157.54 -14.73 -185.18 6.3 -202.21 31.96 C-203.47 33.82 -203.47 33.82 -205.44 36.18 C-206.36 34.57 -206.36 34.57 -206.44 32.18 C-205.78 32.18 -205.12 32.18 -204.44 32.18 C-204.28 31.52 -204.11 30.86 -203.94 30.18 C-203.78 29.52 -203.61 28.86 -203.44 28.18 C-202.78 28.18 -202.12 28.18 -201.44 28.18 C-201.32 25.3 -201.32 25.3 -202.44 23.18 C-205.44 24.72 -207.9 26.99 -210.44 29.18 C-212.07 30.56 -213.72 31.91 -215.44 33.18 C-216.1 32.85 -216.76 32.52 -217.44 32.18 C-216.1 30.73 -216.1 30.73 -213.94 28.93 C-213.19 28.29 -212.44 27.66 -211.67 27 C-209.93 25.57 -208.16 24.18 -206.38 22.8 C-203.92 20.6 -202.21 18.67 -200.26 16.05 C-180.36 -10.11 -146.81 -28.85 -114.44 -33.82 C-71.7 -39.3 -32.71 -27.74 0 0 Z " fill="#2A2D2E" transform="translate(353.443359375,121.82080078125)"/>
<path d="M0 0 C0.38 0.14 0.38 0.14 2.31 0.88 C2.31 2.19 2.31 3.51 2.31 4.88 C1.65 5.29 0.99 5.7 0.31 6.12 C-1.69 7.88 -1.69 7.88 -2.25 11.75 C-2.36 14.9 -1.7 15.85 0.32 18.36 C19.23 34.26 49.18 38.22 72.55 43.24 C86.1 46.17 98.94 49.61 111.19 56.31 C111.58 56.52 111.58 56.52 113.55 57.58 C121.34 61.79 128.96 66.33 136.6 70.82 C149.09 78.15 161.88 84.42 175.31 89.88 C175.96 90.15 176.61 90.42 177.28 90.7 C185.83 94.25 193.87 97.25 203.31 96.88 C203.97 96.55 204.63 96.22 205.31 95.88 C206.06 97.69 206.06 97.69 206.31 99.88 C204.31 101.88 204.31 101.88 201.27 102.14 C200.04 102.14 198.82 102.13 197.56 102.12 C196.35 102.13 195.14 102.14 193.89 102.14 C190.33 101.88 187.57 101.33 184.31 99.88 C184.15 99.01 183.98 98.14 183.81 97.25 C183.65 96.47 183.48 95.68 183.31 94.88 C180.07 94.35 177.9 94.63 174.87 95.89 C169.63 97.34 164.54 97.16 159.12 97.12 C158.59 97.13 158.59 97.13 155.87 97.15 C149.66 97.13 143.88 96.6 137.79 95.36 C134.39 94.69 131.01 94.39 127.56 94.06 C118.85 93.11 110.19 90.81 102.31 86.88 C102.31 86.22 102.31 85.56 102.31 84.88 C109.87 82.28 116.92 84.18 124.3 86.3 C133.91 88.99 146.47 91.88 156.31 89.88 C153.73 88.05 151.23 86.79 148.38 85.44 C146.52 84.51 144.66 83.59 142.81 82.66 C141.87 82.19 140.93 81.72 139.96 81.23 C136.51 79.46 133.22 77.49 129.94 75.44 C103.66 59.29 77.68 50.86 47.51 45.05 C30.83 41.77 2.83 34.98 -7.75 20.25 C-9.81 16.34 -10.51 13.3 -9.69 8.88 C-7.75 4.27 -5.59 -0.26 0 0 Z " fill="#1B0B07" transform="translate(291.6875,321.125)"/>
<path d="M0 0 C2.34 2.34 2.41 3.38 3.06 6.56 C6.01 17.94 12.54 28.91 19.98 37.92 C21 40 21 40 20.36 42.42 C19.91 43.27 19.46 44.12 19 45 C18.55 45.88 18.09 46.75 17.62 47.66 C5.76 68.42 -9.57 82.9 -32 92 C-32.41 92.19 -32.41 92.19 -34.48 93.13 C-36.62 94 -36.62 94 -39 94 C-37.11 90.05 -34.53 86.56 -32 83 C-31.34 82.01 -30.68 81.02 -30 80 C-30.99 80 -31.98 80 -33 80 C-33 79.34 -33 78.68 -33 78 C-33.66 78 -34.32 78 -35 78 C-35 78.99 -35 79.98 -35 81 C-36.87 82.82 -38.66 83.78 -41 85 C-39.93 81.43 -38.17 78.54 -36.06 75.5 C-34.32 72.97 -32.71 70.49 -31.19 67.81 C-30.8 67.21 -30.4 66.62 -30 66 C-28.74 68.51 -28.79 70.22 -29 73 C-29.33 73.33 -29.33 73.33 -31 75 C-29.68 75 -28.36 75 -27 75 C-25.74 73.54 -25.74 73.54 -24.67 71.48 C-24.27 70.71 -23.86 69.95 -23.45 69.16 C-23.03 68.32 -22.62 67.49 -22.19 66.62 C-21.75 65.76 -21.31 64.9 -20.86 64.01 C-11.08 44.39 -4.72 23.27 -0.61 1.77 C-0.41 1.19 -0.21 0.6 0 0 Z " fill="#A6D140" transform="translate(118,284)"/>
<path d="M0 0 C5.88 3.49 11.46 7.57 13.62 14.31 C14.72 23.21 13.38 30.05 8.56 37.5 C3.5 43 -3.06 45.6 -10.44 45.94 C-16.4 45.63 -20.83 44.23 -25.38 40.31 C-31.22 33.5 -33.85 27.98 -33.71 19.04 C-32.83 11.84 -29.33 6.71 -23.75 2.25 C-16.93 -2.7 -7.75 -3.72 0 0 Z " fill="#0D0D0C" transform="translate(259.375,184.6875)"/>
<path d="M0 0 C0.37 0.16 0.37 0.16 2.25 0.96 C6.43 2.75 10.49 4.71 14.56 6.75 C19.89 9.22 24.89 9.67 30.69 8.81 C32.36 8.15 34.02 7.49 35.69 6.81 C40.17 5.85 44.49 5.65 49.06 5.62 C49.69 5.62 49.69 5.62 52.84 5.58 C53.78 5.66 54.72 5.73 55.69 5.81 C55.69 6.47 55.69 7.13 55.69 7.81 C53.92 8.23 53.92 8.23 51.44 8.56 C47.02 9.32 43.82 10.71 39.94 12.94 C32.1 17.02 24.69 17.25 16.23 14.82 C12.98 13.6 9.84 12.26 6.69 10.81 C5.82 10.43 4.95 10.05 4.05 9.66 C1.08 8.36 -1.86 7.04 -4.75 5.56 C-8.92 4.34 -13.02 4.21 -17.31 4.81 C-20.31 6.81 -20.31 6.81 -22.31 8.81 C-22.97 8.81 -23.63 8.81 -24.31 8.81 C-26.02 13.54 -26.56 17.63 -26.59 22.68 C-26.6 23.97 -26.62 25.26 -26.64 26.59 C-26.64 26.92 -26.64 26.92 -26.66 28.62 C-27 54.48 -33.1 71.82 -51.31 90.81 C-53.84 93.21 -56.42 95.51 -59.05 97.79 C-64.22 102.42 -69.88 107.57 -70.61 114.77 C-70.65 125.42 -69.2 131.54 -61.92 139.45 C-58.19 142.83 -54.07 145.62 -49.8 148.27 C-48 149.45 -48 149.45 -45.31 151.81 C-45.53 154.57 -45.53 154.57 -46.31 156.81 C-44.38 157.5 -44.38 157.5 -42.31 157.81 C-42.31 158.47 -42.31 159.13 -42.31 159.81 C-49 160.91 -55.68 160.91 -62.44 160.94 C-62.87 160.94 -62.87 160.94 -65.06 160.95 C-67.15 160.95 -69.23 160.89 -71.31 160.81 C-71.31 160.48 -71.31 160.15 -71.31 159.81 C-69.24 159.48 -67.16 159.3 -65.06 159.09 C-64.49 159 -63.91 158.91 -63.31 158.81 C-63.31 158.48 -63.31 158.15 -63.31 157.81 C-62.49 157.83 -61.66 157.85 -60.81 157.88 C-60.4 157.86 -60.4 157.86 -58.31 157.81 C-58.31 157.15 -58.31 156.49 -58.31 155.81 C-57.32 156.02 -56.33 156.23 -55.31 156.44 C-54.82 156.5 -54.82 156.5 -52.31 156.81 C-52.31 155.49 -52.31 154.17 -52.31 152.81 C-53.9 152.12 -55.49 151.45 -57.11 150.84 C-65.88 146.74 -71.73 139.71 -76.12 131.38 C-78.55 124.26 -78.97 113.39 -75.88 106.44 C-70.98 98.66 -64.01 92.49 -57.25 86.38 C-51.39 81.05 -46.53 75.56 -42.31 68.81 C-41.91 68.19 -41.5 67.56 -41.09 66.91 C-33.6 53.84 -33.79 38.76 -33.9 24.17 C-33.9 16.33 -33.45 10.05 -28.31 3.81 C-25.96 1.66 -25.96 1.66 -23.69 0.31 C-22.93 -0.15 -22.18 -0.62 -21.4 -1.09 C-13.87 -5.04 -7.27 -3.26 0 0 Z " fill="#151010" transform="translate(340.3125,212.1875)"/>
<path d="M0 0 C0.76 0.25 1.53 0.5 2.31 0.75 C2.31 1.41 2.31 2.07 2.31 2.75 C1.65 2.75 0.99 2.75 0.31 2.75 C0.15 3.91 -0.02 5.06 -0.19 6.25 C-0.35 7.41 -0.52 8.56 -0.69 9.75 C-1.35 9.75 -2.01 9.75 -2.69 9.75 C-2.43 10.03 -2.43 10.03 -1.1 11.45 C-0.87 11.83 -0.87 11.83 0.31 13.75 C-0.84 15.98 -0.84 15.98 -3.06 18.5 C-3.49 18.99 -3.49 18.99 -5.67 21.46 C-6.67 22.56 -7.68 23.66 -8.69 24.75 C-9.2 25.32 -9.72 25.88 -10.24 26.47 C-18.28 35.33 -26.68 43.84 -35.12 52.31 C-36.05 53.24 -36.97 54.17 -37.92 55.12 C-43.02 60.21 -48.19 65.11 -53.69 69.75 C-54.3 70.27 -54.91 70.79 -55.53 71.33 C-65.77 80.02 -76.62 88.71 -88.69 94.75 C-70.1 96.8 -50.69 90.47 -33.89 83.09 C-30.82 81.81 -28.95 81.08 -25.69 81.75 C-24.79 83.62 -24.79 83.62 -24.69 85.75 C-26.45 87.13 -26.45 87.13 -28.94 88.31 C-33.46 90.51 -33.46 90.51 -35.09 92.23 C-36.88 93.93 -38.23 94.51 -40.57 95.29 C-40.94 95.41 -40.94 95.41 -42.84 96.05 C-43.64 96.3 -44.43 96.55 -45.25 96.81 C-46.06 97.08 -46.88 97.34 -47.71 97.61 C-60.34 101.63 -72.65 102.93 -85.88 102.88 C-86.35 102.88 -86.35 102.88 -88.74 102.89 C-102.57 102.87 -102.57 102.87 -104.69 100.75 C-105.25 98 -105.25 98 -104.69 94.75 C-102.33 92.56 -99.53 91.23 -96.69 89.75 C-95.73 89.21 -94.77 88.66 -93.78 88.11 C-86.04 83.75 -86.04 83.75 -83.69 83.75 C-83.69 83.09 -83.69 82.43 -83.69 81.75 C-81.32 80.07 -78.95 78.49 -76.5 76.94 C-71.69 73.89 -67.65 70.89 -63.69 66.75 C-62.25 65.6 -60.79 64.47 -59.31 63.38 C-55.72 60.63 -52.55 57.72 -49.41 54.47 C-47.71 52.78 -45.96 51.23 -44.12 49.69 C-35.64 42.36 -27.57 34.23 -20.32 25.67 C-18.33 23.33 -16.26 21.08 -14.19 18.81 C-13.46 17.98 -12.72 17.16 -11.97 16.3 C-10.36 14.5 -8.71 12.74 -7.03 11.01 C-3.02 6.61 -3.02 6.61 -2.69 4.75 C-7.19 4.93 -11.42 6.12 -15.75 7.33 C-17.69 7.75 -17.69 7.75 -21.69 7.75 C-21.69 7.09 -21.69 6.43 -21.69 5.75 C-20.55 5.61 -19.42 5.46 -18.25 5.31 C-17.07 5.13 -15.9 4.94 -14.69 4.75 C-14.36 3.76 -14.03 2.77 -13.69 1.75 C-11.69 1.72 -9.69 1.7 -7.7 1.84 C-4.44 1.69 -3.43 -0.32 0 0 Z " fill="#2A2C26" transform="translate(104.6875,230.25)"/>
<path d="M0 0 C3.65 2.74 6.86 5.69 10 9 C10.52 9.54 11.04 10.08 11.58 10.63 C19.31 19.2 21.47 29.53 21.25 40.77 C20.39 51.96 14.89 63.5 6.55 71.07 C-5.28 80.01 -16.63 83.02 -31.47 81.43 C-37.76 80.36 -42.77 77.61 -48 74 C-48.72 73.51 -49.45 73.02 -50.19 72.52 C-58.47 66.15 -63.48 55.93 -66 46 C-67.67 33.23 -65.19 22.31 -58.02 11.61 C-53.15 5.32 -47.16 0.45 -40 -3 C-39.39 -3.3 -38.79 -3.6 -38.16 -3.9 C-25.63 -9.11 -11.31 -6.83 0 0 Z M-51 12 C-57.34 20.17 -60.4 27.93 -60.38 38.25 C-60.37 38.99 -60.37 39.73 -60.37 40.49 C-60.25 46.7 -59.21 52.57 -56 58 C-55.34 58 -54.68 58 -54 58 C-53.31 59.32 -52.65 60.66 -52 62 C-47.17 68.69 -39.48 74.3 -31.21 75.78 C-19.63 76.93 -9.93 75.86 -0.17 69.02 C8.6 61.61 14.33 52.73 15.34 41.13 C15.37 39.8 15.38 38.46 15.38 37.12 C15.37 36.42 15.37 35.72 15.37 35 C15.23 29.17 14.05 24.91 11 20 C10.42 18.99 9.85 17.98 9.25 16.94 C2.48 8.1 -4.45 3.52 -15 0 C-29.37 -1.07 -40.64 1.43 -51 12 Z " fill="#141212" transform="translate(271,169)"/>
<path d="M0 0 C4.17 3.1 4.17 3.1 6 5 C6 5.66 6 6.32 6 7 C6.66 7 7.32 7 8 7 C8 7.66 8 8.32 8 9 C8.66 9 9.32 9 10 9 C10 9.66 10 10.32 10 11 C10.66 11 11.32 11 12 11 C12 11.66 12 12.32 12 13 C12.66 13 13.32 13 14 13 C14 13.66 14 14.32 14 15 C15.31 15.71 16.65 16.37 18 17 C19.24 17.89 20.46 18.81 21.65 19.76 C22.34 20.3 23.03 20.84 23.74 21.39 C24.46 21.96 25.19 22.54 25.94 23.12 C33.56 29.05 41.34 34.67 50 39 C50 39.66 50 40.32 50 41 C51.65 41.71 53.32 42.37 55 43 C55.5 43.33 55.5 43.33 58 45 C58 45.66 58 46.32 58 47 C58.66 47 59.32 47 60 47 C60 47.66 60 48.32 60 49 C60.66 49 61.32 49 62 49 C62 49.66 62 50.32 62 51 C62.66 51 63.32 51 64 51 C73.31 61.26 77.4 72.07 77.5 85.75 C77.51 86.63 77.51 87.5 77.52 88.4 C77.36 96.43 75.86 104.14 70 110 C69.34 110 68.68 110 68 110 C68 110.66 68 111.32 68 112 C60.19 116.64 52.02 117.11 43.31 115.19 C40 114 40 114 36.55 112.43 C31.04 110.36 25.62 110.81 19.81 111 C5.17 111.26 -9.85 110.13 -24 106 C-24 105.67 -24 105.34 -24 105 C-21.55 105.04 -19.13 105.15 -16.69 105.31 C-16.35 105.33 -16.35 105.33 -14.65 105.42 C-10.6 105.67 -6.73 106.22 -2.75 107.03 C3.42 108.2 9.43 108.3 15.69 108.25 C16.76 108.26 17.84 108.27 18.95 108.27 C23.64 108.26 27.98 108.17 32.52 106.92 C35.83 106.05 36.94 105.83 40 107 C40 107.66 40 108.32 40 109 C42.19 109.62 42.19 109.62 44 110 C43.01 110 42.02 110 41 110 C41.33 110.66 41.66 111.32 42 112 C46.04 113.18 50.06 113.17 54.25 113.19 C55.49 113.2 56.74 113.22 58.02 113.23 C59 113.15 59.99 113.08 61 113 C61.33 112.34 61.66 111.68 62 111 C61.67 110.34 61.34 109.68 61 109 C60.32 109.14 59.64 109.29 58.94 109.44 C55.01 110.19 51.94 109.67 48 109 C48 108.67 48 108.34 48 108 C50.06 107.72 52.12 107.48 54.19 107.25 C58.34 106.63 60.62 106.26 64.12 103.88 C69.55 95.55 69.9 87.8 69 78 C65.59 62.1 53.81 51.67 40.77 43.2 C38.13 41.5 35.49 39.82 32.85 38.13 C24.44 32.74 16.67 26.76 9.25 20.06 C8.72 19.59 8.2 19.12 7.65 18.63 C6.39 17.46 5.19 16.24 4 15 C4 14.34 4 13.68 4 13 C4.99 12.67 5.98 12.34 7 12 C6.34 11.34 5.68 10.68 5 10 C5.33 9.34 5.66 8.68 6 8 C5.01 8 4.02 8 3 8 C1.88 5.69 1.88 5.69 1 3 C0.67 2.01 0.34 1.02 0 0 Z " fill="#38302D" transform="translate(435,309)"/>
<path d="M0 0 C6.32 4.06 10.37 9.13 13.22 16.07 C13.68 18.99 13.74 21.86 13.72 24.82 C13.72 25.61 13.71 26.41 13.71 27.23 C13.52 33.8 12.05 38.65 8.22 44.07 C7.62 44.99 7.02 45.92 6.41 46.88 C-0.06 53.34 -7.6 56.35 -16.72 56.38 C-22.31 56.29 -25.97 55.87 -30.78 53.07 C-31.79 52.49 -32.8 51.91 -33.84 51.32 C-41.44 45.5 -45.84 38.51 -47.23 28.96 C-47.74 19.38 -44.94 11.99 -38.77 4.68 C-27.17 -6.61 -13.71 -7.67 0 0 Z M-28.78 6.07 C-29.65 6.6 -30.51 7.14 -31.41 7.69 C-36.24 12.52 -39.06 18.39 -39.28 25.25 C-38.87 32.42 -35.7 38.88 -30.78 44.07 C-25.24 48.58 -19.86 49.89 -12.78 49.54 C-5.89 48.45 -0.63 45.6 3.72 40.13 C8.28 33.18 9.39 26.3 8.22 18.07 C5.35 10.91 -0.12 6.62 -6.78 3.07 C-14.62 0.45 -22.18 1.21 -28.78 6.07 Z " fill="#E9E9E6" transform="translate(264.78125,180.93359375)"/>
<path d="M0 0 C0.55 0.07 0.55 0.07 3.31 0.44 C3.31 1.43 3.31 2.42 3.31 3.44 C4.63 3.44 5.95 3.44 7.31 3.44 C7.64 2.78 7.97 2.12 8.31 1.44 C11.94 1.56 11.94 1.56 15.31 2.44 C15.25 4.25 15.25 4.25 14.31 6.44 C14.31 7.76 14.31 9.08 14.31 10.44 C13.11 12.33 13.11 12.33 11.5 14.25 C9.3 16.96 7.98 19.09 7 22.44 C6.44 23.43 5.89 24.42 5.31 25.44 C2.24 26.15 -0.62 26.16 -3.69 25.44 C-3.69 24.78 -3.69 24.12 -3.69 23.44 C-4.35 23.44 -5.01 23.44 -5.69 23.44 C-5.69 22.45 -5.69 21.46 -5.69 20.44 C-7.85 22.2 -9.13 24.1 -10.69 26.44 C-14.19 27.6 -17.01 27.57 -20.69 27.44 C-21.35 27.11 -22.01 26.78 -22.69 26.44 C-22.79 26.76 -22.79 26.76 -23.31 28.38 C-23.54 28.72 -23.54 28.72 -24.69 30.44 C-28.56 30.62 -28.56 30.62 -30.71 30.49 C-32.69 30.44 -32.69 30.44 -35.25 31.31 C-35.72 31.35 -36.2 31.4 -36.69 31.44 C-36.39 29.43 -36.06 27.43 -35.69 25.44 C-39.19 26.61 -39.59 27.45 -41.56 30.44 C-43.61 33.3 -44.36 34.3 -47.69 35.69 C-48.35 35.6 -49.01 35.52 -49.69 35.44 C-48.5 32.19 -46.6 30.16 -44.12 27.81 C-40.78 24.63 -40.78 24.63 -39.69 22.44 C-40.35 22.44 -41.01 22.44 -41.69 22.44 C-40.49 19.43 -38.7 16.86 -36.81 14.25 C-36.32 13.56 -35.83 12.86 -35.32 12.14 C-33.46 10.2 -32.38 9.54 -29.69 9.44 C-29.36 10.43 -29.03 11.42 -28.69 12.44 C-26.88 12.44 -26.88 12.44 -24.69 11.44 C-21.49 8.15 -20.69 7.15 -20.69 2.44 C-18.79 1.98 -18.79 1.98 -16.31 2.06 C-15.91 2.07 -15.91 2.07 -13.85 2.1 C-11.69 2.44 -11.69 2.44 -9.69 4.44 C-8.7 4.44 -7.71 4.44 -6.69 4.44 C-6.48 4.11 -6.48 4.11 -5.44 2.44 C-3.69 0.44 -3.69 0.44 0 0 Z " fill="#273F4D" transform="translate(250.6875,124.5625)"/>
<path d="M0 0 C2.77 0.09 4.04 1.88 5.96 3.77 C6.63 4.5 7.31 5.24 8 6 C8.78 6.69 9.56 7.38 10.36 8.09 C10.68 8.39 10.68 8.39 12.31 9.94 C16.48 13.74 20.95 16.61 25.81 19.46 C28 21 28 21 29 24 C22.67 40.62 10.8 54.33 -3.45 64.69 C-3.96 64.79 -4.47 64.89 -5 65 C-4.59 60.55 -3.62 56.4 -2.48 52.08 C0.64 39.88 0.2 28.13 -0.38 15.65 C-0.87 4.49 -0.87 4.49 0 0 Z " fill="#A5D03F" transform="translate(144,331)"/>
<path d="M0 0 C3.5 0.25 3.5 0.25 7 1 C7.17 1.5 7.17 1.5 8 4 C11.44 4.62 11.44 4.62 15 5 C15.66 5.33 16.32 5.66 17 6 C17.94 9.51 18.3 11.32 16.81 14.69 C16.54 15.12 16.28 15.55 16 16 C16.54 15.24 17.07 14.47 17.62 13.69 C18.41 12.8 19.19 11.91 20 11 C22.19 10.94 22.19 10.94 24 12 C24.62 14.06 24.62 14.06 25 16 C25.66 16 26.32 16 27 16 C27.17 16.5 27.17 16.5 28 19 C29.33 19.68 30.66 20.35 32 21 C32 21.66 32 22.32 32 23 C32.66 23 33.32 23 34 23 C34 24.32 34 25.64 34 27 C34.66 27 35.32 27 36 27 C36 28.32 36 29.64 36 31 C36.66 31.33 37.32 31.66 38 32 C38.56 35.06 38.56 35.06 38 38 C34.38 38.62 34.38 38.62 31 38 C31.69 36 31.69 36 33 34 C32.34 34 31.68 34 31 34 C31 33.34 31 32.68 31 32 C30.01 32.33 29.02 32.66 28 33 C25.92 32.01 25.92 32.01 23.75 30.69 C21.57 29.52 21.57 29.52 20 29 C20.21 29.97 20.41 30.94 20.62 31.94 C20.75 32.95 20.87 33.96 21 35 C17.5 34.71 14.26 33.23 11 32 C9.36 31.45 7.71 30.91 6.06 30.38 C4.71 29.92 3.35 29.46 2 29 C-1.25 27.92 -3.78 27.81 -7.2 27.72 C-8.41 27.68 -9.62 27.64 -10.86 27.61 C-13.42 27.53 -15.99 27.46 -18.55 27.39 C-19.75 27.36 -20.96 27.32 -22.2 27.28 C-23.31 27.25 -24.42 27.22 -25.57 27.19 C-26.37 27.13 -27.17 27.06 -28 27 C-28 26.67 -28 26.34 -28 26 C-26.18 25.87 -24.36 25.82 -22.53 25.79 C-21.4 25.76 -20.28 25.73 -19.11 25.7 C-16.7 25.65 -14.3 25.61 -11.89 25.57 C-10.76 25.54 -9.63 25.51 -8.47 25.48 C-7.95 25.47 -7.95 25.47 -5.29 25.42 C-4.92 25.35 -4.92 25.35 -3 25 C-3 24.01 -3 23.02 -3 22 C-5.33 21.63 -7.66 21.29 -10 21 C-10 20.34 -10 19.68 -10 19 C-10.66 19 -11.32 19 -12 19 C-10.74 14.55 -8.08 10.97 -5.44 7.25 C-5.03 6.66 -4.61 6.07 -4.19 5.46 C-1.18 1.18 -1.18 1.18 0 0 Z " fill="#395E74" transform="translate(271,129)"/>
<path d="M0 0 C0.62 1.81 0.62 1.81 1 4 C0.67 4.66 0.34 5.32 0 6 C0.66 6 1.32 6 2 6 C2.68 4.68 3.35 3.34 4 2 C4.66 1.67 5.32 1.34 6 1 C5.84 1.62 5.67 2.24 5.5 2.88 C5.34 3.58 5.17 4.28 5 5 C5.66 5.33 6.32 5.66 7 6 C6.01 7.34 5.01 8.67 4 10 C4.16 10.33 4.16 10.33 5 12 C5.66 12 6.32 12 7 12 C7 11.34 7 10.68 7 10 C8.94 8.25 8.94 8.25 11 7 C11.16 7.33 11.16 7.33 12 9 C12.66 9 13.32 9 14 9 C14.66 8.34 15.32 7.68 16 7 C16.75 10.31 16.75 10.31 17 14 C16.34 14.33 15.68 14.66 15 15 C15 16.32 15 17.64 15 19 C17.81 19.69 17.81 19.69 21 20 C21.99 20.33 22.98 20.66 24 21 C23.98 22.93 23.98 22.93 23 25 C12.25 31.09 -2.88 33.35 -15 32 C-15.33 31.34 -15.66 30.68 -16 30 C-16.99 29.67 -17.98 29.34 -19 29 C-18.75 27.87 -18.5 26.73 -18.25 25.56 C-18.17 24.39 -18.09 23.21 -18 22 C-20.32 21.29 -22.66 20.63 -25 20 C-26.81 16.44 -26.81 16.44 -28 13 C-28.66 12.67 -29.32 12.34 -30 12 C-29.67 11.34 -29.34 10.68 -29 10 C-26.64 9.61 -24.32 9.49 -21.93 9.34 C-21.3 9.23 -20.66 9.12 -20 9 C-20 8.34 -20 7.68 -20 7 C-17.12 6.19 -17.12 6.19 -14 6 C-13.67 6.5 -13.67 6.5 -12 9 C-11.67 9.33 -11.34 9.66 -11 10 C-7.88 9.81 -7.88 9.81 -5 9 C-5.19 7.06 -5.19 7.06 -6 5 C-5.67 4.34 -5.34 3.68 -5 3 C-5.66 3 -6.32 3 -7 3 C-7 2.34 -7 1.68 -7 1 C-5 0.96 -3 0.96 -1 1 C-0.67 0.67 -0.34 0.34 0 0 Z " fill="#ABD541" transform="translate(93,197)"/>
<path d="M0 0 C2.31 0.31 2.31 0.31 4 1 C1.53 2.68 0.01 3 -3 3 C-3 3.66 -3 4.32 -3 5 C-3.66 5.33 -4.32 5.66 -5 6 C-4.84 6.33 -4.84 6.33 -4 8 C-1.3 8.06 1.35 7.86 4.04 7.68 C4.69 7.79 5.33 7.89 6 8 C5.49 10.01 5.49 10.01 4 12 C2 12 0 12 -2 12 C-3.12 13.94 -3.12 13.94 -3 16 C-2.38 16.11 -1.77 16.23 -1.13 16.34 C1 17 1 17 2.33 19.07 C3.97 23.5 3.97 23.5 4 26 C-1.59 27.16 -6.57 25.42 -12 24 C-15.06 23.69 -15.06 23.69 -17 24 C-16.67 24.99 -16.34 25.98 -16 27 C-14.66 26.69 -13.33 26.35 -12 26 C-11.01 26.66 -10.02 27.32 -9 28 C-9.16 28.16 -9.16 28.16 -10 29 C-0.18 32.85 10.39 32.51 20.75 32.62 C23.24 32.66 25.72 32.7 28.21 32.75 C29.75 32.77 31.28 32.8 32.82 32.81 C34.55 32.84 36.27 32.91 38 33 C38 33.33 38 33.66 38 34 C32.49 35.31 26.94 35.15 21.31 35.12 C20.32 35.12 19.33 35.12 18.31 35.11 C0.36 34.96 -15.45 31.01 -32.17 24.68 C-33.78 24.08 -35.41 23.52 -37.04 22.97 C-39.27 22.15 -41.1 21.44 -43 20 C-44.44 16.38 -44.44 16.38 -44 13 C-39.49 11.02 -34.62 10.24 -29.81 9.25 C-22.9 7.78 -16.17 5.95 -9.44 3.81 C-8.61 3.55 -7.78 3.29 -6.93 3.02 C-1.14 1.14 -1.14 1.14 0 0 Z " fill="#99B849" transform="translate(44,204)"/>
<path d="M0 0 C0.33 0.16 0.33 0.16 2 1 C0.36 2.69 -1.31 4.35 -3 6 C-4.44 8.19 -4.44 8.19 -5 10 C-4.67 10.33 -4.67 10.33 -3 12 C-4.57 13.47 -4.57 13.47 -7.13 15.17 C-8.06 15.79 -9 16.41 -9.96 17.06 C-78.02 60.59 -78.02 60.59 -94 58 C-95.5 56 -95.5 56 -96 54 C-95.01 54 -94.02 54 -93 54 C-93 53.34 -93 52.68 -93 52 C-91.87 51.69 -90.73 51.38 -89.56 51.06 C-88.39 50.71 -87.21 50.36 -86 50 C-85.67 49.01 -85.34 48.02 -85 47 C-82.66 45.93 -82.66 45.93 -79.5 44.88 C-72.41 42.29 -65.96 38.92 -59.34 35.33 C-55.21 33.09 -51.02 31 -46.81 28.94 C-40.27 25.72 -33.97 22.18 -27.7 18.47 C-25 17 -25 17 -23 17 C-23 16.34 -23 15.68 -23 15 C-21.42 13.99 -21.42 13.99 -19.19 12.88 C-14.25 10.25 -9.86 7.1 -5.38 3.77 C-3.62 2.46 -1.82 1.22 0 0 Z " fill="#393B35" transform="translate(134,155)"/>
<path d="M0 0 C6.87 1.57 13.75 2.93 20.7 4.09 C24.18 4.67 27.58 5.36 31 6.2 C35.87 7.31 40.53 7.35 45.5 7.25 C45.92 7.25 45.92 7.25 48.05 7.22 C49.59 7.21 51.14 7.18 52.68 7.16 C54.33 7.13 55.98 7.12 57.62 7.12 C57.95 6.13 58.28 5.14 58.62 4.12 C58.3 3.63 58.3 3.63 56.62 1.12 C56.95 0.13 57.28 -0.86 57.62 -1.88 C61.17 -0.87 64.25 0.96 67.43 2.8 C68.32 3.32 69.22 3.84 70.14 4.37 C70.6 4.64 70.6 4.64 72.94 6 C83.21 11.96 83.21 11.96 88.29 14.45 C89.39 15 90.49 15.55 91.62 16.12 C91.62 16.45 91.62 16.79 91.62 17.12 C79.39 18.42 65.4 16.04 53.69 12.44 C47.83 10.66 41.7 10.38 35.62 11.12 C35.62 11.79 35.62 12.44 35.62 13.12 C38.07 13.91 38.07 13.91 41.31 14.62 C49.4 16.44 49.4 16.44 52.62 18.12 C49.64 19.25 47.59 19.1 44.56 18.27 C43.78 18.06 42.99 17.85 42.18 17.64 C41.33 17.41 40.49 17.18 39.62 16.94 C31.58 14.81 23.53 13.02 15.34 11.56 C10.4 10.64 6.24 9.16 1.62 7.12 C-0.71 6.54 -3.07 6.02 -5.44 5.56 C-9.87 4.69 -14.17 3.82 -18.38 2.12 C-18.38 1.46 -18.38 0.81 -18.38 0.12 C-19.37 -0.2 -20.36 -0.54 -21.38 -0.88 C-14.3 -4.23 -7.23 -1.68 0 0 Z " fill="#EB683F" transform="translate(358.375,394.875)"/>
<path d="M0 0 C0.54 0.4 1.07 0.8 1.62 1.21 C0.87 6.94 -1.36 9.82 -5.56 13.84 C-5.81 14.07 -5.81 14.07 -7.05 15.27 C-9.72 17.82 -12.46 20.12 -15.5 22.21 C-18.38 24.21 -18.38 24.21 -19.38 27.21 C-21.12 28.33 -21.12 28.33 -23.38 29.37 C-24.21 29.75 -25.03 30.13 -25.88 30.53 C-26.31 30.72 -26.31 30.72 -28.5 31.71 C-29.34 32.1 -30.19 32.49 -31.05 32.89 C-33.49 34.02 -35.93 35.12 -38.38 36.21 C-39.02 36.5 -39.67 36.8 -40.34 37.1 C-43.98 38.72 -47.57 39.94 -51.44 40.9 C-52.42 41.15 -53.4 41.4 -54.41 41.66 C-57.5 42.23 -60.24 42.45 -63.38 42.21 C-65.38 40.21 -65.38 40.21 -65.39 38 C-63.91 33.94 -61.22 31.59 -58.12 28.65 C-57.55 28.08 -56.98 27.52 -56.39 26.94 C-47.42 18.21 -47.42 18.21 -44.38 18.21 C-44.38 17.22 -44.38 16.23 -44.38 15.21 C-41.12 15.09 -41.12 15.09 -38.38 16.21 C-39.89 19.81 -41.72 22.43 -44.23 25.41 C-45.94 27.46 -45.94 27.46 -47.38 30.21 C-30.86 26.71 -14.56 14.91 -4.31 1.98 C-2.38 0.21 -2.38 0.21 0 0 Z " fill="#0D0E0A" transform="translate(127.375,346.7890625)"/>
<path d="M0 0 C3.72 1.86 4.55 6.05 5.95 9.78 C7.38 14.72 7.49 19.63 7.5 24.75 C7.51 25.62 7.51 26.5 7.52 27.4 C7.36 35.43 5.86 43.14 0 49 C-0.66 49 -1.32 49 -2 49 C-2 49.66 -2 50.32 -2 51 C-9.81 55.64 -17.98 56.11 -26.69 54.19 C-30 53 -30 53 -33.45 51.43 C-38.96 49.36 -44.38 49.81 -50.19 50 C-64.83 50.26 -79.85 49.13 -94 45 C-94 44.67 -94 44.34 -94 44 C-91.55 44.04 -89.13 44.15 -86.69 44.31 C-86.02 44.35 -85.35 44.38 -84.65 44.42 C-80.6 44.67 -76.73 45.22 -72.75 46.03 C-66.58 47.2 -60.57 47.3 -54.31 47.25 C-53.24 47.26 -52.16 47.27 -51.05 47.27 C-46.36 47.26 -42.02 47.17 -37.48 45.92 C-34.17 45.05 -33.06 44.83 -30 46 C-30 46.66 -30 47.32 -30 48 C-27.81 48.62 -27.81 48.62 -26 49 C-26.99 49 -27.98 49 -29 49 C-28.67 49.66 -28.34 50.32 -28 51 C-23.96 52.18 -19.94 52.17 -15.75 52.19 C-14.51 52.2 -13.26 52.22 -11.98 52.23 C-11 52.15 -10.01 52.08 -9 52 C-8.84 51.67 -8.84 51.67 -8 50 C-8.33 49.34 -8.66 48.68 -9 48 C-9.68 48.14 -10.36 48.29 -11.06 48.44 C-14.99 49.19 -18.06 48.67 -22 48 C-22 47.67 -22 47.34 -22 47 C-19.94 46.72 -17.88 46.48 -15.81 46.25 C-11.66 45.63 -9.38 45.26 -5.88 42.88 C-1.15 35.63 -0.59 29.31 -0.21 20.78 C-0.14 19.86 -0.07 18.95 0 18 C0.33 18 0.66 18 1 18 C1.25 21.38 1.39 24.77 1.52 28.16 C1.68 29.09 1.84 30.03 2 31 C2.99 31 3.98 31 5 31 C5.36 27.97 5.36 27.97 5.31 24.06 C5.31 22.77 5.3 21.49 5.3 20.16 C5.2 19.12 5.1 18.07 5 17 C4.34 16.67 3.68 16.34 3 16 C2.31 13.28 1.74 10.63 1.25 7.88 C1.1 7.11 0.95 6.34 0.79 5.55 C0.45 3.71 0.22 1.86 0 0 Z " fill="#3C322E" transform="translate(505,370)"/>
<path d="M0 0 C8.38 6 15.18 13.98 18 24 C18.21 26.65 18.33 29.16 18.31 31.81 C18.31 32.52 18.3 33.23 18.3 33.96 C18.03 45.56 13.17 54.2 4.94 62.25 C-3.19 69.06 -12.48 71.83 -23 71.35 C-33.63 70.11 -43.28 64.81 -50.04 56.52 C-51 55 -51 55 -51 53 C-51.66 53 -52.32 53 -53 53 C-58.43 43.82 -58.43 31.97 -56.34 21.78 C-52.57 10.15 -44.57 2.45 -33.89 -3.1 C-22.78 -7.6 -10.15 -5.94 0 0 Z M-32 -1 C-32.55 -0.82 -32.55 -0.82 -35.31 0.06 C-44.43 4.18 -50.46 11.88 -54 21 C-56.53 28.58 -56.07 39.57 -53.04 46.98 C-47.66 57.42 -41.27 63.81 -30.25 68.09 C-21.7 70.49 -13.01 69.76 -5 66 C-4.59 65.81 -4.59 65.81 -2.51 64.85 C5.97 60.4 11.77 53.27 15 44.25 C17.16 35.39 17.66 25.18 13.26 16.98 C12.84 16.33 12.43 15.67 12 15 C11.56 14.3 11.13 13.61 10.68 12.89 C4.85 4.41 -2.98 -0.66 -13 -3 C-19.64 -3.66 -25.7 -3.35 -32 -1 Z " fill="#B15B45" transform="translate(268,174)"/>
<path d="M0 0 C0.33 0 0.66 0 1 0 C1.55 2.04 1.97 4.09 2.4 6.15 C2.5 6.46 2.5 6.46 3 8 C3.66 8.33 4.32 8.66 5 9 C3.56 24.72 -3.99 40.27 -11 54.12 C-11.42 54.97 -11.83 55.81 -12.26 56.68 C-15.31 62.57 -15.31 62.57 -18.75 64.74 C-19.49 64.83 -20.23 64.91 -21 65 C-21.33 64.01 -21.66 63.02 -22 62 C-21.34 61.34 -20.68 60.68 -20 60 C-19.92 58.91 -19.83 57.81 -19.75 56.69 C-19.34 52.8 -18.14 49.88 -16.44 46.38 C-9.9 32.81 -5 18.51 -1.69 3.82 C-1 1 -1 1 0 0 Z " fill="#3A3D36" transform="translate(108,296)"/>
<path d="M0 0 C0.66 0.33 1.32 0.66 2 1 C2 1.66 2 2.32 2 3 C3.34 2.69 4.67 2.35 6 2 C6.66 2.33 7.32 2.66 8 3 C8 3.99 8 4.98 8 6 C6.84 6.16 5.69 6.33 4.5 6.5 C-1.26 7.64 -3.56 12.09 -6.73 16.66 C-7.15 17.43 -7.57 18.21 -8 19 C-7.34 19 -6.68 19 -6 19 C-7.19 22.24 -9.09 24.28 -11.56 26.62 C-14.9 29.81 -14.9 29.81 -16 32 C-15.67 31.92 -15.67 31.92 -14 31.5 C-13.67 31.42 -13.67 31.42 -12 31 C-12.33 31.66 -12.66 32.32 -13 33 C-15.44 33.12 -15.44 33.12 -18 33 C-18.66 33 -19.32 33 -20 33 C-20.24 33.34 -20.24 33.34 -21.44 35.06 C-21.95 35.7 -22.47 36.34 -23 37 C-23.99 36.67 -24.98 36.34 -26 36 C-25.75 34.08 -25.75 34.08 -25 31.81 C-24.84 31.18 -24.84 31.18 -24 28 C-24.99 28.66 -25.98 29.32 -27 30 C-29.31 31.44 -29.31 31.44 -31 32 C-26.68 18.54 -12.15 6.4 0 0 Z " fill="#0E1418" transform="translate(217,128)"/>
<path d="M0 0 C0.66 0.33 1.32 0.66 2 1 C2 1.66 2 2.32 2 3 C4 3.68 6 4.35 8 5 C8.17 5.33 8.17 5.33 9 7 C10.18 7.5 11.35 7.99 12.56 8.5 C13.7 9 14.83 9.49 16 10 C16 10.66 16 11.32 16 12 C16.66 12 17.32 12 18 12 C18.2 12.22 18.2 12.22 19.19 13.31 C21.12 15.11 22.41 15.54 24.88 16.38 C25.91 16.91 26.94 17.45 28 18 C27.38 20.94 27.38 20.94 25 23 C22.54 21.76 20.31 20.47 18 19 C16.84 18.33 15.67 17.66 14.5 17 C12.17 15.67 9.83 14.33 7.5 13 C6.92 12.67 6.34 12.34 5.74 12 C4.02 11.01 2.33 9.98 0.63 8.94 C-3.42 6.63 -7.68 5.28 -12.12 3.94 C-12.95 3.68 -13.78 3.42 -14.64 3.16 C-20.55 1.36 -26.48 -0.17 -32.53 -1.46 C-35 -2 -35 -2 -38 -3 C-37.67 -3.99 -37.34 -4.98 -37 -6 C-25.66 -11.67 -10.36 -5.26 0 0 Z " fill="#25292B" transform="translate(316,98)"/>
<path d="M0 0 C1.01 0.43 2.02 0.87 3.06 1.31 C3 3.12 3 3.12 2.06 5.31 C2.06 6.63 2.06 7.95 2.06 9.31 C0.86 11.21 0.86 11.21 -0.75 13.12 C-2.95 15.84 -4.27 17.97 -5.25 21.31 C-5.81 22.3 -6.36 23.29 -6.94 24.31 C-10.01 25.02 -12.87 25.04 -15.94 24.31 C-15.94 23.65 -15.94 22.99 -15.94 22.31 C-16.6 22.31 -17.26 22.31 -17.94 22.31 C-17.94 21.32 -17.94 20.33 -17.94 19.31 C-19.77 20.83 -20.87 22.18 -21.94 24.31 C-24 24.8 -24 24.8 -26.5 25.06 C-27.33 25.16 -28.15 25.26 -29 25.36 C-29.64 25.34 -30.28 25.33 -30.94 25.31 C-30.94 24.65 -30.94 23.99 -30.94 23.31 C-29.61 22.01 -29.61 22.01 -27.69 20.44 C-23.09 16.56 -18.93 12.32 -14.8 7.96 C-13.57 6.69 -12.26 5.49 -10.94 4.31 C-10.94 7.31 -10.94 7.31 -12.56 10.5 C-13.02 11.43 -13.47 12.36 -13.94 13.31 C-13.28 13.31 -12.62 13.31 -11.94 13.31 C-10.98 11.61 -10.98 11.61 -9.94 9.31 C-5.25 0.42 -5.25 0.42 0 0 Z " fill="#457592" transform="translate(262.9375,125.6875)"/>
<path d="M0 0 C3.12 0.19 3.12 0.19 6 1 C6 1.66 6 2.32 6 3 C7.96 3.09 7.96 3.09 10.81 2.94 C17.07 2.84 22.85 3.65 28.98 4.72 C33.97 5.57 38.93 6.23 43.97 6.73 C45.15 6.85 46.34 6.97 47.56 7.09 C49.92 7.32 52.27 7.53 54.63 7.73 C55.17 7.79 55.17 7.79 57.88 8.06 C58.36 8.1 58.36 8.1 60.8 8.32 C63 9 63 9 64.18 11.03 C64.12 11.68 64.06 12.33 64 13 C61.66 13.49 61.66 13.49 58.21 13.46 C56.96 13.46 55.7 13.45 54.41 13.45 C53.75 13.44 53.08 13.42 52.4 13.41 C50.43 13.38 48.47 13.37 46.5 13.37 C24.96 13.17 24.96 13.17 17 9 C17 8.01 17 7.02 17 6 C16.34 5.67 15.68 5.34 15 5 C15 5.66 15 6.32 15 7 C12.3 7.08 12.3 7.08 8.75 6.81 C8.17 6.77 8.17 6.77 5.23 6.58 C1.95 5.99 0.22 5.5 -2 3 C-1.34 2.01 -0.68 1.02 0 0 Z " fill="#0C0F0F" transform="translate(203,360)"/>
<path d="M0 0 C0.4 -0.02 0.4 -0.02 2.45 -0.11 C3.06 0.03 3.68 0.17 4.31 0.31 C4.31 1.63 4.31 2.95 4.31 4.31 C2.22 5.51 2.22 5.51 -0.62 6.44 C-1.62 6.77 -2.62 7.09 -3.64 7.43 C-7.63 8.58 -11.63 9.46 -15.69 10.31 C-16.02 10.64 -16.35 10.97 -16.69 11.31 C-15.49 11.62 -14.3 11.93 -13.06 12.25 C-11.95 12.6 -10.84 12.95 -9.69 13.31 C-10.68 13.97 -11.67 14.63 -12.69 15.31 C-12.36 16.3 -12.03 17.29 -11.69 18.31 C-13.63 18.12 -13.63 18.12 -15.69 17.31 C-15.69 16.65 -15.69 15.99 -15.69 15.31 C-16.45 15.5 -17.21 15.68 -18 15.88 C-23.26 16.5 -27.92 15.69 -32.69 13.31 C-34.25 9.75 -34.25 9.75 -33.69 6.31 C-28.63 3.96 -22.98 3.5 -17.5 2.75 C-15.71 2.5 -13.93 2.25 -12.14 2 C-11.36 1.89 -10.58 1.78 -9.77 1.67 C-0.05 0 -0.05 0 0 0 Z " fill="#0E1009" transform="translate(33.6875,210.6875)"/>
<path d="M0 0 C6.21 1.42 12.41 2.67 18.69 3.75 C20.08 3.99 21.48 4.23 22.88 4.48 C25.14 4.87 27.39 5.26 29.65 5.65 C32.12 6.12 32.12 6.12 35.62 7.12 C35.79 7.62 35.79 7.62 36.62 10.12 C34.29 9.83 31.95 9.49 29.62 9.12 C29.62 9.79 29.62 10.44 29.62 11.12 C27.7 11.2 27.7 11.2 25.02 10.95 C24.06 10.87 23.09 10.78 22.1 10.69 C21.08 10.58 20.05 10.48 19 10.38 C18 10.29 17 10.2 15.97 10.11 C10.89 9.63 6.43 8.91 1.62 7.12 C-0.7 6.6 -3.04 6.1 -5.38 5.62 C-9.82 4.73 -14.15 3.82 -18.38 2.12 C-18.38 1.46 -18.38 0.81 -18.38 0.12 C-19.37 -0.2 -20.36 -0.54 -21.38 -0.88 C-14.3 -4.23 -7.23 -1.68 0 0 Z " fill="#180D0A" transform="translate(358.375,394.875)"/>
<path d="M0 0 C8.04 -0.61 13.95 4.19 20 9 C27.61 16.11 33.34 24.32 34.38 34.81 C34.31 35.34 34.31 35.34 34 38 C31.6 38.02 31.6 38.02 29 37 C27.85 34.78 27.85 34.78 27.06 31.94 C23.72 21.66 16.42 13.56 6.94 8.3 C4.98 7.31 2.99 6.34 0.99 5.42 C0.33 4.95 -0.32 4.48 -1 4 C-1.01 1.84 -1.01 1.84 0 0 Z " fill="#1E0A07" transform="translate(350,280)"/>
<path d="M0 0 C2 2 2 2 2 6 C0.53 7.17 0.53 7.17 -1.56 8.11 C-1.94 8.29 -1.94 8.29 -3.89 9.2 C-4.31 9.38 -4.31 9.38 -6.44 10.31 C-7.29 10.7 -8.14 11.09 -9.02 11.48 C-11.67 12.68 -14.33 13.84 -17 15 C-17.82 15.36 -18.64 15.72 -19.49 16.1 C-21.78 17.1 -24.07 18.09 -26.38 19.06 C-27.07 19.36 -27.76 19.66 -28.48 19.97 C-32.07 21.45 -35.1 22.57 -39 22 C-40.5 20 -40.5 20 -41 18 C-40.01 18 -39.02 18 -38 18 C-38 17.34 -38 16.68 -38 16 C-36.87 15.69 -35.73 15.38 -34.56 15.06 C-33.39 14.71 -32.21 14.36 -31 14 C-30.67 13.01 -30.34 12.02 -30 11 C-27.09 9.65 -27.09 9.65 -23.5 8.38 C-17.07 6.07 -17.07 6.07 -16 5 C-13.64 4.97 -11.29 5.07 -8.93 5.16 C-8.3 5.11 -7.66 5.05 -7 5 C-7 4.34 -7 3.68 -7 3 C-3.62 1.25 -3.62 1.25 0 0 Z " fill="#282924" transform="translate(79,191)"/>
<path d="M0 0 C3.2 2.36 4.03 5.25 5 9 C4.98 9.95 4.96 10.9 4.94 11.88 C4.96 12.58 4.98 13.28 5 14 C5.99 14 6.98 14 8 14 C13.33 24.89 14.38 37.12 14.01 49.05 C14 52 14 52 15 54 C12.66 53.99 12.66 53.99 10 53 C8.98 50.49 8.98 50.49 8.41 47.16 C8.19 45.94 7.96 44.72 7.73 43.46 C7.62 42.81 7.51 42.17 7.4 41.5 C5.69 31.4 3.71 21.58 -0.26 12.1 C-1.92 8 -2.18 5.29 -1 1 C-0.67 0.67 -0.34 0.34 0 0 Z " fill="#0C0E0F" transform="translate(379,163)"/>
<path d="M0 0 C0.76 0.25 1.53 0.5 2.31 0.75 C2.31 1.41 2.31 2.07 2.31 2.75 C1.65 2.75 0.99 2.75 0.31 2.75 C0.15 3.91 -0.02 5.06 -0.19 6.25 C-0.35 7.41 -0.52 8.56 -0.69 9.75 C-1.35 9.75 -2.01 9.75 -2.69 9.75 C-2.16 10.3 -1.62 10.86 -1.07 11.43 C-0.62 12.19 -0.16 12.96 0.31 13.75 C-1.08 16.23 -1.08 16.23 -3.5 18.94 C-4.34 19.89 -5.19 20.85 -6.05 21.83 C-6.92 22.79 -7.79 23.76 -8.69 24.75 C-9.45 25.68 -10.22 26.61 -11.01 27.57 C-11.36 28 -11.36 28 -13.12 30.12 C-13.76 30.9 -14.4 31.67 -15.06 32.46 C-15.33 32.67 -15.33 32.67 -16.69 33.75 C-17.35 32.76 -18.01 31.77 -18.69 30.75 C-19.76 30.94 -20.83 31.12 -21.94 31.31 C-22.84 31.46 -23.75 31.6 -24.69 31.75 C-23.56 28.49 -21.6 26.5 -19.12 24.19 C-14.2 19.4 -9.93 14.14 -5.69 8.75 C-4.96 7.96 -4.23 7.16 -3.48 6.34 C-3.22 5.82 -2.96 5.29 -2.69 4.75 C-5.16 4.98 -7.34 5.41 -9.75 6 C-13.8 6.94 -17.5 7.75 -21.69 7.75 C-21.69 7.09 -21.69 6.43 -21.69 5.75 C-21.12 5.68 -21.12 5.68 -18.25 5.31 C-17.66 5.22 -17.66 5.22 -14.69 4.75 C-14.36 3.76 -14.03 2.77 -13.69 1.75 C-11.69 1.72 -9.69 1.7 -7.7 1.84 C-4.44 1.69 -3.43 -0.32 0 0 Z " fill="#2C2D27" transform="translate(104.6875,230.25)"/>
<path d="M0 0 C1.94 0.19 1.94 0.19 4 1 C4.12 3.12 4.12 3.12 3 5 C-0.06 4.62 -0.06 4.62 -3 4 C-3 4.66 -3 5.32 -3 6 C-3.66 6.66 -4.32 7.32 -5 8 C-3.33 8.07 -3.33 8.07 -0.67 7.84 C0.27 7.77 1.22 7.7 2.19 7.62 C4.22 7.46 6.24 7.29 8.26 7.1 C9.21 7.03 10.16 6.97 11.14 6.9 C12.02 6.82 12.9 6.75 13.81 6.67 C14.54 6.78 15.26 6.89 16 7 C17.37 8.88 17.37 8.88 18 11 C17.67 11.66 17.34 12.32 17 13 C17.66 13 18.32 13 19 13 C19 13.66 19 14.32 19 15 C16.65 14.01 14.59 12.74 12.44 11.37 C7.83 9.53 4.45 10.12 -0.38 10.81 C-2.18 11.03 -3.98 11.24 -5.79 11.44 C-6.23 11.49 -6.23 11.49 -8.48 11.75 C-23.28 13.23 -40.51 12.5 -55 9 C-55 8.67 -55 8.34 -55 8 C-52.37 7.95 -49.76 7.96 -47.12 8.01 C-45.48 8.03 -43.84 8.04 -42.2 8.06 C-39.6 8.09 -36.99 8.13 -34.38 8.17 C-31.88 8.21 -29.38 8.24 -26.88 8.26 C-26.09 8.28 -25.3 8.3 -24.49 8.31 C-22.3 8.32 -22.3 8.32 -19 8 C-19 7.01 -19 6.02 -19 5 C-22 4.88 -22 4.88 -25 5 C-25 4.67 -25 4.34 -25 4 C-23.03 3.86 -21.06 3.8 -19.09 3.75 C-17.88 3.72 -16.66 3.69 -15.4 3.65 C-12.8 3.59 -10.2 3.54 -7.6 3.48 C-6.99 3.47 -6.99 3.47 -3.91 3.38 C-2.78 3.35 -1.64 3.33 -0.48 3.3 C0.34 3.2 1.16 3.1 2 3 C2 2.34 2 1.68 2 1 C1.34 0.67 0.68 0.34 0 0 Z " fill="#575857" transform="translate(285,364)"/>
<path d="M0 0 C0.54 0.41 1.07 0.82 1.62 1.25 C-0.18 11.22 -8.87 17.58 -16.62 23.44 C-20.85 26.29 -23.38 26.68 -28.38 26.25 C-28.38 27.24 -28.38 28.23 -28.38 29.25 C-29.69 29.25 -31.02 29.25 -32.38 29.25 C-32.7 29.91 -33.03 30.57 -33.38 31.25 C-34.03 30.59 -34.69 29.93 -35.38 29.25 C-33.69 27.31 -33.69 27.31 -31.38 25.25 C-30.95 24.79 -30.52 24.32 -30.08 23.85 C-27.85 21.76 -25.39 20.26 -22.81 18.62 C-15.91 14.08 -9.33 9.07 -4.24 2.5 C-2.38 0.25 -2.38 0.25 0 0 Z " fill="#0F110A" transform="translate(127.375,346.75)"/>
<path d="M0 0 C3 2 3 2 4 5 C4.09 6.34 4.13 7.68 4.13 9.02 C4.13 9.79 4.14 10.57 4.14 11.37 C4.13 12.18 4.13 12.98 4.12 13.81 C4.13 14.61 4.13 15.4 4.14 16.22 C4.13 19.8 3.99 23.04 3.37 26.57 C3.25 27.37 3.12 28.18 3 29 C3.66 29 4.32 29 5 29 C5.67 31.08 5.67 31.08 6.19 33.81 C6.37 34.71 6.55 35.6 6.73 36.52 C7 39 7 39 6 42 C6.66 42.33 7.32 42.66 8 43 C8 43.66 8 44.32 8 45 C7.34 45 6.68 45 6 45 C6 45.66 6 46.32 6 47 C5.34 47 4.68 47 4 47 C3.66 45.33 3.33 43.67 3 42 C2.34 41.67 1.68 41.34 1 41 C0.4 39.25 0.4 39.25 -0.06 37 C-0.22 36.28 -0.37 35.56 -0.54 34.81 C-1.76 27.41 -2.18 20.12 -2.19 12.62 C-2.2 11.74 -2.21 10.85 -2.22 9.93 C-2.23 9.08 -2.23 8.23 -2.23 7.35 C-2.23 6.59 -2.24 5.82 -2.24 5.03 C-2 3 -2 3 0 0 Z " fill="#130B09" transform="translate(401,222)"/>
<path d="M0 0 C0.99 0.33 1.98 0.66 3 1 C2.67 1.99 2.34 2.98 2 4 C2.99 4.33 3.98 4.66 5 5 C3.65 9.89 -1.16 12.7 -4.88 15.78 C-7 18 -7 18 -7 22 C-4.02 22 -2.68 20.74 -0.38 18.88 C0.41 18.26 1.19 17.64 2 17 C2.66 17.33 3.32 17.66 4 18 C2.75 19.56 2.75 19.56 1 21 C0.34 21 -0.32 21 -1 21 C-1 21.66 -1 22.32 -1 23 C-2.46 24.29 -2.46 24.29 -4.38 25.62 C-5 26.07 -5.63 26.52 -6.27 26.98 C-8 28 -8 28 -10 28 C-10 28.66 -10 29.32 -10 30 C-12 31 -12 31 -15.62 30.94 C-16.74 30.96 -17.85 30.98 -19 31 C-19 31.66 -19 32.32 -19 33 C-20.32 33 -21.64 33 -23 33 C-23.59 30.71 -23.59 30.71 -23 28 C-20.28 25.95 -17.42 24.52 -14.41 22.94 C-14.01 22.62 -14.01 22.62 -12 21 C-11.8 17.95 -11.8 17.95 -12 15 C-9.45 11.9 -7.82 10.27 -4 9 C-3.67 8.01 -3.34 7.02 -3 6 C-2.66 6.09 -2.66 6.09 -0.94 6.56 C-0.62 6.63 -0.62 6.63 1 7 C1 5.68 1 4.36 1 3 C0.34 3 -0.32 3 -1 3 C-0.67 2.01 -0.34 1.02 0 0 Z " fill="#5F7133" transform="translate(103,281)"/>
<path d="M0 0 C2.42 3.63 2.88 7.04 3.56 11.25 C3.69 11.99 3.81 12.73 3.94 13.49 C4.53 16.98 5.06 20.47 5.48 23.98 C5.65 24.98 5.82 25.97 6 27 C7.75 28 7.75 28 10 29 C14.86 34.66 16.09 39.3 16.38 46.69 C16.72 54.23 17.87 61.34 19.48 68.71 C20.26 73.62 20.26 73.62 19 76 C18.25 74.49 18.25 74.49 17.44 71.88 C17.17 71.03 16.9 70.18 16.62 69.3 C16 67 16 67 16 65 C15.34 65 14.68 65 14 65 C13.8 62.86 13.8 62.86 13.88 59.89 C13.89 58.83 13.91 57.76 13.92 56.66 C13.97 54.4 14.03 52.14 14.08 49.88 C14.09 48.81 14.11 47.74 14.12 46.64 C14.15 45.66 14.17 44.67 14.2 43.66 C13.99 40.93 13.62 39.21 12 37 C9.14 39.86 9.63 42.14 9.44 46.12 C9.32 48.42 9.19 50.71 9 53 C8.67 53 8.34 53 8 53 C7.83 49.89 7.7 46.79 7.66 43.68 C7.5 39.98 7.29 38.32 4.77 35.52 C4.19 35.02 3.6 34.52 3 34 C3.99 34 4.98 34 6 34 C6 33.34 6 32.68 6 32 C4.28 31.91 4.28 31.91 1.92 32.13 C1.09 32.19 0.26 32.26 -0.59 32.33 C-2.38 32.49 -4.17 32.65 -5.95 32.81 C-8.45 33 -8.45 33 -12 33 C-9.84 30.51 -8.03 30 -4.81 29.56 C-3.88 29.38 -2.96 29.19 -2 29 C-1.19 26.62 -1.19 26.62 -1 25 C-0.88 25.74 -0.75 26.49 -0.62 27.25 C-0.42 28.16 -0.21 29.06 0 30 C0.99 30 1.98 30 3 30 C2.67 29.01 2.34 28.02 2 27 C1.98 24.96 2.01 22.92 2.06 20.88 C2.11 15.94 1.69 11.65 0.45 6.89 C-0.11 4.55 -0.34 2.39 0 0 Z " fill="#5F5A57" transform="translate(390,186)"/>
<path d="M0 0 C0.66 0 1.32 0 2 0 C2 0.66 2 1.32 2 2 C2.76 1.67 3.53 1.34 4.31 1 C5.2 0.67 6.09 0.34 7 0 C7.99 0.66 8.98 1.32 10 2 C10.28 4.01 10.28 4.01 10.14 6.48 C10.1 7.39 10.06 8.3 10.01 9.24 C9.98 9.73 9.98 9.73 9.81 12.19 C9.76 13.17 9.7 14.16 9.64 15.18 C8.59 32.09 8.59 32.09 7 39 C6.67 39.17 6.67 39.17 5 40 C5.02 37.74 5.02 37.74 5.38 34.31 C5.59 31.54 5.8 28.77 6 26 C6.07 25.06 6.14 24.13 6.22 23.16 C7.06 11.03 7.06 11.03 6 6 C2.16 8.59 -0.06 13.12 -2.57 16.95 C-4.57 19.82 -6.8 22.12 -9.31 24.56 C-10.09 25.33 -10.87 26.09 -11.68 26.88 C-19.65 34.15 -19.65 34.15 -23 34 C-19.24 29.66 -14.69 25.99 -10.4 22.18 C-4.13 16.49 -4.13 16.49 -3.12 12.81 C-3.08 11.88 -3.04 10.96 -3 10 C-3.66 9.67 -4.32 9.34 -5 9 C-3.96 5.51 -2.42 2.72 0 0 Z " fill="#545652" transform="translate(131,338)"/>
<path d="M0 0 C1.09 1.81 1.09 1.81 1 4 C-5.84 10.16 -15.02 13 -24 13 C-25.69 13.96 -27.36 14.96 -29 16 C-30.32 16 -31.64 16 -33 16 C-33 15.34 -33 14.68 -33 14 C-33.66 14 -34.32 14 -35 14 C-35 13.34 -35 12.68 -35 12 C-35.66 11.67 -36.32 11.34 -37 11 C-34.91 10.39 -32.8 9.87 -30.69 9.38 C-23.72 7.66 -17.27 5.22 -10.73 2.29 C-3.67 -0.8 -3.67 -0.8 0 0 Z " fill="#10130A" transform="translate(79,312)"/>
<path d="M0 0 C-6.67 3.59 -14.35 5.5 -21.69 7.25 C-22.36 7.41 -23.04 7.58 -23.73 7.74 C-32.82 9.8 -41.89 10.16 -51.19 10.12 C-52.13 10.13 -53.08 10.13 -54.05 10.14 C-67.88 10.12 -67.88 10.12 -70 8 C-70.25 4.94 -70.25 4.94 -70 2 C-69.01 2 -68.02 2 -67 2 C-67.24 2.81 -67.48 3.63 -67.72 4.47 C-67.81 5.3 -67.91 6.14 -68 7 C-65.33 7.58 -65.33 7.58 -61.46 7.52 C-60.78 7.52 -60.1 7.51 -59.4 7.51 C-57.2 7.49 -55.01 7.43 -52.81 7.38 C-51.35 7.36 -49.88 7.34 -48.42 7.33 C-36.21 7.18 -36.21 7.18 -33 6 C-34.62 4.38 -36.46 4.8 -38.69 4.72 C-39.64 4.68 -40.58 4.64 -41.55 4.61 C-43.56 4.54 -45.57 4.46 -47.58 4.39 C-48.06 4.38 -48.06 4.38 -50.44 4.28 C-51.31 4.25 -52.19 4.22 -53.09 4.19 C-53.72 4.13 -54.35 4.06 -55 4 C-55 3.67 -55 3.34 -55 3 C-52.58 2.78 -50.18 2.62 -47.75 2.5 C-43.73 2.29 -39.91 2.02 -36 1 C-34.25 0.89 -32.5 0.83 -30.75 0.81 C-29.86 0.8 -28.97 0.78 -28.05 0.77 C-27.37 0.85 -26.7 0.92 -26 1 C-26 1.66 -26 2.32 -26 3 C-25.34 3 -24.68 3 -24 3 C-24 3.66 -24 4.32 -24 5 C-17.57 3.57 -17.57 3.57 -15 1 C-13 1 -11 1 -9 1 C-7.95 0.65 -6.9 0.3 -5.81 -0.06 C-3 -1 -3 -1 0 0 Z " fill="#575651" transform="translate(70,323)"/>
<path d="M0 0 C0.99 0 1.98 0 3 0 C3 1.32 3 2.64 3 4 C3.72 4.1 4.44 4.21 5.19 4.31 C8.72 5.18 9.97 6.84 11.93 9.83 C14.44 14.92 15 20.39 15 26 C15.99 26.33 16.98 26.66 18 27 C18.36 30.12 18.36 30.12 18.31 34 C18.31 35.28 18.3 36.56 18.3 37.88 C18.2 38.91 18.1 39.94 18 41 C17.67 41.17 17.67 41.17 16 42 C14.4 40.87 14.4 40.87 13 39 C12.66 36.72 12.66 36.72 12.62 34.06 C12.14 26.35 9.27 19.4 5 13 C4.32 11 3.66 9 3 7 C2.4 5.71 1.8 4.41 1.19 3.12 C0.99 2.61 0.99 2.61 0 0 Z " fill="#0F0907" transform="translate(493,360)"/>
<path d="M0 0 C-0.33 0.66 -0.66 1.32 -1 2 C-1.99 2 -2.98 2 -4 2 C-4.96 4.48 -4.96 4.48 -5 7 C-3.23 7.52 -3.23 7.52 -0.61 7.38 C0.33 7.35 1.26 7.32 2.23 7.29 C3.23 7.24 4.22 7.18 5.25 7.12 C7.19 7.03 9.13 6.95 11.08 6.88 C11.95 6.84 12.82 6.79 13.72 6.74 C16 7 16 7 18.18 8.44 C18.32 8.7 18.32 8.7 19 10 C12.74 11.78 5.84 11.3 -0.64 11.35 C-2.1 11.37 -3.55 11.39 -5.01 11.43 C-7.12 11.49 -9.22 11.51 -11.33 11.52 C-12.59 11.54 -13.84 11.56 -15.14 11.58 C-16.08 11.39 -17.03 11.2 -18 11 C-19.04 8.59 -19.04 8.59 -19 6 C-18.34 5.34 -17.68 4.68 -17 4 C-15 4 -13 4 -11 4 C-11 3.34 -11 2.68 -11 2 C-9.1 1.11 -9.1 1.11 -6.62 0.31 C-5.81 0.04 -5 -0.23 -4.16 -0.51 C-2 -1 -2 -1 0 0 Z " fill="#090907" transform="translate(20,320)"/>
<path d="M0 0 C2 2 2 2 2 5 C2.68 5.29 3.36 5.58 4.06 5.88 C4.7 6.25 5.34 6.62 6 7 C6 9.62 6 9.62 5 12 C3 12 1 12 -1 12 C-1.08 12.76 -1.16 13.53 -1.25 14.31 C-1.5 15.2 -1.75 16.09 -2 17 C-3.98 18.05 -5.97 19.05 -8 20 C-8 20.99 -8 21.98 -8 23 C-8.68 23.33 -9.36 23.66 -10.06 24 C-10.7 24.33 -11.34 24.66 -12 25 C-11.67 25.99 -11.34 26.98 -11 28 C-13.48 29.65 -14.97 29.88 -18 30 C-16.18 26.03 -13.53 22.55 -11 19 C-10.34 18.01 -9.68 17.02 -9 16 C-9.99 16 -10.98 16 -12 16 C-12 15.34 -12 14.68 -12 14 C-12.66 14 -13.32 14 -14 14 C-14 14.99 -14 15.98 -14 17 C-15.87 18.82 -17.66 19.78 -20 21 C-18.93 17.43 -17.17 14.54 -15.06 11.5 C-13.32 8.97 -11.71 6.49 -10.19 3.81 C-9.8 3.21 -9.4 2.62 -9 2 C-7.74 4.51 -7.79 6.22 -8 9 C-8.66 9.66 -9.32 10.32 -10 11 C-8.68 11 -7.36 11 -6 11 C-4.37 8.52 -4.37 8.52 -2.88 5.38 C-1.37 2.21 -1.37 2.21 0 0 Z " fill="#89A644" transform="translate(97,348)"/>
<path d="M0 0 C0.66 0 1.32 0 2 0 C2 0.66 2 1.32 2 2 C2.99 1.67 3.98 1.34 5 1 C7.94 2.81 7.94 2.81 10 5 C8.38 5.94 8.38 5.94 6 7 C5.06 9.75 5.06 9.75 5 12 C5.99 11.34 6.98 10.68 8 10 C10 9 10 9 12.53 9.68 C12.77 9.9 12.77 9.9 14 11 C11.88 12.63 9.91 13.82 7.56 15.06 C7.24 15.24 7.24 15.24 5.61 16.17 C2.15 18.07 -0.99 19.64 -5 20 C-3.4 17.54 -1.45 16.75 1.19 15.56 C1.65 15.3 1.65 15.3 4 14 C4 12.68 4 11.36 4 10 C2.23 10.09 2.23 10.09 -0.25 10.94 C-1.15 11.24 -2.06 11.55 -2.99 11.86 C-7.19 13.45 -11.32 15.19 -15.43 17.01 C-18 18 -18 18 -21 18 C-21 17.34 -21 16.68 -21 16 C-20.34 16 -19.68 16 -19 16 C-18.96 14 -18.96 12 -19 10 C-18.67 9.34 -18.34 8.68 -18 8 C-15.06 7.75 -15.06 7.75 -12 8 C-11.34 8.66 -10.68 9.32 -10 10 C-8.65 9.37 -7.32 8.7 -6 8 C-4.91 7.9 -3.81 7.79 -2.69 7.69 C-2.24 7.57 -2.24 7.57 0 7 C-0.19 4.56 -0.19 4.56 -1 2 C-0.67 1.34 -0.34 0.68 0 0 Z " fill="#93B24A" transform="translate(75,302)"/>
<path d="M0 0 C0.37 2.15 0.37 2.15 0 5 C-1.58 7.08 -3.08 8.78 -4.93 10.59 C-5.43 11.1 -5.93 11.61 -6.45 12.13 C-7.52 13.2 -8.59 14.26 -9.66 15.31 C-11.31 16.94 -12.94 18.59 -14.56 20.24 C-15.6 21.28 -16.64 22.31 -17.68 23.34 C-18.16 23.84 -18.65 24.34 -19.15 24.85 C-20.55 26.2 -20.55 26.2 -23 28 C-26 26 -26 26 -28 24 C-26.42 21.98 -26.42 21.98 -23.89 19.54 C-22.99 18.65 -22.09 17.77 -21.16 16.86 C-20.19 15.93 -19.22 14.99 -18.25 14.06 C-16.38 12.24 -14.51 10.42 -12.64 8.6 C-11.8 7.79 -10.96 6.98 -10.09 6.14 C-8 4 -8 4 -6 1 C-3.97 0.45 -2.11 0 0 0 Z " fill="#0D0E09" transform="translate(87,260)"/>
<path d="M0 0 C2.45 0.04 4.87 0.15 7.31 0.31 C7.98 0.35 8.65 0.38 9.35 0.42 C13.4 0.67 17.27 1.22 21.25 2.03 C27.42 3.2 33.43 3.3 39.69 3.25 C40.76 3.26 41.84 3.27 42.95 3.27 C47.64 3.26 51.98 3.17 56.52 1.92 C59.83 1.05 60.94 0.83 64 2 C64 2.66 64 3.32 64 4 C66.19 4.62 66.19 4.62 68 5 C67.01 5 66.02 5 65 5 C65.16 5.33 65.16 5.33 66 7 C69.98 8.15 73.88 8.13 78 8.12 C78.6 8.13 78.6 8.13 81.62 8.13 C84.55 8.02 87.15 7.59 90 7 C85.27 11.53 79.93 11.22 73.74 11.16 C68.91 10.88 64.93 9.42 60.55 7.43 C55.04 5.36 49.62 5.81 43.81 6 C29.17 6.26 14.15 5.13 0 1 C0 0.67 0 0.34 0 0 Z " fill="#838380" transform="translate(411,414)"/>
<path d="M0 0 C1.58 2.36 2.69 4.37 3.81 6.94 C4.16 7.73 4.51 8.52 4.86 9.34 C6.1 12.23 7.3 15.15 8.5 18.06 C9.98 21.66 11.54 25.16 13.31 28.62 C15 32 15 32 15 34 C13 34 13 34 10.88 32.31 C8.66 29.58 8.81 28.41 9 25 C8.34 25 7.68 25 7 25 C7.17 25.66 7.33 26.32 7.5 27 C7.67 27.66 7.83 28.32 8 29 C7.34 29 6.68 29 6 29 C5.67 29.66 5.34 30.32 5 31 C1.35 25.89 -0.14 19.93 -2 14 C-2.25 13.24 -2.51 12.48 -2.77 11.7 C-3.38 9.81 -3.38 9.81 -4 7 C-3.34 6.67 -2.68 6.34 -2 6 C-2 8 -2 10 -2 12 C-1.34 12 -0.68 12 0 12 C0 11.34 0 10.68 0 10 C0.66 10 1.32 10 2 10 C2 9.34 2 8.68 2 8 C1.01 7.67 0.02 7.34 -1 7 C-0.34 6.67 0.32 6.34 1 6 C0.69 4 0.36 1.99 0 0 Z " fill="#372F2D" transform="translate(407,257)"/>
<path d="M0 0 C3.25 0.42 3.25 0.42 6 2 C7.31 4.62 7.31 4.62 7 8 C5.41 10.23 3.69 12.13 1.76 14.07 C0 16 0 16 -1.02 18.22 C-1.18 18.51 -1.18 18.51 -2 20 C-6.36 20.48 -8.31 20.46 -12 18 C-11.48 16.34 -11.48 16.34 -10 14 C-9.83 13.72 -9.83 13.72 -8.98 12.33 C-7.78 10.4 -6.52 8.51 -5.25 6.62 C-5.04 6.29 -5.04 6.29 -3.98 4.61 C-2.7 2.73 -2.7 2.73 0 0 Z " fill="#51839E" transform="translate(282,133)"/>
<path d="M0 0 C0.35 0.07 0.35 0.07 2.15 0.43 C0.56 2.75 -0.78 4.58 -2.85 6.43 C-3.51 6.43 -4.17 6.43 -4.85 6.43 C-5.18 7.42 -5.51 8.41 -5.85 9.43 C-7.73 11.18 -7.73 11.18 -9.98 12.87 C-10.72 13.45 -11.47 14.02 -12.23 14.62 C-12.77 14.89 -13.3 15.16 -13.85 15.43 C-13.66 14.72 -13.48 14.01 -13.28 13.28 C-13.21 12.98 -13.21 12.98 -12.85 11.43 C-16.45 14.62 -19.45 18.26 -22.48 22 C-23.23 22.93 -23.99 23.85 -24.77 24.81 C-26.04 26.41 -27.28 28.04 -28.45 29.71 C-29.85 31.43 -29.85 31.43 -32.66 32.43 C-33.39 32.43 -34.11 32.43 -34.85 32.43 C-33.68 29.19 -31.76 27.15 -29.29 24.81 C-25.95 21.63 -25.95 21.63 -24.85 19.43 C-25.51 19.43 -26.17 19.43 -26.85 19.43 C-25.65 16.43 -23.87 13.86 -21.98 11.25 C-21.48 10.55 -20.99 9.86 -20.48 9.14 C-18.63 7.2 -17.54 6.54 -14.85 6.43 C-14.52 7.42 -14.19 8.41 -13.85 9.43 C-11.06 9.35 -10.02 8.61 -8.11 6.59 C-6.98 5.11 -5.85 3.63 -4.73 2.15 C-2.85 0.43 -2.85 0.43 0 0 Z " fill="#4B7E9A" transform="translate(235.8515625,127.56640625)"/>
<path d="M0 0 C0.99 0.33 1.98 0.66 3 1 C1.69 3.29 1.69 3.29 -0.44 6.06 C-1.67 7.68 -2.87 9.31 -4 11 C-3.34 11 -2.68 11 -2 11 C-3.19 14.24 -5.09 16.28 -7.56 18.62 C-10.9 21.81 -10.9 21.81 -12 24 C-11.67 23.92 -11.67 23.92 -10 23.5 C-9.67 23.42 -9.67 23.42 -8 23 C-8.33 23.66 -8.66 24.32 -9 25 C-11.44 25.12 -11.44 25.12 -14 25 C-14.66 25 -15.32 25 -16 25 C-16.24 25.34 -16.24 25.34 -17.44 27.06 C-17.95 27.7 -18.47 28.34 -19 29 C-19.99 28.67 -20.98 28.34 -22 28 C-20.09 19.01 -10.35 10.21 -4 4 C-3.34 4 -2.68 4 -2 4 C-1.69 3.32 -1.38 2.64 -1.06 1.94 C-0.89 1.62 -0.89 1.62 0 0 Z " fill="#2B4553" transform="translate(213,136)"/>
<path d="M0 0 C2.2 -0.14 2.2 -0.14 5.69 0.19 C6.26 0.24 6.26 0.24 9.14 0.48 C10.08 0.65 11.03 0.82 12 1 C12.33 1.66 12.66 2.32 13 3 C13.99 3.33 14.98 3.66 16 4 C15.63 3.36 15.25 2.72 14.87 2.05 C14.58 1.38 14.3 0.7 14 0 C16.1 -0.24 16.1 -0.24 19.06 0.12 C20.04 0.23 21.02 0.34 22.04 0.45 C22.36 0.54 22.36 0.54 24 1 C23.01 1.66 22.02 2.32 21 3 C21.33 3.99 21.66 4.98 22 6 C23.34 5.69 24.67 5.35 26 5 C26.99 5.66 27.98 6.32 29 7 C28.67 7.33 28.34 7.66 28 8 C37.82 11.85 48.39 11.51 58.75 11.62 C61.24 11.66 63.72 11.7 66.21 11.75 C67.75 11.77 69.28 11.8 70.82 11.81 C72.55 11.84 74.27 11.91 76 12 C76 12.33 76 12.66 76 13 C70.49 14.31 64.94 14.15 59.31 14.12 C58.32 14.12 57.33 14.12 56.31 14.11 C40.57 13.98 26.59 11.08 11.75 5.94 C11.04 5.69 10.32 5.45 9.58 5.19 C2.3 2.58 2.3 2.58 0 0 Z " fill="#656460" transform="translate(6,225)"/>
<path d="M0 0 C1 1.81 1 1.81 1 4 C-1.83 6.1 -3.37 6 -7 6 C-7.71 7.31 -8.38 8.65 -9 10 C-10.86 11.5 -10.86 11.5 -13.1 12.87 C-13.9 13.36 -14.7 13.85 -15.53 14.36 C-15.94 14.61 -15.94 14.61 -18.06 15.88 C-18.9 16.4 -19.74 16.92 -20.61 17.46 C-25.26 20.28 -25.26 20.28 -27 21 C-27.33 20.34 -27.66 19.68 -28 19 C-28.66 19 -29.32 19 -30 19 C-30 17.68 -30 16.36 -30 15 C-28 14.38 -28 14.38 -26 14 C-26 13.34 -26 12.68 -26 12 C-24.04 10.92 -22.03 9.94 -20 9 C-18.68 8.34 -17.37 7.67 -16.05 6.99 C-14.66 6.29 -13.27 5.58 -11.88 4.88 C-11.17 4.52 -10.47 4.16 -9.75 3.79 C-9.06 3.44 -8.38 3.1 -7.68 2.74 C-7.07 2.43 -6.46 2.12 -5.83 1.8 C-3.88 0.95 -2.11 0.32 0 0 Z " fill="#0B0D0E" transform="translate(212,98)"/>
<path d="M0 0 C3.69 1.38 3.69 1.38 6 3 C6 3.66 6 4.32 6 5 C6.95 4.83 7.9 4.67 8.88 4.5 C9.39 4.42 9.39 4.42 12 4 C12.66 4.66 13.32 5.32 14 6 C15.18 6.12 16.35 6.25 17.56 6.38 C18.7 6.58 19.83 6.79 21 7 C22.15 9.07 22.15 9.07 22 11 C19.51 11.05 17.44 10.84 15 10.44 C14.28 10.33 13.56 10.23 12.82 10.12 C-8.77 6.84 -8.77 6.84 -14 4 C-13.67 3.01 -13.34 2.02 -13 1 C-9.08 -0.96 -4.29 -0.35 0 0 Z " fill="#0C0F11" transform="translate(292,91)"/>
<path d="M0 0 C2.38 1 2.38 1 4 3 C4.66 6.56 4.63 9.74 3 13 C-0.26 14.63 -3.44 14.66 -7 14 C-9.69 11.81 -9.94 10.42 -10.44 7 C-10 4 -10 4 -8.38 1.62 C-5.31 -0.48 -3.65 -0.53 0 0 Z " fill="#EDECE9" transform="translate(262,190)"/>
<path d="M0 0 C4.17 3.1 4.17 3.1 6 5 C6 5.66 6 6.32 6 7 C6.66 7 7.32 7 8 7 C8 7.66 8 8.32 8 9 C8.66 9 9.32 9 10 9 C10 9.66 10 10.32 10 11 C10.66 11 11.32 11 12 11 C12 11.66 12 12.32 12 13 C12.66 13 13.32 13 14 13 C14 13.66 14 14.32 14 15 C15.31 15.71 16.65 16.37 18 17 C21.08 19.06 24.03 21.28 27 23.5 C27.83 24.09 28.65 24.69 29.5 25.3 C30.27 25.87 31.03 26.44 31.81 27.03 C32.52 27.55 33.23 28.07 33.96 28.61 C34.3 29.07 34.65 29.53 35 30 C33.26 31.3 33.26 31.3 31 32 C30.33 30.67 29.67 29.33 29 28 C28.26 28.06 27.51 28.12 26.75 28.19 C24 28 24 28 22.41 26.56 C20.07 23.81 18 21.01 16 18 C14.68 18 13.36 18 12 18 C11.83 18.72 11.65 19.45 11.47 20.2 C11.32 20.79 11.16 21.39 11 22 C9.37 20.93 9.37 20.93 7.44 18.88 C6.8 18.21 6.16 17.55 5.5 16.87 C4 15 4 15 4 13 C4.99 12.67 5.98 12.34 7 12 C6.34 11.34 5.68 10.68 5 10 C5.33 9.34 5.66 8.68 6 8 C5.01 8 4.02 8 3 8 C1.88 5.69 1.88 5.69 1 3 C0.67 2.01 0.34 1.02 0 0 Z " fill="#474341" transform="translate(435,309)"/>
<path d="M0 0 C1.02 -0 2.03 -0.01 3.08 -0.01 C13.06 0 13.06 0 17.44 1.12 C16.78 1.45 16.12 1.78 15.44 2.12 C15.44 2.78 15.44 3.44 15.44 4.12 C12.21 5.2 9.85 5.25 6.45 5.26 C5.27 5.26 4.09 5.26 2.87 5.26 C1.63 5.26 0.4 5.25 -0.88 5.25 C-1.49 5.25 -1.49 5.25 -4.58 5.26 C-5.18 5.26 -5.18 5.26 -8.18 5.26 C-9.26 5.26 -10.34 5.26 -11.45 5.25 C-14.6 5.12 -17.51 4.96 -20.56 4.12 C-18.56 1.12 -18.56 1.12 -15.66 0.45 C-10.46 -0.09 -5.22 -0.02 0 0 Z " fill="#070808" transform="translate(260.5625,88.875)"/>
<path d="M0 0 C0.99 0.33 1.98 0.66 3 1 C2.71 3.84 2.71 3.84 1.81 7.5 C1.66 8.14 1.66 8.14 0.89 11.36 C0.6 12.56 0.3 13.76 0 15 C-0.32 16.6 -0.63 18.21 -0.94 19.81 C-1.96 24.33 -3.26 29.22 -6 33 C-7.32 33 -8.64 33 -10 33 C-10.33 32.01 -10.66 31.02 -11 30 C-10.34 29.67 -9.68 29.34 -9 29 C-9.33 28.01 -9.66 27.02 -10 26 C-9.19 23.41 -8.32 20.95 -7.31 18.44 C-7.03 17.73 -6.76 17.01 -6.47 16.28 C-5.91 14.85 -5.35 13.43 -4.78 12 C-4.09 10.24 -3.45 8.47 -2.81 6.69 C-2.65 6.23 -2.65 6.23 -1.81 3.94 C-1.53 3.14 -1.25 2.35 -0.96 1.53 C-0.64 1.02 -0.33 0.52 0 0 Z " fill="#0E100B" transform="translate(106,311)"/>
<path d="M0 0 C2.94 0 2.94 0 5 1 C4.67 1.17 4.67 1.17 3 2 C2.57 3.51 2.21 5.03 1.88 6.56 C0.15 12.59 -2.85 16.43 -8 20 C-11.27 21.41 -13.38 21.82 -17 22 C-16.07 17.57 -13.39 15.13 -10.19 12.12 C-7.1 9.17 -4.45 6.43 -2.19 2.81 C-1.83 2.35 -1.83 2.35 0 0 Z " fill="#12140C" transform="translate(163,372)"/>
<path d="M0 0 C0 0.66 0 1.32 0 2 C-1.67 3.04 -1.67 3.04 -3.75 4.06 C-4.82 4.7 -5.89 5.34 -7 6 C-4.58 7.65 -2.24 6.86 0.5 6.38 C1.33 6.25 2.15 6.13 3 6 C-0.2 8.79 -3.91 10.69 -7.62 12.69 C-8.2 13 -8.2 13 -11.1 14.57 C-14 16 -14 16 -16 16 C-16.66 15.01 -17.32 14.02 -18 13 C-21.62 13.19 -21.62 13.19 -25 14 C-25 14.66 -25 15.32 -25 16 C-28.06 16.25 -28.06 16.25 -31 16 C-29.72 13.44 -28.65 13.19 -26.06 12.01 C-25.25 11.63 -24.44 11.26 -23.6 10.87 C-23.17 10.67 -23.17 10.67 -21 9.69 C-15.12 6.99 -9.4 4.19 -3.81 0.93 C-2 0 -2 0 0 0 Z " fill="#4C4D48" transform="translate(97,180)"/>
<path d="M0 0 C2.69 -0.31 2.69 -0.31 6 0 C7.56 1.62 7.56 1.62 9 4 C13.34 9.83 13.34 9.83 16.62 10.69 C17.41 10.79 18.19 10.89 19 11 C20.62 12.5 20.62 12.5 22 14 C22.99 14.33 23.98 14.66 25 15 C25.99 15.66 26.98 16.32 28 17 C28 17.66 28 18.32 28 19 C27.34 19 26.68 19 26 19 C26 19.66 26 20.32 26 21 C21.15 20.82 17.76 18.03 14 15.25 C13.4 14.82 12.79 14.39 12.17 13.95 C8.46 11.25 4.99 8.51 2 5 C2 3.68 2 2.36 2 1 C1.34 0.67 0.68 0.34 0 0 Z " fill="#160A08" transform="translate(445,326)"/>
<path d="M0 0 C-3 2 -3 2 -6.62 2.44 C-7.18 2.53 -7.18 2.53 -10 3 C-10.33 3.99 -10.66 4.98 -11 6 C-11.99 5.67 -12.98 5.34 -14 5 C-13.67 5.99 -13.34 6.98 -13 8 C-11 8.94 -11 8.94 -9 9 C-8.84 8.34 -8.67 7.68 -8.5 7 C-8.34 6.34 -8.17 5.68 -8 5 C-6.19 5.31 -6.19 5.31 -4 6 C-3.65 5.91 -3.65 5.91 -1.88 5.44 C-1.26 5.29 -0.64 5.15 0 5 C0.66 5.66 1.32 6.32 2 7 C1.67 7.33 1.34 7.66 1 8 C2.2 8.31 3.39 8.62 4.62 8.94 C5.74 9.29 6.85 9.64 8 10 C7.01 10.66 6.02 11.32 5 12 C5.33 12.99 5.66 13.98 6 15 C4.06 14.81 4.06 14.81 2 14 C2 13.34 2 12.68 2 12 C1.24 12.19 0.47 12.37 -0.31 12.56 C-5.57 13.19 -10.24 12.37 -15 10 C-16.56 6.44 -16.56 6.44 -16 3 C-13.31 1.62 -13.31 1.62 -10 1 C-9.34 0.79 -8.68 0.59 -8 0.38 C-5.29 -0.13 -2.74 -0.2 0 0 Z " fill="#353530" transform="translate(16,214)"/>
<path d="M0 0 C5.14 1.2 9.29 3.77 13.69 6.56 C14.39 7 15.09 7.45 15.81 7.9 C21.95 11.84 27.49 16.22 33 21 C33.64 21.51 34.28 22.02 34.95 22.54 C39.99 26.58 44.62 31.48 48 37 C45 37 45 37 42 35 C42 34.34 42 33.68 42 33 C41.69 32.77 41.69 32.77 40.12 31.62 C38 30 38 30 37.12 28.1 C35.77 25.57 34.31 24.47 32 22.81 C31.65 22.56 31.65 22.56 29.88 21.27 C28 20 28 20 26 19 C26.33 19.76 26.66 20.53 27 21.31 C27.33 22.2 27.66 23.09 28 24 C27.34 24.66 26.68 25.32 26 26 C24.25 25 24.25 25 23 23 C23.45 22.03 23.91 21.06 24.38 20.06 C24.48 19.56 24.48 19.56 25 17 C22.77 15.55 20.55 14.73 18.04 13.86 C17.37 13.58 16.69 13.29 16 13 C16 12.34 16 11.68 16 11 C15.34 11 14.68 11 14 11 C13.59 10.53 13.18 10.05 12.75 9.56 C11 8 11 8 7.88 7.5 C6.93 7.33 5.98 7.17 5 7 C4.67 6.01 4.34 5.02 4 4 C2.67 3.32 1.34 2.65 0 2 C0 1.34 0 0.68 0 0 Z " fill="#676865" transform="translate(318,99)"/>
<path d="M0 0 C0 3 0 3 -1.78 5.08 C-2.58 5.87 -3.39 6.65 -4.23 7.45 C-4.66 7.87 -4.66 7.87 -6.85 10.02 C-7.31 10.46 -7.31 10.46 -9.62 12.69 C-11.43 14.44 -13.24 16.19 -15.04 17.95 C-15.85 18.73 -16.65 19.5 -17.48 20.3 C-17.98 20.86 -18.48 21.42 -19 22 C-18.34 22 -17.68 22 -17 22 C-16.14 24.25 -16.14 24.25 -16 27 C-17.58 29.12 -17.58 29.12 -19.81 31 C-20.54 31.64 -21.27 32.28 -22.02 32.94 C-22.67 33.29 -23.33 33.64 -24 34 C-26 31 -26 31 -26 29 C-26.62 29.47 -27.24 29.95 -27.88 30.44 C-28.58 30.95 -29.28 31.47 -30 32 C-30.66 31.67 -31.32 31.34 -32 31 C-30.29 28.96 -30.29 28.96 -27.62 26.38 C-26.68 25.46 -25.74 24.54 -24.77 23.6 C-22.03 21.03 -19.23 18.58 -16.36 16.15 C-14.3 14.27 -12.34 12.34 -10.39 10.35 C-9.75 9.7 -9.11 9.05 -8.45 8.38 C-7.15 7.04 -5.86 5.7 -4.57 4.36 C-3.1 2.85 -1.56 1.41 0 0 Z " fill="#494943" transform="translate(79,262)"/>
<path d="M0 0 C0 3 0 3 -2.34 5.38 C-3.39 6.3 -4.44 7.22 -5.5 8.12 C-16.18 17.61 -16.18 17.61 -20 23 C-20 23.99 -20 24.98 -20 26 C-18.98 25.02 -17.98 24.02 -17 23 C-16.34 23 -15.68 23 -15 23 C-15.21 27.71 -17.75 30.94 -20.5 34.56 C-20.92 35.15 -21.33 35.73 -21.76 36.33 C-22.97 37.94 -22.97 37.94 -25 40 C-25.91 38.34 -25.91 38.34 -26 36 C-25.34 36 -24.68 36 -24 36 C-23.84 35.34 -23.67 34.68 -23.5 34 C-23.34 33.34 -23.17 32.68 -23 32 C-22.34 32 -21.68 32 -21 32 C-20.88 29.12 -20.88 29.12 -22 27 C-24.99 28.54 -27.46 30.81 -30 33 C-31.63 34.38 -33.28 35.74 -35 37 C-35.66 36.67 -36.32 36.34 -37 36 C-35.66 34.55 -35.66 34.55 -33.5 32.75 C-32.75 32.11 -32 31.48 -31.22 30.82 C-29.48 29.4 -27.71 28 -25.94 26.62 C-23.47 24.42 -21.77 22.49 -19.81 19.88 C-14.34 12.6 -7.52 5.17 0 0 Z " fill="#5D5F5F" transform="translate(173,118)"/>
<path d="M0 0 C2.06 -0.25 2.06 -0.25 4 1 C3.72 2.68 3.39 4.35 3 6 C3.99 5.67 4.98 5.34 6 5 C8.56 7.31 8.56 7.31 11 10 C11.66 10.66 12.32 11.32 13 12 C13 13.32 13 14.64 13 16 C13.99 16 14.98 16 16 16 C16 16.66 16 17.32 16 18 C16.99 18.66 17.98 19.32 19 20 C16.51 21.45 16.51 21.45 13 22 C10.33 19.93 10.33 19.93 7.81 16.88 C6.97 15.88 6.13 14.89 5.27 13.87 C4.52 12.92 3.77 11.97 3 11 C2.71 10.65 2.71 10.65 1.23 8.87 C-0.71 5.91 -0.47 3.41 0 0 Z " fill="#120A08" transform="translate(425,301)"/>
<path d="M0 0 C0.33 0 0.66 0 1 0 C0.93 1.63 0.79 3.25 0.62 4.88 C0.53 5.78 0.44 6.68 0.35 7.62 C0 10 0 10 -1 12 C-1.12 14 -1.18 16 -1.19 18 C-1.19 18.54 -1.19 18.54 -1.23 21.25 C-1 24 -1 24 1 26 C1.99 25.67 2.98 25.34 4 25 C4 23.68 4 22.36 4 21 C4.66 21 5.32 21 6 21 C6 21.66 6 22.32 6 23 C6.66 23.33 7.32 23.66 8 24 C6.18 25.63 6.18 25.63 3.44 27.56 C2.55 28.2 1.66 28.84 0.75 29.5 C-2.21 31.11 -3.71 31.76 -7 31 C-8.45 28.8 -8.45 28.8 -9 26 C-8.24 23.63 -8.24 23.63 -6.88 21.12 C-4.2 15.78 -2.65 10.55 -1.26 4.78 C-0.87 3.18 -0.44 1.59 0 0 Z " fill="#696866" transform="translate(135,379)"/>
<path d="M0 0 C0.91 2.71 0.91 2.71 1 6 C-0.88 8.41 -0.88 8.41 -3.56 10.62 C-4.02 11 -4.02 11 -6.35 12.93 C-6.79 13.27 -6.79 13.27 -9 15 C-9.64 15.53 -10.28 16.06 -10.93 16.61 C-12.5 17.81 -12.5 17.81 -15 19 C-16.5 17.5 -16.5 17.5 -17 15 C-16.44 12.81 -16.44 12.81 -15 11 C-14.17 10.86 -13.35 10.71 -12.5 10.56 C-11.67 10.38 -10.85 10.19 -10 10 C-9.31 8.34 -8.65 6.67 -8 5 C-3.22 0 -3.22 0 0 0 Z " fill="#11130B" transform="translate(53,291)"/>
<path d="M0 0 C3.77 3.81 5.81 8.39 8 13.19 C8.35 13.94 8.7 14.7 9.05 15.47 C16.84 32.46 16.84 32.46 17 38 C15.56 36.62 15.56 36.62 14 34 C14 32.68 14 31.36 14 30 C13.01 30 12.02 30 11 30 C10.12 27.66 10.12 27.66 9.44 24.62 C8.2 19.2 8.2 19.2 6 17 C5.76 17.37 5.76 17.37 4.56 19.25 C4.05 19.83 3.53 20.41 3 21 C1.3 18.36 0 16.2 0 13 C0.99 13 1.98 13 3 13 C2.81 10.56 2.81 10.56 2 8 C1.34 7.67 0.68 7.34 0 7 C-0.38 3.12 -0.38 3.12 0 0 Z " fill="#565856" transform="translate(373,147)"/>
<path d="M0 0 C3.75 0.25 3.75 0.25 7 1 C4.36 3.14 2.39 3 -1 3 C-1 3.66 -1 4.32 -1 5 C1.45 5.78 1.45 5.78 4.69 6.5 C12.78 8.32 12.78 8.32 16 10 C13.02 11.12 10.96 10.97 7.94 10.14 C7.54 10.04 7.54 10.04 5.55 9.51 C4.71 9.28 3.87 9.05 3 8.81 C-5.25 6.63 -13.51 4.82 -21.9 3.26 C-23.94 2.87 -25.97 2.44 -28 2 C-28 1.67 -28 1.34 -28 1 C-25.24 1.07 -22.51 1.2 -19.75 1.38 C-18.97 1.42 -18.2 1.46 -17.39 1.51 C-11.44 1.87 -11.44 1.87 -8.74 2.65 C-8.46 2.71 -8.46 2.71 -7 3 C-7 2.34 -7 1.68 -7 1 C-4.67 1.33 -2.33 1.67 0 2 C0 1.34 0 0.68 0 0 Z " fill="#696662" transform="translate(395,403)"/>
<path d="M0 0 C-1 2 -1 2 -3.19 3.62 C-3.79 4.08 -4.38 4.53 -5 5 C-4.34 5 -3.68 5 -3 5 C-1.68 5 -0.36 5 1 5 C1 4.01 1 3.02 1 2 C2.97 1.42 2.97 1.42 5.5 1.19 C6.34 1.1 7.17 1.01 8.03 0.92 C8.68 0.95 9.33 0.97 10 1 C10 1.66 10 2.32 10 3 C8.34 4.04 8.34 4.04 6.02 5.13 C5.6 5.33 5.6 5.33 3.49 6.33 C3.05 6.53 3.05 6.53 0.81 7.56 C-0.05 7.97 -0.92 8.39 -1.81 8.81 C-9.63 12.47 -9.63 12.47 -14 13 C-12.65 10.61 -11.47 9.23 -9 8 C-9.66 7.34 -10.32 6.68 -11 6 C-11.99 6 -12.98 6 -14 6 C-14.33 6.66 -14.66 7.32 -15 8 C-15.66 7.34 -16.32 6.68 -17 6 C-14.77 4.78 -12.66 3.82 -10.31 2.88 C-9.99 2.74 -9.99 2.74 -8.34 2.04 C-5.41 0.82 -3.2 0 0 0 Z " fill="#4A4C43" transform="translate(98,371)"/>
<path d="M0 0 C0.76 0.25 1.53 0.5 2.31 0.75 C2.31 1.41 2.31 2.07 2.31 2.75 C1.65 2.75 0.99 2.75 0.31 2.75 C0.15 3.91 -0.02 5.06 -0.19 6.25 C-0.35 7.41 -0.52 8.56 -0.69 9.75 C-1.35 9.75 -2.01 9.75 -2.69 9.75 C-2.17 10.35 -1.66 10.95 -1.12 11.56 C-0.65 12.28 -0.18 13.01 0.31 13.75 C-0.94 15.75 -0.94 15.75 -2.69 16.75 C-2.81 16.13 -2.94 15.51 -3.06 14.88 C-3.27 14.17 -3.47 13.47 -3.69 12.75 C-5.36 13.06 -7.03 13.39 -8.69 13.75 C-7.91 10.85 -6.19 9.21 -4.15 7.03 C-3.67 6.28 -3.19 5.52 -2.69 4.75 C-5.19 4.9 -7.27 5.33 -9.69 5.94 C-13.76 6.9 -17.47 7.75 -21.69 7.75 C-21.69 7.09 -21.69 6.43 -21.69 5.75 C-20.55 5.61 -19.42 5.46 -18.25 5.31 C-17.66 5.22 -17.66 5.22 -14.69 4.75 C-14.36 3.76 -14.03 2.77 -13.69 1.75 C-11.69 1.72 -9.69 1.7 -7.7 1.84 C-4.44 1.69 -3.43 -0.32 0 0 Z " fill="#535350" transform="translate(104.6875,230.25)"/>
<path d="M0 0 C0.66 0.66 1.32 1.32 2 2 C0.18 3.22 0.18 3.22 -2.56 4.5 C-3.45 4.92 -4.34 5.35 -5.25 5.78 C-13.98 9.65 -13.98 9.65 -18 9 C-19.5 7 -19.5 7 -20 5 C-19.01 5 -18.02 5 -17 5 C-17 4.34 -17 3.68 -17 3 C-11.31 0.21 -6.33 -1.88 0 0 Z " fill="#0D0F09" transform="translate(58,204)"/>
<path d="M0 0 C0.41 0.23 0.41 0.23 2.5 1.38 C-0.39 5.94 -6 8.71 -11.11 10.07 C-17.47 11.38 -17.47 11.38 -20.5 11.38 C-20 9.5 -20 9.5 -18.5 7.38 C-16.52 6.66 -14.52 5.99 -12.5 5.38 C-12.5 4.72 -12.5 4.06 -12.5 3.38 C-10.86 2.65 -9.19 1.99 -7.5 1.38 C-6.86 0.96 -6.22 0.55 -5.56 0.12 C-3.5 -0.62 -3.5 -0.62 0 0 Z " fill="#0C0E09" transform="translate(109.5,176.625)"/>
<path d="M0 0 C0 3.54 -0.69 4.27 -2.81 7 C-3.07 7.34 -3.07 7.34 -4.39 9.06 C-6 11 -6 11 -7.87 12.67 C-8.24 13.11 -8.62 13.55 -9 14 C-6.25 15.31 -6.25 15.31 -3 16 C-2.67 15.34 -2.34 14.68 -2 14 C-1.01 14.33 -0.02 14.66 1 15 C1 14.34 1 13.68 1 13 C3.79 12.93 6.24 13.47 9 14 C6.5 16.5 4.67 16.78 1.25 17.62 C0.74 17.76 0.74 17.76 -1.86 18.41 C-5.02 19 -7.79 19.25 -11 19 C-13 17 -13 17 -13 14.78 C-11.56 10.77 -8.97 8.42 -5.94 5.5 C-5.37 4.93 -4.8 4.35 -4.22 3.76 C-2.59 2.16 -2.59 2.16 0 0 Z " fill="#6B6968" transform="translate(75,370)"/>
<path d="M0 0 C0 3.65 -0.78 4.3 -3.06 7.06 C-5.79 10.4 -8.11 13.78 -10.38 17.44 C-12.94 21.21 -14.9 22.85 -19.31 24.12 C-20.53 24.08 -21.75 24.04 -23 24 C-20.13 17.46 -13.24 12.09 -8.12 7.31 C-7.34 6.56 -6.56 5.81 -5.75 5.03 C-5.38 4.69 -5.38 4.69 -3.51 2.93 C-3.17 2.61 -3.17 2.61 -1.47 1 C-1.22 0.84 -1.22 0.84 0 0 Z " fill="#63A2C4" transform="translate(238,131)"/>
<path d="M0 0 C0 4.2 -2.24 6.55 -4.62 9.81 C-5.05 10.42 -5.48 11.02 -5.92 11.64 C-8.94 15.84 -12.18 19.5 -16 23 C-16.66 23 -17.32 23 -18 23 C-18 23.66 -18 24.32 -18 25 C-19.9 26.73 -19.9 26.73 -22.38 28.62 C-22.78 28.94 -22.78 28.94 -24.84 30.54 C-27 32 -27 32 -29 32 C-29 31.34 -29 30.68 -29 30 C-28.01 29.34 -27.02 28.68 -26 28 C-26.35 27.01 -26.7 26.02 -27.06 25 C-27.37 24.01 -27.68 23.02 -28 22 C-26 20.38 -26 20.38 -24 20 C-24.38 20.68 -24.76 21.36 -25.15 22.05 C-25.43 22.7 -25.71 23.34 -26 24 C-19.24 23.21 -14.35 18.91 -10.18 13.9 C-9 12 -9 12 -9 9 C-8.34 9 -7.68 9 -7 9 C-6.88 8.18 -6.75 7.35 -6.62 6.5 C-6.52 6.09 -6.52 6.09 -6 4 C-4.68 4 -3.36 4 -2 4 C-0.75 1.81 -0.75 1.81 0 0 Z " fill="#6C6C6A" transform="translate(172,370)"/>
<path d="M0 0 C0.66 0.33 1.32 0.66 2 1 C0.44 4 0.44 4 -2 7 C-2.89 7.17 -3.77 7.33 -4.69 7.5 C-5.45 7.67 -6.21 7.83 -7 8 C-7.88 11.11 -8 13.78 -8 17 C-10.44 18.94 -10.44 18.94 -13 20 C-13.56 18.12 -13.56 18.12 -14 16 C-15.81 16 -15.81 16 -18 17 C-18.7 17.7 -19.4 18.4 -20.12 19.12 C-20.74 19.74 -21.36 20.36 -22 21 C-22.66 20.67 -23.32 20.34 -24 20 C-24 19.34 -24 18.68 -24 18 C-21.63 16.32 -19.26 14.74 -16.81 13.19 C-12.01 10.15 -7.92 7.18 -4 3 C-1.81 1.12 -1.81 1.12 0 0 Z " fill="#52534F" transform="translate(45,294)"/>
<path d="M0 0 C0 1.32 0 2.64 0 4 C0.66 4 1.32 4 2 4 C2 5.32 2 6.64 2 8 C2.66 8.33 3.32 8.66 4 9 C4.56 12.06 4.56 12.06 4 15 C0.38 15.62 0.38 15.62 -3 15 C-2.31 13 -2.31 13 -1 11 C-1.66 11 -2.32 11 -3 11 C-3 10.34 -3 9.68 -3 9 C-3.99 9.33 -4.98 9.66 -6 10 C-8.41 8.79 -8.41 8.79 -10 7 C-8.71 5.18 -8.71 5.18 -6.38 3.31 C-6 3 -6 3 -4.09 1.43 C-2 0 -2 0 0 0 Z " fill="#2E4D5D" transform="translate(305,152)"/>
<path d="M0 0 C3.75 0.06 3.75 0.06 7 1 C5.98 5.33 1.74 8.23 -1.44 11.06 C-2.6 12.12 -3.77 13.17 -4.93 14.22 C-5.45 14.68 -5.97 15.15 -6.5 15.62 C-8 17 -8 17 -9.57 18.74 C-10.04 19.15 -10.51 19.57 -11 20 C-11.66 19.67 -12.32 19.34 -13 19 C-12.25 17.47 -12.25 17.47 -10.86 15.51 C-10.37 14.8 -9.87 14.1 -9.36 13.37 C-8.83 12.63 -8.3 11.89 -7.75 11.12 C-7.23 10.39 -6.72 9.66 -6.18 8.9 C-5.22 7.53 -4.24 6.16 -3.27 4.79 C-2.15 3.21 -1.07 1.61 0 0 Z " fill="#67A9CF" transform="translate(259,126)"/>
</svg>
