<?xml version="1.0" encoding="UTF-8"?>
<!-- Generator: visioncortex VTracer 0.6.5 -->
<svg version="1.1" xmlns="http://www.w3.org/2000/svg" width="769" height="769">
<path d="M0,0 L34,0 L56,3 L80,9 L99,16 L118,25 L139,39 L150,48 L162,59 L169,67 L179,80 L188,94 L200,117 L208,138 L214,161 L217,178 L218,190 L224,192 L231,200 L233,206 L234,213 L235,232 L239,256 L245,276 L253,294 L262,310 L272,324 L281,335 L295,350 L307,361 L327,376 L347,389 L361,399 L371,408 L379,417 L387,430 L392,442 L394,450 L394,470 L391,483 L386,492 L379,499 L371,503 L364,505 L350,505 L340,502 L327,497 L286,497 L257,493 L208,481 L156,471 L131,463 L115,456 L94,445 L76,433 L69,428 L52,430 L37,431 L12,431 L-13,429 L-45,424 L-73,417 L-92,410 L-104,405 L-107,405 L-110,414 L-119,430 L-131,446 L-143,458 L-145,458 L-145,460 L-162,473 L-177,483 L-182,482 L-184,477 L-177,460 L-172,443 L-169,427 L-168,416 L-167,381 L-172,386 L-185,404 L-193,411 L-200,418 L-214,428 L-237,440 L-256,447 L-271,451 L-278,451 L-281,448 L-280,443 L-270,434 L-260,423 L-251,410 L-241,393 L-230,370 L-222,348 L-214,321 L-212,314 L-223,323 L-240,336 L-258,346 L-278,355 L-301,362 L-316,365 L-331,367 L-362,367 L-371,366 L-375,363 L-374,357 L-366,352 L-349,343 L-332,331 L-319,321 L-306,310 L-295,301 L-278,285 L-255,262 L-248,254 L-238,243 L-229,232 L-221,223 L-217,217 L-231,221 L-245,224 L-263,226 L-293,226 L-314,223 L-334,218 L-354,211 L-372,203 L-375,199 L-373,194 L-364,192 L-341,187 L-315,179 L-281,165 L-265,157 L-235,142 L-208,126 L-184,110 L-165,96 L-152,85 L-143,75 L-136,67 L-121,52 L-107,41 L-89,29 L-66,17 L-45,9 L-26,4 L-10,1 Z " fill="#8E5A32" transform="translate(375,132)"/>
<path d="M0,0 L27,0 L51,3 L72,8 L94,16 L114,26 L129,36 L140,45 L150,54 L150,56 L152,56 L159,64 L169,77 L181,97 L190,116 L199,143 L204,169 L205,180 L191,186 L180,191 L165,191 L148,184 L125,174 L120,173 L112,173 L102,176 L93,182 L87,190 L84,200 L83,240 L81,254 L76,270 L68,285 L57,298 L45,310 L37,317 L28,326 L21,337 L18,345 L17,359 L20,373 L25,383 L34,393 L44,401 L53,407 L53,409 L46,410 L20,411 L-16,409 L-47,404 L-70,398 L-88,392 L-106,384 L-124,374 L-138,364 L-151,352 L-158,345 L-171,328 L-179,314 L-186,299 L-192,278 L-196,253 L-197,228 L-196,209 L-193,188 L-187,163 L-179,139 L-167,113 L-157,96 L-147,82 L-138,71 L-127,59 L-118,50 L-104,39 L-94,32 L-80,24 L-64,16 L-43,8 L-18,2 Z " fill="#6ABBE3" transform="translate(378,142)"/>
<path d="M0,0 L17,0 L33,4 L45,11 L55,20 L63,29 L70,43 L73,54 L74,67 L72,82 L67,95 L61,105 L52,115 L41,123 L28,129 L20,131 L-4,131 L-17,127 L-30,120 L-42,109 L-49,99 L-54,88 L-57,77 L-57,55 L-52,39 L-46,28 L-37,18 L-29,11 L-19,5 L-6,1 Z " fill="#8F5931" transform="translate(365,245)"/>
<path d="M0,0 L30,0 L47,4 L63,11 L74,18 L82,24 L89,32 L97,42 L103,52 L108,67 L110,77 L110,96 L108,98 L103,98 L101,96 L99,89 L96,86 L96,84 L94,84 L94,82 L90,80 L80,72 L63,63 L43,57 L32,55 L12,54 L-11,56 L-36,61 L-60,69 L-79,78 L-88,84 L-93,83 L-94,82 L-94,75 L-89,63 L-83,52 L-74,40 L-60,26 L-46,16 L-30,8 L-15,3 Z " fill="#8E5931" transform="translate(366,180)"/>
<path d="M0,0 L15,0 L27,4 L37,11 L46,21 L51,32 L52,37 L52,55 L48,67 L41,76 L33,84 L23,89 L15,91 L-2,91 L-13,87 L-22,81 L-27,77 L-34,67 L-38,56 L-39,50 L-39,42 L-36,30 L-30,19 L-22,10 L-12,4 L-4,1 Z " fill="#8F5931" transform="translate(366,265)"/>
<path d="M0,0 L15,0 L27,4 L37,11 L46,21 L51,32 L52,37 L52,55 L48,67 L41,76 L33,84 L23,89 L15,91 L-2,91 L-13,87 L-22,81 L-27,77 L-34,67 L-38,56 L-39,50 L-39,42 L-36,30 L-30,19 L-22,10 L-12,4 L-4,1 Z M8,9 L-3,11 L-13,17 L-18,22 L-24,31 L-26,37 L-27,46 L-25,57 L-20,66 L-14,73 L-4,79 L3,81 L13,81 L23,78 L32,72 L40,63 L44,52 L44,37 L41,28 L32,18 L23,12 L11,9 Z " fill="#6ABBE3" transform="translate(366,265)"/>
<path d="M0,0 L8,2 L12,7 L12,16 L8,21 L6,22 L-3,22 L-8,18 L-9,16 L-9,7 L-5,2 Z " fill="#6ABBE3" transform="translate(388,285)"/>
<path d="M0,0 L9,1 L11,3 L-2,15 L-13,26 L-19,31 L-21,30 L-13,18 Z " fill="#6ABBE3" transform="translate(390,189)"/>
<path d="M0,0 L0,3 L-11,18 L-20,31 L-33,34 L-27,26 L-6,5 Z " fill="#6ABBE3" transform="translate(356,199)"/>
<path d="M0,0 L11,0 L5,7 L-3,15 L-11,22 L-21,32 L-21,29 L-13,17 Z " fill="#6ABBE3" transform="translate(370,189)"/>
<path d="M0,0 L8,2 L10,4 L-1,14 L-9,21 L-16,28 L-18,28 L-18,30 L-20,29 L-10,13 Z " fill="#6ABBE3" transform="translate(408,193)"/>
<path d="M0,0 L6,2 L8,6 L5,7 L4,10 L-4,17 L-14,26 L-18,26 L-16,22 L-2,3 Z " fill="#6ABBE3" transform="translate(424,200)"/>
<path d="M0,0 L0,3 L-13,23 L-16,27 L-29,29 L-26,24 L-18,17 L-7,6 Z " fill="#6ABBE3" transform="translate(377,198)"/>
<path d="M0,0 L0,3 L-12,22 L-23,22 L-17,15 L-5,4 Z " fill="#6ABBE3" transform="translate(395,202)"/>
<path d="M0,0 L5,5 L3,9 L-14,22 L-14,19 L-2,2 Z " fill="#6ABBE3" transform="translate(439,209)"/>
<path d="M0,0 L0,3 L-16,24 L-20,28 L-27,30 L-24,25 L-15,16 L-8,8 Z " fill="#6ABBE3" transform="translate(329,210)"/>
<path d="M0,0 L1,2 L-9,16 L-14,22 L-20,22 L-22,20 L-7,6 Z " fill="#6ABBE3" transform="translate(415,203)"/>
<path d="M0,0 L5,0 L0,5 L-22,27 L-24,26 L-13,13 L-4,1 Z " fill="#6ABBE3" transform="translate(353,192)"/>
<path d="M0,0 L2,1 L-8,15 L-15,24 L-20,30 L-23,31 L-21,25 L-12,13 L-8,8 L-3,3 Z " fill="#6ABBE3" transform="translate(310,215)"/>
<path d="M0,0 L2,0 L6,6 L5,9 L-5,17 L-9,16 L-7,11 Z " fill="#6ABBE3" transform="translate(450,222)"/>
<path d="M0,0 L1,2 L-6,13 L-10,17 L-17,14 L-12,9 L-2,1 Z " fill="#6ABBE3" transform="translate(446,219)"/>
<path d="M0,0 L2,0 L0,5 L-9,17 L-16,16 L-10,9 Z " fill="#6ABBE3" transform="translate(429,212)"/>
<path d="M0,0 L2,1 L-9,13 L-12,15 L-10,11 L-4,3 Z " fill="#6ABBE3" transform="translate(330,201)"/>
<path d="M0,0 L2,0 L3,7 L-1,8 L-3,6 L-2,2 Z " fill="#6ABBE3" transform="translate(461,243)"/>
<path d="M0,0 L0,3 L-3,8 L-6,7 L-4,3 Z " fill="#6ABBE3" transform="translate(454,235)"/>
<path d="M0,0 L2,3 L-3,7 L-2,3 Z " fill="#6ABBE3" transform="translate(459,236)"/>
</svg>
